ISO-10303-21;
HEADER;
FILE_DESCRIPTION(('STEP AP203'),
    '1');
FILE_NAME('держатель_серво_от_трубы_лев',
    '2026-08-20T18:26:47',
    ('SEVER'),
    (''),
    'C3D Converter',
    'C3D Toolkit',
    '');
/**/
FILE_SCHEMA(('CONFIG_CONTROL_DESIGN'));
ENDSEC;

DATA;
#1=PRODUCT_DEFINITION('','UNSPECIFIED',#28,#31);
#2=SHAPE_DEFINITION_REPRESENTATION(#26,#3);
#3=SHAPE_REPRESENTATION('NONE',(#4),#8);
#4=AXIS2_PLACEMENT_3D('',#5,#6,#7);
#5=CARTESIAN_POINT('',(0.,0.,0.));
#6=DIRECTION('',(0.,0.,1.));
#7=DIRECTION('',(1.,0.,0.));
#8=(GEOMETRIC_REPRESENTATION_CONTEXT(3)GLOBAL_UNCERTAINTY_ASSIGNED_CONTEXT((#10))
GLOBAL_UNIT_ASSIGNED_CONTEXT((#9,#11,#12))REPRESENTATION_CONTEXT('NONE','NONE'));
#9=(LENGTH_UNIT()NAMED_UNIT(*)SI_UNIT(.MILLI.,.METRE.));
#10=UNCERTAINTY_MEASURE_WITH_UNIT(LENGTH_MEASURE(1.E-5),#9,'NONE','NONE');
#11=(NAMED_UNIT(*)PLANE_ANGLE_UNIT()SI_UNIT($,.RADIAN.));
#12=(NAMED_UNIT(*)SI_UNIT($,.STERADIAN.)SOLID_ANGLE_UNIT());
#13=MANIFOLD_SOLID_BREP('',#14);
#14=CLOSED_SHELL('',(#53,#54,#55,#56,#57,#58,#59,#60,#61,#62,#63,#64,#65,#66,#67,
#68,#69,#70,#71,#72,#73,#74));
#15=COLOUR_RGB('',0.282352941176471,0.282352941176471,0.282352941176471);
#16=FILL_AREA_STYLE_COLOUR('',#15);
#17=FILL_AREA_STYLE($,(#16));
#18=SURFACE_STYLE_FILL_AREA(#17);
#19=SURFACE_SIDE_STYLE('',(#18));
#20=SURFACE_STYLE_USAGE(.BOTH.,#19);
#21=PRESENTATION_STYLE_ASSIGNMENT((#20));
#22=MECHANICAL_DESIGN_GEOMETRIC_PRESENTATION_REPRESENTATION('NONE',(#23),#8);
#23=STYLED_ITEM('',(#21),#13);
#24=ADVANCED_BREP_SHAPE_REPRESENTATION('NONE',(#13),#8);
#25=SHAPE_REPRESENTATION_RELATIONSHIP('','',#3,#24);
#26=PRODUCT_DEFINITION_SHAPE('NONE','NONE',#1);
#27=MECHANICAL_CONTEXT('NONE',#32,'mechanical');
#28=PRODUCT_DEFINITION_FORMATION_WITH_SPECIFIED_SOURCE('ANY','UNSPECIFIED',#29,.NOT_KNOWN.);
#29=PRODUCT('','\X2\0414043504420430043B044C\X0\','NONE',(#27));
#30=PRODUCT_RELATED_PRODUCT_CATEGORY('detail','',(#29));
#31=DESIGN_CONTEXT('detailed design',#32,'design');
#32=APPLICATION_CONTEXT('configuration controlled 3d designs of mechanical parts and assemblies');
#33=APPLICATION_PROTOCOL_DEFINITION('international standard','config_control_design',
1994,#32);
#34=CC_DESIGN_DATE_AND_TIME_ASSIGNMENT(#35,#39,(#1));
#35=DATE_AND_TIME(#36,#37);
#36=CALENDAR_DATE(0,1,1);
#37=LOCAL_TIME(0,0,0.,#38);
#38=COORDINATED_UNIVERSAL_TIME_OFFSET(0,0,.AHEAD.);
#39=DATE_TIME_ROLE('creation_date');
#40=CC_DESIGN_APPROVAL(#41,(#1));
#41=APPROVAL(#42,'UNSPECIFIED');
#42=APPROVAL_STATUS('not_yet_approved');
#43=APPROVAL_DATE_TIME(#44,#41);
#44=DATE_AND_TIME(#45,#46);
#45=CALENDAR_DATE(0,1,1);
#46=LOCAL_TIME(0,0,0.,#47);
#47=COORDINATED_UNIVERSAL_TIME_OFFSET(0,0,.AHEAD.);
#48=PERSON('UNSPECIFIED','SEVER','UNSPECIFIED',('UNSPECIFIED'),('UNSPECIFIED'),(
'UNSPECIFIED'));
#49=ORGANIZATION('UNSPECIFIED','UNSPECIFIED','UNSPECIFIED');
#50=PERSON_AND_ORGANIZATION(#48,#49);
#51=PERSON_AND_ORGANIZATION_ROLE('creator');
#52=CC_DESIGN_PERSON_AND_ORGANIZATION_ASSIGNMENT(#50,#51,(#28,#1));
#53=ADVANCED_FACE('',(#75),#77,.T.);
#54=ADVANCED_FACE('',(#82),#84,.T.);
#55=ADVANCED_FACE('',(#89),#91,.T.);
#56=ADVANCED_FACE('',(#96,#98),#100,.T.);
#57=ADVANCED_FACE('',(#105),#107,.F.);
#58=ADVANCED_FACE('',(#112,#114),#116,.T.);
#59=ADVANCED_FACE('',(#121),#123,.T.);
#60=ADVANCED_FACE('',(#128,#130),#132,.T.);
#61=ADVANCED_FACE('',(#137,#139),#141,.F.);
#62=ADVANCED_FACE('',(#146,#148),#150,.F.);
#63=ADVANCED_FACE('',(#155,#157),#159,.F.);
#64=ADVANCED_FACE('',(#164,#166),#168,.F.);
#65=ADVANCED_FACE('',(#173,#175),#177,.F.);
#66=ADVANCED_FACE('',(#182),#184,.F.);
#67=ADVANCED_FACE('',(#189,#191),#193,.F.);
#68=ADVANCED_FACE('',(#198),#200,.F.);
#69=ADVANCED_FACE('',(#205),#207,.F.);
#70=ADVANCED_FACE('',(#212),#214,.F.);
#71=ADVANCED_FACE('',(#219),#221,.F.);
#72=ADVANCED_FACE('',(#226),#228,.T.);
#73=ADVANCED_FACE('',(#233),#235,.T.);
#74=ADVANCED_FACE('',(#240),#242,.F.);
#75=FACE_BOUND('',#76,.T.);
#76=EDGE_LOOP('',(#247,#248,#249,#250,#251,#252));
#77=PLANE('',#78);
#78=AXIS2_PLACEMENT_3D('',#79,#80,#81);
#79=CARTESIAN_POINT('',(3.75,4.25,15.5));
#80=DIRECTION('',(2.368475785867E-16,-2.19891541525021E-32,-1.));
#81=DIRECTION('',(-1.,1.1842378929335E-16,-2.368475785867E-16));
#82=FACE_BOUND('',#83,.T.);
#83=EDGE_LOOP('',(#253,#254,#255,#256,#257,#258,#259));
#84=PLANE('',#85);
#85=AXIS2_PLACEMENT_3D('',#86,#87,#88);
#86=CARTESIAN_POINT('',(3.75,-4.25,0.));
#87=DIRECTION('',(1.,-1.56737368182375E-16,0.));
#88=DIRECTION('',(1.56737368182375E-16,1.,0.));
#89=FACE_BOUND('',#90,.T.);
#90=EDGE_LOOP('',(#260,#261,#262,#263,#264,#265,#266));
#91=PLANE('',#92);
#92=AXIS2_PLACEMENT_3D('',#93,#94,#95);
#93=CARTESIAN_POINT('',(0.,0.,22.5));
#94=DIRECTION('',(0.,0.,1.));
#95=DIRECTION('',(-1.,1.22464679914735E-16,0.));
#96=FACE_BOUND('',#97,.T.);
#97=EDGE_LOOP('',(#267,#268,#269,#270));
#98=FACE_BOUND('',#99,.T.);
#99=EDGE_LOOP('',(#271));
#100=PLANE('',#101);
#101=AXIS2_PLACEMENT_3D('',#102,#103,#104);
#102=CARTESIAN_POINT('',(2.14347058620963E-15,18.6,-5.77632931233849E-48));
#103=DIRECTION('',(1.1842378929335E-16,1.,-1.09476442525376E-47));
#104=DIRECTION('',(-1.,1.1842378929335E-16,-1.22464679914735E-16));
#105=FACE_BOUND('',#106,.T.);
#106=EDGE_LOOP('',(#272,#273,#274,#275));
#107=PLANE('',#108);
#108=AXIS2_PLACEMENT_3D('',#109,#110,#111);
#109=CARTESIAN_POINT('',(2.35,11.6,15.5));
#110=DIRECTION('',(-1.,1.26882631385732E-16,-6.34413156928661E-17));
#111=DIRECTION('',(-6.34413156928661E-17,0.,1.));
#112=FACE_BOUND('',#113,.T.);
#113=EDGE_LOOP('',(#276,#277,#278,#279));
#114=FACE_BOUND('',#115,.T.);
#115=EDGE_LOOP('',(#280));
#116=PLANE('',#117);
#117=AXIS2_PLACEMENT_3D('',#118,#119,#120);
#118=CARTESIAN_POINT('',(3.75,4.25,0.));
#119=DIRECTION('',(1.1842378929335E-16,1.,0.));
#120=DIRECTION('',(-1.,1.1842378929335E-16,0.));
#121=FACE_BOUND('',#122,.T.);
#122=EDGE_LOOP('',(#281,#282,#283,#284,#285,#286,#287,#288));
#123=PLANE('',#124);
#124=AXIS2_PLACEMENT_3D('',#125,#126,#127);
#125=CARTESIAN_POINT('',(-3.75,4.25,0.));
#126=DIRECTION('',(-1.,1.56737368182375E-16,0.));
#127=DIRECTION('',(-1.56737368182375E-16,-1.,0.));
#128=FACE_BOUND('',#129,.T.);
#129=EDGE_LOOP('',(#289,#290,#291,#292));
#130=FACE_BOUND('',#131,.T.);
#131=EDGE_LOOP('',(#293));
#132=PLANE('',#133);
#133=AXIS2_PLACEMENT_3D('',#134,#135,#136);
#134=CARTESIAN_POINT('',(-3.75,-4.25,0.));
#135=DIRECTION('',(-1.1842378929335E-16,-1.,0.));
#136=DIRECTION('',(1.,-1.1842378929335E-16,0.));
#137=FACE_BOUND('',#138,.T.);
#138=EDGE_LOOP('',(#294,#295,#296,#297));
#139=FACE_BOUND('',#140,.T.);
#140=EDGE_LOOP('',(#298,#299,#300,#301));
#141=CYLINDRICAL_SURFACE('',#142,17.5);
#142=AXIS2_PLACEMENT_3D('',#143,#144,#145);
#143=CARTESIAN_POINT('',(5.,3.67650088815047E-15,-16.9115345252878));
#144=DIRECTION('',(-1.,0.,6.12323399573676E-17));
#145=DIRECTION('',(6.12323399573676E-17,-1.22464679914735E-16,1.));
#146=FACE_OUTER_BOUND('',#147,.T.);
#147=EDGE_LOOP('',(#302));
#148=FACE_OUTER_BOUND('',#149,.T.);
#149=EDGE_LOOP('',(#303));
#150=CYLINDRICAL_SURFACE('',#151,1.225);
#151=AXIS2_PLACEMENT_3D('',#152,#153,#154);
#152=CARTESIAN_POINT('',(1.89565070488154E-15,20.55,19.));
#153=DIRECTION('',(-1.1842378929335E-16,-1.,4.93038065763133E-33));
#154=DIRECTION('',(6.12323399573676E-17,-1.21817463826814E-32,-1.));
#155=FACE_OUTER_BOUND('',#156,.T.);
#156=EDGE_LOOP('',(#304));
#157=FACE_OUTER_BOUND('',#158,.T.);
#158=EDGE_LOOP('',(#305));
#159=CYLINDRICAL_SURFACE('',#160,1.225);
#160=AXIS2_PLACEMENT_3D('',#161,#162,#163);
#161=CARTESIAN_POINT('',(1.55040728587856E-15,5.75,3.04));
#162=DIRECTION('',(-1.1842378929335E-16,-1.,-4.93038065763134E-33));
#163=DIRECTION('',(6.12323399573676E-17,-1.21817463826814E-32,1.));
#164=FACE_OUTER_BOUND('',#165,.T.);
#165=EDGE_LOOP('',(#306));
#166=FACE_OUTER_BOUND('',#167,.T.);
#167=EDGE_LOOP('',(#307));
#168=CYLINDRICAL_SURFACE('',#169,1.225);
#169=AXIS2_PLACEMENT_3D('',#170,#171,#172);
#170=CARTESIAN_POINT('',(1.55040728587856E-15,5.75,3.04));
#171=DIRECTION('',(-1.1842378929335E-16,-1.,-4.93038065763134E-33));
#172=DIRECTION('',(6.12323399573676E-17,-1.21817463826814E-32,1.));
#173=FACE_BOUND('',#174,.T.);
#174=EDGE_LOOP('',(#308,#309,#310,#311));
#175=FACE_BOUND('',#176,.T.);
#176=EDGE_LOOP('',(#312));
#177=PLANE('',#178);
#178=AXIS2_PLACEMENT_3D('',#179,#180,#181);
#179=CARTESIAN_POINT('',(2.65,2.15,0.));
#180=DIRECTION('',(8.3790416952842E-17,1.,0.));
#181=DIRECTION('',(-1.,8.3790416952842E-17,0.));
#182=FACE_BOUND('',#183,.T.);
#183=EDGE_LOOP('',(#313,#314,#315,#316));
#184=PLANE('',#185);
#185=AXIS2_PLACEMENT_3D('',#186,#187,#188);
#186=CARTESIAN_POINT('',(-2.65,2.15,0.));
#187=DIRECTION('',(-1.,1.03276560430247E-16,0.));
#188=DIRECTION('',(-1.03276560430247E-16,-1.,0.));
#189=FACE_BOUND('',#190,.T.);
#190=EDGE_LOOP('',(#317,#318,#319,#320));
#191=FACE_BOUND('',#192,.T.);
#192=EDGE_LOOP('',(#321));
#193=PLANE('',#194);
#194=AXIS2_PLACEMENT_3D('',#195,#196,#197);
#195=CARTESIAN_POINT('',(-2.65,-2.15,0.));
#196=DIRECTION('',(-8.3790416952842E-17,-1.,0.));
#197=DIRECTION('',(1.,-8.3790416952842E-17,0.));
#198=FACE_BOUND('',#199,.T.);
#199=EDGE_LOOP('',(#322,#323,#324,#325));
#200=PLANE('',#201);
#201=AXIS2_PLACEMENT_3D('',#202,#203,#204);
#202=CARTESIAN_POINT('',(2.65,-2.15,0.));
#203=DIRECTION('',(1.,-1.03276560430247E-16,0.));
#204=DIRECTION('',(1.03276560430247E-16,1.,0.));
#205=FACE_BOUND('',#206,.T.);
#206=EDGE_LOOP('',(#326));
#207=PLANE('',#208);
#208=AXIS2_PLACEMENT_3D('',#209,#210,#211);
#209=CARTESIAN_POINT('',(4.44089209850063E-16,7.,-5.54667823983525E-32));
#210=DIRECTION('',(-1.1842378929335E-16,-1.,4.93038065763132E-32));
#211=DIRECTION('',(6.12323399573676E-17,-5.65551723013633E-32,-1.));
#212=FACE_BOUND('',#213,.T.);
#213=EDGE_LOOP('',(#327,#328,#329,#330));
#214=PLANE('',#215);
#215=AXIS2_PLACEMENT_3D('',#216,#217,#218);
#216=CARTESIAN_POINT('',(0.,0.,5.6));
#217=DIRECTION('',(0.,0.,1.));
#218=DIRECTION('',(-1.,1.22464679914735E-16,0.));
#219=FACE_BOUND('',#220,.T.);
#220=EDGE_LOOP('',(#331,#332,#333,#334,#335));
#221=CYLINDRICAL_SURFACE('',#222,7.);
#222=AXIS2_PLACEMENT_3D('',#223,#224,#225);
#223=CARTESIAN_POINT('',(31.75,11.25,8.5));
#224=DIRECTION('',(1.,-1.67844740730732E-16,1.95818864185854E-16));
#225=DIRECTION('',(-1.95818864185855E-16,-5.07530525542928E-16,1.));
#226=FACE_BOUND('',#227,.T.);
#227=EDGE_LOOP('',(#336,#337,#338,#339));
#228=CYLINDRICAL_SURFACE('',#229,7.);
#229=AXIS2_PLACEMENT_3D('',#230,#231,#232);
#230=CARTESIAN_POINT('',(-31.75,2.75,15.5));
#231=DIRECTION('',(1.,-8.39223703653662E-17,0.));
#232=DIRECTION('',(0.,-4.25931647363426E-32,1.));
#233=FACE_BOUND('',#234,.T.);
#234=EDGE_LOOP('',(#340,#341,#342,#343,#344));
#235=CYLINDRICAL_SURFACE('',#236,1.);
#236=AXIS2_PLACEMENT_3D('',#237,#238,#239);
#237=CARTESIAN_POINT('',(2.75,10.6,11.5));
#238=DIRECTION('',(2.96059473233375E-17,0.,-1.));
#239=DIRECTION('',(1.33226762955019E-15,1.,1.97215226305253E-31));
#240=FACE_BOUND('',#241,.T.);
#241=EDGE_LOOP('',(#345,#346,#347,#348));
#242=CYLINDRICAL_SURFACE('',#243,1.);
#243=AXIS2_PLACEMENT_3D('',#244,#245,#246);
#244=CARTESIAN_POINT('',(3.35,12.5078784028339,11.5));
#245=DIRECTION('',(5.9211894646675E-17,-1.1842378929335E-16,-1.));
#246=DIRECTION('',(-0.3,-0.953939201416946,9.52055265932644E-17));
#247=ORIENTED_EDGE('',*,*,#349,.F.);
#248=ORIENTED_EDGE('',*,*,#350,.F.);
#249=ORIENTED_EDGE('',*,*,#351,.T.);
#250=ORIENTED_EDGE('',*,*,#352,.T.);
#251=ORIENTED_EDGE('',*,*,#353,.F.);
#252=ORIENTED_EDGE('',*,*,#354,.T.);
#253=ORIENTED_EDGE('',*,*,#355,.T.);
#254=ORIENTED_EDGE('',*,*,#356,.F.);
#255=ORIENTED_EDGE('',*,*,#357,.F.);
#256=ORIENTED_EDGE('',*,*,#358,.F.);
#257=ORIENTED_EDGE('',*,*,#359,.T.);
#258=ORIENTED_EDGE('',*,*,#360,.T.);
#259=ORIENTED_EDGE('',*,*,#361,.F.);
#260=ORIENTED_EDGE('',*,*,#362,.F.);
#261=ORIENTED_EDGE('',*,*,#363,.T.);
#262=ORIENTED_EDGE('',*,*,#364,.F.);
#263=ORIENTED_EDGE('',*,*,#365,.F.);
#264=ORIENTED_EDGE('',*,*,#366,.T.);
#265=ORIENTED_EDGE('',*,*,#356,.T.);
#266=ORIENTED_EDGE('',*,*,#367,.F.);
#267=ORIENTED_EDGE('',*,*,#368,.T.);
#268=ORIENTED_EDGE('',*,*,#353,.T.);
#269=ORIENTED_EDGE('',*,*,#369,.T.);
#270=ORIENTED_EDGE('',*,*,#364,.T.);
#271=ORIENTED_EDGE('',*,*,#370,.T.);
#272=ORIENTED_EDGE('',*,*,#371,.F.);
#273=ORIENTED_EDGE('',*,*,#354,.F.);
#274=ORIENTED_EDGE('',*,*,#368,.F.);
#275=ORIENTED_EDGE('',*,*,#363,.F.);
#276=ORIENTED_EDGE('',*,*,#372,.F.);
#277=ORIENTED_EDGE('',*,*,#360,.F.);
#278=ORIENTED_EDGE('',*,*,#373,.T.);
#279=ORIENTED_EDGE('',*,*,#374,.T.);
#280=ORIENTED_EDGE('',*,*,#375,.T.);
#281=ORIENTED_EDGE('',*,*,#376,.F.);
#282=ORIENTED_EDGE('',*,*,#365,.T.);
#283=ORIENTED_EDGE('',*,*,#369,.F.);
#284=ORIENTED_EDGE('',*,*,#352,.F.);
#285=ORIENTED_EDGE('',*,*,#377,.F.);
#286=ORIENTED_EDGE('',*,*,#374,.F.);
#287=ORIENTED_EDGE('',*,*,#378,.T.);
#288=ORIENTED_EDGE('',*,*,#379,.T.);
#289=ORIENTED_EDGE('',*,*,#380,.F.);
#290=ORIENTED_EDGE('',*,*,#379,.F.);
#291=ORIENTED_EDGE('',*,*,#381,.T.);
#292=ORIENTED_EDGE('',*,*,#358,.T.);
#293=ORIENTED_EDGE('',*,*,#382,.T.);
#294=ORIENTED_EDGE('',*,*,#373,.F.);
#295=ORIENTED_EDGE('',*,*,#359,.F.);
#296=ORIENTED_EDGE('',*,*,#381,.F.);
#297=ORIENTED_EDGE('',*,*,#378,.F.);
#298=ORIENTED_EDGE('',*,*,#383,.F.);
#299=ORIENTED_EDGE('',*,*,#384,.F.);
#300=ORIENTED_EDGE('',*,*,#385,.F.);
#301=ORIENTED_EDGE('',*,*,#386,.F.);
#302=ORIENTED_EDGE('',*,*,#370,.F.);
#303=ORIENTED_EDGE('',*,*,#387,.T.);
#304=ORIENTED_EDGE('',*,*,#375,.F.);
#305=ORIENTED_EDGE('',*,*,#388,.F.);
#306=ORIENTED_EDGE('',*,*,#389,.F.);
#307=ORIENTED_EDGE('',*,*,#382,.F.);
#308=ORIENTED_EDGE('',*,*,#383,.T.);
#309=ORIENTED_EDGE('',*,*,#390,.T.);
#310=ORIENTED_EDGE('',*,*,#391,.T.);
#311=ORIENTED_EDGE('',*,*,#392,.F.);
#312=ORIENTED_EDGE('',*,*,#388,.T.);
#313=ORIENTED_EDGE('',*,*,#392,.T.);
#314=ORIENTED_EDGE('',*,*,#393,.T.);
#315=ORIENTED_EDGE('',*,*,#394,.F.);
#316=ORIENTED_EDGE('',*,*,#384,.T.);
#317=ORIENTED_EDGE('',*,*,#385,.T.);
#318=ORIENTED_EDGE('',*,*,#394,.T.);
#319=ORIENTED_EDGE('',*,*,#395,.T.);
#320=ORIENTED_EDGE('',*,*,#396,.F.);
#321=ORIENTED_EDGE('',*,*,#389,.T.);
#322=ORIENTED_EDGE('',*,*,#386,.T.);
#323=ORIENTED_EDGE('',*,*,#396,.T.);
#324=ORIENTED_EDGE('',*,*,#397,.T.);
#325=ORIENTED_EDGE('',*,*,#390,.F.);
#326=ORIENTED_EDGE('',*,*,#387,.F.);
#327=ORIENTED_EDGE('',*,*,#397,.F.);
#328=ORIENTED_EDGE('',*,*,#395,.F.);
#329=ORIENTED_EDGE('',*,*,#393,.F.);
#330=ORIENTED_EDGE('',*,*,#391,.F.);
#331=ORIENTED_EDGE('',*,*,#398,.F.);
#332=ORIENTED_EDGE('',*,*,#361,.T.);
#333=ORIENTED_EDGE('',*,*,#372,.T.);
#334=ORIENTED_EDGE('',*,*,#377,.T.);
#335=ORIENTED_EDGE('',*,*,#351,.F.);
#336=ORIENTED_EDGE('',*,*,#380,.T.);
#337=ORIENTED_EDGE('',*,*,#357,.T.);
#338=ORIENTED_EDGE('',*,*,#366,.F.);
#339=ORIENTED_EDGE('',*,*,#376,.T.);
#340=ORIENTED_EDGE('',*,*,#399,.T.);
#341=ORIENTED_EDGE('',*,*,#367,.T.);
#342=ORIENTED_EDGE('',*,*,#355,.F.);
#343=ORIENTED_EDGE('',*,*,#398,.T.);
#344=ORIENTED_EDGE('',*,*,#350,.T.);
#345=ORIENTED_EDGE('',*,*,#371,.T.);
#346=ORIENTED_EDGE('',*,*,#362,.T.);
#347=ORIENTED_EDGE('',*,*,#399,.F.);
#348=ORIENTED_EDGE('',*,*,#349,.T.);
#349=EDGE_CURVE('',#400,#401,#402,.T.);
#350=EDGE_CURVE('',#403,#400,#404,.F.);
#351=EDGE_CURVE('',#403,#405,#406,.T.);
#352=EDGE_CURVE('',#405,#407,#408,.T.);
#353=EDGE_CURVE('',#409,#407,#410,.T.);
#354=EDGE_CURVE('',#409,#401,#411,.F.);
#355=EDGE_CURVE('',#412,#413,#414,.T.);
#356=EDGE_CURVE('',#415,#413,#416,.T.);
#357=EDGE_CURVE('',#417,#415,#418,.F.);
#358=EDGE_CURVE('',#419,#417,#420,.T.);
#359=EDGE_CURVE('',#419,#421,#422,.T.);
#360=EDGE_CURVE('',#421,#423,#424,.T.);
#361=EDGE_CURVE('',#412,#423,#425,.F.);
#362=EDGE_CURVE('',#426,#427,#428,.F.);
#363=EDGE_CURVE('',#426,#429,#430,.F.);
#364=EDGE_CURVE('',#431,#429,#432,.T.);
#365=EDGE_CURVE('',#433,#431,#434,.T.);
#366=EDGE_CURVE('',#433,#415,#435,.T.);
#367=EDGE_CURVE('',#427,#413,#436,.F.);
#368=EDGE_CURVE('',#429,#409,#437,.F.);
#369=EDGE_CURVE('',#407,#431,#438,.T.);
#370=EDGE_CURVE('',#439,#439,#440,.T.);
#371=EDGE_CURVE('',#401,#426,#441,.T.);
#372=EDGE_CURVE('',#423,#442,#443,.T.);
#373=EDGE_CURVE('',#421,#444,#445,.T.);
#374=EDGE_CURVE('',#444,#442,#446,.T.);
#375=EDGE_CURVE('',#447,#447,#448,.T.);
#376=EDGE_CURVE('',#433,#449,#450,.F.);
#377=EDGE_CURVE('',#442,#405,#451,.F.);
#378=EDGE_CURVE('',#444,#452,#453,.F.);
#379=EDGE_CURVE('',#452,#449,#454,.T.);
#380=EDGE_CURVE('',#449,#417,#455,.T.);
#381=EDGE_CURVE('',#452,#419,#456,.F.);
#382=EDGE_CURVE('',#457,#457,#458,.F.);
#383=EDGE_CURVE('',#459,#460,#461,.F.);
#384=EDGE_CURVE('',#462,#459,#463,.T.);
#385=EDGE_CURVE('',#464,#462,#465,.T.);
#386=EDGE_CURVE('',#460,#464,#466,.F.);
#387=EDGE_CURVE('',#467,#467,#468,.T.);
#388=EDGE_CURVE('',#469,#469,#470,.F.);
#389=EDGE_CURVE('',#471,#471,#472,.T.);
#390=EDGE_CURVE('',#460,#473,#474,.T.);
#391=EDGE_CURVE('',#473,#475,#476,.T.);
#392=EDGE_CURVE('',#459,#475,#477,.T.);
#393=EDGE_CURVE('',#475,#478,#479,.T.);
#394=EDGE_CURVE('',#462,#478,#480,.T.);
#395=EDGE_CURVE('',#478,#481,#482,.T.);
#396=EDGE_CURVE('',#464,#481,#483,.T.);
#397=EDGE_CURVE('',#481,#473,#484,.T.);
#398=EDGE_CURVE('',#412,#403,#485,.F.);
#399=EDGE_CURVE('',#400,#427,#486,.T.);
#400=VERTEX_POINT('',#487);
#401=VERTEX_POINT('',#488);
#402=CIRCLE('',#489,0.999999999999993);
#403=VERTEX_POINT('',#493);
#404=CIRCLE('',#494,1.);
#405=VERTEX_POINT('',#498);
#406=LINE('',#499,#500);
#407=VERTEX_POINT('',#502);
#408=LINE('',#503,#504);
#409=VERTEX_POINT('',#506);
#410=LINE('',#507,#508);
#411=LINE('',#510,#511);
#412=VERTEX_POINT('',#513);
#413=VERTEX_POINT('',#514);
#414=LINE('',#515,#516);
#415=VERTEX_POINT('',#518);
#416=LINE('',#519,#520);
#417=VERTEX_POINT('',#522);
#418=CIRCLE('',#523,7.);
#419=VERTEX_POINT('',#527);
#420=LINE('',#528,#529);
#421=VERTEX_POINT('',#531);
#422=CIRCLE('',#532,17.5);
#423=VERTEX_POINT('',#536);
#424=LINE('',#537,#538);
#425=CIRCLE('',#540,7.);
#426=VERTEX_POINT('',#544);
#427=VERTEX_POINT('',#545);
#428=CIRCLE('',#546,0.999999999993845);
#429=VERTEX_POINT('',#550);
#430=LINE('',#551,#552);
#431=VERTEX_POINT('',#554);
#432=LINE('',#555,#556);
#433=VERTEX_POINT('',#558);
#434=LINE('',#559,#560);
#435=LINE('',#562,#563);
#436=CIRCLE('',#565,0.999999999999999);
#437=LINE('',#569,#570);
#438=LINE('',#572,#573);
#439=VERTEX_POINT('',#575);
#440=CIRCLE('',#576,1.225);
#441=LINE('',#580,#581);
#442=VERTEX_POINT('',#583);
#443=LINE('',#584,#585);
#444=VERTEX_POINT('',#587);
#445=LINE('',#588,#589);
#446=LINE('',#591,#592);
#447=VERTEX_POINT('',#594);
#448=CIRCLE('',#595,1.225);
#449=VERTEX_POINT('',#599);
#450=CIRCLE('',#600,7.);
#451=CIRCLE('',#604,7.00000000000001);
#452=VERTEX_POINT('',#608);
#453=CIRCLE('',#609,17.5);
#454=LINE('',#613,#614);
#455=LINE('',#616,#617);
#456=LINE('',#619,#620);
#457=VERTEX_POINT('',#622);
#458=CIRCLE('',#623,1.225);
#459=VERTEX_POINT('',#627);
#460=VERTEX_POINT('',#628);
#461=LINE('',#629,#630);
#462=VERTEX_POINT('',#632);
#463=CIRCLE('',#633,17.5);
#464=VERTEX_POINT('',#637);
#465=LINE('',#638,#639);
#466=CIRCLE('',#641,17.5);
#467=VERTEX_POINT('',#645);
#468=CIRCLE('',#646,1.225);
#469=VERTEX_POINT('',#650);
#470=CIRCLE('',#651,1.225);
#471=VERTEX_POINT('',#655);
#472=CIRCLE('',#656,1.225);
#473=VERTEX_POINT('',#660);
#474=LINE('',#661,#662);
#475=VERTEX_POINT('',#664);
#476=LINE('',#665,#666);
#477=LINE('',#668,#669);
#478=VERTEX_POINT('',#671);
#479=LINE('',#672,#673);
#480=LINE('',#675,#676);
#481=VERTEX_POINT('',#678);
#482=LINE('',#679,#680);
#483=LINE('',#682,#683);
#484=LINE('',#685,#686);
#485=B_SPLINE_CURVE_WITH_KNOTS('',3,
(#688,#689,#690,#691,#692,#693,#694,#695,#696,#697,#698,#699,#700,#701,#702,#703,
#704,#705,#706,#707,#708,#709,#710,#711,#712,#713,#714,#715,#716),
.UNSPECIFIED.,.F.,.F.,
(4,1,1,1,1,1,1,1,1,1,1,1,1,1,1,1,1,1,1,1,1,1,1,1,1,1,4),
(0.,0.0225843183658588,0.0449932625076567,0.0672670725632057,0.0894023598751378,
0.111455849251518,0.133403403042813,0.155319337857577,0.177264865294215,0.19927836938581,
0.222205004984612,0.246008095347488,0.280562602510613,0.321493295442985,0.368736028257996,
0.418496819556325,0.474278346022457,0.564617219683513,0.653831634549603,0.7417741243494,
0.80632248627628,0.859053217402332,0.89998858044833,0.92198089617245,0.943210794860472,
0.968960935416328,1.),
.UNSPECIFIED.);
#486=LINE('',#717,#718);
#487=CARTESIAN_POINT('',(3.05,11.5539392014169,15.5));
#488=CARTESIAN_POINT('',(2.34999999999795,12.5078784028347,15.5));
#489=AXIS2_PLACEMENT_3D('',#490,#491,#492);
#490=CARTESIAN_POINT('',(3.35,12.5078784028339,15.5));
#491=DIRECTION('',(2.368475785867E-16,-2.19891541525021E-32,-1.));
#492=DIRECTION('',(-0.300000000000001,-0.953939201416945,-7.10542735760093E-17));
#493=CARTESIAN_POINT('',(3.50993420767853,11.25,15.5));
#494=AXIS2_PLACEMENT_3D('',#495,#496,#497);
#495=CARTESIAN_POINT('',(2.75,10.6,15.5));
#496=DIRECTION('',(2.368475785867E-16,-2.19891541525021E-32,-1.));
#497=DIRECTION('',(0.299999999999999,0.953939201416946,7.10542735760098E-17));
#498=CARTESIAN_POINT('',(-3.75,11.25,15.5));
#499=CARTESIAN_POINT('',(3.50993420767854,11.25,15.5));
#500=VECTOR('',#501,1.);
#501=DIRECTION('',(-1.,2.44679467965628E-16,0.));
#502=CARTESIAN_POINT('',(-3.75,18.6,15.5));
#503=CARTESIAN_POINT('',(-3.75,11.25,15.5));
#504=VECTOR('',#505,1.);
#505=DIRECTION('',(1.20840601319745E-16,1.,2.4168120263949E-16));
#506=CARTESIAN_POINT('',(2.35,18.6,15.5));
#507=CARTESIAN_POINT('',(2.35,18.6,15.5));
#508=VECTOR('',#509,1.);
#509=DIRECTION('',(-1.,5.82412078491885E-16,-2.91206039245943E-16));
#510=CARTESIAN_POINT('',(2.35,12.5078784028339,15.5));
#511=VECTOR('',#512,1.);
#512=DIRECTION('',(7.28956575746357E-17,1.,0.));
#513=CARTESIAN_POINT('',(3.75000000004775,10.5999999999953,15.4697560932933));
#514=CARTESIAN_POINT('',(3.75000000004775,10.5999999999953,22.5));
#515=CARTESIAN_POINT('',(3.75000000014324,10.5999999999859,15.4697560932934));
#516=VECTOR('',#517,1.);
#517=DIRECTION('',(0.,0.,1.));
#518=CARTESIAN_POINT('',(3.75,2.74999999999999,22.5));
#519=CARTESIAN_POINT('',(3.75,2.74999999999999,22.5));
#520=VECTOR('',#521,1.);
#521=DIRECTION('',(1.6971562159875E-16,1.,0.));
#522=CARTESIAN_POINT('',(3.74999999999999,-4.25000000066847,15.4999999999342));
#523=AXIS2_PLACEMENT_3D('',#524,#525,#526);
#524=CARTESIAN_POINT('',(3.75,2.74999999999999,15.5));
#525=DIRECTION('',(1.,-1.56737368182375E-16,0.));
#526=DIRECTION('',(-1.12694415031573E-31,-6.34413156928661E-16,1.));
#527=CARTESIAN_POINT('',(3.75,-4.25,0.0645515960771811));
#528=CARTESIAN_POINT('',(3.75,-4.25,0.0645515960771811));
#529=VECTOR('',#530,1.);
#530=DIRECTION('',(0.,0.,1.));
#531=CARTESIAN_POINT('',(3.75,4.25,0.0645515960771873));
#532=AXIS2_PLACEMENT_3D('',#533,#534,#535);
#533=CARTESIAN_POINT('',(3.75,2.66453525910038E-15,-16.9115345252878));
#534=DIRECTION('',(-1.,1.56737368182375E-16,-2.73691106313441E-48));
#535=DIRECTION('',(-3.80647894149753E-17,-0.242857142852394,0.970062064079187));
#536=CARTESIAN_POINT('',(3.75,4.24999999966576,8.49999999996711));
#537=CARTESIAN_POINT('',(3.75,4.25,0.0645515960771873));
#538=VECTOR('',#539,1.);
#539=DIRECTION('',(0.,-1.05291192260401E-16,1.));
#540=AXIS2_PLACEMENT_3D('',#541,#542,#543);
#541=CARTESIAN_POINT('',(3.75,11.25,8.49999999999999));
#542=DIRECTION('',(-1.,1.56737368182375E-16,0.));
#543=DIRECTION('',(-1.56737368182375E-16,-1.,-7.61295788314393E-16));
#544=CARTESIAN_POINT('',(2.34999999999898,12.5078784028347,22.5));
#545=CARTESIAN_POINT('',(3.04999999999991,11.553939201418,22.5));
#546=AXIS2_PLACEMENT_3D('',#547,#548,#549);
#547=CARTESIAN_POINT('',(3.35,12.5078784028339,22.5));
#548=DIRECTION('',(0.,0.,-1.));
#549=DIRECTION('',(-0.300000000000002,-0.953939201416945,0.));
#550=CARTESIAN_POINT('',(2.35,18.6,22.5));
#551=CARTESIAN_POINT('',(2.35,18.6,22.5));
#552=VECTOR('',#553,1.);
#553=DIRECTION('',(-1.45791315149271E-16,-1.,0.));
#554=CARTESIAN_POINT('',(-3.75,18.6,22.5));
#555=CARTESIAN_POINT('',(-3.75,18.6,22.5));
#556=VECTOR('',#557,1.);
#557=DIRECTION('',(1.,-5.82412078491885E-16,0.));
#558=CARTESIAN_POINT('',(-3.75,2.75000000003287,22.5000000003342));
#559=CARTESIAN_POINT('',(-3.75,2.75,22.5));
#560=VECTOR('',#561,1.);
#561=DIRECTION('',(1.12072986712949E-16,1.,2.24145973425899E-16));
#562=CARTESIAN_POINT('',(-3.75,2.75,22.5));
#563=VECTOR('',#564,1.);
#564=DIRECTION('',(1.,-5.92118946466751E-17,0.));
#565=AXIS2_PLACEMENT_3D('',#566,#567,#568);
#566=CARTESIAN_POINT('',(2.75,10.6,22.5));
#567=DIRECTION('',(0.,0.,1.));
#568=DIRECTION('',(1.,5.32907051820075E-15,0.));
#569=CARTESIAN_POINT('',(2.35,18.6,15.5));
#570=VECTOR('',#571,1.);
#571=DIRECTION('',(-6.34413156928661E-17,-5.07530525542929E-16,1.));
#572=CARTESIAN_POINT('',(-3.75,18.6,15.5));
#573=VECTOR('',#574,1.);
#574=DIRECTION('',(-6.34413156928661E-17,0.,1.));
#575=CARTESIAN_POINT('',(1.72580031660072E-11,18.6,17.7749999998245));
#576=AXIS2_PLACEMENT_3D('',#577,#578,#579);
#577=CARTESIAN_POINT('',(1.66472431575951E-15,18.6,19.));
#578=DIRECTION('',(-1.1842378929335E-16,-1.,1.09476442525376E-47));
#579=DIRECTION('',(6.12323399573676E-17,-7.25136572505009E-33,-1.));
#580=CARTESIAN_POINT('',(2.34999999999692,12.5078784028351,15.5));
#581=VECTOR('',#582,1.);
#582=DIRECTION('',(0.,0.,1.));
#583=CARTESIAN_POINT('',(-3.75,4.24999999933153,8.49999999993424));
#584=CARTESIAN_POINT('',(3.75,4.2499999989973,8.49999999990137));
#585=VECTOR('',#586,1.);
#586=DIRECTION('',(-1.,1.1842378929335E-16,0.));
#587=CARTESIAN_POINT('',(-3.75,4.25,0.0645515960771873));
#588=CARTESIAN_POINT('',(3.75,4.25,0.0645515960771874));
#589=VECTOR('',#590,1.);
#590=DIRECTION('',(-1.,1.1842378929335E-16,0.));
#591=CARTESIAN_POINT('',(-3.75,4.25,0.0645515960771873));
#592=VECTOR('',#593,1.);
#593=DIRECTION('',(5.26455961302003E-17,0.,1.));
#594=CARTESIAN_POINT('',(-1.72548156508566E-11,4.25,4.26500000017547));
#595=AXIS2_PLACEMENT_3D('',#596,#597,#598);
#596=CARTESIAN_POINT('',(1.77635683940025E-15,4.25,3.04));
#597=DIRECTION('',(-1.1842378929335E-16,-1.,0.));
#598=DIRECTION('',(6.12323399573677E-17,-7.25136572505008E-33,1.));
#599=CARTESIAN_POINT('',(-3.75,-4.25000000033424,15.4999999999671));
#600=AXIS2_PLACEMENT_3D('',#601,#602,#603);
#601=CARTESIAN_POINT('',(-3.75,2.75,15.5));
#602=DIRECTION('',(-1.,1.56737368182375E-16,0.));
#603=DIRECTION('',(-1.56737368182375E-16,-1.,0.));
#604=AXIS2_PLACEMENT_3D('',#605,#606,#607);
#605=CARTESIAN_POINT('',(-3.75,11.25,8.49999999999999));
#606=DIRECTION('',(1.,-1.56737368182375E-16,-5.47382212626882E-48));
#607=DIRECTION('',(5.47382212626882E-48,-8.57952473969827E-64,1.));
#608=CARTESIAN_POINT('',(-3.75,-4.25,0.0645515963422802));
#609=AXIS2_PLACEMENT_3D('',#610,#611,#612);
#610=CARTESIAN_POINT('',(-3.75,4.44089209850063E-15,-16.9115345252878));
#611=DIRECTION('',(-1.,1.56737368182375E-16,0.));
#612=DIRECTION('',(-3.80647894083541E-17,-0.24285714281015,0.970062064089762));
#613=CARTESIAN_POINT('',(-3.75,-4.25,0.0645515963422801));
#614=VECTOR('',#615,1.);
#615=DIRECTION('',(0.,0.,1.));
#616=CARTESIAN_POINT('',(-3.75,-4.2500000010027,15.4999999999014));
#617=VECTOR('',#618,1.);
#618=DIRECTION('',(1.,-1.1842378929335E-16,0.));
#619=CARTESIAN_POINT('',(3.75,-4.25000000000001,0.0645515962097302));
#620=VECTOR('',#621,1.);
#621=DIRECTION('',(-1.,0.,0.));
#622=CARTESIAN_POINT('',(5.91198242288385E-16,-4.25,4.265));
#623=AXIS2_PLACEMENT_3D('',#624,#625,#626);
#624=CARTESIAN_POINT('',(0.,-4.25,3.04));
#625=DIRECTION('',(-1.1842378929335E-16,-1.,0.));
#626=DIRECTION('',(6.12323399573676E-17,-7.25136572505008E-33,1.));
#627=CARTESIAN_POINT('',(-2.65,2.15,0.455891886690266));
#628=CARTESIAN_POINT('',(2.65,2.15,0.455891881638505));
#629=CARTESIAN_POINT('',(2.65,2.15,0.4558918816385));
#630=VECTOR('',#631,1.);
#631=DIRECTION('',(-1.,8.37904169528419E-17,0.));
#632=CARTESIAN_POINT('',(-2.65,-2.15,0.455891882884966));
#633=AXIS2_PLACEMENT_3D('',#634,#635,#636);
#634=CARTESIAN_POINT('',(-2.65,3.5527136788005E-15,-16.9115345252878));
#635=DIRECTION('',(-1.,1.03276560430247E-16,0.));
#636=DIRECTION('',(-1.26882631362727E-17,-0.122857142834867,0.99242436611283));
#637=CARTESIAN_POINT('',(2.65,-2.15,0.455891881638502));
#638=CARTESIAN_POINT('',(2.65,-2.15,0.45589188226173));
#639=VECTOR('',#640,1.);
#640=DIRECTION('',(-1.,8.3790416952842E-17,0.));
#641=AXIS2_PLACEMENT_3D('',#642,#643,#644);
#642=CARTESIAN_POINT('',(2.65,3.10862446895044E-15,-16.9115345252878));
#643=DIRECTION('',(-1.,1.03276560430247E-16,-2.73691106313441E-48));
#644=DIRECTION('',(-1.268826313702E-17,-0.122857142842103,0.992424366111935));
#645=CARTESIAN_POINT('',(2.15998743508868E-16,7.,17.775));
#646=AXIS2_PLACEMENT_3D('',#647,#648,#649);
#647=CARTESIAN_POINT('',(2.91008359956644E-16,7.,19.));
#648=DIRECTION('',(-1.1842378929335E-16,-1.,4.93038065763132E-32));
#649=DIRECTION('',(6.12323399573676E-17,-5.65551723013633E-32,-1.));
#650=CARTESIAN_POINT('',(-1.72550643408141E-11,2.15,4.26500000017547));
#651=AXIS2_PLACEMENT_3D('',#652,#653,#654);
#652=CARTESIAN_POINT('',(1.33226762955019E-15,2.15,3.04));
#653=DIRECTION('',(-8.3790416952842E-17,-1.,0.));
#654=DIRECTION('',(6.12323399573677E-17,-5.130683296026E-33,1.));
#655=CARTESIAN_POINT('',(-1.72549615526658E-11,-2.15000000000001,4.26500000017547));
#656=AXIS2_PLACEMENT_3D('',#657,#658,#659);
#657=CARTESIAN_POINT('',(0.,-2.15,3.04));
#658=DIRECTION('',(-8.3790416952842E-17,-1.,0.));
#659=DIRECTION('',(6.12323399573676E-17,-5.130683296026E-33,1.));
#660=CARTESIAN_POINT('',(2.65,2.15,5.6));
#661=CARTESIAN_POINT('',(2.65,2.15,0.455891881638505));
#662=VECTOR('',#663,1.);
#663=DIRECTION('',(8.63296804095001E-17,8.63296804095001E-17,1.));
#664=CARTESIAN_POINT('',(-2.65,2.15,5.6));
#665=CARTESIAN_POINT('',(2.65,2.15,5.6));
#666=VECTOR('',#667,1.);
#667=DIRECTION('',(-1.,8.3790416952842E-17,0.));
#668=CARTESIAN_POINT('',(-2.65,2.15,0.455891886690266));
#669=VECTOR('',#670,1.);
#670=DIRECTION('',(-8.632968049428E-17,0.,1.));
#671=CARTESIAN_POINT('',(-2.65,-2.15,5.6));
#672=CARTESIAN_POINT('',(-2.65,2.15,5.6));
#673=VECTOR('',#674,1.);
#674=DIRECTION('',(-2.06553120860494E-16,-1.,0.));
#675=CARTESIAN_POINT('',(-2.65,-2.15,0.455891882884966));
#676=VECTOR('',#677,1.);
#677=DIRECTION('',(0.,-8.63296804304185E-17,1.));
#678=CARTESIAN_POINT('',(2.65,-2.15,5.6));
#679=CARTESIAN_POINT('',(-2.65,-2.15,5.6));
#680=VECTOR('',#681,1.);
#681=DIRECTION('',(1.,-1.67580833905684E-16,0.));
#682=CARTESIAN_POINT('',(2.65,-2.15,0.455891881638502));
#683=VECTOR('',#684,1.);
#684=DIRECTION('',(8.63296804095E-17,-8.63296804095E-17,1.));
#685=CARTESIAN_POINT('',(2.65,-2.15,5.6));
#686=VECTOR('',#687,1.);
#687=DIRECTION('',(1.03276560430247E-16,1.,0.));
#688=CARTESIAN_POINT('',(3.50993420780373,11.2499999999273,15.5));
#689=CARTESIAN_POINT('',(3.51340143865172,11.245946365855,15.5000000008662));
#690=CARTESIAN_POINT('',(3.52024429783485,11.2378153478199,15.4999929843929));
#691=CARTESIAN_POINT('',(3.53027950442125,11.225497745667,15.4999607499095));
#692=CARTESIAN_POINT('',(3.5400526577372,11.2131062786428,15.4999064534464));
#693=CARTESIAN_POINT('',(3.54957857425084,11.2006294995789,15.4998296252951));
#694=CARTESIAN_POINT('',(3.55886208245002,11.1880672824803,15.4997298044457));
#695=CARTESIAN_POINT('',(3.56791838538026,11.1754042092011,15.4996063687992));
#696=CARTESIAN_POINT('',(3.57676219801773,11.1626230952851,15.4994585713183));
#697=CARTESIAN_POINT('',(3.58541490732653,11.1496933404928,15.4992853204722));
#698=CARTESIAN_POINT('',(3.59399477516564,11.1364301569656,15.499082944607));
#699=CARTESIAN_POINT('',(3.60259465521194,11.1226602190783,15.4988464032711));
#700=CARTESIAN_POINT('',(3.61249227262759,11.10621254257,15.4985306951275));
#701=CARTESIAN_POINT('',(3.62416421575031,11.0858763267762,15.4980887087554));
#702=CARTESIAN_POINT('',(3.63791383636711,11.0603636557404,15.4974491317879));
#703=CARTESIAN_POINT('',(3.65246333483646,11.0312231991046,15.4966032598085));
#704=CARTESIAN_POINT('',(3.66745960530685,10.9984143476057,15.4955054594043));
#705=CARTESIAN_POINT('',(3.6850989519126,10.9556669490937,15.4938656338403));
#706=CARTESIAN_POINT('',(3.70360846416051,10.9032784913679,15.491495656445));
#707=CARTESIAN_POINT('',(3.72081609079233,10.8425404131318,15.4882197115939));
#708=CARTESIAN_POINT('',(3.73288866253731,10.7868318979329,15.4847279958907));
#709=CARTESIAN_POINT('',(3.74056954362229,10.739090493889,15.4813708114136));
#710=CARTESIAN_POINT('',(3.74495919423347,10.7020920967536,15.4785501607773));
#711=CARTESIAN_POINT('',(3.74727100741379,10.6749664449748,15.4763533617953));
#712=CARTESIAN_POINT('',(3.74851400045105,10.6552028902159,15.474689548261));
#713=CARTESIAN_POINT('',(3.74928539321524,10.6389947575885,15.4732893989503));
#714=CARTESIAN_POINT('',(3.74985382033384,10.6206520966911,15.471660948583));
#715=CARTESIAN_POINT('',(3.7500000142891,10.6072979760625,15.4704367112293));
#716=CARTESIAN_POINT('',(3.75,10.6,15.4697560932934));
#717=CARTESIAN_POINT('',(3.05,11.5539392014169,15.5));
#718=VECTOR('',#719,1.);
#719=DIRECTION('',(-6.34413156928662E-17,0.,1.));
ENDSEC;
END-ISO-10303-21;
