ISO-10303-21;
HEADER;
FILE_DESCRIPTION(('STEP AP203'),
    '1');
FILE_NAME('Крепление_серво',
    '2026-08-20T18:26:14',
    ('SEVER'),
    (''),
    'C3D Converter',
    'C3D Toolkit',
    '');
/**/
FILE_SCHEMA(('CONFIG_CONTROL_DESIGN'));
ENDSEC;

DATA;
#1=PRODUCT_DEFINITION('','UNSPECIFIED',#28,#31);
#2=SHAPE_DEFINITION_REPRESENTATION(#26,#3);
#3=SHAPE_REPRESENTATION('NONE',(#4),#8);
#4=AXIS2_PLACEMENT_3D('',#5,#6,#7);
#5=CARTESIAN_POINT('',(0.,0.,0.));
#6=DIRECTION('',(0.,0.,1.));
#7=DIRECTION('',(1.,0.,0.));
#8=(GEOMETRIC_REPRESENTATION_CONTEXT(3)GLOBAL_UNCERTAINTY_ASSIGNED_CONTEXT((#10))
GLOBAL_UNIT_ASSIGNED_CONTEXT((#9,#11,#12))REPRESENTATION_CONTEXT('NONE','NONE'));
#9=(LENGTH_UNIT()NAMED_UNIT(*)SI_UNIT(.MILLI.,.METRE.));
#10=UNCERTAINTY_MEASURE_WITH_UNIT(LENGTH_MEASURE(1.E-5),#9,'NONE','NONE');
#11=(NAMED_UNIT(*)PLANE_ANGLE_UNIT()SI_UNIT($,.RADIAN.));
#12=(NAMED_UNIT(*)SI_UNIT($,.STERADIAN.)SOLID_ANGLE_UNIT());
#13=MANIFOLD_SOLID_BREP('',#14);
#14=CLOSED_SHELL('',(#53,#54,#55,#56,#57,#58,#59,#60,#61,#62,#63,#64,#65,#66,#67,
#68,#69,#70,#71,#72,#73,#74));
#15=COLOUR_RGB('',0.564705882352941,0.564705882352941,0.564705882352941);
#16=FILL_AREA_STYLE_COLOUR('',#15);
#17=FILL_AREA_STYLE($,(#16));
#18=SURFACE_STYLE_FILL_AREA(#17);
#19=SURFACE_SIDE_STYLE('',(#18));
#20=SURFACE_STYLE_USAGE(.BOTH.,#19);
#21=PRESENTATION_STYLE_ASSIGNMENT((#20));
#22=MECHANICAL_DESIGN_GEOMETRIC_PRESENTATION_REPRESENTATION('NONE',(#23),#8);
#23=STYLED_ITEM('',(#21),#13);
#24=ADVANCED_BREP_SHAPE_REPRESENTATION('NONE',(#13),#8);
#25=SHAPE_REPRESENTATION_RELATIONSHIP('','',#3,#24);
#26=PRODUCT_DEFINITION_SHAPE('NONE','NONE',#1);
#27=MECHANICAL_CONTEXT('NONE',#32,'mechanical');
#28=PRODUCT_DEFINITION_FORMATION_WITH_SPECIFIED_SOURCE('ANY','UNSPECIFIED',#29,.NOT_KNOWN.);
#29=PRODUCT('','\X2\0414043504420430043B044C\X0\','NONE',(#27));
#30=PRODUCT_RELATED_PRODUCT_CATEGORY('detail','',(#29));
#31=DESIGN_CONTEXT('detailed design',#32,'design');
#32=APPLICATION_CONTEXT('configuration controlled 3d designs of mechanical parts and assemblies');
#33=APPLICATION_PROTOCOL_DEFINITION('international standard','config_control_design',
1994,#32);
#34=CC_DESIGN_DATE_AND_TIME_ASSIGNMENT(#35,#39,(#1));
#35=DATE_AND_TIME(#36,#37);
#36=CALENDAR_DATE(0,1,1);
#37=LOCAL_TIME(0,0,0.,#38);
#38=COORDINATED_UNIVERSAL_TIME_OFFSET(0,0,.AHEAD.);
#39=DATE_TIME_ROLE('creation_date');
#40=CC_DESIGN_APPROVAL(#41,(#1));
#41=APPROVAL(#42,'UNSPECIFIED');
#42=APPROVAL_STATUS('not_yet_approved');
#43=APPROVAL_DATE_TIME(#44,#41);
#44=DATE_AND_TIME(#45,#46);
#45=CALENDAR_DATE(0,1,1);
#46=LOCAL_TIME(0,0,0.,#47);
#47=COORDINATED_UNIVERSAL_TIME_OFFSET(0,0,.AHEAD.);
#48=PERSON('UNSPECIFIED','SEVER','UNSPECIFIED',('UNSPECIFIED'),('UNSPECIFIED'),(
'UNSPECIFIED'));
#49=ORGANIZATION('UNSPECIFIED','UNSPECIFIED','UNSPECIFIED');
#50=PERSON_AND_ORGANIZATION(#48,#49);
#51=PERSON_AND_ORGANIZATION_ROLE('creator');
#52=CC_DESIGN_PERSON_AND_ORGANIZATION_ASSIGNMENT(#50,#51,(#28,#1));
#53=ADVANCED_FACE('',(#75,#77,#79,#81,#83,#85),#87,.F.);
#54=ADVANCED_FACE('',(#92,#94,#96,#98,#100,#102),#104,.T.);
#55=ADVANCED_FACE('',(#109),#111,.T.);
#56=ADVANCED_FACE('',(#116),#118,.T.);
#57=ADVANCED_FACE('',(#123),#125,.T.);
#58=ADVANCED_FACE('',(#130),#132,.T.);
#59=ADVANCED_FACE('',(#137),#139,.T.);
#60=ADVANCED_FACE('',(#144),#146,.T.);
#61=ADVANCED_FACE('',(#151),#153,.T.);
#62=ADVANCED_FACE('',(#158),#160,.T.);
#63=ADVANCED_FACE('',(#165),#167,.T.);
#64=ADVANCED_FACE('',(#172),#174,.T.);
#65=ADVANCED_FACE('',(#179),#181,.T.);
#66=ADVANCED_FACE('',(#186),#188,.T.);
#67=ADVANCED_FACE('',(#193),#195,.F.);
#68=ADVANCED_FACE('',(#200),#202,.F.);
#69=ADVANCED_FACE('',(#207),#209,.F.);
#70=ADVANCED_FACE('',(#214),#216,.F.);
#71=ADVANCED_FACE('',(#221,#223),#225,.F.);
#72=ADVANCED_FACE('',(#230,#232),#234,.F.);
#73=ADVANCED_FACE('',(#239,#241),#243,.F.);
#74=ADVANCED_FACE('',(#248,#250),#252,.F.);
#75=FACE_BOUND('',#76,.T.);
#76=EDGE_LOOP('',(#257,#258,#259,#260,#261,#262,#263,#264,#265,#266,#267,#268));
#77=FACE_BOUND('',#78,.T.);
#78=EDGE_LOOP('',(#269,#270,#271,#272));
#79=FACE_BOUND('',#80,.T.);
#80=EDGE_LOOP('',(#273));
#81=FACE_BOUND('',#82,.T.);
#82=EDGE_LOOP('',(#274));
#83=FACE_BOUND('',#84,.T.);
#84=EDGE_LOOP('',(#275));
#85=FACE_BOUND('',#86,.T.);
#86=EDGE_LOOP('',(#276));
#87=PLANE('',#88);
#88=AXIS2_PLACEMENT_3D('',#89,#90,#91);
#89=CARTESIAN_POINT('',(0.,0.,0.));
#90=DIRECTION('',(0.,0.,1.));
#91=DIRECTION('',(-1.,1.22464679914735E-16,0.));
#92=FACE_BOUND('',#93,.T.);
#93=EDGE_LOOP('',(#277,#278,#279,#280,#281,#282,#283,#284,#285,#286,#287,#288));
#94=FACE_BOUND('',#95,.T.);
#95=EDGE_LOOP('',(#289,#290,#291,#292));
#96=FACE_BOUND('',#97,.T.);
#97=EDGE_LOOP('',(#293));
#98=FACE_BOUND('',#99,.T.);
#99=EDGE_LOOP('',(#294));
#100=FACE_BOUND('',#101,.T.);
#101=EDGE_LOOP('',(#295));
#102=FACE_BOUND('',#103,.T.);
#103=EDGE_LOOP('',(#296));
#104=PLANE('',#105);
#105=AXIS2_PLACEMENT_3D('',#106,#107,#108);
#106=CARTESIAN_POINT('',(0.,0.,4.));
#107=DIRECTION('',(0.,0.,1.));
#108=DIRECTION('',(-1.,1.22464679914735E-16,0.));
#109=FACE_BOUND('',#110,.T.);
#110=EDGE_LOOP('',(#297,#298,#299,#300));
#111=PLANE('',#112);
#112=AXIS2_PLACEMENT_3D('',#113,#114,#115);
#113=CARTESIAN_POINT('',(26.75,3.49999999999999,0.));
#114=DIRECTION('',(1.13384479110654E-16,1.,0.));
#115=DIRECTION('',(-1.,1.13384479110654E-16,0.));
#116=FACE_BOUND('',#117,.T.);
#117=EDGE_LOOP('',(#301,#302,#303,#304));
#118=PLANE('',#119);
#119=AXIS2_PLACEMENT_3D('',#120,#121,#122);
#120=CARTESIAN_POINT('',(15.,-3.50000000000001,0.));
#121=DIRECTION('',(-1.13384479110654E-16,-1.,0.));
#122=DIRECTION('',(1.,-1.13384479110654E-16,0.));
#123=FACE_BOUND('',#124,.T.);
#124=EDGE_LOOP('',(#305,#306,#307,#308));
#125=PLANE('',#126);
#126=AXIS2_PLACEMENT_3D('',#127,#128,#129);
#127=CARTESIAN_POINT('',(-21.,-3.49999999999999,0.));
#128=DIRECTION('',(-1.48029736616688E-16,-1.,0.));
#129=DIRECTION('',(1.,-1.48029736616688E-16,0.));
#130=FACE_BOUND('',#131,.T.);
#131=EDGE_LOOP('',(#309,#310,#311,#312));
#132=PLANE('',#133);
#133=AXIS2_PLACEMENT_3D('',#134,#135,#136);
#134=CARTESIAN_POINT('',(-22.8,3.50000000000001,0.));
#135=DIRECTION('',(-1.,0.,0.));
#136=DIRECTION('',(0.,-1.,0.));
#137=FACE_BOUND('',#138,.T.);
#138=EDGE_LOOP('',(#313,#314,#315,#316));
#139=PLANE('',#140);
#140=AXIS2_PLACEMENT_3D('',#141,#142,#143);
#141=CARTESIAN_POINT('',(-15.,3.50000000000001,0.));
#142=DIRECTION('',(1.48029736616688E-16,1.,0.));
#143=DIRECTION('',(-1.,1.48029736616688E-16,0.));
#144=FACE_BOUND('',#145,.T.);
#145=EDGE_LOOP('',(#317,#318,#319,#320));
#146=PLANE('',#147);
#147=AXIS2_PLACEMENT_3D('',#148,#149,#150);
#148=CARTESIAN_POINT('',(-15.,10.,0.));
#149=DIRECTION('',(-1.,2.73285667600039E-16,0.));
#150=DIRECTION('',(-2.73285667600039E-16,-1.,0.));
#151=FACE_BOUND('',#152,.T.);
#152=EDGE_LOOP('',(#321,#322,#323,#324));
#153=PLANE('',#154);
#154=AXIS2_PLACEMENT_3D('',#155,#156,#157);
#155=CARTESIAN_POINT('',(15.,10.,0.));
#156=DIRECTION('',(1.1842378929335E-16,1.,0.));
#157=DIRECTION('',(-1.,1.1842378929335E-16,0.));
#158=FACE_BOUND('',#159,.T.);
#159=EDGE_LOOP('',(#325,#326,#327,#328));
#160=PLANE('',#161);
#161=AXIS2_PLACEMENT_3D('',#162,#163,#164);
#162=CARTESIAN_POINT('',(15.,3.5,0.));
#163=DIRECTION('',(1.,-2.73285667600038E-16,0.));
#164=DIRECTION('',(2.73285667600038E-16,1.,0.));
#165=FACE_BOUND('',#166,.T.);
#166=EDGE_LOOP('',(#329,#330,#331,#332));
#167=PLANE('',#168);
#168=AXIS2_PLACEMENT_3D('',#169,#170,#171);
#169=CARTESIAN_POINT('',(27.7,-3.50000000000001,0.));
#170=DIRECTION('',(1.,0.,0.));
#171=DIRECTION('',(0.,1.,0.));
#172=FACE_BOUND('',#173,.T.);
#173=EDGE_LOOP('',(#333,#334,#335,#336));
#174=PLANE('',#175);
#175=AXIS2_PLACEMENT_3D('',#176,#177,#178);
#176=CARTESIAN_POINT('',(15.,-10.,0.));
#177=DIRECTION('',(1.,-2.73285667600039E-16,0.));
#178=DIRECTION('',(2.73285667600039E-16,1.,0.));
#179=FACE_BOUND('',#180,.T.);
#180=EDGE_LOOP('',(#337,#338,#339,#340));
#181=PLANE('',#182);
#182=AXIS2_PLACEMENT_3D('',#183,#184,#185);
#183=CARTESIAN_POINT('',(-15.,-10.,0.));
#184=DIRECTION('',(-5.9211894646675E-17,-1.,0.));
#185=DIRECTION('',(1.,-5.9211894646675E-17,0.));
#186=FACE_BOUND('',#187,.T.);
#187=EDGE_LOOP('',(#341,#342,#343,#344));
#188=PLANE('',#189);
#189=AXIS2_PLACEMENT_3D('',#190,#191,#192);
#190=CARTESIAN_POINT('',(-15.,-3.49999999999999,0.));
#191=DIRECTION('',(-1.,2.73285667600038E-16,0.));
#192=DIRECTION('',(-2.73285667600038E-16,-1.,0.));
#193=FACE_BOUND('',#194,.T.);
#194=EDGE_LOOP('',(#345,#346,#347,#348));
#195=PLANE('',#196);
#196=AXIS2_PLACEMENT_3D('',#197,#198,#199);
#197=CARTESIAN_POINT('',(-11.25,5.9,0.));
#198=DIRECTION('',(-1.,0.,0.));
#199=DIRECTION('',(0.,-1.,0.));
#200=FACE_BOUND('',#201,.T.);
#201=EDGE_LOOP('',(#349,#350,#351,#352));
#202=PLANE('',#203);
#203=AXIS2_PLACEMENT_3D('',#204,#205,#206);
#204=CARTESIAN_POINT('',(-11.25,-5.9,0.));
#205=DIRECTION('',(-1.57898385724467E-16,-1.,0.));
#206=DIRECTION('',(1.,-1.57898385724467E-16,0.));
#207=FACE_BOUND('',#208,.T.);
#208=EDGE_LOOP('',(#353,#354,#355,#356));
#209=PLANE('',#210);
#210=AXIS2_PLACEMENT_3D('',#211,#212,#213);
#211=CARTESIAN_POINT('',(11.25,-5.9,0.));
#212=DIRECTION('',(1.,0.,0.));
#213=DIRECTION('',(0.,1.,0.));
#214=FACE_BOUND('',#215,.T.);
#215=EDGE_LOOP('',(#357,#358,#359,#360));
#216=PLANE('',#217);
#217=AXIS2_PLACEMENT_3D('',#218,#219,#220);
#218=CARTESIAN_POINT('',(11.25,5.9,0.));
#219=DIRECTION('',(1.57898385724467E-16,1.,0.));
#220=DIRECTION('',(-1.,1.57898385724467E-16,0.));
#221=FACE_OUTER_BOUND('',#222,.T.);
#222=EDGE_LOOP('',(#361));
#223=FACE_OUTER_BOUND('',#224,.T.);
#224=EDGE_LOOP('',(#362));
#225=CYLINDRICAL_SURFACE('',#226,1.);
#226=AXIS2_PLACEMENT_3D('',#227,#228,#229);
#227=CARTESIAN_POINT('',(13.65,-4.1676354601639E-15,0.));
#228=DIRECTION('',(0.,0.,1.));
#229=DIRECTION('',(-1.,1.22464679914735E-16,0.));
#230=FACE_OUTER_BOUND('',#231,.T.);
#231=EDGE_LOOP('',(#363));
#232=FACE_OUTER_BOUND('',#233,.T.);
#233=EDGE_LOOP('',(#364));
#234=CYLINDRICAL_SURFACE('',#235,1.);
#235=AXIS2_PLACEMENT_3D('',#236,#237,#238);
#236=CARTESIAN_POINT('',(-13.65,5.00518229474797E-15,0.));
#237=DIRECTION('',(0.,0.,1.));
#238=DIRECTION('',(-1.,1.22464679914735E-16,0.));
#239=FACE_OUTER_BOUND('',#240,.T.);
#240=EDGE_LOOP('',(#365));
#241=FACE_OUTER_BOUND('',#242,.T.);
#242=EDGE_LOOP('',(#366));
#243=CYLINDRICAL_SURFACE('',#244,1.25);
#244=AXIS2_PLACEMENT_3D('',#245,#246,#247);
#245=CARTESIAN_POINT('',(-19.05,5.85075008292648E-15,0.));
#246=DIRECTION('',(0.,0.,1.));
#247=DIRECTION('',(-1.,1.22464679914735E-16,0.));
#248=FACE_OUTER_BOUND('',#249,.T.);
#249=EDGE_LOOP('',(#367));
#250=FACE_OUTER_BOUND('',#251,.T.);
#251=EDGE_LOOP('',(#368));
#252=CYLINDRICAL_SURFACE('',#253,1.25);
#253=AXIS2_PLACEMENT_3D('',#254,#255,#256);
#254=CARTESIAN_POINT('',(23.9,-7.36318887987346E-15,0.));
#255=DIRECTION('',(0.,0.,1.));
#256=DIRECTION('',(-1.,1.22464679914735E-16,0.));
#257=ORIENTED_EDGE('',*,*,#369,.F.);
#258=ORIENTED_EDGE('',*,*,#370,.F.);
#259=ORIENTED_EDGE('',*,*,#371,.F.);
#260=ORIENTED_EDGE('',*,*,#372,.F.);
#261=ORIENTED_EDGE('',*,*,#373,.F.);
#262=ORIENTED_EDGE('',*,*,#374,.F.);
#263=ORIENTED_EDGE('',*,*,#375,.F.);
#264=ORIENTED_EDGE('',*,*,#376,.F.);
#265=ORIENTED_EDGE('',*,*,#377,.F.);
#266=ORIENTED_EDGE('',*,*,#378,.F.);
#267=ORIENTED_EDGE('',*,*,#379,.F.);
#268=ORIENTED_EDGE('',*,*,#380,.F.);
#269=ORIENTED_EDGE('',*,*,#381,.T.);
#270=ORIENTED_EDGE('',*,*,#382,.T.);
#271=ORIENTED_EDGE('',*,*,#383,.T.);
#272=ORIENTED_EDGE('',*,*,#384,.T.);
#273=ORIENTED_EDGE('',*,*,#385,.T.);
#274=ORIENTED_EDGE('',*,*,#386,.T.);
#275=ORIENTED_EDGE('',*,*,#387,.T.);
#276=ORIENTED_EDGE('',*,*,#388,.T.);
#277=ORIENTED_EDGE('',*,*,#389,.T.);
#278=ORIENTED_EDGE('',*,*,#390,.T.);
#279=ORIENTED_EDGE('',*,*,#391,.T.);
#280=ORIENTED_EDGE('',*,*,#392,.T.);
#281=ORIENTED_EDGE('',*,*,#393,.F.);
#282=ORIENTED_EDGE('',*,*,#394,.T.);
#283=ORIENTED_EDGE('',*,*,#395,.T.);
#284=ORIENTED_EDGE('',*,*,#396,.T.);
#285=ORIENTED_EDGE('',*,*,#397,.T.);
#286=ORIENTED_EDGE('',*,*,#398,.T.);
#287=ORIENTED_EDGE('',*,*,#399,.F.);
#288=ORIENTED_EDGE('',*,*,#400,.T.);
#289=ORIENTED_EDGE('',*,*,#401,.T.);
#290=ORIENTED_EDGE('',*,*,#402,.T.);
#291=ORIENTED_EDGE('',*,*,#403,.T.);
#292=ORIENTED_EDGE('',*,*,#404,.T.);
#293=ORIENTED_EDGE('',*,*,#405,.T.);
#294=ORIENTED_EDGE('',*,*,#406,.T.);
#295=ORIENTED_EDGE('',*,*,#407,.T.);
#296=ORIENTED_EDGE('',*,*,#408,.T.);
#297=ORIENTED_EDGE('',*,*,#375,.T.);
#298=ORIENTED_EDGE('',*,*,#409,.T.);
#299=ORIENTED_EDGE('',*,*,#394,.F.);
#300=ORIENTED_EDGE('',*,*,#410,.F.);
#301=ORIENTED_EDGE('',*,*,#377,.T.);
#302=ORIENTED_EDGE('',*,*,#411,.F.);
#303=ORIENTED_EDGE('',*,*,#392,.F.);
#304=ORIENTED_EDGE('',*,*,#412,.F.);
#305=ORIENTED_EDGE('',*,*,#369,.T.);
#306=ORIENTED_EDGE('',*,*,#413,.T.);
#307=ORIENTED_EDGE('',*,*,#400,.F.);
#308=ORIENTED_EDGE('',*,*,#414,.F.);
#309=ORIENTED_EDGE('',*,*,#370,.T.);
#310=ORIENTED_EDGE('',*,*,#414,.T.);
#311=ORIENTED_EDGE('',*,*,#399,.T.);
#312=ORIENTED_EDGE('',*,*,#415,.T.);
#313=ORIENTED_EDGE('',*,*,#371,.T.);
#314=ORIENTED_EDGE('',*,*,#415,.F.);
#315=ORIENTED_EDGE('',*,*,#398,.F.);
#316=ORIENTED_EDGE('',*,*,#416,.F.);
#317=ORIENTED_EDGE('',*,*,#372,.T.);
#318=ORIENTED_EDGE('',*,*,#416,.T.);
#319=ORIENTED_EDGE('',*,*,#397,.F.);
#320=ORIENTED_EDGE('',*,*,#417,.F.);
#321=ORIENTED_EDGE('',*,*,#373,.T.);
#322=ORIENTED_EDGE('',*,*,#417,.T.);
#323=ORIENTED_EDGE('',*,*,#396,.F.);
#324=ORIENTED_EDGE('',*,*,#418,.F.);
#325=ORIENTED_EDGE('',*,*,#374,.T.);
#326=ORIENTED_EDGE('',*,*,#418,.T.);
#327=ORIENTED_EDGE('',*,*,#395,.F.);
#328=ORIENTED_EDGE('',*,*,#409,.F.);
#329=ORIENTED_EDGE('',*,*,#376,.T.);
#330=ORIENTED_EDGE('',*,*,#410,.T.);
#331=ORIENTED_EDGE('',*,*,#393,.T.);
#332=ORIENTED_EDGE('',*,*,#411,.T.);
#333=ORIENTED_EDGE('',*,*,#378,.T.);
#334=ORIENTED_EDGE('',*,*,#412,.T.);
#335=ORIENTED_EDGE('',*,*,#391,.F.);
#336=ORIENTED_EDGE('',*,*,#419,.F.);
#337=ORIENTED_EDGE('',*,*,#379,.T.);
#338=ORIENTED_EDGE('',*,*,#419,.T.);
#339=ORIENTED_EDGE('',*,*,#390,.F.);
#340=ORIENTED_EDGE('',*,*,#420,.F.);
#341=ORIENTED_EDGE('',*,*,#380,.T.);
#342=ORIENTED_EDGE('',*,*,#420,.T.);
#343=ORIENTED_EDGE('',*,*,#389,.F.);
#344=ORIENTED_EDGE('',*,*,#413,.F.);
#345=ORIENTED_EDGE('',*,*,#401,.F.);
#346=ORIENTED_EDGE('',*,*,#421,.F.);
#347=ORIENTED_EDGE('',*,*,#381,.F.);
#348=ORIENTED_EDGE('',*,*,#422,.T.);
#349=ORIENTED_EDGE('',*,*,#404,.F.);
#350=ORIENTED_EDGE('',*,*,#423,.F.);
#351=ORIENTED_EDGE('',*,*,#382,.F.);
#352=ORIENTED_EDGE('',*,*,#421,.T.);
#353=ORIENTED_EDGE('',*,*,#403,.F.);
#354=ORIENTED_EDGE('',*,*,#424,.F.);
#355=ORIENTED_EDGE('',*,*,#383,.F.);
#356=ORIENTED_EDGE('',*,*,#423,.T.);
#357=ORIENTED_EDGE('',*,*,#402,.F.);
#358=ORIENTED_EDGE('',*,*,#422,.F.);
#359=ORIENTED_EDGE('',*,*,#384,.F.);
#360=ORIENTED_EDGE('',*,*,#424,.T.);
#361=ORIENTED_EDGE('',*,*,#405,.F.);
#362=ORIENTED_EDGE('',*,*,#385,.F.);
#363=ORIENTED_EDGE('',*,*,#406,.F.);
#364=ORIENTED_EDGE('',*,*,#386,.F.);
#365=ORIENTED_EDGE('',*,*,#407,.F.);
#366=ORIENTED_EDGE('',*,*,#387,.F.);
#367=ORIENTED_EDGE('',*,*,#408,.F.);
#368=ORIENTED_EDGE('',*,*,#388,.F.);
#369=EDGE_CURVE('',#425,#426,#427,.T.);
#370=EDGE_CURVE('',#428,#425,#429,.T.);
#371=EDGE_CURVE('',#430,#428,#431,.T.);
#372=EDGE_CURVE('',#432,#430,#433,.T.);
#373=EDGE_CURVE('',#434,#432,#435,.T.);
#374=EDGE_CURVE('',#436,#434,#437,.T.);
#375=EDGE_CURVE('',#438,#436,#439,.T.);
#376=EDGE_CURVE('',#440,#438,#441,.T.);
#377=EDGE_CURVE('',#442,#440,#443,.T.);
#378=EDGE_CURVE('',#444,#442,#445,.T.);
#379=EDGE_CURVE('',#446,#444,#447,.T.);
#380=EDGE_CURVE('',#426,#446,#448,.T.);
#381=EDGE_CURVE('',#449,#450,#451,.T.);
#382=EDGE_CURVE('',#450,#452,#453,.T.);
#383=EDGE_CURVE('',#452,#454,#455,.T.);
#384=EDGE_CURVE('',#454,#449,#456,.T.);
#385=EDGE_CURVE('',#457,#457,#458,.T.);
#386=EDGE_CURVE('',#459,#459,#460,.T.);
#387=EDGE_CURVE('',#461,#461,#462,.T.);
#388=EDGE_CURVE('',#463,#463,#464,.T.);
#389=EDGE_CURVE('',#465,#466,#467,.T.);
#390=EDGE_CURVE('',#466,#468,#469,.T.);
#391=EDGE_CURVE('',#468,#470,#471,.T.);
#392=EDGE_CURVE('',#470,#472,#473,.T.);
#393=EDGE_CURVE('',#474,#472,#475,.T.);
#394=EDGE_CURVE('',#474,#476,#477,.T.);
#395=EDGE_CURVE('',#476,#478,#479,.T.);
#396=EDGE_CURVE('',#478,#480,#481,.T.);
#397=EDGE_CURVE('',#480,#482,#483,.T.);
#398=EDGE_CURVE('',#482,#484,#485,.T.);
#399=EDGE_CURVE('',#486,#484,#487,.T.);
#400=EDGE_CURVE('',#486,#465,#488,.T.);
#401=EDGE_CURVE('',#489,#490,#491,.F.);
#402=EDGE_CURVE('',#490,#492,#493,.F.);
#403=EDGE_CURVE('',#492,#494,#495,.F.);
#404=EDGE_CURVE('',#494,#489,#496,.F.);
#405=EDGE_CURVE('',#497,#497,#498,.F.);
#406=EDGE_CURVE('',#499,#499,#500,.F.);
#407=EDGE_CURVE('',#501,#501,#502,.F.);
#408=EDGE_CURVE('',#503,#503,#504,.F.);
#409=EDGE_CURVE('',#436,#476,#505,.T.);
#410=EDGE_CURVE('',#438,#474,#506,.T.);
#411=EDGE_CURVE('',#472,#440,#507,.T.);
#412=EDGE_CURVE('',#442,#470,#508,.T.);
#413=EDGE_CURVE('',#426,#465,#509,.T.);
#414=EDGE_CURVE('',#425,#486,#510,.T.);
#415=EDGE_CURVE('',#484,#428,#511,.T.);
#416=EDGE_CURVE('',#430,#482,#512,.T.);
#417=EDGE_CURVE('',#432,#480,#513,.T.);
#418=EDGE_CURVE('',#434,#478,#514,.T.);
#419=EDGE_CURVE('',#444,#468,#515,.T.);
#420=EDGE_CURVE('',#446,#466,#516,.T.);
#421=EDGE_CURVE('',#450,#489,#517,.T.);
#422=EDGE_CURVE('',#449,#490,#518,.T.);
#423=EDGE_CURVE('',#452,#494,#519,.T.);
#424=EDGE_CURVE('',#454,#492,#520,.T.);
#425=VERTEX_POINT('',#521);
#426=VERTEX_POINT('',#522);
#427=LINE('',#523,#524);
#428=VERTEX_POINT('',#526);
#429=LINE('',#527,#528);
#430=VERTEX_POINT('',#530);
#431=LINE('',#531,#532);
#432=VERTEX_POINT('',#534);
#433=LINE('',#535,#536);
#434=VERTEX_POINT('',#538);
#435=LINE('',#539,#540);
#436=VERTEX_POINT('',#542);
#437=LINE('',#543,#544);
#438=VERTEX_POINT('',#546);
#439=LINE('',#547,#548);
#440=VERTEX_POINT('',#550);
#441=LINE('',#551,#552);
#442=VERTEX_POINT('',#554);
#443=LINE('',#555,#556);
#444=VERTEX_POINT('',#558);
#445=LINE('',#559,#560);
#446=VERTEX_POINT('',#562);
#447=LINE('',#563,#564);
#448=LINE('',#566,#567);
#449=VERTEX_POINT('',#569);
#450=VERTEX_POINT('',#570);
#451=LINE('',#571,#572);
#452=VERTEX_POINT('',#574);
#453=LINE('',#575,#576);
#454=VERTEX_POINT('',#578);
#455=LINE('',#579,#580);
#456=LINE('',#582,#583);
#457=VERTEX_POINT('',#585);
#458=CIRCLE('',#586,1.);
#459=VERTEX_POINT('',#590);
#460=CIRCLE('',#591,1.);
#461=VERTEX_POINT('',#595);
#462=CIRCLE('',#596,1.25);
#463=VERTEX_POINT('',#600);
#464=CIRCLE('',#601,1.25);
#465=VERTEX_POINT('',#605);
#466=VERTEX_POINT('',#606);
#467=LINE('',#607,#608);
#468=VERTEX_POINT('',#610);
#469=LINE('',#611,#612);
#470=VERTEX_POINT('',#614);
#471=LINE('',#615,#616);
#472=VERTEX_POINT('',#618);
#473=LINE('',#619,#620);
#474=VERTEX_POINT('',#622);
#475=LINE('',#623,#624);
#476=VERTEX_POINT('',#626);
#477=LINE('',#627,#628);
#478=VERTEX_POINT('',#630);
#479=LINE('',#631,#632);
#480=VERTEX_POINT('',#634);
#481=LINE('',#635,#636);
#482=VERTEX_POINT('',#638);
#483=LINE('',#639,#640);
#484=VERTEX_POINT('',#642);
#485=LINE('',#643,#644);
#486=VERTEX_POINT('',#646);
#487=LINE('',#647,#648);
#488=LINE('',#650,#651);
#489=VERTEX_POINT('',#653);
#490=VERTEX_POINT('',#654);
#491=LINE('',#655,#656);
#492=VERTEX_POINT('',#658);
#493=LINE('',#659,#660);
#494=VERTEX_POINT('',#662);
#495=LINE('',#663,#664);
#496=LINE('',#666,#667);
#497=VERTEX_POINT('',#669);
#498=CIRCLE('',#670,1.);
#499=VERTEX_POINT('',#674);
#500=CIRCLE('',#675,1.);
#501=VERTEX_POINT('',#679);
#502=CIRCLE('',#680,1.25);
#503=VERTEX_POINT('',#684);
#504=CIRCLE('',#685,1.25);
#505=LINE('',#689,#690);
#506=LINE('',#692,#693);
#507=LINE('',#695,#696);
#508=LINE('',#698,#699);
#509=LINE('',#701,#702);
#510=LINE('',#704,#705);
#511=LINE('',#707,#708);
#512=LINE('',#710,#711);
#513=LINE('',#713,#714);
#514=LINE('',#716,#717);
#515=LINE('',#719,#720);
#516=LINE('',#722,#723);
#517=LINE('',#725,#726);
#518=LINE('',#728,#729);
#519=LINE('',#731,#732);
#520=LINE('',#734,#735);
#521=CARTESIAN_POINT('',(-22.8,-3.49999999999999,0.));
#522=CARTESIAN_POINT('',(-15.,-3.49999999999999,0.));
#523=CARTESIAN_POINT('',(-22.8,-3.49999999999999,0.));
#524=VECTOR('',#525,1.);
#525=DIRECTION('',(1.,-1.13869028166683E-16,0.));
#526=CARTESIAN_POINT('',(-22.8,3.50000000000001,0.));
#527=CARTESIAN_POINT('',(-22.8,3.50000000000001,0.));
#528=VECTOR('',#529,1.);
#529=DIRECTION('',(-5.07530525542929E-16,-1.,0.));
#530=CARTESIAN_POINT('',(-15.,3.50000000000001,0.));
#531=CARTESIAN_POINT('',(-15.,3.50000000000001,0.));
#532=VECTOR('',#533,1.);
#533=DIRECTION('',(-1.,1.13869028166683E-16,0.));
#534=CARTESIAN_POINT('',(-15.,10.,0.));
#535=CARTESIAN_POINT('',(-15.,10.,0.));
#536=VECTOR('',#537,1.);
#537=DIRECTION('',(-2.73285667600039E-16,-1.,0.));
#538=CARTESIAN_POINT('',(15.,10.,0.));
#539=CARTESIAN_POINT('',(15.,10.,0.));
#540=VECTOR('',#541,1.);
#541=DIRECTION('',(-1.,1.1842378929335E-16,0.));
#542=CARTESIAN_POINT('',(15.,3.49999999999999,0.));
#543=CARTESIAN_POINT('',(15.,3.49999999999999,0.));
#544=VECTOR('',#545,1.);
#545=DIRECTION('',(0.,1.,0.));
#546=CARTESIAN_POINT('',(27.7,3.49999999999999,0.));
#547=CARTESIAN_POINT('',(27.7,3.49999999999999,0.));
#548=VECTOR('',#549,1.);
#549=DIRECTION('',(-1.,1.04902962956708E-16,0.));
#550=CARTESIAN_POINT('',(27.7,-3.50000000000001,0.));
#551=CARTESIAN_POINT('',(27.7,-3.50000000000001,0.));
#552=VECTOR('',#553,1.);
#553=DIRECTION('',(5.07530525542929E-16,1.,0.));
#554=CARTESIAN_POINT('',(15.,-3.50000000000001,0.));
#555=CARTESIAN_POINT('',(15.,-3.50000000000001,0.));
#556=VECTOR('',#557,1.);
#557=DIRECTION('',(1.,-1.04902962956708E-16,0.));
#558=CARTESIAN_POINT('',(15.,-10.,0.));
#559=CARTESIAN_POINT('',(15.,-10.,0.));
#560=VECTOR('',#561,1.);
#561=DIRECTION('',(0.,1.,0.));
#562=CARTESIAN_POINT('',(-15.,-10.,0.));
#563=CARTESIAN_POINT('',(-15.,-10.,0.));
#564=VECTOR('',#565,1.);
#565=DIRECTION('',(1.,-1.1842378929335E-16,0.));
#566=CARTESIAN_POINT('',(-15.,-3.49999999999999,0.));
#567=VECTOR('',#568,1.);
#568=DIRECTION('',(-2.73285667600038E-16,-1.,0.));
#569=CARTESIAN_POINT('',(-11.25,5.9,0.));
#570=CARTESIAN_POINT('',(-11.25,-5.9,0.));
#571=CARTESIAN_POINT('',(-11.25,5.9,0.));
#572=VECTOR('',#573,1.);
#573=DIRECTION('',(0.,-1.,0.));
#574=CARTESIAN_POINT('',(11.25,-5.9,0.));
#575=CARTESIAN_POINT('',(-11.25,-5.9,0.));
#576=VECTOR('',#577,1.);
#577=DIRECTION('',(1.,-1.57898385724467E-16,0.));
#578=CARTESIAN_POINT('',(11.25,5.9,0.));
#579=CARTESIAN_POINT('',(11.25,-5.9,0.));
#580=VECTOR('',#581,1.);
#581=DIRECTION('',(0.,1.,0.));
#582=CARTESIAN_POINT('',(11.25,5.9,0.));
#583=VECTOR('',#584,1.);
#584=DIRECTION('',(-1.,1.57898385724467E-16,0.));
#585=CARTESIAN_POINT('',(12.65,-3.92270610033443E-15,0.));
#586=AXIS2_PLACEMENT_3D('',#587,#588,#589);
#587=CARTESIAN_POINT('',(13.65,-4.1676354601639E-15,0.));
#588=DIRECTION('',(0.,0.,1.));
#589=DIRECTION('',(-1.,1.22464679914735E-16,0.));
#590=CARTESIAN_POINT('',(-14.65,5.25011165457744E-15,0.));
#591=AXIS2_PLACEMENT_3D('',#592,#593,#594);
#592=CARTESIAN_POINT('',(-13.65,5.00518229474797E-15,0.));
#593=DIRECTION('',(0.,0.,1.));
#594=DIRECTION('',(-1.,1.22464679914735E-16,0.));
#595=CARTESIAN_POINT('',(-20.3,6.15691178271332E-15,0.));
#596=AXIS2_PLACEMENT_3D('',#597,#598,#599);
#597=CARTESIAN_POINT('',(-19.05,5.85075008292648E-15,0.));
#598=DIRECTION('',(0.,0.,1.));
#599=DIRECTION('',(-1.,1.22464679914735E-16,0.));
#600=CARTESIAN_POINT('',(22.65,-7.05702718008662E-15,0.));
#601=AXIS2_PLACEMENT_3D('',#602,#603,#604);
#602=CARTESIAN_POINT('',(23.9,-7.36318887987346E-15,0.));
#603=DIRECTION('',(0.,0.,1.));
#604=DIRECTION('',(-1.,1.22464679914735E-16,0.));
#605=CARTESIAN_POINT('',(-15.,-3.49999999999999,4.));
#606=CARTESIAN_POINT('',(-15.,-10.,4.));
#607=CARTESIAN_POINT('',(-15.,-3.49999999999999,4.));
#608=VECTOR('',#609,1.);
#609=DIRECTION('',(-2.73285667600038E-16,-1.,0.));
#610=CARTESIAN_POINT('',(15.,-10.,4.));
#611=CARTESIAN_POINT('',(-15.,-10.,4.));
#612=VECTOR('',#613,1.);
#613=DIRECTION('',(1.,-1.1842378929335E-16,0.));
#614=CARTESIAN_POINT('',(15.,-3.50000000000001,4.));
#615=CARTESIAN_POINT('',(15.,-10.,4.));
#616=VECTOR('',#617,1.);
#617=DIRECTION('',(0.,1.,0.));
#618=CARTESIAN_POINT('',(27.7,-3.50000000000001,4.));
#619=CARTESIAN_POINT('',(15.,-3.50000000000001,4.));
#620=VECTOR('',#621,1.);
#621=DIRECTION('',(1.,-1.04902962956708E-16,0.));
#622=CARTESIAN_POINT('',(27.7,3.49999999999999,4.));
#623=CARTESIAN_POINT('',(27.7,3.49999999999999,4.));
#624=VECTOR('',#625,1.);
#625=DIRECTION('',(-5.07530525542929E-16,-1.,0.));
#626=CARTESIAN_POINT('',(15.,3.49999999999999,4.));
#627=CARTESIAN_POINT('',(27.7,3.49999999999999,4.));
#628=VECTOR('',#629,1.);
#629=DIRECTION('',(-1.,1.04902962956708E-16,0.));
#630=CARTESIAN_POINT('',(15.,10.,4.));
#631=CARTESIAN_POINT('',(15.,3.49999999999999,4.));
#632=VECTOR('',#633,1.);
#633=DIRECTION('',(0.,1.,0.));
#634=CARTESIAN_POINT('',(-15.,10.,4.));
#635=CARTESIAN_POINT('',(15.,10.,4.));
#636=VECTOR('',#637,1.);
#637=DIRECTION('',(-1.,1.1842378929335E-16,0.));
#638=CARTESIAN_POINT('',(-15.,3.50000000000001,4.));
#639=CARTESIAN_POINT('',(-15.,10.,4.));
#640=VECTOR('',#641,1.);
#641=DIRECTION('',(-2.73285667600039E-16,-1.,0.));
#642=CARTESIAN_POINT('',(-22.8,3.50000000000001,4.));
#643=CARTESIAN_POINT('',(-15.,3.50000000000001,4.));
#644=VECTOR('',#645,1.);
#645=DIRECTION('',(-1.,1.13869028166683E-16,0.));
#646=CARTESIAN_POINT('',(-22.8,-3.49999999999999,4.));
#647=CARTESIAN_POINT('',(-22.8,-3.49999999999999,4.));
#648=VECTOR('',#649,1.);
#649=DIRECTION('',(5.07530525542929E-16,1.,0.));
#650=CARTESIAN_POINT('',(-22.8,-3.49999999999999,4.));
#651=VECTOR('',#652,1.);
#652=DIRECTION('',(1.,-1.13869028166683E-16,0.));
#653=CARTESIAN_POINT('',(-11.25,-5.9,4.));
#654=CARTESIAN_POINT('',(-11.25,5.9,4.));
#655=CARTESIAN_POINT('',(-11.25,5.9,4.));
#656=VECTOR('',#657,1.);
#657=DIRECTION('',(0.,-1.,0.));
#658=CARTESIAN_POINT('',(11.25,5.9,4.));
#659=CARTESIAN_POINT('',(11.25,5.9,4.));
#660=VECTOR('',#661,1.);
#661=DIRECTION('',(-1.,1.57898385724467E-16,0.));
#662=CARTESIAN_POINT('',(11.25,-5.9,4.));
#663=CARTESIAN_POINT('',(11.25,-5.9,4.));
#664=VECTOR('',#665,1.);
#665=DIRECTION('',(0.,1.,0.));
#666=CARTESIAN_POINT('',(-11.25,-5.9,4.));
#667=VECTOR('',#668,1.);
#668=DIRECTION('',(1.,-1.57898385724467E-16,0.));
#669=CARTESIAN_POINT('',(12.65,-3.92270610033443E-15,4.));
#670=AXIS2_PLACEMENT_3D('',#671,#672,#673);
#671=CARTESIAN_POINT('',(13.65,-4.1676354601639E-15,4.));
#672=DIRECTION('',(0.,0.,1.));
#673=DIRECTION('',(-1.,1.22464679914735E-16,0.));
#674=CARTESIAN_POINT('',(-14.65,5.25011165457744E-15,4.));
#675=AXIS2_PLACEMENT_3D('',#676,#677,#678);
#676=CARTESIAN_POINT('',(-13.65,5.00518229474797E-15,4.));
#677=DIRECTION('',(0.,0.,1.));
#678=DIRECTION('',(-1.,1.22464679914735E-16,0.));
#679=CARTESIAN_POINT('',(-20.3,6.15691178271332E-15,4.));
#680=AXIS2_PLACEMENT_3D('',#681,#682,#683);
#681=CARTESIAN_POINT('',(-19.05,5.85075008292648E-15,4.));
#682=DIRECTION('',(0.,0.,1.));
#683=DIRECTION('',(-1.,1.22464679914735E-16,0.));
#684=CARTESIAN_POINT('',(22.65,-7.05702718008662E-15,4.));
#685=AXIS2_PLACEMENT_3D('',#686,#687,#688);
#686=CARTESIAN_POINT('',(23.9,-7.36318887987346E-15,4.));
#687=DIRECTION('',(0.,0.,1.));
#688=DIRECTION('',(-1.,1.22464679914735E-16,0.));
#689=CARTESIAN_POINT('',(15.,3.49999999999999,0.));
#690=VECTOR('',#691,1.);
#691=DIRECTION('',(0.,0.,1.));
#692=CARTESIAN_POINT('',(27.7,3.49999999999999,0.));
#693=VECTOR('',#694,1.);
#694=DIRECTION('',(0.,0.,1.));
#695=CARTESIAN_POINT('',(27.7,-3.50000000000001,4.));
#696=VECTOR('',#697,1.);
#697=DIRECTION('',(0.,0.,-1.));
#698=CARTESIAN_POINT('',(15.,-3.50000000000001,0.));
#699=VECTOR('',#700,1.);
#700=DIRECTION('',(0.,0.,1.));
#701=CARTESIAN_POINT('',(-15.,-3.5,0.));
#702=VECTOR('',#703,1.);
#703=DIRECTION('',(0.,0.,1.));
#704=CARTESIAN_POINT('',(-22.8,-3.49999999999999,0.));
#705=VECTOR('',#706,1.);
#706=DIRECTION('',(0.,0.,1.));
#707=CARTESIAN_POINT('',(-22.8,3.50000000000001,4.));
#708=VECTOR('',#709,1.);
#709=DIRECTION('',(0.,0.,-1.));
#710=CARTESIAN_POINT('',(-15.,3.50000000000001,0.));
#711=VECTOR('',#712,1.);
#712=DIRECTION('',(0.,0.,1.));
#713=CARTESIAN_POINT('',(-15.,10.,0.));
#714=VECTOR('',#715,1.);
#715=DIRECTION('',(0.,0.,1.));
#716=CARTESIAN_POINT('',(15.,10.,0.));
#717=VECTOR('',#718,1.);
#718=DIRECTION('',(0.,0.,1.));
#719=CARTESIAN_POINT('',(15.,-10.,0.));
#720=VECTOR('',#721,1.);
#721=DIRECTION('',(0.,0.,1.));
#722=CARTESIAN_POINT('',(-15.,-10.,0.));
#723=VECTOR('',#724,1.);
#724=DIRECTION('',(0.,0.,1.));
#725=CARTESIAN_POINT('',(-11.25,-5.9,0.));
#726=VECTOR('',#727,1.);
#727=DIRECTION('',(0.,0.,1.));
#728=CARTESIAN_POINT('',(-11.25,5.9,0.));
#729=VECTOR('',#730,1.);
#730=DIRECTION('',(0.,0.,1.));
#731=CARTESIAN_POINT('',(11.25,-5.9,0.));
#732=VECTOR('',#733,1.);
#733=DIRECTION('',(0.,0.,1.));
#734=CARTESIAN_POINT('',(11.25,5.9,0.));
#735=VECTOR('',#736,1.);
#736=DIRECTION('',(0.,0.,1.));
ENDSEC;
END-ISO-10303-21;
