ISO-10303-21;
HEADER;
FILE_DESCRIPTION(('STEP AP203'),
    '1');
FILE_NAME('труба_для_дросселя',
    '2026-08-20T18:27:11',
    ('SEVER'),
    (''),
    'C3D Converter',
    'C3D Toolkit',
    '');
/**/
FILE_SCHEMA(('CONFIG_CONTROL_DESIGN'));
ENDSEC;

DATA;
#1=PRODUCT_DEFINITION('','UNSPECIFIED',#28,#31);
#2=SHAPE_DEFINITION_REPRESENTATION(#26,#3);
#3=SHAPE_REPRESENTATION('NONE',(#4),#8);
#4=AXIS2_PLACEMENT_3D('',#5,#6,#7);
#5=CARTESIAN_POINT('',(0.,0.,0.));
#6=DIRECTION('',(0.,0.,1.));
#7=DIRECTION('',(1.,0.,0.));
#8=(GEOMETRIC_REPRESENTATION_CONTEXT(3)GLOBAL_UNCERTAINTY_ASSIGNED_CONTEXT((#10))
GLOBAL_UNIT_ASSIGNED_CONTEXT((#9,#11,#12))REPRESENTATION_CONTEXT('NONE','NONE'));
#9=(LENGTH_UNIT()NAMED_UNIT(*)SI_UNIT(.MILLI.,.METRE.));
#10=UNCERTAINTY_MEASURE_WITH_UNIT(LENGTH_MEASURE(1.E-5),#9,'NONE','NONE');
#11=(NAMED_UNIT(*)PLANE_ANGLE_UNIT()SI_UNIT($,.RADIAN.));
#12=(NAMED_UNIT(*)SI_UNIT($,.STERADIAN.)SOLID_ANGLE_UNIT());
#13=MANIFOLD_SOLID_BREP('',#14);
#14=CLOSED_SHELL('',(#53,#54,#55,#56,#57,#58,#59,#60,#61,#62,#63,#64,#65,#66,#67,
#68,#69,#70,#71,#72,#73,#74,#75,#76,#77,#78,#79,#80,#81,#82,#83,#84,#85,#86,#87,
#88,#89,#90,#91,#92,#93,#94,#95,#96,#97,#98,#99,#100,#101,#102,#103,#104,#105,#106,
#107,#108,#109));
#15=COLOUR_RGB('',0.705882352941176,0.705882352941176,0.705882352941176);
#16=FILL_AREA_STYLE_COLOUR('',#15);
#17=FILL_AREA_STYLE($,(#16));
#18=SURFACE_STYLE_FILL_AREA(#17);
#19=SURFACE_SIDE_STYLE('',(#18));
#20=SURFACE_STYLE_USAGE(.BOTH.,#19);
#21=PRESENTATION_STYLE_ASSIGNMENT((#20));
#22=MECHANICAL_DESIGN_GEOMETRIC_PRESENTATION_REPRESENTATION('NONE',(#23),#8);
#23=STYLED_ITEM('',(#21),#13);
#24=ADVANCED_BREP_SHAPE_REPRESENTATION('NONE',(#13),#8);
#25=SHAPE_REPRESENTATION_RELATIONSHIP('','',#3,#24);
#26=PRODUCT_DEFINITION_SHAPE('NONE','NONE',#1);
#27=MECHANICAL_CONTEXT('NONE',#32,'mechanical');
#28=PRODUCT_DEFINITION_FORMATION_WITH_SPECIFIED_SOURCE('ANY','UNSPECIFIED',#29,.NOT_KNOWN.);
#29=PRODUCT('','\X2\0414043504420430043B044C\X0\','NONE',(#27));
#30=PRODUCT_RELATED_PRODUCT_CATEGORY('detail','',(#29));
#31=DESIGN_CONTEXT('detailed design',#32,'design');
#32=APPLICATION_CONTEXT('configuration controlled 3d designs of mechanical parts and assemblies');
#33=APPLICATION_PROTOCOL_DEFINITION('international standard','config_control_design',
1994,#32);
#34=CC_DESIGN_DATE_AND_TIME_ASSIGNMENT(#35,#39,(#1));
#35=DATE_AND_TIME(#36,#37);
#36=CALENDAR_DATE(0,1,1);
#37=LOCAL_TIME(0,0,0.,#38);
#38=COORDINATED_UNIVERSAL_TIME_OFFSET(0,0,.AHEAD.);
#39=DATE_TIME_ROLE('creation_date');
#40=CC_DESIGN_APPROVAL(#41,(#1));
#41=APPROVAL(#42,'UNSPECIFIED');
#42=APPROVAL_STATUS('not_yet_approved');
#43=APPROVAL_DATE_TIME(#44,#41);
#44=DATE_AND_TIME(#45,#46);
#45=CALENDAR_DATE(0,1,1);
#46=LOCAL_TIME(0,0,0.,#47);
#47=COORDINATED_UNIVERSAL_TIME_OFFSET(0,0,.AHEAD.);
#48=PERSON('UNSPECIFIED','SEVER','UNSPECIFIED',('UNSPECIFIED'),('UNSPECIFIED'),(
'UNSPECIFIED'));
#49=ORGANIZATION('UNSPECIFIED','UNSPECIFIED','UNSPECIFIED');
#50=PERSON_AND_ORGANIZATION(#48,#49);
#51=PERSON_AND_ORGANIZATION_ROLE('creator');
#52=CC_DESIGN_PERSON_AND_ORGANIZATION_ASSIGNMENT(#50,#51,(#28,#1));
#53=ADVANCED_FACE('',(#110,#112),#114,.T.);
#54=ADVANCED_FACE('',(#119,#121),#123,.T.);
#55=ADVANCED_FACE('',(#128,#130),#132,.F.);
#56=ADVANCED_FACE('',(#137,#139,#141),#143,.T.);
#57=ADVANCED_FACE('',(#148),#150,.F.);
#58=ADVANCED_FACE('',(#155),#157,.T.);
#59=ADVANCED_FACE('',(#162),#164,.T.);
#60=ADVANCED_FACE('',(#169,#171,#173,#175,#177,#179),#181,.T.);
#61=ADVANCED_FACE('',(#186,#188),#190,.F.);
#62=ADVANCED_FACE('',(#195),#197,.T.);
#63=ADVANCED_FACE('',(#202),#204,.T.);
#64=ADVANCED_FACE('',(#209),#211,.T.);
#65=ADVANCED_FACE('',(#216),#218,.T.);
#66=ADVANCED_FACE('',(#223),#225,.T.);
#67=ADVANCED_FACE('',(#230),#232,.T.);
#68=ADVANCED_FACE('',(#237),#239,.T.);
#69=ADVANCED_FACE('',(#244),#246,.T.);
#70=ADVANCED_FACE('',(#251,#253),#255,.F.);
#71=ADVANCED_FACE('',(#260,#262),#264,.F.);
#72=ADVANCED_FACE('',(#269,#271),#273,.F.);
#73=ADVANCED_FACE('',(#278,#280),#282,.F.);
#74=ADVANCED_FACE('',(#287,#289,#291,#293,#295,#297),#299,.F.);
#75=ADVANCED_FACE('',(#304),#306,.T.);
#76=ADVANCED_FACE('',(#311),#313,.T.);
#77=ADVANCED_FACE('',(#318),#320,.T.);
#78=ADVANCED_FACE('',(#325),#327,.T.);
#79=ADVANCED_FACE('',(#332),#334,.T.);
#80=ADVANCED_FACE('',(#339),#341,.T.);
#81=ADVANCED_FACE('',(#346),#348,.T.);
#82=ADVANCED_FACE('',(#353),#355,.T.);
#83=ADVANCED_FACE('',(#360,#362,#364,#366,#368,#370),#372,.F.);
#84=ADVANCED_FACE('',(#377),#379,.T.);
#85=ADVANCED_FACE('',(#384),#386,.T.);
#86=ADVANCED_FACE('',(#391),#393,.T.);
#87=ADVANCED_FACE('',(#398),#400,.T.);
#88=ADVANCED_FACE('',(#405),#407,.T.);
#89=ADVANCED_FACE('',(#412),#414,.T.);
#90=ADVANCED_FACE('',(#419),#421,.T.);
#91=ADVANCED_FACE('',(#426),#428,.T.);
#92=ADVANCED_FACE('',(#433,#435),#437,.F.);
#93=ADVANCED_FACE('',(#442,#444),#446,.F.);
#94=ADVANCED_FACE('',(#451,#453),#455,.F.);
#95=ADVANCED_FACE('',(#460,#462),#464,.F.);
#96=ADVANCED_FACE('',(#469,#471),#473,.F.);
#97=ADVANCED_FACE('',(#478),#480,.T.);
#98=ADVANCED_FACE('',(#485),#487,.T.);
#99=ADVANCED_FACE('',(#492),#494,.T.);
#100=ADVANCED_FACE('',(#499),#501,.T.);
#101=ADVANCED_FACE('',(#506),#508,.T.);
#102=ADVANCED_FACE('',(#513),#515,.T.);
#103=ADVANCED_FACE('',(#520),#522,.T.);
#104=ADVANCED_FACE('',(#527),#529,.T.);
#105=ADVANCED_FACE('',(#534,#536,#538),#540,.T.);
#106=ADVANCED_FACE('',(#545,#547,#549),#551,.T.);
#107=ADVANCED_FACE('',(#556),#558,.F.);
#108=ADVANCED_FACE('',(#563),#565,.F.);
#109=ADVANCED_FACE('',(#570,#572),#574,.F.);
#110=FACE_BOUND('',#111,.T.);
#111=EDGE_LOOP('',(#579,#580,#581,#582));
#112=FACE_BOUND('',#113,.T.);
#113=EDGE_LOOP('',(#583));
#114=PLANE('',#115);
#115=AXIS2_PLACEMENT_3D('',#116,#117,#118);
#116=CARTESIAN_POINT('',(-16.5,-2.,1.));
#117=DIRECTION('',(-7.40148683083438E-17,-1.,0.));
#118=DIRECTION('',(-1.,7.40148683083438E-17,0.));
#119=FACE_BOUND('',#120,.T.);
#120=EDGE_LOOP('',(#584,#585,#586,#587));
#121=FACE_BOUND('',#122,.T.);
#122=EDGE_LOOP('',(#588));
#123=PLANE('',#124);
#124=AXIS2_PLACEMENT_3D('',#125,#126,#127);
#125=CARTESIAN_POINT('',(-22.5,2.,1.));
#126=DIRECTION('',(3.70074341541719E-17,1.,0.));
#127=DIRECTION('',(1.,-3.70074341541719E-17,0.));
#128=FACE_OUTER_BOUND('',#129,.T.);
#129=EDGE_LOOP('',(#589));
#130=FACE_OUTER_BOUND('',#131,.T.);
#131=EDGE_LOOP('',(#590));
#132=CYLINDRICAL_SURFACE('',#133,1.225);
#133=AXIS2_PLACEMENT_3D('',#134,#135,#136);
#134=CARTESIAN_POINT('',(-19.9426693253569,8.,-1.5));
#135=DIRECTION('',(-7.40148683083438E-17,-1.,0.));
#136=DIRECTION('',(1.,-7.40148683083438E-17,0.));
#137=FACE_BOUND('',#138,.T.);
#138=EDGE_LOOP('',(#591,#592,#593,#594,#595,#596));
#139=FACE_OUTER_BOUND('',#140,.T.);
#140=EDGE_LOOP('',(#597));
#141=FACE_OUTER_BOUND('',#142,.T.);
#142=EDGE_LOOP('',(#598));
#143=CYLINDRICAL_SURFACE('',#144,17.5);
#144=AXIS2_PLACEMENT_3D('',#145,#146,#147);
#145=CARTESIAN_POINT('',(0.,0.,-15.));
#146=DIRECTION('',(0.,0.,1.));
#147=DIRECTION('',(-1.,1.22464679914735E-16,0.));
#148=FACE_BOUND('',#149,.T.);
#149=EDGE_LOOP('',(#599,#600,#601,#602,#603));
#150=PLANE('',#151);
#151=AXIS2_PLACEMENT_3D('',#152,#153,#154);
#152=CARTESIAN_POINT('',(0.,0.,1.));
#153=DIRECTION('',(0.,0.,-1.));
#154=DIRECTION('',(-6.12323399573677E-17,-1.,0.));
#155=FACE_BOUND('',#156,.T.);
#156=EDGE_LOOP('',(#604,#605,#606,#607));
#157=PLANE('',#158);
#158=AXIS2_PLACEMENT_3D('',#159,#160,#161);
#159=CARTESIAN_POINT('',(-22.5,-2.,1.));
#160=DIRECTION('',(-1.,0.,0.));
#161=DIRECTION('',(0.,1.,0.));
#162=FACE_BOUND('',#163,.T.);
#163=EDGE_LOOP('',(#608,#609,#610,#611,#612));
#164=PLANE('',#165);
#165=AXIS2_PLACEMENT_3D('',#166,#167,#168);
#166=CARTESIAN_POINT('',(0.,0.,-4.));
#167=DIRECTION('',(0.,0.,-1.));
#168=DIRECTION('',(-6.12323399573677E-17,-1.,0.));
#169=FACE_BOUND('',#170,.T.);
#170=EDGE_LOOP('',(#613,#614,#615,#616,#617,#618,#619,#620));
#171=FACE_BOUND('',#172,.T.);
#172=EDGE_LOOP('',(#621));
#173=FACE_BOUND('',#174,.T.);
#174=EDGE_LOOP('',(#622));
#175=FACE_BOUND('',#176,.T.);
#176=EDGE_LOOP('',(#623));
#177=FACE_BOUND('',#178,.T.);
#178=EDGE_LOOP('',(#624));
#179=FACE_BOUND('',#180,.T.);
#180=EDGE_LOOP('',(#625));
#181=PLANE('',#182);
#182=AXIS2_PLACEMENT_3D('',#183,#184,#185);
#183=CARTESIAN_POINT('',(0.,0.,-10.));
#184=DIRECTION('',(0.,0.,1.));
#185=DIRECTION('',(-1.,1.22464679914735E-16,0.));
#186=FACE_OUTER_BOUND('',#187,.T.);
#187=EDGE_LOOP('',(#626));
#188=FACE_OUTER_BOUND('',#189,.T.);
#189=EDGE_LOOP('',(#627));
#190=TOROIDAL_SURFACE('',#191,21.5,4.);
#191=AXIS2_PLACEMENT_3D('',#192,#193,#194);
#192=CARTESIAN_POINT('',(0.,0.,9.));
#193=DIRECTION('',(0.,0.,1.));
#194=DIRECTION('',(-1.,1.22464679914735E-16,0.));
#195=FACE_BOUND('',#196,.T.);
#196=EDGE_LOOP('',(#628,#629,#630,#631));
#197=CYLINDRICAL_SURFACE('',#198,2.);
#198=AXIS2_PLACEMENT_3D('',#199,#200,#201);
#199=CARTESIAN_POINT('',(29.,23.,-12.));
#200=DIRECTION('',(-1.,3.0626842058625E-16,0.));
#201=DIRECTION('',(0.,-5.44042003600698E-31,1.));
#202=FACE_BOUND('',#203,.T.);
#203=EDGE_LOOP('',(#632,#633,#634,#635));
#204=DEGENERATE_TOROIDAL_SURFACE('',#205,2.,2.,.T.);
#205=AXIS2_PLACEMENT_3D('',#206,#207,#208);
#206=CARTESIAN_POINT('',(-21.,21.,-12.));
#207=DIRECTION('',(0.,0.,1.));
#208=DIRECTION('',(1.,0.,0.));
#209=FACE_BOUND('',#210,.T.);
#210=EDGE_LOOP('',(#636,#637,#638,#639));
#211=CYLINDRICAL_SURFACE('',#212,2.);
#212=AXIS2_PLACEMENT_3D('',#213,#214,#215);
#213=CARTESIAN_POINT('',(-23.,29.,-12.));
#214=DIRECTION('',(-1.225073682345E-16,-1.,0.));
#215=DIRECTION('',(2.17616801440279E-31,0.,1.));
#216=FACE_BOUND('',#217,.T.);
#217=EDGE_LOOP('',(#640,#641,#642,#643));
#218=DEGENERATE_TOROIDAL_SURFACE('',#219,2.,2.,.T.);
#219=AXIS2_PLACEMENT_3D('',#220,#221,#222);
#220=CARTESIAN_POINT('',(-21.,-21.,-12.));
#221=DIRECTION('',(0.,0.,1.));
#222=DIRECTION('',(0.,1.,0.));
#223=FACE_BOUND('',#224,.T.);
#224=EDGE_LOOP('',(#644,#645,#646,#647));
#225=CYLINDRICAL_SURFACE('',#226,2.);
#226=AXIS2_PLACEMENT_3D('',#227,#228,#229);
#227=CARTESIAN_POINT('',(-29.,-23.,-12.));
#228=DIRECTION('',(1.,-1.225073682345E-16,0.));
#229=DIRECTION('',(0.,0.,1.));
#230=FACE_BOUND('',#231,.T.);
#231=EDGE_LOOP('',(#648,#649,#650,#651));
#232=DEGENERATE_TOROIDAL_SURFACE('',#233,2.,2.,.T.);
#233=AXIS2_PLACEMENT_3D('',#234,#235,#236);
#234=CARTESIAN_POINT('',(21.,-21.,-12.));
#235=DIRECTION('',(0.,0.,1.));
#236=DIRECTION('',(-1.,8.88178419700125E-16,0.));
#237=FACE_BOUND('',#238,.T.);
#238=EDGE_LOOP('',(#652,#653,#654,#655));
#239=CYLINDRICAL_SURFACE('',#240,2.);
#240=AXIS2_PLACEMENT_3D('',#241,#242,#243);
#241=CARTESIAN_POINT('',(23.,-29.,-12.));
#242=DIRECTION('',(1.225073682345E-16,1.,0.));
#243=DIRECTION('',(0.,0.,1.));
#244=FACE_BOUND('',#245,.T.);
#245=EDGE_LOOP('',(#656,#657,#658,#659));
#246=DEGENERATE_TOROIDAL_SURFACE('',#247,2.,2.,.T.);
#247=AXIS2_PLACEMENT_3D('',#248,#249,#250);
#248=CARTESIAN_POINT('',(21.,21.,-12.));
#249=DIRECTION('',(0.,0.,1.));
#250=DIRECTION('',(-1.77635683940025E-15,-1.,0.));
#251=FACE_OUTER_BOUND('',#252,.T.);
#252=EDGE_LOOP('',(#660));
#253=FACE_OUTER_BOUND('',#254,.T.);
#254=EDGE_LOOP('',(#661));
#255=CYLINDRICAL_SURFACE('',#256,2.1);
#256=AXIS2_PLACEMENT_3D('',#257,#258,#259);
#257=CARTESIAN_POINT('',(20.,20.,-15.));
#258=DIRECTION('',(0.,0.,1.));
#259=DIRECTION('',(-1.,1.22464679914735E-16,0.));
#260=FACE_OUTER_BOUND('',#261,.T.);
#261=EDGE_LOOP('',(#662));
#262=FACE_OUTER_BOUND('',#263,.T.);
#263=EDGE_LOOP('',(#663));
#264=CYLINDRICAL_SURFACE('',#265,2.1);
#265=AXIS2_PLACEMENT_3D('',#266,#267,#268);
#266=CARTESIAN_POINT('',(20.,-20.,-15.));
#267=DIRECTION('',(0.,0.,1.));
#268=DIRECTION('',(-1.,1.22464679914735E-16,0.));
#269=FACE_OUTER_BOUND('',#270,.T.);
#270=EDGE_LOOP('',(#664));
#271=FACE_OUTER_BOUND('',#272,.T.);
#272=EDGE_LOOP('',(#665));
#273=CYLINDRICAL_SURFACE('',#274,2.1);
#274=AXIS2_PLACEMENT_3D('',#275,#276,#277);
#275=CARTESIAN_POINT('',(-20.,20.,-15.));
#276=DIRECTION('',(0.,0.,1.));
#277=DIRECTION('',(-1.,1.22464679914735E-16,0.));
#278=FACE_OUTER_BOUND('',#279,.T.);
#279=EDGE_LOOP('',(#666));
#280=FACE_OUTER_BOUND('',#281,.T.);
#281=EDGE_LOOP('',(#667));
#282=CYLINDRICAL_SURFACE('',#283,2.1);
#283=AXIS2_PLACEMENT_3D('',#284,#285,#286);
#284=CARTESIAN_POINT('',(-20.,-20.,-15.));
#285=DIRECTION('',(0.,0.,1.));
#286=DIRECTION('',(-1.,1.22464679914735E-16,0.));
#287=FACE_BOUND('',#288,.T.);
#288=EDGE_LOOP('',(#668,#669,#670,#671,#672,#673,#674,#675));
#289=FACE_BOUND('',#290,.T.);
#290=EDGE_LOOP('',(#676));
#291=FACE_BOUND('',#292,.T.);
#292=EDGE_LOOP('',(#677));
#293=FACE_BOUND('',#294,.T.);
#294=EDGE_LOOP('',(#678));
#295=FACE_BOUND('',#296,.T.);
#296=EDGE_LOOP('',(#679));
#297=FACE_BOUND('',#298,.T.);
#298=EDGE_LOOP('',(#680));
#299=PLANE('',#300);
#300=AXIS2_PLACEMENT_3D('',#301,#302,#303);
#301=CARTESIAN_POINT('',(0.,0.,13.));
#302=DIRECTION('',(0.,0.,1.));
#303=DIRECTION('',(-1.,1.22464679914735E-16,0.));
#304=FACE_BOUND('',#305,.T.);
#305=EDGE_LOOP('',(#681,#682,#683,#684));
#306=PLANE('',#307);
#307=AXIS2_PLACEMENT_3D('',#308,#309,#310);
#308=CARTESIAN_POINT('',(25.,25.,-15.));
#309=DIRECTION('',(3.5527136788005E-16,1.,0.));
#310=DIRECTION('',(-1.,3.5527136788005E-16,0.));
#311=FACE_BOUND('',#312,.T.);
#312=EDGE_LOOP('',(#685,#686,#687,#688));
#313=CYLINDRICAL_SURFACE('',#314,4.);
#314=AXIS2_PLACEMENT_3D('',#315,#316,#317);
#315=CARTESIAN_POINT('',(-21.,21.,-31.));
#316=DIRECTION('',(0.,0.,-1.));
#317=DIRECTION('',(-1.,0.,0.));
#318=FACE_BOUND('',#319,.T.);
#319=EDGE_LOOP('',(#689,#690,#691,#692));
#320=PLANE('',#321);
#321=AXIS2_PLACEMENT_3D('',#322,#323,#324);
#322=CARTESIAN_POINT('',(-25.,25.,-15.));
#323=DIRECTION('',(-1.,1.4210854715202E-16,0.));
#324=DIRECTION('',(-1.4210854715202E-16,-1.,0.));
#325=FACE_BOUND('',#326,.T.);
#326=EDGE_LOOP('',(#693,#694,#695,#696));
#327=CYLINDRICAL_SURFACE('',#328,4.);
#328=AXIS2_PLACEMENT_3D('',#329,#330,#331);
#329=CARTESIAN_POINT('',(-21.,-21.,-31.));
#330=DIRECTION('',(0.,0.,-1.));
#331=DIRECTION('',(0.,-1.,0.));
#332=FACE_BOUND('',#333,.T.);
#333=EDGE_LOOP('',(#697,#698,#699,#700));
#334=PLANE('',#335);
#335=AXIS2_PLACEMENT_3D('',#336,#337,#338);
#336=CARTESIAN_POINT('',(-25.,-25.,-15.));
#337=DIRECTION('',(-1.4210854715202E-16,-1.,0.));
#338=DIRECTION('',(1.,-1.4210854715202E-16,0.));
#339=FACE_BOUND('',#340,.T.);
#340=EDGE_LOOP('',(#701,#702,#703,#704));
#341=CYLINDRICAL_SURFACE('',#342,4.);
#342=AXIS2_PLACEMENT_3D('',#343,#344,#345);
#343=CARTESIAN_POINT('',(21.,-21.,-31.));
#344=DIRECTION('',(0.,0.,-1.));
#345=DIRECTION('',(1.,0.,0.));
#346=FACE_BOUND('',#347,.T.);
#347=EDGE_LOOP('',(#705,#706,#707,#708));
#348=PLANE('',#349);
#349=AXIS2_PLACEMENT_3D('',#350,#351,#352);
#350=CARTESIAN_POINT('',(25.,-25.,-15.));
#351=DIRECTION('',(1.,-1.4210854715202E-16,0.));
#352=DIRECTION('',(1.4210854715202E-16,1.,0.));
#353=FACE_BOUND('',#354,.T.);
#354=EDGE_LOOP('',(#709,#710,#711,#712));
#355=CYLINDRICAL_SURFACE('',#356,4.);
#356=AXIS2_PLACEMENT_3D('',#357,#358,#359);
#357=CARTESIAN_POINT('',(21.,21.,-31.));
#358=DIRECTION('',(0.,0.,-1.));
#359=DIRECTION('',(0.,1.,0.));
#360=FACE_BOUND('',#361,.T.);
#361=EDGE_LOOP('',(#713,#714,#715,#716,#717,#718,#719,#720));
#362=FACE_BOUND('',#363,.T.);
#363=EDGE_LOOP('',(#721));
#364=FACE_BOUND('',#365,.T.);
#365=EDGE_LOOP('',(#722));
#366=FACE_BOUND('',#367,.T.);
#367=EDGE_LOOP('',(#723));
#368=FACE_BOUND('',#369,.T.);
#369=EDGE_LOOP('',(#724));
#370=FACE_BOUND('',#371,.T.);
#371=EDGE_LOOP('',(#725));
#372=PLANE('',#373);
#373=AXIS2_PLACEMENT_3D('',#374,#375,#376);
#374=CARTESIAN_POINT('',(0.,0.,-15.));
#375=DIRECTION('',(0.,0.,1.));
#376=DIRECTION('',(-1.,1.22464679914735E-16,0.));
#377=FACE_BOUND('',#378,.T.);
#378=EDGE_LOOP('',(#726,#727,#728,#729));
#379=CYLINDRICAL_SURFACE('',#380,2.);
#380=AXIS2_PLACEMENT_3D('',#381,#382,#383);
#381=CARTESIAN_POINT('',(-29.,-23.,15.));
#382=DIRECTION('',(-1.,1.225073682345E-16,0.));
#383=DIRECTION('',(0.,0.,-1.));
#384=FACE_BOUND('',#385,.T.);
#385=EDGE_LOOP('',(#730,#731,#732,#733));
#386=DEGENERATE_TOROIDAL_SURFACE('',#387,2.,2.,.T.);
#387=AXIS2_PLACEMENT_3D('',#388,#389,#390);
#388=CARTESIAN_POINT('',(-21.,-21.,15.));
#389=DIRECTION('',(0.,0.,-1.));
#390=DIRECTION('',(1.,0.,0.));
#391=FACE_BOUND('',#392,.T.);
#392=EDGE_LOOP('',(#734,#735,#736,#737));
#393=CYLINDRICAL_SURFACE('',#394,2.);
#394=AXIS2_PLACEMENT_3D('',#395,#396,#397);
#395=CARTESIAN_POINT('',(-23.,29.,15.));
#396=DIRECTION('',(1.225073682345E-16,1.,0.));
#397=DIRECTION('',(2.17616801440279E-31,0.,-1.));
#398=FACE_BOUND('',#399,.T.);
#399=EDGE_LOOP('',(#738,#739,#740,#741));
#400=DEGENERATE_TOROIDAL_SURFACE('',#401,2.,2.,.T.);
#401=AXIS2_PLACEMENT_3D('',#402,#403,#404);
#402=CARTESIAN_POINT('',(-21.,21.,15.));
#403=DIRECTION('',(0.,0.,-1.));
#404=DIRECTION('',(0.,-1.,0.));
#405=FACE_BOUND('',#406,.T.);
#406=EDGE_LOOP('',(#742,#743,#744,#745));
#407=CYLINDRICAL_SURFACE('',#408,2.);
#408=AXIS2_PLACEMENT_3D('',#409,#410,#411);
#409=CARTESIAN_POINT('',(29.,23.,15.));
#410=DIRECTION('',(1.,-3.0626842058625E-16,0.));
#411=DIRECTION('',(0.,5.44042003600698E-31,-1.));
#412=FACE_BOUND('',#413,.T.);
#413=EDGE_LOOP('',(#746,#747,#748,#749));
#414=DEGENERATE_TOROIDAL_SURFACE('',#415,2.,2.,.T.);
#415=AXIS2_PLACEMENT_3D('',#416,#417,#418);
#416=CARTESIAN_POINT('',(21.,21.,15.));
#417=DIRECTION('',(0.,0.,-1.));
#418=DIRECTION('',(-1.,-2.66453525910038E-15,0.));
#419=FACE_BOUND('',#420,.T.);
#420=EDGE_LOOP('',(#750,#751,#752,#753));
#421=CYLINDRICAL_SURFACE('',#422,2.);
#422=AXIS2_PLACEMENT_3D('',#423,#424,#425);
#423=CARTESIAN_POINT('',(23.,-29.,15.));
#424=DIRECTION('',(-1.225073682345E-16,-1.,0.));
#425=DIRECTION('',(-2.17616801440279E-31,0.,-1.));
#426=FACE_BOUND('',#427,.T.);
#427=EDGE_LOOP('',(#754,#755,#756,#757));
#428=DEGENERATE_TOROIDAL_SURFACE('',#429,2.,2.,.T.);
#429=AXIS2_PLACEMENT_3D('',#430,#431,#432);
#430=CARTESIAN_POINT('',(21.,-21.,15.));
#431=DIRECTION('',(0.,0.,-1.));
#432=DIRECTION('',(-8.88178419700125E-16,1.,0.));
#433=FACE_OUTER_BOUND('',#434,.T.);
#434=EDGE_LOOP('',(#758));
#435=FACE_OUTER_BOUND('',#436,.T.);
#436=EDGE_LOOP('',(#759));
#437=CYLINDRICAL_SURFACE('',#438,2.1);
#438=AXIS2_PLACEMENT_3D('',#439,#440,#441);
#439=CARTESIAN_POINT('',(-20.,-20.,13.));
#440=DIRECTION('',(0.,0.,1.));
#441=DIRECTION('',(-1.,1.22464679914735E-16,0.));
#442=FACE_OUTER_BOUND('',#443,.T.);
#443=EDGE_LOOP('',(#760));
#444=FACE_OUTER_BOUND('',#445,.T.);
#445=EDGE_LOOP('',(#761));
#446=CYLINDRICAL_SURFACE('',#447,2.1);
#447=AXIS2_PLACEMENT_3D('',#448,#449,#450);
#448=CARTESIAN_POINT('',(-20.,20.,13.));
#449=DIRECTION('',(0.,0.,1.));
#450=DIRECTION('',(-1.,1.22464679914735E-16,0.));
#451=FACE_OUTER_BOUND('',#452,.T.);
#452=EDGE_LOOP('',(#762));
#453=FACE_OUTER_BOUND('',#454,.T.);
#454=EDGE_LOOP('',(#763));
#455=CYLINDRICAL_SURFACE('',#456,2.1);
#456=AXIS2_PLACEMENT_3D('',#457,#458,#459);
#457=CARTESIAN_POINT('',(20.,20.,13.));
#458=DIRECTION('',(0.,0.,1.));
#459=DIRECTION('',(-1.,1.22464679914735E-16,0.));
#460=FACE_OUTER_BOUND('',#461,.T.);
#461=EDGE_LOOP('',(#764));
#462=FACE_OUTER_BOUND('',#463,.T.);
#463=EDGE_LOOP('',(#765));
#464=CYLINDRICAL_SURFACE('',#465,2.1);
#465=AXIS2_PLACEMENT_3D('',#466,#467,#468);
#466=CARTESIAN_POINT('',(20.,-20.,13.));
#467=DIRECTION('',(0.,0.,1.));
#468=DIRECTION('',(-1.,1.22464679914735E-16,0.));
#469=FACE_BOUND('',#470,.T.);
#470=EDGE_LOOP('',(#766,#767,#768,#769,#770));
#471=FACE_OUTER_BOUND('',#472,.T.);
#472=EDGE_LOOP('',(#771));
#473=CYLINDRICAL_SURFACE('',#474,14.5);
#474=AXIS2_PLACEMENT_3D('',#475,#476,#477);
#475=CARTESIAN_POINT('',(0.,0.,-15.));
#476=DIRECTION('',(0.,0.,1.));
#477=DIRECTION('',(-1.,1.22464679914735E-16,0.));
#478=FACE_BOUND('',#479,.T.);
#479=EDGE_LOOP('',(#772,#773,#774,#775,#776,#777));
#480=PLANE('',#481);
#481=AXIS2_PLACEMENT_3D('',#482,#483,#484);
#482=CARTESIAN_POINT('',(-25.,-25.,13.));
#483=DIRECTION('',(-1.4210854715202E-16,-1.,0.));
#484=DIRECTION('',(1.,-1.4210854715202E-16,0.));
#485=FACE_BOUND('',#486,.T.);
#486=EDGE_LOOP('',(#778,#779,#780,#781));
#487=CYLINDRICAL_SURFACE('',#488,4.);
#488=AXIS2_PLACEMENT_3D('',#489,#490,#491);
#489=CARTESIAN_POINT('',(-21.,-21.,-3.));
#490=DIRECTION('',(0.,0.,-1.));
#491=DIRECTION('',(0.,-1.,0.));
#492=FACE_BOUND('',#493,.T.);
#493=EDGE_LOOP('',(#782,#783,#784,#785));
#494=PLANE('',#495);
#495=AXIS2_PLACEMENT_3D('',#496,#497,#498);
#496=CARTESIAN_POINT('',(-25.,25.,13.));
#497=DIRECTION('',(-1.,1.4210854715202E-16,0.));
#498=DIRECTION('',(-1.4210854715202E-16,-1.,0.));
#499=FACE_BOUND('',#500,.T.);
#500=EDGE_LOOP('',(#786,#787,#788,#789));
#501=CYLINDRICAL_SURFACE('',#502,4.);
#502=AXIS2_PLACEMENT_3D('',#503,#504,#505);
#503=CARTESIAN_POINT('',(-21.,21.,-3.));
#504=DIRECTION('',(0.,0.,-1.));
#505=DIRECTION('',(-1.,0.,0.));
#506=FACE_BOUND('',#507,.T.);
#507=EDGE_LOOP('',(#790,#791,#792,#793,#794,#795));
#508=PLANE('',#509);
#509=AXIS2_PLACEMENT_3D('',#510,#511,#512);
#510=CARTESIAN_POINT('',(25.,25.,13.));
#511=DIRECTION('',(3.5527136788005E-16,1.,0.));
#512=DIRECTION('',(-1.,3.5527136788005E-16,0.));
#513=FACE_BOUND('',#514,.T.);
#514=EDGE_LOOP('',(#796,#797,#798,#799));
#515=CYLINDRICAL_SURFACE('',#516,4.);
#516=AXIS2_PLACEMENT_3D('',#517,#518,#519);
#517=CARTESIAN_POINT('',(21.,21.,-3.));
#518=DIRECTION('',(0.,0.,-1.));
#519=DIRECTION('',(0.,1.,0.));
#520=FACE_BOUND('',#521,.T.);
#521=EDGE_LOOP('',(#800,#801,#802,#803));
#522=PLANE('',#523);
#523=AXIS2_PLACEMENT_3D('',#524,#525,#526);
#524=CARTESIAN_POINT('',(25.,-25.,13.));
#525=DIRECTION('',(1.,-1.4210854715202E-16,0.));
#526=DIRECTION('',(1.4210854715202E-16,1.,0.));
#527=FACE_BOUND('',#528,.T.);
#528=EDGE_LOOP('',(#804,#805,#806,#807));
#529=CYLINDRICAL_SURFACE('',#530,4.);
#530=AXIS2_PLACEMENT_3D('',#531,#532,#533);
#531=CARTESIAN_POINT('',(21.,-21.,-3.));
#532=DIRECTION('',(0.,0.,-1.));
#533=DIRECTION('',(1.,0.,0.));
#534=FACE_BOUND('',#535,.T.);
#535=EDGE_LOOP('',(#808,#809,#810,#811,#812,#813,#814,#815,#816));
#536=FACE_BOUND('',#537,.T.);
#537=EDGE_LOOP('',(#817));
#538=FACE_BOUND('',#539,.T.);
#539=EDGE_LOOP('',(#818));
#540=PLANE('',#541);
#541=AXIS2_PLACEMENT_3D('',#542,#543,#544);
#542=CARTESIAN_POINT('',(0.,0.,20.));
#543=DIRECTION('',(0.,0.,1.));
#544=DIRECTION('',(-1.,1.22464679914735E-16,0.));
#545=FACE_BOUND('',#546,.T.);
#546=EDGE_LOOP('',(#819,#820,#821,#822,#823,#824,#825,#826));
#547=FACE_BOUND('',#548,.T.);
#548=EDGE_LOOP('',(#827));
#549=FACE_BOUND('',#550,.T.);
#550=EDGE_LOOP('',(#828));
#551=PLANE('',#552);
#552=AXIS2_PLACEMENT_3D('',#553,#554,#555);
#553=CARTESIAN_POINT('',(0.,0.,20.));
#554=DIRECTION('',(0.,0.,1.));
#555=DIRECTION('',(-1.,1.22464679914735E-16,0.));
#556=FACE_BOUND('',#557,.T.);
#557=EDGE_LOOP('',(#829,#830,#831,#832));
#558=CYLINDRICAL_SURFACE('',#559,3.5);
#559=AXIS2_PLACEMENT_3D('',#560,#561,#562);
#560=CARTESIAN_POINT('',(-1.83697019872103E-15,25.,20.));
#561=DIRECTION('',(1.22464679914735E-16,-1.,-6.12323399573677E-17));
#562=DIRECTION('',(-6.12323399573677E-17,-6.12323399573677E-17,1.));
#563=FACE_BOUND('',#564,.T.);
#564=EDGE_LOOP('',(#833,#834,#835,#836));
#565=CYLINDRICAL_SURFACE('',#566,3.5);
#566=AXIS2_PLACEMENT_3D('',#567,#568,#569);
#567=CARTESIAN_POINT('',(-1.83697019872103E-15,25.,20.));
#568=DIRECTION('',(1.22464679914735E-16,-1.,-6.12323399573677E-17));
#569=DIRECTION('',(-6.12323399573677E-17,-6.12323399573677E-17,1.));
#570=FACE_OUTER_BOUND('',#571,.T.);
#571=EDGE_LOOP('',(#837));
#572=FACE_OUTER_BOUND('',#573,.T.);
#573=EDGE_LOOP('',(#838));
#574=TOROIDAL_SURFACE('',#575,21.5,4.);
#575=AXIS2_PLACEMENT_3D('',#576,#577,#578);
#576=CARTESIAN_POINT('',(0.,0.,-6.));
#577=DIRECTION('',(0.,0.,1.));
#578=DIRECTION('',(-1.,1.22464679914735E-16,0.));
#579=ORIENTED_EDGE('',*,*,#839,.T.);
#580=ORIENTED_EDGE('',*,*,#840,.T.);
#581=ORIENTED_EDGE('',*,*,#841,.T.);
#582=ORIENTED_EDGE('',*,*,#842,.F.);
#583=ORIENTED_EDGE('',*,*,#843,.T.);
#584=ORIENTED_EDGE('',*,*,#844,.T.);
#585=ORIENTED_EDGE('',*,*,#845,.F.);
#586=ORIENTED_EDGE('',*,*,#846,.F.);
#587=ORIENTED_EDGE('',*,*,#847,.T.);
#588=ORIENTED_EDGE('',*,*,#848,.T.);
#589=ORIENTED_EDGE('',*,*,#848,.F.);
#590=ORIENTED_EDGE('',*,*,#843,.F.);
#591=ORIENTED_EDGE('',*,*,#849,.F.);
#592=ORIENTED_EDGE('',*,*,#850,.F.);
#593=ORIENTED_EDGE('',*,*,#839,.F.);
#594=ORIENTED_EDGE('',*,*,#851,.F.);
#595=ORIENTED_EDGE('',*,*,#852,.F.);
#596=ORIENTED_EDGE('',*,*,#844,.F.);
#597=ORIENTED_EDGE('',*,*,#853,.F.);
#598=ORIENTED_EDGE('',*,*,#854,.F.);
#599=ORIENTED_EDGE('',*,*,#850,.T.);
#600=ORIENTED_EDGE('',*,*,#849,.T.);
#601=ORIENTED_EDGE('',*,*,#847,.F.);
#602=ORIENTED_EDGE('',*,*,#855,.F.);
#603=ORIENTED_EDGE('',*,*,#840,.F.);
#604=ORIENTED_EDGE('',*,*,#855,.T.);
#605=ORIENTED_EDGE('',*,*,#846,.T.);
#606=ORIENTED_EDGE('',*,*,#856,.F.);
#607=ORIENTED_EDGE('',*,*,#841,.F.);
#608=ORIENTED_EDGE('',*,*,#851,.T.);
#609=ORIENTED_EDGE('',*,*,#842,.T.);
#610=ORIENTED_EDGE('',*,*,#856,.T.);
#611=ORIENTED_EDGE('',*,*,#845,.T.);
#612=ORIENTED_EDGE('',*,*,#852,.T.);
#613=ORIENTED_EDGE('',*,*,#857,.T.);
#614=ORIENTED_EDGE('',*,*,#858,.F.);
#615=ORIENTED_EDGE('',*,*,#859,.T.);
#616=ORIENTED_EDGE('',*,*,#860,.F.);
#617=ORIENTED_EDGE('',*,*,#861,.T.);
#618=ORIENTED_EDGE('',*,*,#862,.F.);
#619=ORIENTED_EDGE('',*,*,#863,.T.);
#620=ORIENTED_EDGE('',*,*,#864,.F.);
#621=ORIENTED_EDGE('',*,*,#865,.T.);
#622=ORIENTED_EDGE('',*,*,#866,.T.);
#623=ORIENTED_EDGE('',*,*,#867,.T.);
#624=ORIENTED_EDGE('',*,*,#868,.T.);
#625=ORIENTED_EDGE('',*,*,#869,.T.);
#626=ORIENTED_EDGE('',*,*,#853,.T.);
#627=ORIENTED_EDGE('',*,*,#870,.F.);
#628=ORIENTED_EDGE('',*,*,#871,.T.);
#629=ORIENTED_EDGE('',*,*,#872,.T.);
#630=ORIENTED_EDGE('',*,*,#857,.F.);
#631=ORIENTED_EDGE('',*,*,#873,.F.);
#632=ORIENTED_EDGE('',*,*,#858,.T.);
#633=ORIENTED_EDGE('',*,*,#872,.F.);
#634=ORIENTED_EDGE('',*,*,#874,.F.);
#635=ORIENTED_EDGE('',*,*,#875,.T.);
#636=ORIENTED_EDGE('',*,*,#876,.T.);
#637=ORIENTED_EDGE('',*,*,#877,.T.);
#638=ORIENTED_EDGE('',*,*,#859,.F.);
#639=ORIENTED_EDGE('',*,*,#875,.F.);
#640=ORIENTED_EDGE('',*,*,#860,.T.);
#641=ORIENTED_EDGE('',*,*,#877,.F.);
#642=ORIENTED_EDGE('',*,*,#878,.F.);
#643=ORIENTED_EDGE('',*,*,#879,.T.);
#644=ORIENTED_EDGE('',*,*,#880,.T.);
#645=ORIENTED_EDGE('',*,*,#881,.T.);
#646=ORIENTED_EDGE('',*,*,#861,.F.);
#647=ORIENTED_EDGE('',*,*,#879,.F.);
#648=ORIENTED_EDGE('',*,*,#862,.T.);
#649=ORIENTED_EDGE('',*,*,#881,.F.);
#650=ORIENTED_EDGE('',*,*,#882,.F.);
#651=ORIENTED_EDGE('',*,*,#883,.T.);
#652=ORIENTED_EDGE('',*,*,#884,.T.);
#653=ORIENTED_EDGE('',*,*,#885,.T.);
#654=ORIENTED_EDGE('',*,*,#863,.F.);
#655=ORIENTED_EDGE('',*,*,#883,.F.);
#656=ORIENTED_EDGE('',*,*,#864,.T.);
#657=ORIENTED_EDGE('',*,*,#885,.F.);
#658=ORIENTED_EDGE('',*,*,#886,.F.);
#659=ORIENTED_EDGE('',*,*,#873,.T.);
#660=ORIENTED_EDGE('',*,*,#869,.F.);
#661=ORIENTED_EDGE('',*,*,#887,.F.);
#662=ORIENTED_EDGE('',*,*,#868,.F.);
#663=ORIENTED_EDGE('',*,*,#888,.F.);
#664=ORIENTED_EDGE('',*,*,#867,.F.);
#665=ORIENTED_EDGE('',*,*,#889,.F.);
#666=ORIENTED_EDGE('',*,*,#866,.F.);
#667=ORIENTED_EDGE('',*,*,#890,.F.);
#668=ORIENTED_EDGE('',*,*,#891,.F.);
#669=ORIENTED_EDGE('',*,*,#892,.F.);
#670=ORIENTED_EDGE('',*,*,#893,.F.);
#671=ORIENTED_EDGE('',*,*,#894,.F.);
#672=ORIENTED_EDGE('',*,*,#895,.F.);
#673=ORIENTED_EDGE('',*,*,#896,.F.);
#674=ORIENTED_EDGE('',*,*,#897,.F.);
#675=ORIENTED_EDGE('',*,*,#898,.F.);
#676=ORIENTED_EDGE('',*,*,#899,.T.);
#677=ORIENTED_EDGE('',*,*,#900,.T.);
#678=ORIENTED_EDGE('',*,*,#901,.T.);
#679=ORIENTED_EDGE('',*,*,#902,.T.);
#680=ORIENTED_EDGE('',*,*,#870,.T.);
#681=ORIENTED_EDGE('',*,*,#871,.F.);
#682=ORIENTED_EDGE('',*,*,#903,.F.);
#683=ORIENTED_EDGE('',*,*,#904,.T.);
#684=ORIENTED_EDGE('',*,*,#905,.T.);
#685=ORIENTED_EDGE('',*,*,#874,.T.);
#686=ORIENTED_EDGE('',*,*,#905,.F.);
#687=ORIENTED_EDGE('',*,*,#906,.T.);
#688=ORIENTED_EDGE('',*,*,#907,.T.);
#689=ORIENTED_EDGE('',*,*,#876,.F.);
#690=ORIENTED_EDGE('',*,*,#907,.F.);
#691=ORIENTED_EDGE('',*,*,#908,.T.);
#692=ORIENTED_EDGE('',*,*,#909,.T.);
#693=ORIENTED_EDGE('',*,*,#878,.T.);
#694=ORIENTED_EDGE('',*,*,#909,.F.);
#695=ORIENTED_EDGE('',*,*,#910,.T.);
#696=ORIENTED_EDGE('',*,*,#911,.T.);
#697=ORIENTED_EDGE('',*,*,#880,.F.);
#698=ORIENTED_EDGE('',*,*,#911,.F.);
#699=ORIENTED_EDGE('',*,*,#912,.T.);
#700=ORIENTED_EDGE('',*,*,#913,.T.);
#701=ORIENTED_EDGE('',*,*,#882,.T.);
#702=ORIENTED_EDGE('',*,*,#913,.F.);
#703=ORIENTED_EDGE('',*,*,#914,.T.);
#704=ORIENTED_EDGE('',*,*,#915,.T.);
#705=ORIENTED_EDGE('',*,*,#884,.F.);
#706=ORIENTED_EDGE('',*,*,#915,.F.);
#707=ORIENTED_EDGE('',*,*,#916,.T.);
#708=ORIENTED_EDGE('',*,*,#917,.T.);
#709=ORIENTED_EDGE('',*,*,#886,.T.);
#710=ORIENTED_EDGE('',*,*,#917,.F.);
#711=ORIENTED_EDGE('',*,*,#918,.T.);
#712=ORIENTED_EDGE('',*,*,#903,.T.);
#713=ORIENTED_EDGE('',*,*,#914,.F.);
#714=ORIENTED_EDGE('',*,*,#912,.F.);
#715=ORIENTED_EDGE('',*,*,#910,.F.);
#716=ORIENTED_EDGE('',*,*,#908,.F.);
#717=ORIENTED_EDGE('',*,*,#906,.F.);
#718=ORIENTED_EDGE('',*,*,#904,.F.);
#719=ORIENTED_EDGE('',*,*,#918,.F.);
#720=ORIENTED_EDGE('',*,*,#916,.F.);
#721=ORIENTED_EDGE('',*,*,#887,.T.);
#722=ORIENTED_EDGE('',*,*,#888,.T.);
#723=ORIENTED_EDGE('',*,*,#889,.T.);
#724=ORIENTED_EDGE('',*,*,#890,.T.);
#725=ORIENTED_EDGE('',*,*,#919,.T.);
#726=ORIENTED_EDGE('',*,*,#920,.F.);
#727=ORIENTED_EDGE('',*,*,#921,.F.);
#728=ORIENTED_EDGE('',*,*,#891,.T.);
#729=ORIENTED_EDGE('',*,*,#922,.T.);
#730=ORIENTED_EDGE('',*,*,#892,.T.);
#731=ORIENTED_EDGE('',*,*,#921,.T.);
#732=ORIENTED_EDGE('',*,*,#923,.F.);
#733=ORIENTED_EDGE('',*,*,#924,.F.);
#734=ORIENTED_EDGE('',*,*,#925,.F.);
#735=ORIENTED_EDGE('',*,*,#926,.F.);
#736=ORIENTED_EDGE('',*,*,#893,.T.);
#737=ORIENTED_EDGE('',*,*,#924,.T.);
#738=ORIENTED_EDGE('',*,*,#894,.T.);
#739=ORIENTED_EDGE('',*,*,#926,.T.);
#740=ORIENTED_EDGE('',*,*,#927,.F.);
#741=ORIENTED_EDGE('',*,*,#928,.F.);
#742=ORIENTED_EDGE('',*,*,#929,.F.);
#743=ORIENTED_EDGE('',*,*,#930,.F.);
#744=ORIENTED_EDGE('',*,*,#895,.T.);
#745=ORIENTED_EDGE('',*,*,#928,.T.);
#746=ORIENTED_EDGE('',*,*,#896,.T.);
#747=ORIENTED_EDGE('',*,*,#930,.T.);
#748=ORIENTED_EDGE('',*,*,#931,.F.);
#749=ORIENTED_EDGE('',*,*,#932,.F.);
#750=ORIENTED_EDGE('',*,*,#933,.F.);
#751=ORIENTED_EDGE('',*,*,#934,.F.);
#752=ORIENTED_EDGE('',*,*,#897,.T.);
#753=ORIENTED_EDGE('',*,*,#932,.T.);
#754=ORIENTED_EDGE('',*,*,#898,.T.);
#755=ORIENTED_EDGE('',*,*,#934,.T.);
#756=ORIENTED_EDGE('',*,*,#935,.F.);
#757=ORIENTED_EDGE('',*,*,#922,.F.);
#758=ORIENTED_EDGE('',*,*,#936,.F.);
#759=ORIENTED_EDGE('',*,*,#899,.F.);
#760=ORIENTED_EDGE('',*,*,#937,.F.);
#761=ORIENTED_EDGE('',*,*,#900,.F.);
#762=ORIENTED_EDGE('',*,*,#938,.F.);
#763=ORIENTED_EDGE('',*,*,#901,.F.);
#764=ORIENTED_EDGE('',*,*,#939,.F.);
#765=ORIENTED_EDGE('',*,*,#902,.F.);
#766=ORIENTED_EDGE('',*,*,#940,.T.);
#767=ORIENTED_EDGE('',*,*,#941,.F.);
#768=ORIENTED_EDGE('',*,*,#942,.F.);
#769=ORIENTED_EDGE('',*,*,#943,.T.);
#770=ORIENTED_EDGE('',*,*,#944,.F.);
#771=ORIENTED_EDGE('',*,*,#919,.F.);
#772=ORIENTED_EDGE('',*,*,#945,.T.);
#773=ORIENTED_EDGE('',*,*,#946,.F.);
#774=ORIENTED_EDGE('',*,*,#947,.F.);
#775=ORIENTED_EDGE('',*,*,#920,.T.);
#776=ORIENTED_EDGE('',*,*,#948,.T.);
#777=ORIENTED_EDGE('',*,*,#949,.F.);
#778=ORIENTED_EDGE('',*,*,#923,.T.);
#779=ORIENTED_EDGE('',*,*,#947,.T.);
#780=ORIENTED_EDGE('',*,*,#950,.T.);
#781=ORIENTED_EDGE('',*,*,#951,.F.);
#782=ORIENTED_EDGE('',*,*,#925,.T.);
#783=ORIENTED_EDGE('',*,*,#951,.T.);
#784=ORIENTED_EDGE('',*,*,#952,.F.);
#785=ORIENTED_EDGE('',*,*,#953,.F.);
#786=ORIENTED_EDGE('',*,*,#927,.T.);
#787=ORIENTED_EDGE('',*,*,#953,.T.);
#788=ORIENTED_EDGE('',*,*,#954,.T.);
#789=ORIENTED_EDGE('',*,*,#955,.F.);
#790=ORIENTED_EDGE('',*,*,#956,.T.);
#791=ORIENTED_EDGE('',*,*,#957,.F.);
#792=ORIENTED_EDGE('',*,*,#958,.F.);
#793=ORIENTED_EDGE('',*,*,#929,.T.);
#794=ORIENTED_EDGE('',*,*,#955,.T.);
#795=ORIENTED_EDGE('',*,*,#959,.F.);
#796=ORIENTED_EDGE('',*,*,#931,.T.);
#797=ORIENTED_EDGE('',*,*,#958,.T.);
#798=ORIENTED_EDGE('',*,*,#960,.T.);
#799=ORIENTED_EDGE('',*,*,#961,.F.);
#800=ORIENTED_EDGE('',*,*,#933,.T.);
#801=ORIENTED_EDGE('',*,*,#961,.T.);
#802=ORIENTED_EDGE('',*,*,#962,.F.);
#803=ORIENTED_EDGE('',*,*,#963,.F.);
#804=ORIENTED_EDGE('',*,*,#935,.T.);
#805=ORIENTED_EDGE('',*,*,#963,.T.);
#806=ORIENTED_EDGE('',*,*,#964,.T.);
#807=ORIENTED_EDGE('',*,*,#948,.F.);
#808=ORIENTED_EDGE('',*,*,#965,.T.);
#809=ORIENTED_EDGE('',*,*,#959,.T.);
#810=ORIENTED_EDGE('',*,*,#954,.F.);
#811=ORIENTED_EDGE('',*,*,#952,.T.);
#812=ORIENTED_EDGE('',*,*,#950,.F.);
#813=ORIENTED_EDGE('',*,*,#946,.T.);
#814=ORIENTED_EDGE('',*,*,#966,.T.);
#815=ORIENTED_EDGE('',*,*,#942,.T.);
#816=ORIENTED_EDGE('',*,*,#941,.T.);
#817=ORIENTED_EDGE('',*,*,#936,.T.);
#818=ORIENTED_EDGE('',*,*,#937,.T.);
#819=ORIENTED_EDGE('',*,*,#967,.T.);
#820=ORIENTED_EDGE('',*,*,#944,.T.);
#821=ORIENTED_EDGE('',*,*,#968,.T.);
#822=ORIENTED_EDGE('',*,*,#949,.T.);
#823=ORIENTED_EDGE('',*,*,#964,.F.);
#824=ORIENTED_EDGE('',*,*,#962,.T.);
#825=ORIENTED_EDGE('',*,*,#960,.F.);
#826=ORIENTED_EDGE('',*,*,#957,.T.);
#827=ORIENTED_EDGE('',*,*,#938,.T.);
#828=ORIENTED_EDGE('',*,*,#939,.T.);
#829=ORIENTED_EDGE('',*,*,#943,.F.);
#830=ORIENTED_EDGE('',*,*,#966,.F.);
#831=ORIENTED_EDGE('',*,*,#945,.F.);
#832=ORIENTED_EDGE('',*,*,#968,.F.);
#833=ORIENTED_EDGE('',*,*,#940,.F.);
#834=ORIENTED_EDGE('',*,*,#967,.F.);
#835=ORIENTED_EDGE('',*,*,#956,.F.);
#836=ORIENTED_EDGE('',*,*,#965,.F.);
#837=ORIENTED_EDGE('',*,*,#854,.T.);
#838=ORIENTED_EDGE('',*,*,#865,.F.);
#839=EDGE_CURVE('',#969,#970,#971,.T.);
#840=EDGE_CURVE('',#970,#972,#973,.T.);
#841=EDGE_CURVE('',#972,#974,#975,.T.);
#842=EDGE_CURVE('',#969,#974,#976,.T.);
#843=EDGE_CURVE('',#977,#977,#978,.F.);
#844=EDGE_CURVE('',#979,#980,#981,.F.);
#845=EDGE_CURVE('',#982,#980,#983,.T.);
#846=EDGE_CURVE('',#984,#982,#985,.T.);
#847=EDGE_CURVE('',#984,#979,#986,.T.);
#848=EDGE_CURVE('',#987,#987,#988,.T.);
#849=EDGE_CURVE('',#989,#979,#990,.F.);
#850=EDGE_CURVE('',#970,#989,#991,.F.);
#851=EDGE_CURVE('',#992,#969,#993,.T.);
#852=EDGE_CURVE('',#980,#992,#994,.T.);
#853=EDGE_CURVE('',#995,#995,#996,.T.);
#854=EDGE_CURVE('',#997,#997,#998,.F.);
#855=EDGE_CURVE('',#972,#984,#999,.T.);
#856=EDGE_CURVE('',#974,#982,#1000,.T.);
#857=EDGE_CURVE('',#1001,#1002,#1003,.T.);
#858=EDGE_CURVE('',#1004,#1002,#1005,.F.);
#859=EDGE_CURVE('',#1004,#1006,#1007,.T.);
#860=EDGE_CURVE('',#1008,#1006,#1009,.F.);
#861=EDGE_CURVE('',#1008,#1010,#1011,.T.);
#862=EDGE_CURVE('',#1012,#1010,#1013,.F.);
#863=EDGE_CURVE('',#1012,#1014,#1015,.T.);
#864=EDGE_CURVE('',#1001,#1014,#1016,.F.);
#865=EDGE_CURVE('',#1017,#1017,#1018,.F.);
#866=EDGE_CURVE('',#1019,#1019,#1020,.F.);
#867=EDGE_CURVE('',#1021,#1021,#1022,.F.);
#868=EDGE_CURVE('',#1023,#1023,#1024,.F.);
#869=EDGE_CURVE('',#1025,#1025,#1026,.F.);
#870=EDGE_CURVE('',#1027,#1027,#1028,.T.);
#871=EDGE_CURVE('',#1029,#1030,#1031,.T.);
#872=EDGE_CURVE('',#1030,#1002,#1032,.T.);
#873=EDGE_CURVE('',#1029,#1001,#1033,.F.);
#874=EDGE_CURVE('',#1034,#1030,#1035,.F.);
#875=EDGE_CURVE('',#1034,#1004,#1036,.F.);
#876=EDGE_CURVE('',#1034,#1037,#1038,.T.);
#877=EDGE_CURVE('',#1037,#1006,#1039,.T.);
#878=EDGE_CURVE('',#1040,#1037,#1041,.F.);
#879=EDGE_CURVE('',#1040,#1008,#1042,.F.);
#880=EDGE_CURVE('',#1040,#1043,#1044,.T.);
#881=EDGE_CURVE('',#1043,#1010,#1045,.T.);
#882=EDGE_CURVE('',#1046,#1043,#1047,.F.);
#883=EDGE_CURVE('',#1046,#1012,#1048,.F.);
#884=EDGE_CURVE('',#1046,#1049,#1050,.T.);
#885=EDGE_CURVE('',#1049,#1014,#1051,.T.);
#886=EDGE_CURVE('',#1029,#1049,#1052,.F.);
#887=EDGE_CURVE('',#1053,#1053,#1054,.T.);
#888=EDGE_CURVE('',#1055,#1055,#1056,.T.);
#889=EDGE_CURVE('',#1057,#1057,#1058,.T.);
#890=EDGE_CURVE('',#1059,#1059,#1060,.T.);
#891=EDGE_CURVE('',#1061,#1062,#1063,.T.);
#892=EDGE_CURVE('',#1064,#1061,#1065,.F.);
#893=EDGE_CURVE('',#1066,#1064,#1067,.T.);
#894=EDGE_CURVE('',#1068,#1066,#1069,.F.);
#895=EDGE_CURVE('',#1070,#1068,#1071,.T.);
#896=EDGE_CURVE('',#1072,#1070,#1073,.F.);
#897=EDGE_CURVE('',#1074,#1072,#1075,.T.);
#898=EDGE_CURVE('',#1062,#1074,#1076,.F.);
#899=EDGE_CURVE('',#1077,#1077,#1078,.T.);
#900=EDGE_CURVE('',#1079,#1079,#1080,.T.);
#901=EDGE_CURVE('',#1081,#1081,#1082,.T.);
#902=EDGE_CURVE('',#1083,#1083,#1084,.T.);
#903=EDGE_CURVE('',#1085,#1029,#1086,.T.);
#904=EDGE_CURVE('',#1085,#1087,#1088,.T.);
#905=EDGE_CURVE('',#1087,#1030,#1089,.T.);
#906=EDGE_CURVE('',#1087,#1090,#1091,.F.);
#907=EDGE_CURVE('',#1090,#1034,#1092,.T.);
#908=EDGE_CURVE('',#1090,#1093,#1094,.T.);
#909=EDGE_CURVE('',#1093,#1037,#1095,.T.);
#910=EDGE_CURVE('',#1093,#1096,#1097,.F.);
#911=EDGE_CURVE('',#1096,#1040,#1098,.T.);
#912=EDGE_CURVE('',#1096,#1099,#1100,.T.);
#913=EDGE_CURVE('',#1099,#1043,#1101,.T.);
#914=EDGE_CURVE('',#1099,#1102,#1103,.F.);
#915=EDGE_CURVE('',#1102,#1046,#1104,.T.);
#916=EDGE_CURVE('',#1102,#1105,#1106,.T.);
#917=EDGE_CURVE('',#1105,#1049,#1107,.T.);
#918=EDGE_CURVE('',#1105,#1085,#1108,.F.);
#919=EDGE_CURVE('',#1109,#1109,#1110,.T.);
#920=EDGE_CURVE('',#1111,#1112,#1113,.T.);
#921=EDGE_CURVE('',#1061,#1111,#1114,.T.);
#922=EDGE_CURVE('',#1062,#1112,#1115,.F.);
#923=EDGE_CURVE('',#1116,#1111,#1117,.F.);
#924=EDGE_CURVE('',#1064,#1116,#1118,.F.);
#925=EDGE_CURVE('',#1119,#1116,#1120,.T.);
#926=EDGE_CURVE('',#1066,#1119,#1121,.T.);
#927=EDGE_CURVE('',#1122,#1119,#1123,.F.);
#928=EDGE_CURVE('',#1068,#1122,#1124,.F.);
#929=EDGE_CURVE('',#1125,#1122,#1126,.T.);
#930=EDGE_CURVE('',#1070,#1125,#1127,.T.);
#931=EDGE_CURVE('',#1128,#1125,#1129,.F.);
#932=EDGE_CURVE('',#1072,#1128,#1130,.F.);
#933=EDGE_CURVE('',#1131,#1128,#1132,.T.);
#934=EDGE_CURVE('',#1074,#1131,#1133,.T.);
#935=EDGE_CURVE('',#1112,#1131,#1134,.F.);
#936=EDGE_CURVE('',#1135,#1135,#1136,.F.);
#937=EDGE_CURVE('',#1137,#1137,#1138,.F.);
#938=EDGE_CURVE('',#1139,#1139,#1140,.F.);
#939=EDGE_CURVE('',#1141,#1141,#1142,.F.);
#940=EDGE_CURVE('',#1143,#1144,#1145,.F.);
#941=EDGE_CURVE('',#1146,#1144,#1147,.F.);
#942=EDGE_CURVE('',#1148,#1146,#1149,.F.);
#943=EDGE_CURVE('',#1148,#1150,#1151,.T.);
#944=EDGE_CURVE('',#1143,#1150,#1152,.F.);
#945=EDGE_CURVE('',#1153,#1154,#1155,.F.);
#946=EDGE_CURVE('',#1156,#1154,#1157,.T.);
#947=EDGE_CURVE('',#1111,#1156,#1158,.T.);
#948=EDGE_CURVE('',#1112,#1159,#1160,.T.);
#949=EDGE_CURVE('',#1153,#1159,#1161,.T.);
#950=EDGE_CURVE('',#1156,#1162,#1163,.F.);
#951=EDGE_CURVE('',#1116,#1162,#1164,.T.);
#952=EDGE_CURVE('',#1165,#1162,#1166,.T.);
#953=EDGE_CURVE('',#1119,#1165,#1167,.T.);
#954=EDGE_CURVE('',#1165,#1168,#1169,.F.);
#955=EDGE_CURVE('',#1122,#1168,#1170,.T.);
#956=EDGE_CURVE('',#1171,#1172,#1173,.T.);
#957=EDGE_CURVE('',#1174,#1172,#1175,.T.);
#958=EDGE_CURVE('',#1125,#1174,#1176,.T.);
#959=EDGE_CURVE('',#1171,#1168,#1177,.T.);
#960=EDGE_CURVE('',#1174,#1178,#1179,.F.);
#961=EDGE_CURVE('',#1128,#1178,#1180,.T.);
#962=EDGE_CURVE('',#1181,#1178,#1182,.T.);
#963=EDGE_CURVE('',#1131,#1181,#1183,.T.);
#964=EDGE_CURVE('',#1181,#1159,#1184,.F.);
#965=EDGE_CURVE('',#1144,#1171,#1185,.F.);
#966=EDGE_CURVE('',#1154,#1148,#1186,.F.);
#967=EDGE_CURVE('',#1172,#1143,#1187,.T.);
#968=EDGE_CURVE('',#1150,#1153,#1188,.T.);
#969=VERTEX_POINT('',#1189);
#970=VERTEX_POINT('',#1190);
#971=LINE('',#1191,#1192);
#972=VERTEX_POINT('',#1194);
#973=LINE('',#1195,#1196);
#974=VERTEX_POINT('',#1198);
#975=LINE('',#1199,#1200);
#976=LINE('',#1202,#1203);
#977=VERTEX_POINT('',#1205);
#978=CIRCLE('',#1206,1.225);
#979=VERTEX_POINT('',#1210);
#980=VERTEX_POINT('',#1211);
#981=LINE('',#1212,#1213);
#982=VERTEX_POINT('',#1215);
#983=LINE('',#1216,#1217);
#984=VERTEX_POINT('',#1219);
#985=LINE('',#1220,#1221);
#986=LINE('',#1223,#1224);
#987=VERTEX_POINT('',#1226);
#988=CIRCLE('',#1227,1.225);
#989=VERTEX_POINT('',#1231);
#990=CIRCLE('',#1232,17.5);
#991=CIRCLE('',#1236,17.5);
#992=VERTEX_POINT('',#1240);
#993=CIRCLE('',#1241,17.5);
#994=CIRCLE('',#1245,17.5);
#995=VERTEX_POINT('',#1249);
#996=CIRCLE('',#1250,17.5);
#997=VERTEX_POINT('',#1254);
#998=CIRCLE('',#1255,17.5);
#999=LINE('',#1259,#1260);
#1000=LINE('',#1262,#1263);
#1001=VERTEX_POINT('',#1265);
#1002=VERTEX_POINT('',#1266);
#1003=LINE('',#1267,#1268);
#1004=VERTEX_POINT('',#1270);
#1005=CIRCLE('',#1271,2.);
#1006=VERTEX_POINT('',#1275);
#1007=LINE('',#1276,#1277);
#1008=VERTEX_POINT('',#1279);
#1009=CIRCLE('',#1280,2.);
#1010=VERTEX_POINT('',#1284);
#1011=LINE('',#1285,#1286);
#1012=VERTEX_POINT('',#1288);
#1013=CIRCLE('',#1289,2.);
#1014=VERTEX_POINT('',#1293);
#1015=LINE('',#1294,#1295);
#1016=CIRCLE('',#1297,2.);
#1017=VERTEX_POINT('',#1301);
#1018=CIRCLE('',#1302,21.5);
#1019=VERTEX_POINT('',#1306);
#1020=CIRCLE('',#1307,2.1);
#1021=VERTEX_POINT('',#1311);
#1022=CIRCLE('',#1312,2.1);
#1023=VERTEX_POINT('',#1316);
#1024=CIRCLE('',#1317,2.1);
#1025=VERTEX_POINT('',#1321);
#1026=CIRCLE('',#1322,2.1);
#1027=VERTEX_POINT('',#1326);
#1028=CIRCLE('',#1327,21.5);
#1029=VERTEX_POINT('',#1331);
#1030=VERTEX_POINT('',#1332);
#1031=LINE('',#1333,#1334);
#1032=CIRCLE('',#1336,2.);
#1033=(BOUNDED_CURVE()B_SPLINE_CURVE(3,
(#1340,#1341,#1342,#1343),
.UNSPECIFIED.,.F.,.F.)B_SPLINE_CURVE_WITH_KNOTS((4,4),
(0.,1.),
.UNSPECIFIED.)CURVE()GEOMETRIC_REPRESENTATION_ITEM()RATIONAL_B_SPLINE_CURVE((1.,
0.804737854124365,0.804737854124365,1.))REPRESENTATION_ITEM(''));
#1034=VERTEX_POINT('',#1344);
#1035=CIRCLE('',#1345,4.);
#1036=CIRCLE('',#1349,2.);
#1037=VERTEX_POINT('',#1353);
#1038=LINE('',#1354,#1355);
#1039=CIRCLE('',#1357,2.);
#1040=VERTEX_POINT('',#1361);
#1041=CIRCLE('',#1362,4.);
#1042=CIRCLE('',#1366,2.);
#1043=VERTEX_POINT('',#1370);
#1044=LINE('',#1371,#1372);
#1045=CIRCLE('',#1374,2.);
#1046=VERTEX_POINT('',#1378);
#1047=CIRCLE('',#1379,4.);
#1048=CIRCLE('',#1383,2.);
#1049=VERTEX_POINT('',#1387);
#1050=LINE('',#1388,#1389);
#1051=CIRCLE('',#1391,2.);
#1052=CIRCLE('',#1395,4.);
#1053=VERTEX_POINT('',#1399);
#1054=CIRCLE('',#1400,2.1);
#1055=VERTEX_POINT('',#1404);
#1056=CIRCLE('',#1405,2.1);
#1057=VERTEX_POINT('',#1409);
#1058=CIRCLE('',#1410,2.1);
#1059=VERTEX_POINT('',#1414);
#1060=CIRCLE('',#1415,2.1);
#1061=VERTEX_POINT('',#1419);
#1062=VERTEX_POINT('',#1420);
#1063=LINE('',#1421,#1422);
#1064=VERTEX_POINT('',#1424);
#1065=CIRCLE('',#1425,2.);
#1066=VERTEX_POINT('',#1429);
#1067=LINE('',#1430,#1431);
#1068=VERTEX_POINT('',#1433);
#1069=CIRCLE('',#1434,2.);
#1070=VERTEX_POINT('',#1438);
#1071=LINE('',#1439,#1440);
#1072=VERTEX_POINT('',#1442);
#1073=CIRCLE('',#1443,2.);
#1074=VERTEX_POINT('',#1447);
#1075=LINE('',#1448,#1449);
#1076=CIRCLE('',#1451,2.);
#1077=VERTEX_POINT('',#1455);
#1078=CIRCLE('',#1456,2.1);
#1079=VERTEX_POINT('',#1460);
#1080=CIRCLE('',#1461,2.1);
#1081=VERTEX_POINT('',#1465);
#1082=CIRCLE('',#1466,2.1);
#1083=VERTEX_POINT('',#1470);
#1084=CIRCLE('',#1471,2.1);
#1085=VERTEX_POINT('',#1475);
#1086=LINE('',#1476,#1477);
#1087=VERTEX_POINT('',#1479);
#1088=LINE('',#1480,#1481);
#1089=LINE('',#1483,#1484);
#1090=VERTEX_POINT('',#1486);
#1091=CIRCLE('',#1487,4.);
#1092=LINE('',#1491,#1492);
#1093=VERTEX_POINT('',#1494);
#1094=LINE('',#1495,#1496);
#1095=LINE('',#1498,#1499);
#1096=VERTEX_POINT('',#1501);
#1097=CIRCLE('',#1502,4.);
#1098=LINE('',#1506,#1507);
#1099=VERTEX_POINT('',#1509);
#1100=LINE('',#1510,#1511);
#1101=LINE('',#1513,#1514);
#1102=VERTEX_POINT('',#1516);
#1103=CIRCLE('',#1517,4.);
#1104=LINE('',#1521,#1522);
#1105=VERTEX_POINT('',#1524);
#1106=LINE('',#1525,#1526);
#1107=LINE('',#1528,#1529);
#1108=CIRCLE('',#1531,4.);
#1109=VERTEX_POINT('',#1535);
#1110=CIRCLE('',#1536,14.5);
#1111=VERTEX_POINT('',#1540);
#1112=VERTEX_POINT('',#1541);
#1113=LINE('',#1542,#1543);
#1114=(BOUNDED_CURVE()B_SPLINE_CURVE(3,
(#1545,#1546,#1547,#1548),
.UNSPECIFIED.,.F.,.F.)B_SPLINE_CURVE_WITH_KNOTS((4,4),
(0.,1.),
.UNSPECIFIED.)CURVE()GEOMETRIC_REPRESENTATION_ITEM()RATIONAL_B_SPLINE_CURVE((1.,
0.804737854124365,0.804737854124365,1.))REPRESENTATION_ITEM(''));
#1115=CIRCLE('',#1549,2.);
#1116=VERTEX_POINT('',#1553);
#1117=CIRCLE('',#1554,4.);
#1118=CIRCLE('',#1558,2.);
#1119=VERTEX_POINT('',#1562);
#1120=LINE('',#1563,#1564);
#1121=(BOUNDED_CURVE()B_SPLINE_CURVE(3,
(#1566,#1567,#1568,#1569),
.UNSPECIFIED.,.F.,.F.)B_SPLINE_CURVE_WITH_KNOTS((4,4),
(0.,1.),
.UNSPECIFIED.)CURVE()GEOMETRIC_REPRESENTATION_ITEM()RATIONAL_B_SPLINE_CURVE((1.,
0.804737854124365,0.804737854124365,1.))REPRESENTATION_ITEM(''));
#1122=VERTEX_POINT('',#1570);
#1123=CIRCLE('',#1571,4.);
#1124=CIRCLE('',#1575,2.);
#1125=VERTEX_POINT('',#1579);
#1126=LINE('',#1580,#1581);
#1127=CIRCLE('',#1583,2.);
#1128=VERTEX_POINT('',#1587);
#1129=CIRCLE('',#1588,4.);
#1130=CIRCLE('',#1592,2.);
#1131=VERTEX_POINT('',#1596);
#1132=LINE('',#1597,#1598);
#1133=(BOUNDED_CURVE()B_SPLINE_CURVE(3,
(#1600,#1601,#1602,#1603),
.UNSPECIFIED.,.F.,.F.)B_SPLINE_CURVE_WITH_KNOTS((4,4),
(0.,1.),
.UNSPECIFIED.)CURVE()GEOMETRIC_REPRESENTATION_ITEM()RATIONAL_B_SPLINE_CURVE((1.,
0.804737854124365,0.804737854124365,1.))REPRESENTATION_ITEM(''));
#1134=CIRCLE('',#1604,4.);
#1135=VERTEX_POINT('',#1608);
#1136=CIRCLE('',#1609,2.1);
#1137=VERTEX_POINT('',#1613);
#1138=CIRCLE('',#1614,2.1);
#1139=VERTEX_POINT('',#1618);
#1140=CIRCLE('',#1619,2.1);
#1141=VERTEX_POINT('',#1623);
#1142=CIRCLE('',#1624,2.1);
#1143=VERTEX_POINT('',#1628);
#1144=VERTEX_POINT('',#1629);
#1145=B_SPLINE_CURVE_WITH_KNOTS('',3,
(#1630,#1631,#1632,#1633,#1634,#1635,#1636,#1637,#1638,#1639,#1640,#1641,#1642,#1643,
#1644,#1645,#1646,#1647,#1648,#1649,#1650,#1651,#1652,#1653,#1654,#1655,#1656,#1657,
#1658,#1659,#1660,#1661,#1662,#1663,#1664,#1665,#1666,#1667,#1668,#1669,#1670,#1671,
#1672,#1673,#1674,#1675,#1676,#1677,#1678,#1679,#1680,#1681,#1682,#1683,#1684,#1685,
#1686,#1687,#1688,#1689,#1690,#1691,#1692,#1693,#1694,#1695,#1696,#1697,#1698,#1699,
#1700,#1701,#1702,#1703,#1704,#1705,#1706,#1707,#1708,#1709,#1710,#1711,#1712,#1713,
#1714,#1715,#1716,#1717,#1718,#1719,#1720,#1721,#1722,#1723,#1724,#1725,#1726,#1727,
#1728,#1729,#1730,#1731,#1732,#1733,#1734,#1735,#1736,#1737,#1738,#1739,#1740,#1741,
#1742,#1743,#1744),
.UNSPECIFIED.,.F.,.F.,
(4,1,1,1,1,1,1,1,1,1,1,1,1,1,1,1,1,1,1,1,1,1,1,1,1,1,1,1,1,1,1,1,1,1,1,1,1,1,1,1,
1,1,1,1,1,1,1,1,1,1,1,1,1,1,1,1,1,1,1,1,1,1,1,1,1,1,1,1,1,1,1,1,1,1,1,1,1,1,1,1,
1,1,1,1,1,1,1,1,1,1,1,1,1,1,1,1,1,1,1,1,1,1,1,1,1,1,1,1,1,1,1,1,4),
(0.,0.00647896549436266,0.0130106930110764,0.0195956698856185,0.026291958000341,
0.0330432012629817,0.0399719033333324,0.0470278740162425,0.0542733816006317,0.0615821575045493,
0.0691265981097017,0.0768401427228069,0.0848514564954033,0.0929944874886899,0.101441289588539,
0.110062157813283,0.118912336467647,0.127830308631733,0.137902073823401,0.149055770097703,
0.165258884283532,0.181375799944401,0.197374471686894,0.208168108883795,0.217840072948446,
0.226324828837712,0.234745382309319,0.243063221638268,0.251339349567342,0.259568570019815,
0.267794160409747,0.277316586912046,0.288152073004514,0.304606766765777,0.321310489312608,
0.338295845748615,0.350000410899868,0.360468269433484,0.369657338456244,0.378789474139775,
0.387631973600304,0.396240802244307,0.407108756128994,0.417595733948776,0.427690312707161,
0.434854543747208,0.441964379213694,0.448898610591054,0.455712853859057,0.462339433333238,
0.468896870206069,0.475176802881519,0.481253346699969,0.488789606555018,0.496031344965592,
0.499995182266665,0.502974722719758,0.507953543179933,0.512926982807493,0.517921197874091,
0.522939799689014,0.529701624720998,0.536519961742108,0.543391415937045,0.548611647392455,
0.553844524851274,0.559301595998368,0.564967212385485,0.571024845281386,0.577267664991115,
0.586530084155665,0.596300044063863,0.606596642215879,0.614784002348377,0.623176451816678,
0.631810121990497,0.64048658070588,0.649132287133272,0.657698920557436,0.666054410844257,
0.674275984268064,0.684706692438825,0.694892101758693,0.704822589650521,0.712160475507326,
0.719496519505112,0.726895680100847,0.73435816671544,0.74205595882553,0.74992339313741,
0.758085767624528,0.76637695559995,0.775999400876005,0.786823090312976,0.803016081792252,
0.819379382616298,0.835880208016791,0.847326984681992,0.857723581799376,0.867017267443079,
0.876264143872297,0.885361990231521,0.894344603745869,0.903122350657558,0.911809257606136,
0.921200718640495,0.931377211910094,0.945812571188944,0.960086107201794,0.974213950576867,
0.983749755307911,0.992341838259805,1.),
.UNSPECIFIED.);
#1146=VERTEX_POINT('',#1745);
#1147=CIRCLE('',#1746,14.5);
#1148=VERTEX_POINT('',#1750);
#1149=CIRCLE('',#1751,14.5);
#1150=VERTEX_POINT('',#1755);
#1151=B_SPLINE_CURVE_WITH_KNOTS('',3,
(#1756,#1757,#1758,#1759,#1760,#1761,#1762,#1763,#1764,#1765,#1766,#1767,#1768,#1769,
#1770,#1771,#1772,#1773,#1774,#1775,#1776,#1777,#1778,#1779,#1780,#1781,#1782,#1783,
#1784,#1785,#1786,#1787,#1788,#1789,#1790,#1791,#1792,#1793,#1794,#1795,#1796,#1797,
#1798,#1799,#1800,#1801,#1802,#1803,#1804,#1805,#1806,#1807,#1808,#1809,#1810,#1811,
#1812,#1813,#1814,#1815,#1816,#1817,#1818,#1819,#1820,#1821,#1822,#1823,#1824,#1825,
#1826,#1827,#1828,#1829,#1830,#1831,#1832,#1833,#1834,#1835,#1836,#1837,#1838,#1839,
#1840,#1841,#1842,#1843,#1844,#1845,#1846,#1847,#1848,#1849,#1850,#1851,#1852,#1853,
#1854,#1855,#1856,#1857,#1858,#1859,#1860,#1861,#1862,#1863,#1864,#1865,#1866,#1867,
#1868,#1869,#1870),
.UNSPECIFIED.,.F.,.F.,
(4,1,1,1,1,1,1,1,1,1,1,1,1,1,1,1,1,1,1,1,1,1,1,1,1,1,1,1,1,1,1,1,1,1,1,1,1,1,1,1,
1,1,1,1,1,1,1,1,1,1,1,1,1,1,1,1,1,1,1,1,1,1,1,1,1,1,1,1,1,1,1,1,1,1,1,1,1,1,1,1,
1,1,1,1,1,1,1,1,1,1,1,1,1,1,1,1,1,1,1,1,1,1,1,1,1,1,1,1,1,1,1,1,4),
(0.,0.00647896549451826,0.0130106930112952,0.0195956698858403,0.0262919580005085,
0.033043201263066,0.0399719033333025,0.0470278740160996,0.0542733816003857,0.0615821575042116,
0.0691265981093013,0.0768401427223732,0.0848514564949867,0.0929944874883311,0.101441289588286,
0.110062157813158,0.11891233646766,0.127830308631871,0.137902073823632,0.149055770097989,
0.165258884283772,0.181375799944521,0.197374471686849,0.20816810888364,0.217840072948214,
0.226324828837447,0.234745382309049,0.243063221638039,0.251339349567192,0.259568570019799,
0.267794160409899,0.277316586912365,0.288152073004959,0.304606766766122,0.321310489312518,
0.338295845747691,0.350000410898589,0.360468269432414,0.369657338456309,0.378789474141676,
0.387631973604118,0.396240802249467,0.407108756133656,0.417595733951495,0.427690312707545,
0.434854543746644,0.441964379212935,0.448898610590641,0.45571285385886,0.462339433333385,
0.468896870206946,0.475176802885144,0.481253346708212,0.488789606566955,0.496031344978054,
0.4999951822356,0.502974722729215,0.507953543182246,0.512926982803433,0.517921197867111,
0.522939799680872,0.529701624713304,0.536519961735827,0.543391415932217,0.548611647388424,
0.553844524848045,0.559301595995995,0.564967212384001,0.571024845280669,0.577267664990956,
0.586530084155749,0.596300044063934,0.606596642215859,0.614784002348337,0.623176451816641,
0.631810121990445,0.640486580705764,0.649132287133083,0.657698920557204,0.666054410844089,
0.674275984268064,0.684706692439123,0.694892101759198,0.704822589651072,0.712160475507756,
0.71949651950537,0.726895680100924,0.734358166715374,0.742055958825379,0.749923393137214,
0.758085767624334,0.766376955599781,0.775999400875894,0.786823090312941,0.803016081792308,
0.819379382616402,0.835880208016903,0.847326984682076,0.857723581799418,0.867017267443065,
0.876264143872224,0.88536199023139,0.894344603745687,0.903122350657341,0.911809257605895,
0.921200718640248,0.93137721190985,0.945812571188743,0.960086107201665,0.974213950576822,
0.983749755307931,0.992341838259851,1.),
.UNSPECIFIED.);
#1152=CIRCLE('',#1871,14.5);
#1153=VERTEX_POINT('',#1875);
#1154=VERTEX_POINT('',#1876);
#1155=CIRCLE('',#1877,3.5);
#1156=VERTEX_POINT('',#1881);
#1157=LINE('',#1882,#1883);
#1158=LINE('',#1885,#1886);
#1159=VERTEX_POINT('',#1888);
#1160=LINE('',#1889,#1890);
#1161=LINE('',#1892,#1893);
#1162=VERTEX_POINT('',#1895);
#1163=CIRCLE('',#1896,4.);
#1164=LINE('',#1900,#1901);
#1165=VERTEX_POINT('',#1903);
#1166=LINE('',#1904,#1905);
#1167=LINE('',#1907,#1908);
#1168=VERTEX_POINT('',#1910);
#1169=CIRCLE('',#1911,4.);
#1170=LINE('',#1915,#1916);
#1171=VERTEX_POINT('',#1918);
#1172=VERTEX_POINT('',#1919);
#1173=CIRCLE('',#1920,3.5);
#1174=VERTEX_POINT('',#1924);
#1175=LINE('',#1925,#1926);
#1176=LINE('',#1928,#1929);
#1177=LINE('',#1931,#1932);
#1178=VERTEX_POINT('',#1934);
#1179=CIRCLE('',#1935,4.);
#1180=LINE('',#1939,#1940);
#1181=VERTEX_POINT('',#1942);
#1182=LINE('',#1943,#1944);
#1183=LINE('',#1946,#1947);
#1184=CIRCLE('',#1949,4.);
#1185=LINE('',#1953,#1954);
#1186=LINE('',#1956,#1957);
#1187=LINE('',#1959,#1960);
#1188=LINE('',#1962,#1963);
#1189=CARTESIAN_POINT('',(-17.3853386507137,-2.,-4.));
#1190=CARTESIAN_POINT('',(-17.3853386507137,-2.,1.));
#1191=CARTESIAN_POINT('',(-17.3853386507137,-2.,-4.));
#1192=VECTOR('',#1193,1.);
#1193=DIRECTION('',(0.,0.,1.));
#1194=CARTESIAN_POINT('',(-22.5,-2.,1.));
#1195=CARTESIAN_POINT('',(-17.3853386507137,-2.,1.));
#1196=VECTOR('',#1197,1.);
#1197=DIRECTION('',(-1.,0.,0.));
#1198=CARTESIAN_POINT('',(-22.5,-2.,-4.));
#1199=CARTESIAN_POINT('',(-22.5,-2.,1.));
#1200=VECTOR('',#1201,1.);
#1201=DIRECTION('',(0.,0.,-1.));
#1202=CARTESIAN_POINT('',(-17.3853386507137,-2.,-4.));
#1203=VECTOR('',#1204,1.);
#1204=DIRECTION('',(-1.,0.,0.));
#1205=CARTESIAN_POINT('',(-18.7176693253569,-2.,-1.5));
#1206=AXIS2_PLACEMENT_3D('',#1207,#1208,#1209);
#1207=CARTESIAN_POINT('',(-19.9426693253569,-2.,-1.5));
#1208=DIRECTION('',(-7.40148683083438E-17,-1.,0.));
#1209=DIRECTION('',(1.,-7.40148683083438E-17,0.));
#1210=CARTESIAN_POINT('',(-17.3853386507137,2.,1.));
#1211=CARTESIAN_POINT('',(-17.3853386507137,2.,-4.));
#1212=CARTESIAN_POINT('',(-17.3853386514043,1.99999999993704,-4.));
#1213=VECTOR('',#1214,1.);
#1214=DIRECTION('',(0.,0.,1.));
#1215=CARTESIAN_POINT('',(-22.5,2.,-4.));
#1216=CARTESIAN_POINT('',(-22.5,2.,-4.));
#1217=VECTOR('',#1218,1.);
#1218=DIRECTION('',(1.,-8.68267084607726E-17,0.));
#1219=CARTESIAN_POINT('',(-22.5,2.,1.));
#1220=CARTESIAN_POINT('',(-22.5,2.,1.));
#1221=VECTOR('',#1222,1.);
#1222=DIRECTION('',(0.,0.,-1.));
#1223=CARTESIAN_POINT('',(-22.5,2.,1.));
#1224=VECTOR('',#1225,1.);
#1225=DIRECTION('',(1.,-8.68267084607726E-17,0.));
#1226=CARTESIAN_POINT('',(-18.7176693253569,2.,-1.5));
#1227=AXIS2_PLACEMENT_3D('',#1228,#1229,#1230);
#1228=CARTESIAN_POINT('',(-19.9426693253569,2.,-1.5));
#1229=DIRECTION('',(-3.70074341541719E-17,-1.,0.));
#1230=DIRECTION('',(1.,-3.70074341541719E-17,0.));
#1231=CARTESIAN_POINT('',(-17.5,4.28626379701574E-15,1.));
#1232=AXIS2_PLACEMENT_3D('',#1233,#1234,#1235);
#1233=CARTESIAN_POINT('',(0.,0.,1.));
#1234=DIRECTION('',(0.,0.,1.));
#1235=DIRECTION('',(-0.993447922899774,0.114285714269653,0.));
#1236=AXIS2_PLACEMENT_3D('',#1237,#1238,#1239);
#1237=CARTESIAN_POINT('',(0.,0.,1.));
#1238=DIRECTION('',(0.,0.,1.));
#1239=DIRECTION('',(-1.,1.22464679914735E-16,0.));
#1240=CARTESIAN_POINT('',(-17.5,4.28626379701574E-15,-4.));
#1241=AXIS2_PLACEMENT_3D('',#1242,#1243,#1244);
#1242=CARTESIAN_POINT('',(0.,0.,-4.));
#1243=DIRECTION('',(0.,0.,1.));
#1244=DIRECTION('',(-1.,1.22464679914735E-16,0.));
#1245=AXIS2_PLACEMENT_3D('',#1246,#1247,#1248);
#1246=CARTESIAN_POINT('',(0.,0.,-4.));
#1247=DIRECTION('',(0.,0.,1.));
#1248=DIRECTION('',(-0.993447922899774,0.114285714269653,0.));
#1249=CARTESIAN_POINT('',(-17.5,4.28626379701574E-15,9.));
#1250=AXIS2_PLACEMENT_3D('',#1251,#1252,#1253);
#1251=CARTESIAN_POINT('',(0.,0.,9.));
#1252=DIRECTION('',(0.,0.,1.));
#1253=DIRECTION('',(-1.,1.22464679914735E-16,0.));
#1254=CARTESIAN_POINT('',(-17.5,4.28626379701574E-15,-6.));
#1255=AXIS2_PLACEMENT_3D('',#1256,#1257,#1258);
#1256=CARTESIAN_POINT('',(0.,0.,-6.));
#1257=DIRECTION('',(0.,0.,1.));
#1258=DIRECTION('',(-1.,1.22464679914735E-16,0.));
#1259=CARTESIAN_POINT('',(-22.5,-2.,1.));
#1260=VECTOR('',#1261,1.);
#1261=DIRECTION('',(8.88178419700125E-16,1.,0.));
#1262=CARTESIAN_POINT('',(-22.5,-2.,-4.));
#1263=VECTOR('',#1264,1.);
#1264=DIRECTION('',(8.88178419700125E-16,1.,0.));
#1265=CARTESIAN_POINT('',(21.,23.,-10.));
#1266=CARTESIAN_POINT('',(-21.,23.,-10.));
#1267=CARTESIAN_POINT('',(21.,23.,-10.));
#1268=VECTOR('',#1269,1.);
#1269=DIRECTION('',(-1.,3.38353683695286E-16,0.));
#1270=CARTESIAN_POINT('',(-23.,21.,-10.));
#1271=AXIS2_PLACEMENT_3D('',#1272,#1273,#1274);
#1272=CARTESIAN_POINT('',(-21.,21.,-10.));
#1273=DIRECTION('',(0.,0.,1.));
#1274=DIRECTION('',(0.,1.,0.));
#1275=CARTESIAN_POINT('',(-23.,-21.,-10.));
#1276=CARTESIAN_POINT('',(-23.,21.,-10.));
#1277=VECTOR('',#1278,1.);
#1278=DIRECTION('',(-8.45884209238214E-17,-1.,0.));
#1279=CARTESIAN_POINT('',(-21.,-23.,-10.));
#1280=AXIS2_PLACEMENT_3D('',#1281,#1282,#1283);
#1281=CARTESIAN_POINT('',(-21.,-21.,-10.));
#1282=DIRECTION('',(0.,0.,1.));
#1283=DIRECTION('',(-1.,0.,0.));
#1284=CARTESIAN_POINT('',(21.,-23.,-10.));
#1285=CARTESIAN_POINT('',(-21.,-23.,-10.));
#1286=VECTOR('',#1287,1.);
#1287=DIRECTION('',(1.,-8.45884209238215E-17,0.));
#1288=CARTESIAN_POINT('',(23.,-21.,-10.));
#1289=AXIS2_PLACEMENT_3D('',#1290,#1291,#1292);
#1290=CARTESIAN_POINT('',(21.,-21.,-10.));
#1291=DIRECTION('',(0.,0.,1.));
#1292=DIRECTION('',(0.,-1.,0.));
#1293=CARTESIAN_POINT('',(23.,21.,-10.));
#1294=CARTESIAN_POINT('',(23.,-21.,-10.));
#1295=VECTOR('',#1296,1.);
#1296=DIRECTION('',(8.45884209238214E-17,1.,0.));
#1297=AXIS2_PLACEMENT_3D('',#1298,#1299,#1300);
#1298=CARTESIAN_POINT('',(21.,21.,-10.));
#1299=DIRECTION('',(0.,0.,1.));
#1300=DIRECTION('',(1.,1.77635683940025E-15,0.));
#1301=CARTESIAN_POINT('',(-21.5,5.26598123633362E-15,-10.));
#1302=AXIS2_PLACEMENT_3D('',#1303,#1304,#1305);
#1303=CARTESIAN_POINT('',(0.,0.,-10.));
#1304=DIRECTION('',(0.,0.,1.));
#1305=DIRECTION('',(-1.,1.22464679914735E-16,0.));
#1306=CARTESIAN_POINT('',(-22.1,-20.,-10.));
#1307=AXIS2_PLACEMENT_3D('',#1308,#1309,#1310);
#1308=CARTESIAN_POINT('',(-20.,-20.,-10.));
#1309=DIRECTION('',(0.,0.,1.));
#1310=DIRECTION('',(-1.,1.22464679914735E-16,0.));
#1311=CARTESIAN_POINT('',(-22.1,20.,-10.));
#1312=AXIS2_PLACEMENT_3D('',#1313,#1314,#1315);
#1313=CARTESIAN_POINT('',(-20.,20.,-10.));
#1314=DIRECTION('',(0.,0.,1.));
#1315=DIRECTION('',(-1.,1.22464679914735E-16,0.));
#1316=CARTESIAN_POINT('',(17.9,-20.,-10.));
#1317=AXIS2_PLACEMENT_3D('',#1318,#1319,#1320);
#1318=CARTESIAN_POINT('',(20.,-20.,-10.));
#1319=DIRECTION('',(0.,0.,1.));
#1320=DIRECTION('',(-1.,1.22464679914735E-16,0.));
#1321=CARTESIAN_POINT('',(17.9,20.,-10.));
#1322=AXIS2_PLACEMENT_3D('',#1323,#1324,#1325);
#1323=CARTESIAN_POINT('',(20.,20.,-10.));
#1324=DIRECTION('',(0.,0.,1.));
#1325=DIRECTION('',(-1.,1.22464679914735E-16,0.));
#1326=CARTESIAN_POINT('',(-21.5,5.26598123633362E-15,13.));
#1327=AXIS2_PLACEMENT_3D('',#1328,#1329,#1330);
#1328=CARTESIAN_POINT('',(0.,0.,13.));
#1329=DIRECTION('',(0.,0.,1.));
#1330=DIRECTION('',(-1.,1.22464679914735E-16,0.));
#1331=CARTESIAN_POINT('',(21.,25.,-12.));
#1332=CARTESIAN_POINT('',(-21.,25.,-12.));
#1333=CARTESIAN_POINT('',(21.,25.,-12.));
#1334=VECTOR('',#1335,1.);
#1335=DIRECTION('',(-1.,3.38353683695286E-16,0.));
#1336=AXIS2_PLACEMENT_3D('',#1337,#1338,#1339);
#1337=CARTESIAN_POINT('',(-21.,23.,-12.));
#1338=DIRECTION('',(1.,-3.0626842058625E-16,-1.66622885175365E-46));
#1339=DIRECTION('',(3.0626842058625E-16,1.,1.83758917935762E-15));
#1340=CARTESIAN_POINT('',(20.9999999999437,23.000000000573,-10.));
#1341=CARTESIAN_POINT('',(20.9999999999107,24.1715728761624,-10.));
#1342=CARTESIAN_POINT('',(20.9999999998873,25.0000000011459,-10.8284271247462));
#1343=CARTESIAN_POINT('',(20.9999999998873,25.0000000011459,-12.));
#1344=CARTESIAN_POINT('',(-25.,21.,-12.));
#1345=AXIS2_PLACEMENT_3D('',#1346,#1347,#1348);
#1346=CARTESIAN_POINT('',(-21.,21.,-12.));
#1347=DIRECTION('',(0.,0.,1.));
#1348=DIRECTION('',(3.82856869892695E-16,1.,0.));
#1349=AXIS2_PLACEMENT_3D('',#1350,#1351,#1352);
#1350=CARTESIAN_POINT('',(-23.,21.,-12.));
#1351=DIRECTION('',(3.21624529935327E-16,-1.,0.));
#1352=DIRECTION('',(-1.77635683940025E-15,0.,1.));
#1353=CARTESIAN_POINT('',(-25.,-21.,-12.));
#1354=CARTESIAN_POINT('',(-25.,21.,-12.));
#1355=VECTOR('',#1356,1.);
#1356=DIRECTION('',(-8.45884209238214E-17,-1.,4.22942104619107E-17));
#1357=AXIS2_PLACEMENT_3D('',#1358,#1359,#1360);
#1358=CARTESIAN_POINT('',(-23.,-21.,-12.));
#1359=DIRECTION('',(1.225073682345E-16,1.,-2.66596616280583E-47));
#1360=DIRECTION('',(-1.,1.225073682345E-16,6.12323399573676E-17));
#1361=CARTESIAN_POINT('',(-21.,-25.,-12.));
#1362=AXIS2_PLACEMENT_3D('',#1363,#1364,#1365);
#1363=CARTESIAN_POINT('',(-21.,-21.,-12.));
#1364=DIRECTION('',(0.,0.,1.));
#1365=DIRECTION('',(-1.,1.04899068466779E-15,0.));
#1366=AXIS2_PLACEMENT_3D('',#1367,#1368,#1369);
#1367=CARTESIAN_POINT('',(-21.,-23.,-12.));
#1368=DIRECTION('',(1.,-1.22464679914735E-16,0.));
#1369=DIRECTION('',(-1.97215226305253E-31,-1.77635683940025E-15,1.));
#1370=CARTESIAN_POINT('',(21.,-25.,-12.));
#1371=CARTESIAN_POINT('',(-21.,-25.,-12.));
#1372=VECTOR('',#1373,1.);
#1373=DIRECTION('',(1.,-8.45884209238215E-17,0.));
#1374=AXIS2_PLACEMENT_3D('',#1375,#1376,#1377);
#1375=CARTESIAN_POINT('',(21.,-23.,-12.));
#1376=DIRECTION('',(-1.,1.225073682345E-16,0.));
#1377=DIRECTION('',(-1.225073682345E-16,-1.,6.12323399573677E-17));
#1378=CARTESIAN_POINT('',(25.,-21.,-12.));
#1379=AXIS2_PLACEMENT_3D('',#1380,#1381,#1382);
#1380=CARTESIAN_POINT('',(21.,-21.,-12.));
#1381=DIRECTION('',(0.,0.,1.));
#1382=DIRECTION('',(6.12323399573677E-17,-1.,0.));
#1383=AXIS2_PLACEMENT_3D('',#1384,#1385,#1386);
#1384=CARTESIAN_POINT('',(23.,-21.,-12.));
#1385=DIRECTION('',(5.66553889764798E-16,1.,0.));
#1386=DIRECTION('',(1.00640187697252E-30,0.,1.));
#1387=CARTESIAN_POINT('',(25.,21.,-12.));
#1388=CARTESIAN_POINT('',(25.,-21.,-12.));
#1389=VECTOR('',#1390,1.);
#1390=DIRECTION('',(8.45884209238214E-17,1.,0.));
#1391=AXIS2_PLACEMENT_3D('',#1392,#1393,#1394);
#1392=CARTESIAN_POINT('',(23.,21.,-12.));
#1393=DIRECTION('',(-1.225073682345E-16,-1.,0.));
#1394=DIRECTION('',(1.,-1.225073682345E-16,6.12323399573677E-17));
#1395=AXIS2_PLACEMENT_3D('',#1396,#1397,#1398);
#1396=CARTESIAN_POINT('',(21.,21.,-12.));
#1397=DIRECTION('',(0.,0.,1.));
#1398=DIRECTION('',(1.,6.12323399573677E-17,0.));
#1399=CARTESIAN_POINT('',(17.9,20.,-15.));
#1400=AXIS2_PLACEMENT_3D('',#1401,#1402,#1403);
#1401=CARTESIAN_POINT('',(20.,20.,-15.));
#1402=DIRECTION('',(0.,0.,1.));
#1403=DIRECTION('',(-1.,1.22464679914735E-16,0.));
#1404=CARTESIAN_POINT('',(17.9,-20.,-15.));
#1405=AXIS2_PLACEMENT_3D('',#1406,#1407,#1408);
#1406=CARTESIAN_POINT('',(20.,-20.,-15.));
#1407=DIRECTION('',(0.,0.,1.));
#1408=DIRECTION('',(-1.,1.22464679914735E-16,0.));
#1409=CARTESIAN_POINT('',(-22.1,20.,-15.));
#1410=AXIS2_PLACEMENT_3D('',#1411,#1412,#1413);
#1411=CARTESIAN_POINT('',(-20.,20.,-15.));
#1412=DIRECTION('',(0.,0.,1.));
#1413=DIRECTION('',(-1.,1.22464679914735E-16,0.));
#1414=CARTESIAN_POINT('',(-22.1,-20.,-15.));
#1415=AXIS2_PLACEMENT_3D('',#1416,#1417,#1418);
#1416=CARTESIAN_POINT('',(-20.,-20.,-15.));
#1417=DIRECTION('',(0.,0.,1.));
#1418=DIRECTION('',(-1.,1.22464679914735E-16,0.));
#1419=CARTESIAN_POINT('',(-21.,-23.,13.));
#1420=CARTESIAN_POINT('',(21.,-23.,13.));
#1421=CARTESIAN_POINT('',(-21.,-23.,13.));
#1422=VECTOR('',#1423,1.);
#1423=DIRECTION('',(1.,-8.45884209238215E-17,0.));
#1424=CARTESIAN_POINT('',(-23.,-21.,13.));
#1425=AXIS2_PLACEMENT_3D('',#1426,#1427,#1428);
#1426=CARTESIAN_POINT('',(-21.,-21.,13.));
#1427=DIRECTION('',(0.,0.,-1.));
#1428=DIRECTION('',(-1.77635683940025E-15,-1.,0.));
#1429=CARTESIAN_POINT('',(-23.,21.,13.));
#1430=CARTESIAN_POINT('',(-23.,21.,13.));
#1431=VECTOR('',#1432,1.);
#1432=DIRECTION('',(-8.45884209238214E-17,-1.,0.));
#1433=CARTESIAN_POINT('',(-21.,23.,13.));
#1434=AXIS2_PLACEMENT_3D('',#1435,#1436,#1437);
#1435=CARTESIAN_POINT('',(-21.,21.,13.));
#1436=DIRECTION('',(0.,0.,-1.));
#1437=DIRECTION('',(-1.,0.,0.));
#1438=CARTESIAN_POINT('',(21.,23.,13.));
#1439=CARTESIAN_POINT('',(21.,23.,13.));
#1440=VECTOR('',#1441,1.);
#1441=DIRECTION('',(-1.,3.38353683695286E-16,0.));
#1442=CARTESIAN_POINT('',(23.,21.,13.));
#1443=AXIS2_PLACEMENT_3D('',#1444,#1445,#1446);
#1444=CARTESIAN_POINT('',(21.,21.,13.));
#1445=DIRECTION('',(0.,0.,-1.));
#1446=DIRECTION('',(0.,1.,0.));
#1447=CARTESIAN_POINT('',(23.,-21.,13.));
#1448=CARTESIAN_POINT('',(23.,-21.,13.));
#1449=VECTOR('',#1450,1.);
#1450=DIRECTION('',(8.45884209238214E-17,1.,0.));
#1451=AXIS2_PLACEMENT_3D('',#1452,#1453,#1454);
#1452=CARTESIAN_POINT('',(21.,-21.,13.));
#1453=DIRECTION('',(0.,0.,-1.));
#1454=DIRECTION('',(1.,-1.77635683940025E-15,0.));
#1455=CARTESIAN_POINT('',(-22.1,-20.,13.));
#1456=AXIS2_PLACEMENT_3D('',#1457,#1458,#1459);
#1457=CARTESIAN_POINT('',(-20.,-20.,13.));
#1458=DIRECTION('',(0.,0.,1.));
#1459=DIRECTION('',(-1.,1.22464679914735E-16,0.));
#1460=CARTESIAN_POINT('',(-22.1,20.,13.));
#1461=AXIS2_PLACEMENT_3D('',#1462,#1463,#1464);
#1462=CARTESIAN_POINT('',(-20.,20.,13.));
#1463=DIRECTION('',(0.,0.,1.));
#1464=DIRECTION('',(-1.,1.22464679914735E-16,0.));
#1465=CARTESIAN_POINT('',(17.9,20.,13.));
#1466=AXIS2_PLACEMENT_3D('',#1467,#1468,#1469);
#1467=CARTESIAN_POINT('',(20.,20.,13.));
#1468=DIRECTION('',(0.,0.,1.));
#1469=DIRECTION('',(-1.,1.22464679914735E-16,0.));
#1470=CARTESIAN_POINT('',(17.9,-20.,13.));
#1471=AXIS2_PLACEMENT_3D('',#1472,#1473,#1474);
#1472=CARTESIAN_POINT('',(20.,-20.,13.));
#1473=DIRECTION('',(0.,0.,1.));
#1474=DIRECTION('',(-1.,1.22464679914735E-16,0.));
#1475=CARTESIAN_POINT('',(21.,25.,-15.));
#1476=CARTESIAN_POINT('',(21.,25.,-15.));
#1477=VECTOR('',#1478,1.);
#1478=DIRECTION('',(0.,0.,1.));
#1479=CARTESIAN_POINT('',(-21.,25.,-15.));
#1480=CARTESIAN_POINT('',(21.,25.,-15.));
#1481=VECTOR('',#1482,1.);
#1482=DIRECTION('',(-1.,3.38353683695286E-16,0.));
#1483=CARTESIAN_POINT('',(-21.,25.,-15.));
#1484=VECTOR('',#1485,1.);
#1485=DIRECTION('',(0.,0.,1.));
#1486=CARTESIAN_POINT('',(-25.,21.,-15.));
#1487=AXIS2_PLACEMENT_3D('',#1488,#1489,#1490);
#1488=CARTESIAN_POINT('',(-21.,21.,-15.));
#1489=DIRECTION('',(0.,0.,-1.));
#1490=DIRECTION('',(-1.,0.,0.));
#1491=CARTESIAN_POINT('',(-25.,21.,-15.));
#1492=VECTOR('',#1493,1.);
#1493=DIRECTION('',(0.,0.,1.));
#1494=CARTESIAN_POINT('',(-25.,-21.,-15.));
#1495=CARTESIAN_POINT('',(-25.,21.,-15.));
#1496=VECTOR('',#1497,1.);
#1497=DIRECTION('',(-8.45884209238214E-17,-1.,0.));
#1498=CARTESIAN_POINT('',(-25.,-21.,-15.));
#1499=VECTOR('',#1500,1.);
#1500=DIRECTION('',(0.,0.,1.));
#1501=CARTESIAN_POINT('',(-21.,-25.,-15.));
#1502=AXIS2_PLACEMENT_3D('',#1503,#1504,#1505);
#1503=CARTESIAN_POINT('',(-21.,-21.,-15.));
#1504=DIRECTION('',(0.,0.,-1.));
#1505=DIRECTION('',(-8.88178419700125E-16,-1.,0.));
#1506=CARTESIAN_POINT('',(-21.,-25.,-15.));
#1507=VECTOR('',#1508,1.);
#1508=DIRECTION('',(0.,0.,1.));
#1509=CARTESIAN_POINT('',(21.,-25.,-15.));
#1510=CARTESIAN_POINT('',(-21.,-25.,-15.));
#1511=VECTOR('',#1512,1.);
#1512=DIRECTION('',(1.,-8.45884209238215E-17,0.));
#1513=CARTESIAN_POINT('',(21.,-25.,-15.));
#1514=VECTOR('',#1515,1.);
#1515=DIRECTION('',(0.,0.,1.));
#1516=CARTESIAN_POINT('',(25.,-21.,-15.));
#1517=AXIS2_PLACEMENT_3D('',#1518,#1519,#1520);
#1518=CARTESIAN_POINT('',(21.,-21.,-15.));
#1519=DIRECTION('',(0.,0.,-1.));
#1520=DIRECTION('',(1.,-8.88178419700126E-16,0.));
#1521=CARTESIAN_POINT('',(25.,-21.,-15.));
#1522=VECTOR('',#1523,1.);
#1523=DIRECTION('',(0.,0.,1.));
#1524=CARTESIAN_POINT('',(25.,21.,-15.));
#1525=CARTESIAN_POINT('',(25.,-21.,-15.));
#1526=VECTOR('',#1527,1.);
#1527=DIRECTION('',(8.45884209238214E-17,1.,0.));
#1528=CARTESIAN_POINT('',(25.000000000573,20.9999999999437,-15.));
#1529=VECTOR('',#1530,1.);
#1530=DIRECTION('',(0.,0.,1.));
#1531=AXIS2_PLACEMENT_3D('',#1532,#1533,#1534);
#1532=CARTESIAN_POINT('',(21.,21.,-15.));
#1533=DIRECTION('',(0.,0.,-1.));
#1534=DIRECTION('',(0.,1.,0.));
#1535=CARTESIAN_POINT('',(-14.5,3.55147571752732E-15,-15.));
#1536=AXIS2_PLACEMENT_3D('',#1537,#1538,#1539);
#1537=CARTESIAN_POINT('',(0.,0.,-15.));
#1538=DIRECTION('',(0.,0.,1.));
#1539=DIRECTION('',(-1.,1.22464679914735E-16,0.));
#1540=CARTESIAN_POINT('',(-21.,-25.,15.));
#1541=CARTESIAN_POINT('',(21.,-25.,15.));
#1542=CARTESIAN_POINT('',(-21.,-25.,15.));
#1543=VECTOR('',#1544,1.);
#1544=DIRECTION('',(1.,-8.45884209238215E-17,0.));
#1545=CARTESIAN_POINT('',(-21.0000000000563,-23.000000000573,13.));
#1546=CARTESIAN_POINT('',(-21.0000000000894,-24.1715728761624,13.));
#1547=CARTESIAN_POINT('',(-21.0000000001127,-25.000000001146,13.8284271247462));
#1548=CARTESIAN_POINT('',(-21.0000000001127,-25.000000001146,15.));
#1549=AXIS2_PLACEMENT_3D('',#1550,#1551,#1552);
#1550=CARTESIAN_POINT('',(21.,-23.,15.));
#1551=DIRECTION('',(1.,-1.225073682345E-16,0.));
#1552=DIRECTION('',(-1.225073682345E-16,-1.,-6.12323399573677E-17));
#1553=CARTESIAN_POINT('',(-25.,-21.,15.));
#1554=AXIS2_PLACEMENT_3D('',#1555,#1556,#1557);
#1555=CARTESIAN_POINT('',(-21.,-21.,15.));
#1556=DIRECTION('',(0.,0.,-1.));
#1557=DIRECTION('',(0.,-1.,0.));
#1558=AXIS2_PLACEMENT_3D('',#1559,#1560,#1561);
#1559=CARTESIAN_POINT('',(-23.,-21.,15.));
#1560=DIRECTION('',(-1.225073682345E-16,-1.,-2.66596616280583E-47));
#1561=DIRECTION('',(-1.,1.225073682345E-16,-6.12323399573677E-17));
#1562=CARTESIAN_POINT('',(-25.,21.,15.));
#1563=CARTESIAN_POINT('',(-25.,21.,15.));
#1564=VECTOR('',#1565,1.);
#1565=DIRECTION('',(-8.45884209238214E-17,-1.,0.));
#1566=CARTESIAN_POINT('',(-23.000000000573,21.0000000000564,13.));
#1567=CARTESIAN_POINT('',(-24.1715728761624,21.0000000000894,13.));
#1568=CARTESIAN_POINT('',(-25.0000000011459,21.0000000001127,13.8284271247462));
#1569=CARTESIAN_POINT('',(-25.0000000011459,21.0000000001127,15.));
#1570=CARTESIAN_POINT('',(-21.,25.,15.));
#1571=AXIS2_PLACEMENT_3D('',#1572,#1573,#1574);
#1572=CARTESIAN_POINT('',(-21.,21.,15.));
#1573=DIRECTION('',(0.,0.,-1.));
#1574=DIRECTION('',(-1.,-8.88178419700125E-16,0.));
#1575=AXIS2_PLACEMENT_3D('',#1576,#1577,#1578);
#1576=CARTESIAN_POINT('',(-21.,23.,15.));
#1577=DIRECTION('',(-1.,3.0626842058625E-16,1.66622885175365E-46));
#1578=DIRECTION('',(3.0626842058625E-16,1.,-6.12323399573677E-17));
#1579=CARTESIAN_POINT('',(21.,25.,15.));
#1580=CARTESIAN_POINT('',(21.,25.,15.));
#1581=VECTOR('',#1582,1.);
#1582=DIRECTION('',(-1.,3.38353683695286E-16,0.));
#1583=AXIS2_PLACEMENT_3D('',#1584,#1585,#1586);
#1584=CARTESIAN_POINT('',(21.,23.,15.));
#1585=DIRECTION('',(1.,2.50372299413271E-15,0.));
#1586=DIRECTION('',(0.,4.44750546459132E-30,-1.));
#1587=CARTESIAN_POINT('',(25.,21.,15.));
#1588=AXIS2_PLACEMENT_3D('',#1589,#1590,#1591);
#1589=CARTESIAN_POINT('',(21.,21.,15.));
#1590=DIRECTION('',(0.,0.,-1.));
#1591=DIRECTION('',(0.,1.,0.));
#1592=AXIS2_PLACEMENT_3D('',#1593,#1594,#1595);
#1593=CARTESIAN_POINT('',(23.,21.,15.));
#1594=DIRECTION('',(1.225073682345E-16,1.,-2.66596616280583E-47));
#1595=DIRECTION('',(1.,-1.225073682345E-16,-1.83758917935762E-15));
#1596=CARTESIAN_POINT('',(25.,-21.,15.));
#1597=CARTESIAN_POINT('',(25.,-21.,15.));
#1598=VECTOR('',#1599,1.);
#1599=DIRECTION('',(8.45884209238214E-17,1.,0.));
#1600=CARTESIAN_POINT('',(23.000000000573,-21.0000000000564,13.));
#1601=CARTESIAN_POINT('',(24.1715728761624,-21.0000000000894,13.));
#1602=CARTESIAN_POINT('',(25.0000000011459,-21.0000000001127,13.8284271247462));
#1603=CARTESIAN_POINT('',(25.0000000011459,-21.0000000001127,15.));
#1604=AXIS2_PLACEMENT_3D('',#1605,#1606,#1607);
#1605=CARTESIAN_POINT('',(21.,-21.,15.));
#1606=DIRECTION('',(0.,0.,-1.));
#1607=DIRECTION('',(1.,0.,0.));
#1608=CARTESIAN_POINT('',(-22.1,-20.,20.));
#1609=AXIS2_PLACEMENT_3D('',#1610,#1611,#1612);
#1610=CARTESIAN_POINT('',(-20.,-20.,20.));
#1611=DIRECTION('',(0.,0.,1.));
#1612=DIRECTION('',(-1.,1.22464679914735E-16,0.));
#1613=CARTESIAN_POINT('',(-22.1,20.,20.));
#1614=AXIS2_PLACEMENT_3D('',#1615,#1616,#1617);
#1615=CARTESIAN_POINT('',(-20.,20.,20.));
#1616=DIRECTION('',(0.,0.,1.));
#1617=DIRECTION('',(-1.,1.22464679914735E-16,0.));
#1618=CARTESIAN_POINT('',(17.9,20.,20.));
#1619=AXIS2_PLACEMENT_3D('',#1620,#1621,#1622);
#1620=CARTESIAN_POINT('',(20.,20.,20.));
#1621=DIRECTION('',(0.,0.,1.));
#1622=DIRECTION('',(-1.,1.22464679914735E-16,0.));
#1623=CARTESIAN_POINT('',(17.9,-20.,20.));
#1624=AXIS2_PLACEMENT_3D('',#1625,#1626,#1627);
#1625=CARTESIAN_POINT('',(20.,-20.,20.));
#1626=DIRECTION('',(0.,0.,1.));
#1627=DIRECTION('',(-1.,1.22464679914735E-16,0.));
#1628=CARTESIAN_POINT('',(3.5,14.0712472794703,20.));
#1629=CARTESIAN_POINT('',(-3.5,14.0712472794703,20.));
#1630=CARTESIAN_POINT('',(-3.50000000050135,14.0712472794592,19.9999999999507));
#1631=CARTESIAN_POINT('',(-3.50000004450616,14.0712472293378,19.9761507607543));
#1632=CARTESIAN_POINT('',(-3.49951044782632,14.0713690795486,19.9282636861295));
#1633=CARTESIAN_POINT('',(-3.49729390889907,14.0719202016954,19.8561864189685));
#1634=CARTESIAN_POINT('',(-3.49354680921377,14.0728510910479,19.7833872975718));
#1635=CARTESIAN_POINT('',(-3.48821906603247,14.0741728333939,19.7098923593117));
#1636=CARTESIAN_POINT('',(-3.48121812897031,14.0759064340893,19.6352831930552));
#1637=CARTESIAN_POINT('',(-3.47246020704941,14.0780699368702,19.5595424641588));
#1638=CARTESIAN_POINT('',(-3.46178903891624,14.0806982917285,19.4822263104066));
#1639=CARTESIAN_POINT('',(-3.44915863482463,14.083798154222,19.4038030038151));
#1640=CARTESIAN_POINT('',(-3.4344099023837,14.0874027561907,19.3239354186752));
#1641=CARTESIAN_POINT('',(-3.41744838645551,14.0915280517094,19.2427658436698));
#1642=CARTESIAN_POINT('',(-3.39795793706789,14.0962418290726,19.159533314329));
#1643=CARTESIAN_POINT('',(-3.37586554204734,14.1015504918495,19.0747050066794));
#1644=CARTESIAN_POINT('',(-3.35088807641637,14.1075084161883,18.9879078445814));
#1645=CARTESIAN_POINT('',(-3.3229897923294,14.1141080060583,18.8996908171743));
#1646=CARTESIAN_POINT('',(-3.2918981066543,14.1213944490494,18.8098376066829));
#1647=CARTESIAN_POINT('',(-3.25775578305668,14.1293126288661,18.7192933603225));
#1648=CARTESIAN_POINT('',(-3.21910195473542,14.1381741231721,18.6248568257004));
#1649=CARTESIAN_POINT('',(-3.17423920707516,14.1483230869041,18.5239436481026));
#1650=CARTESIAN_POINT('',(-3.11441801499593,14.1616388281478,18.4006220194476));
#1651=CARTESIAN_POINT('',(-3.03888276286297,14.1780780855536,18.2605515300943));
#1652=CARTESIAN_POINT('',(-2.94720689280106,14.1974334894099,18.1094137744254));
#1653=CARTESIAN_POINT('',(-2.85919838920897,14.2153988052812,17.9795383033121));
#1654=CARTESIAN_POINT('',(-2.77989045718619,14.2310865931854,17.8724647959692));
#1655=CARTESIAN_POINT('',(-2.71425171687645,14.2437427927081,17.7895382690008));
#1656=CARTESIAN_POINT('',(-2.65186601618868,14.2554855108244,17.7151661770952));
#1657=CARTESIAN_POINT('',(-2.5908185466319,14.2667084033187,17.646181479255));
#1658=CARTESIAN_POINT('',(-2.52850861649058,14.2778850902479,17.5793806262832));
#1659=CARTESIAN_POINT('',(-2.46497601755621,14.2889925410795,17.5147197555493));
#1660=CARTESIAN_POINT('',(-2.40003535137957,14.3000456583616,17.4519539766856));
#1661=CARTESIAN_POINT('',(-2.33014257583176,14.3116118566719,17.3877993210432));
#1662=CARTESIAN_POINT('',(-2.25129598965288,14.3242505448733,17.31936211691));
#1663=CARTESIAN_POINT('',(-2.14697179040325,14.3403373198049,17.2344848454231));
#1664=CARTESIAN_POINT('',(-2.01801479432857,14.3591475773039,17.138420708616));
#1665=CARTESIAN_POINT('',(-1.86546845440275,14.379788563981,17.0366546136127));
#1666=CARTESIAN_POINT('',(-1.72261145343982,14.3975378850145,16.9518902450721));
#1667=CARTESIAN_POINT('',(-1.59616126166234,14.4120173844282,16.8843591613498));
#1668=CARTESIAN_POINT('',(-1.49301917243035,14.4230412939015,16.8338053903217));
#1669=CARTESIAN_POINT('',(-1.39690931835328,14.4326544450003,16.790323120086));
#1670=CARTESIAN_POINT('',(-1.30504238675106,14.4412497207436,16.7519048513094));
#1671=CARTESIAN_POINT('',(-1.21407434010279,14.4491780732279,16.7168465381942));
#1672=CARTESIAN_POINT('',(-1.11614016851366,14.4570986359443,16.6821574869392));
#1673=CARTESIAN_POINT('',(-1.01139305334537,14.4648308776792,16.648627996126));
#1674=CARTESIAN_POINT('',(-0.900283189004268,14.4721632821122,16.6171349188094));
#1675=CARTESIAN_POINT('',(-0.801371702521464,14.4779385046137,16.592530565043));
#1676=CARTESIAN_POINT('',(-0.713923221769608,14.4824823969449,16.5732847750869));
#1677=CARTESIAN_POINT('',(-0.63744074955394,14.4860486584704,16.5582463860381));
#1678=CARTESIAN_POINT('',(-0.561895361241718,14.489173317213,16.5451208779843));
#1679=CARTESIAN_POINT('',(-0.487824956479946,14.4918537688635,16.5338985957083));
#1680=CARTESIAN_POINT('',(-0.414893827579774,14.4941230590804,16.5244243001273));
#1681=CARTESIAN_POINT('',(-0.343722551866305,14.4959826316978,16.5166786805137));
#1682=CARTESIAN_POINT('',(-0.274415060293017,14.4974562404857,16.5105521540913));
#1683=CARTESIAN_POINT('',(-0.201401778463782,14.4986661303881,16.5055292534959));
#1684=CARTESIAN_POINT('',(-0.124754773620178,14.4995397048598,16.5019070892182));
#1685=CARTESIAN_POINT('',(-0.0558128100881143,14.4999377970639,16.5002576898882));
#1686=CARTESIAN_POINT('',(-0.00362140165021515,14.5000165410455,16.4999314805535));
#1687=CARTESIAN_POINT('',(0.0402434028077314,14.4999667982845,16.5001375697232));
#1688=CARTESIAN_POINT('',(0.0878158823312936,14.4997687378958,16.5009581448554));
#1689=CARTESIAN_POINT('',(0.142774995486659,14.4993317913427,16.5027691207645));
#1690=CARTESIAN_POINT('',(0.197841545044437,14.4986852281085,16.5054504916612));
#1691=CARTESIAN_POINT('',(0.259420052595409,14.4977278640925,16.5094241367025));
#1692=CARTESIAN_POINT('',(0.327596674320102,14.4963628674648,16.5150966203571));
#1693=CARTESIAN_POINT('',(0.402405720099104,14.4944798880635,16.5229364919779));
#1694=CARTESIAN_POINT('',(0.471394247651849,14.4923860341338,16.5316748594387));
#1695=CARTESIAN_POINT('',(0.534424909561089,14.4901854208384,16.5408819389407));
#1696=CARTESIAN_POINT('',(0.592155729546552,14.4879425374569,16.5502884196543));
#1697=CARTESIAN_POINT('',(0.651323406187146,14.4854061316149,16.5609548574888));
#1698=CARTESIAN_POINT('',(0.713259118214793,14.4824928762202,16.573244386909));
#1699=CARTESIAN_POINT('',(0.777767496205311,14.4791760337532,16.5872870399129));
#1700=CARTESIAN_POINT('',(0.854833106651934,14.4748606511988,16.6056334396739));
#1701=CARTESIAN_POINT('',(0.944593694033745,14.4693177739205,16.629331338199));
#1702=CARTESIAN_POINT('',(1.04784087066599,14.4622182536501,16.6599252099311));
#1703=CARTESIAN_POINT('',(1.14627996080783,14.4547275292865,16.6925075520711));
#1704=CARTESIAN_POINT('',(1.23893531376187,14.4470579575481,16.7261929826279));
#1705=CARTESIAN_POINT('',(1.32497222007125,14.4394243052163,16.7600353653428));
#1706=CARTESIAN_POINT('',(1.41169004525071,14.4312051771377,16.7968532513777));
#1707=CARTESIAN_POINT('',(1.49818437308949,14.4224802600785,16.8363844692259));
#1708=CARTESIAN_POINT('',(1.58331781328284,14.4133793022184,16.8781281446921));
#1709=CARTESIAN_POINT('',(1.66622012333221,14.4040260089018,16.9215932638408));
#1710=CARTESIAN_POINT('',(1.74655439620889,14.3945006953853,16.9664695430286));
#1711=CARTESIAN_POINT('',(1.83153253474578,14.3839524427722,17.0168814844942));
#1712=CARTESIAN_POINT('',(1.92062829205979,14.3723421228904,17.0733211722915));
#1713=CARTESIAN_POINT('',(2.01299028740577,14.359687890665,17.1360996726286));
#1714=CARTESIAN_POINT('',(2.09415650428412,14.3480476104138,17.1950905255902));
#1715=CARTESIAN_POINT('',(2.16542276075703,14.3374441668829,17.2498909530565));
#1716=CARTESIAN_POINT('',(2.22820048614152,14.3278207178835,17.3005008787403));
#1717=CARTESIAN_POINT('',(2.29013331703643,14.3180510497366,17.3528318549686));
#1718=CARTESIAN_POINT('',(2.3518143859279,14.3080489707938,17.4074590999177));
#1719=CARTESIAN_POINT('',(2.41343033439954,14.2977852206565,17.4646938433891));
#1720=CARTESIAN_POINT('',(2.47546093348024,14.2871766871789,17.525194286838));
#1721=CARTESIAN_POINT('',(2.53746695642443,14.2762945958424,17.5887826581329));
#1722=CARTESIAN_POINT('',(2.60217198953534,14.2646484062457,17.6586506784285));
#1723=CARTESIAN_POINT('',(2.67130191729385,14.25187581758,17.7376265928762));
#1724=CARTESIAN_POINT('',(2.75618902845387,14.235743821503,17.8411057482852));
#1725=CARTESIAN_POINT('',(2.85146817326182,14.2169916685693,17.9678214570624));
#1726=CARTESIAN_POINT('',(2.95182133363107,14.1964791809228,18.1164969307671));
#1727=CARTESIAN_POINT('',(3.03547667488324,14.1787828884864,18.2553483904098));
#1728=CARTESIAN_POINT('',(3.10255829844851,14.1642226615394,18.3786024326119));
#1729=CARTESIAN_POINT('',(3.15359330373114,14.1529366361711,18.4805419546029));
#1730=CARTESIAN_POINT('',(3.19809282528319,14.1429418128532,18.5767422012118));
#1731=CARTESIAN_POINT('',(3.23792226883965,14.13387327751,18.6698682427968));
#1732=CARTESIAN_POINT('',(3.2746509992359,14.1254059730688,18.7630853512213));
#1733=CARTESIAN_POINT('',(3.30814639051894,14.1175963043036,18.8557309919356));
#1734=CARTESIAN_POINT('',(3.33858195638188,14.1104274890416,18.9478822024687));
#1735=CARTESIAN_POINT('',(3.36691744173626,14.1036920740495,19.0423086520418));
#1736=CARTESIAN_POINT('',(3.39390083449927,14.0972226046234,19.1424962527778));
#1737=CARTESIAN_POINT('',(3.42265489184207,14.0902711049971,19.2640473977293));
#1738=CARTESIAN_POINT('',(3.45013989580035,14.0835644366211,19.4042789177399));
#1739=CARTESIAN_POINT('',(3.47341171601103,14.0778387741974,19.5600139712008));
#1740=CARTESIAN_POINT('',(3.48783882573671,14.0742679070081,19.6987808060618));
#1741=CARTESIAN_POINT('',(3.49569942260936,14.0723165799828,19.8171757150341));
#1742=CARTESIAN_POINT('',(3.49927712110198,14.0714271559865,19.9119952975172));
#1743=CARTESIAN_POINT('',(3.500000093983,14.0712471671652,19.9718076559006));
#1744=CARTESIAN_POINT('',(3.49999999999069,14.0712472795824,20.));
#1745=CARTESIAN_POINT('',(-14.5,3.55147571752732E-15,20.));
#1746=AXIS2_PLACEMENT_3D('',#1747,#1748,#1749);
#1747=CARTESIAN_POINT('',(0.,0.,20.));
#1748=DIRECTION('',(0.,0.,1.));
#1749=DIRECTION('',(-0.241379310344828,0.97043084686002,0.));
#1750=CARTESIAN_POINT('',(-3.5,-14.0712472794703,20.));
#1751=AXIS2_PLACEMENT_3D('',#1752,#1753,#1754);
#1752=CARTESIAN_POINT('',(0.,0.,20.));
#1753=DIRECTION('',(0.,0.,1.));
#1754=DIRECTION('',(-1.,1.22464679914735E-16,0.));
#1755=CARTESIAN_POINT('',(3.5,-14.0712472794703,20.));
#1756=CARTESIAN_POINT('',(-3.50000000049203,-14.0712472795713,19.9999999999507));
#1757=CARTESIAN_POINT('',(-3.50000004450256,-14.0712472295158,19.9761507607543));
#1758=CARTESIAN_POINT('',(-3.499510447828,-14.0713690797877,19.9282636861295));
#1759=CARTESIAN_POINT('',(-3.49729390889861,-14.0719202019103,19.8561864189683));
#1760=CARTESIAN_POINT('',(-3.4935468092139,-14.0728510912703,19.7833872975718));
#1761=CARTESIAN_POINT('',(-3.48821906603248,-14.0741728336155,19.7098923593124));
#1762=CARTESIAN_POINT('',(-3.48121812897048,-14.0759064343129,19.6352831930567));
#1763=CARTESIAN_POINT('',(-3.47246020704972,-14.0780699370956,19.5595424641613));
#1764=CARTESIAN_POINT('',(-3.46178903891678,-14.0806982919562,19.4822263104103));
#1765=CARTESIAN_POINT('',(-3.44915863482544,-14.0837981544524,19.4038030038199));
#1766=CARTESIAN_POINT('',(-3.43440990238483,-14.0874027564243,19.3239354186809));
#1767=CARTESIAN_POINT('',(-3.41744838645695,-14.0915280519467,19.2427658436764));
#1768=CARTESIAN_POINT('',(-3.39795793706964,-14.0962418293143,19.159533314336));
#1769=CARTESIAN_POINT('',(-3.37586554204936,-14.1015504920963,19.0747050066868));
#1770=CARTESIAN_POINT('',(-3.35088807641861,-14.107508416441,18.9879078445888));
#1771=CARTESIAN_POINT('',(-3.32298979233181,-14.1141080063177,18.8996908171816));
#1772=CARTESIAN_POINT('',(-3.29189810665681,-14.1213944493165,18.8098376066899));
#1773=CARTESIAN_POINT('',(-3.25775578305929,-14.129312629142,18.7192933603291));
#1774=CARTESIAN_POINT('',(-3.21910195473816,-14.1381741234582,18.6248568257068));
#1775=CARTESIAN_POINT('',(-3.17423920707815,-14.1483230872024,18.523943648109));
#1776=CARTESIAN_POINT('',(-3.11441801499952,-14.161638828463,18.4006220194547));
#1777=CARTESIAN_POINT('',(-3.03888276286752,-14.1780780858914,18.2605515301023));
#1778=CARTESIAN_POINT('',(-2.94720689280693,-14.1974334897771,18.1094137744347));
#1779=CARTESIAN_POINT('',(-2.85919838921631,-14.2153988056791,17.9795383033225));
#1780=CARTESIAN_POINT('',(-2.77989045719492,-14.231086593613,17.8724647959806));
#1781=CARTESIAN_POINT('',(-2.71425171688626,-14.2437427931617,17.7895382690129));
#1782=CARTESIAN_POINT('',(-2.65186601619937,-14.255485511304,17.7151661771076));
#1783=CARTESIAN_POINT('',(-2.59081854664324,-14.2667084038251,17.6461814792675));
#1784=CARTESIAN_POINT('',(-2.52850861650238,-14.2778850907832,17.5793806262955));
#1785=CARTESIAN_POINT('',(-2.46497601756818,-14.2889925416457,17.5147197555611));
#1786=CARTESIAN_POINT('',(-2.40003535139147,-14.3000456589613,17.4519539766968));
#1787=CARTESIAN_POINT('',(-2.3301425758435,-14.3116118573094,17.3877993210536));
#1788=CARTESIAN_POINT('',(-2.2512959896645,-14.324250545556,17.3193621169198));
#1789=CARTESIAN_POINT('',(-2.14697179041538,-14.3403373205514,17.2344848454325));
#1790=CARTESIAN_POINT('',(-2.01801479434205,-14.3591475781367,17.1384207086256));
#1791=CARTESIAN_POINT('',(-1.86546845441819,-14.3797885649283,17.0366546136224));
#1792=CARTESIAN_POINT('',(-1.72261145345402,-14.3975378860831,16.9518902450801));
#1793=CARTESIAN_POINT('',(-1.59616126167392,-14.4120173856163,16.8843591613557));
#1794=CARTESIAN_POINT('',(-1.49301917243582,-14.4230412951957,16.8338053903242));
#1795=CARTESIAN_POINT('',(-1.39690931834866,-14.4326544464013,16.7903231200838));
#1796=CARTESIAN_POINT('',(-1.30504238673485,-14.4412497222538,16.7519048513027));
#1797=CARTESIAN_POINT('',(-1.21407434007397,-14.4491780748539,16.7168465381834));
#1798=CARTESIAN_POINT('',(-1.11614016847637,-14.4570986377027,16.6821574869266));
#1799=CARTESIAN_POINT('',(-1.01139305330274,-14.4648308795897,16.6486279961131));
#1800=CARTESIAN_POINT('',(-0.900283188953689,-14.4721632841979,16.6171349187959));
#1801=CARTESIAN_POINT('',(-0.801371702467391,-14.4779385068679,16.5925305650303));
#1802=CARTESIAN_POINT('',(-0.71392322171256,-14.4824823993584,16.573284775075));
#1803=CARTESIAN_POINT('',(-0.637440749490999,-14.4860486610314,16.5582463860264));
#1804=CARTESIAN_POINT('',(-0.561895361169184,-14.4891733199272,16.5451208779724));
#1805=CARTESIAN_POINT('',(-0.487824956391714,-14.4918537717389,16.5338985956957));
#1806=CARTESIAN_POINT('',(-0.414893827469588,-14.4941230621135,16.524424300114));
#1807=CARTESIAN_POINT('',(-0.343722551721929,-14.4959826349274,16.5166786804992));
#1808=CARTESIAN_POINT('',(-0.274415060112846,-14.4974562437934,16.510552154077));
#1809=CARTESIAN_POINT('',(-0.201401778262872,-14.4986661342544,16.5055292534841));
#1810=CARTESIAN_POINT('',(-0.124754773384449,-14.4995397072719,16.5019070892094));
#1811=CARTESIAN_POINT('',(-0.055812809978447,-14.4999378049818,16.5002576898876));
#1812=CARTESIAN_POINT('',(-0.00362140154649285,-14.5000165383997,16.4999314805535));
#1813=CARTESIAN_POINT('',(0.0402434028826915,-14.4999667936188,16.5001375697234));
#1814=CARTESIAN_POINT('',(0.0878158825328432,-14.4997687342103,16.5009581448607));
#1815=CARTESIAN_POINT('',(0.142774995653053,-14.4993317875542,16.5027691207716));
#1816=CARTESIAN_POINT('',(0.197841545161403,-14.4986852245414,16.5054504916681));
#1817=CARTESIAN_POINT('',(0.259420052681411,-14.4977278606684,16.509424136709));
#1818=CARTESIAN_POINT('',(0.327596674392194,-14.4963628642204,16.515096620364));
#1819=CARTESIAN_POINT('',(0.402405720154394,-14.4944798849968,16.5229364919844));
#1820=CARTESIAN_POINT('',(0.471394247701315,-14.4923860312248,16.5316748594454));
#1821=CARTESIAN_POINT('',(0.534424909609672,-14.4901854180661,16.5408819389482));
#1822=CARTESIAN_POINT('',(0.592155729592452,-14.4879425348052,16.5502884196622));
#1823=CARTESIAN_POINT('',(0.651323406230217,-14.4854061290816,16.560954857497));
#1824=CARTESIAN_POINT('',(0.713259118254652,-14.4824928738058,16.5732443869173));
#1825=CARTESIAN_POINT('',(0.777767496241679,-14.4791760314572,16.5872870399212));
#1826=CARTESIAN_POINT('',(0.854833106682987,-14.4748606490377,16.6056334396818));
#1827=CARTESIAN_POINT('',(0.944593694058326,-14.4693177719075,16.629331338206));
#1828=CARTESIAN_POINT('',(1.04784087068388,-14.4622182517953,16.6599252099367));
#1829=CARTESIAN_POINT('',(1.14627996081915,-14.4547275275717,16.6925075520751));
#1830=CARTESIAN_POINT('',(1.2389353137674,-14.4470579559561,16.72619298263));
#1831=CARTESIAN_POINT('',(1.32497222007218,-14.4394243037314,16.7600353653432));
#1832=CARTESIAN_POINT('',(1.41169004524764,-14.4312051757541,16.7968532513764));
#1833=CARTESIAN_POINT('',(1.49818437308322,-14.4224802587895,16.836384469223));
#1834=CARTESIAN_POINT('',(1.58331781327404,-14.4133793010168,16.8781281446876));
#1835=CARTESIAN_POINT('',(1.66622012332175,-14.4040260077799,16.9215932638351));
#1836=CARTESIAN_POINT('',(1.74655439619756,-14.394500694336,16.9664695430221));
#1837=CARTESIAN_POINT('',(1.83153253473422,-14.3839524417952,17.0168814844871));
#1838=CARTESIAN_POINT('',(1.92062829204828,-14.3723421219842,17.0733211722839));
#1839=CARTESIAN_POINT('',(2.01299028739442,-14.3596878898271,17.1360996726206));
#1840=CARTESIAN_POINT('',(2.09415650427309,-14.3480476096317,17.195090525582));
#1841=CARTESIAN_POINT('',(2.16542276074593,-14.3374441661472,17.2498909530478));
#1842=CARTESIAN_POINT('',(2.22820048612995,-14.3278207171867,17.3005008787307));
#1843=CARTESIAN_POINT('',(2.29013331702443,-14.3180510490764,17.3528318549582));
#1844=CARTESIAN_POINT('',(2.35181438591558,-14.3080489701683,17.4074590999066));
#1845=CARTESIAN_POINT('',(2.4134303343872,-14.2977852200639,17.4646938433773));
#1846=CARTESIAN_POINT('',(2.47546093346819,-14.2871766866179,17.525194286826));
#1847=CARTESIAN_POINT('',(2.53746695641289,-14.2762945953113,17.5887826581207));
#1848=CARTESIAN_POINT('',(2.60217198952457,-14.2646484057443,17.6586506784165));
#1849=CARTESIAN_POINT('',(2.67130191728403,-14.2518758171086,17.7376265928646));
#1850=CARTESIAN_POINT('',(2.75618902844527,-14.2357438210664,17.8411057482742));
#1851=CARTESIAN_POINT('',(2.85146817325455,-14.2169916681687,17.9678214570521));
#1852=CARTESIAN_POINT('',(2.95182133362516,-14.1964791805571,18.1164969307578));
#1853=CARTESIAN_POINT('',(3.03547667487836,-14.1787828881476,18.2553483904012));
#1854=CARTESIAN_POINT('',(3.10255829844436,-14.1642226612208,18.378602432604));
#1855=CARTESIAN_POINT('',(3.15359330372745,-14.1529366358672,18.4805419545952));
#1856=CARTESIAN_POINT('',(3.19809282527986,-14.1429418125615,18.5767422012043));
#1857=CARTESIAN_POINT('',(3.23792226883662,-14.1338732772291,18.6698682427895));
#1858=CARTESIAN_POINT('',(3.27465099923316,-14.1254059727973,18.763085351214));
#1859=CARTESIAN_POINT('',(3.30814639051648,-14.1175963040405,18.8557309919285));
#1860=CARTESIAN_POINT('',(3.33858195637971,-14.1104274887859,18.9478822024618));
#1861=CARTESIAN_POINT('',(3.36691744173439,-14.1036920738006,19.0423086520352));
#1862=CARTESIAN_POINT('',(3.39390083449771,-14.0972226043807,19.1424962527717));
#1863=CARTESIAN_POINT('',(3.42265489184094,-14.0902711047609,19.2640473977239));
#1864=CARTESIAN_POINT('',(3.45013989579959,-14.0835644363907,19.4042789177355));
#1865=CARTESIAN_POINT('',(3.47341171601073,-14.0778387739732,19.5600139711976));
#1866=CARTESIAN_POINT('',(3.48783882573629,-14.074267906783,19.6987808060599));
#1867=CARTESIAN_POINT('',(3.49569942260992,-14.0723165797694,19.817175715033));
#1868=CARTESIAN_POINT('',(3.4992771211,-14.071427155744,19.9119952975164));
#1869=CARTESIAN_POINT('',(3.50000009398678,-14.0712471669893,19.9718076559003));
#1870=CARTESIAN_POINT('',(3.5,-14.0712472794703,20.));
#1871=AXIS2_PLACEMENT_3D('',#1872,#1873,#1874);
#1872=CARTESIAN_POINT('',(0.,0.,20.));
#1873=DIRECTION('',(0.,0.,1.));
#1874=DIRECTION('',(0.241379310344828,-0.97043084686002,0.));
#1875=CARTESIAN_POINT('',(3.50000000000001,-25.,20.));
#1876=CARTESIAN_POINT('',(-3.5,-25.,20.));
#1877=AXIS2_PLACEMENT_3D('',#1878,#1879,#1880);
#1878=CARTESIAN_POINT('',(3.5527136788005E-15,-25.,20.));
#1879=DIRECTION('',(-1.4210854715202E-16,-1.,-1.3684555315672E-48));
#1880=DIRECTION('',(-1.,1.4210854715202E-16,-2.81750495869184E-11));
#1881=CARTESIAN_POINT('',(-21.,-25.,20.));
#1882=CARTESIAN_POINT('',(-21.,-25.,20.));
#1883=VECTOR('',#1884,1.);
#1884=DIRECTION('',(1.,0.,0.));
#1885=CARTESIAN_POINT('',(-21.,-25.,15.));
#1886=VECTOR('',#1887,1.);
#1887=DIRECTION('',(0.,0.,1.));
#1888=CARTESIAN_POINT('',(21.,-25.,20.));
#1889=CARTESIAN_POINT('',(21.,-25.,15.));
#1890=VECTOR('',#1891,1.);
#1891=DIRECTION('',(0.,0.,1.));
#1892=CARTESIAN_POINT('',(3.50000000000001,-25.,20.));
#1893=VECTOR('',#1894,1.);
#1894=DIRECTION('',(1.,0.,0.));
#1895=CARTESIAN_POINT('',(-25.,-21.,20.));
#1896=AXIS2_PLACEMENT_3D('',#1897,#1898,#1899);
#1897=CARTESIAN_POINT('',(-21.,-21.,20.));
#1898=DIRECTION('',(0.,0.,1.));
#1899=DIRECTION('',(-1.,0.,0.));
#1900=CARTESIAN_POINT('',(-25.,-21.,15.));
#1901=VECTOR('',#1902,1.);
#1902=DIRECTION('',(0.,0.,1.));
#1903=CARTESIAN_POINT('',(-25.,21.,20.));
#1904=CARTESIAN_POINT('',(-25.,21.,20.));
#1905=VECTOR('',#1906,1.);
#1906=DIRECTION('',(-8.45884209238214E-17,-1.,0.));
#1907=CARTESIAN_POINT('',(-25.,21.,15.));
#1908=VECTOR('',#1909,1.);
#1909=DIRECTION('',(0.,0.,1.));
#1910=CARTESIAN_POINT('',(-21.,25.,20.));
#1911=AXIS2_PLACEMENT_3D('',#1912,#1913,#1914);
#1912=CARTESIAN_POINT('',(-21.,21.,20.));
#1913=DIRECTION('',(0.,0.,1.));
#1914=DIRECTION('',(0.,1.,0.));
#1915=CARTESIAN_POINT('',(-21.,25.,15.));
#1916=VECTOR('',#1917,1.);
#1917=DIRECTION('',(0.,0.,1.));
#1918=CARTESIAN_POINT('',(-3.50000000000002,25.,20.));
#1919=CARTESIAN_POINT('',(3.50000000000001,25.,20.));
#1920=AXIS2_PLACEMENT_3D('',#1921,#1922,#1923);
#1921=CARTESIAN_POINT('',(-3.5527136788005E-15,25.,20.));
#1922=DIRECTION('',(-3.5527136788005E-16,-1.,-2.73691106313441E-48));
#1923=DIRECTION('',(-1.,3.5527136788005E-16,-2.03012210217172E-15));
#1924=CARTESIAN_POINT('',(21.,25.,20.));
#1925=CARTESIAN_POINT('',(21.,25.,20.));
#1926=VECTOR('',#1927,1.);
#1927=DIRECTION('',(-1.,2.03012210217172E-16,0.));
#1928=CARTESIAN_POINT('',(21.,25.,15.));
#1929=VECTOR('',#1930,1.);
#1930=DIRECTION('',(0.,0.,1.));
#1931=CARTESIAN_POINT('',(-3.50000000000002,25.,20.));
#1932=VECTOR('',#1933,1.);
#1933=DIRECTION('',(-1.,4.06024420434343E-16,0.));
#1934=CARTESIAN_POINT('',(25.,21.,20.));
#1935=AXIS2_PLACEMENT_3D('',#1936,#1937,#1938);
#1936=CARTESIAN_POINT('',(21.,21.,20.));
#1937=DIRECTION('',(0.,0.,1.));
#1938=DIRECTION('',(1.,8.88178419700125E-16,0.));
#1939=CARTESIAN_POINT('',(25.000000000573,20.9999999999437,15.));
#1940=VECTOR('',#1941,1.);
#1941=DIRECTION('',(0.,0.,1.));
#1942=CARTESIAN_POINT('',(25.,-21.,20.));
#1943=CARTESIAN_POINT('',(25.,-21.,20.));
#1944=VECTOR('',#1945,1.);
#1945=DIRECTION('',(8.45884209238214E-17,1.,0.));
#1946=CARTESIAN_POINT('',(25.,-21.,15.));
#1947=VECTOR('',#1948,1.);
#1948=DIRECTION('',(0.,0.,1.));
#1949=AXIS2_PLACEMENT_3D('',#1950,#1951,#1952);
#1950=CARTESIAN_POINT('',(21.,-21.,20.));
#1951=DIRECTION('',(0.,0.,1.));
#1952=DIRECTION('',(-8.88178419700124E-16,-1.,0.));
#1953=CARTESIAN_POINT('',(-3.50000000050135,25.,19.9999999999507));
#1954=VECTOR('',#1955,1.);
#1955=DIRECTION('',(1.21904819664143E-16,-1.,0.));
#1956=CARTESIAN_POINT('',(-3.50000000050135,-14.0712472794703,19.9999999999507));
#1957=VECTOR('',#1958,1.);
#1958=DIRECTION('',(1.21904819664143E-16,-1.,0.));
#1959=CARTESIAN_POINT('',(3.5,25.,20.));
#1960=VECTOR('',#1961,1.);
#1961=DIRECTION('',(1.21904819664143E-16,-1.,0.));
#1962=CARTESIAN_POINT('',(3.5,-14.0712472794703,20.));
#1963=VECTOR('',#1964,1.);
#1964=DIRECTION('',(1.21904819664143E-16,-1.,0.));
ENDSEC;
END-ISO-10303-21;
