ISO-10303-21;
HEADER;
FILE_DESCRIPTION(('STEP AP203'),
    '1');
FILE_NAME('держатель_серво_от_трубы_прав',
    '2026-08-20T18:26:27',
    ('SEVER'),
    (''),
    'C3D Converter',
    'C3D Toolkit',
    '');
/**/
FILE_SCHEMA(('CONFIG_CONTROL_DESIGN'));
ENDSEC;

DATA;
#1=PRODUCT_DEFINITION('','UNSPECIFIED',#28,#31);
#2=SHAPE_DEFINITION_REPRESENTATION(#26,#3);
#3=SHAPE_REPRESENTATION('NONE',(#4),#8);
#4=AXIS2_PLACEMENT_3D('',#5,#6,#7);
#5=CARTESIAN_POINT('',(0.,0.,0.));
#6=DIRECTION('',(0.,0.,1.));
#7=DIRECTION('',(1.,0.,0.));
#8=(GEOMETRIC_REPRESENTATION_CONTEXT(3)GLOBAL_UNCERTAINTY_ASSIGNED_CONTEXT((#10))
GLOBAL_UNIT_ASSIGNED_CONTEXT((#9,#11,#12))REPRESENTATION_CONTEXT('NONE','NONE'));
#9=(LENGTH_UNIT()NAMED_UNIT(*)SI_UNIT(.MILLI.,.METRE.));
#10=UNCERTAINTY_MEASURE_WITH_UNIT(LENGTH_MEASURE(1.E-5),#9,'NONE','NONE');
#11=(NAMED_UNIT(*)PLANE_ANGLE_UNIT()SI_UNIT($,.RADIAN.));
#12=(NAMED_UNIT(*)SI_UNIT($,.STERADIAN.)SOLID_ANGLE_UNIT());
#13=MANIFOLD_SOLID_BREP('',#14);
#14=CLOSED_SHELL('',(#53,#54,#55,#56,#57,#58,#59,#60,#61,#62,#63,#64,#65,#66,#67,
#68,#69,#70,#71,#72,#73,#74));
#15=COLOUR_RGB('',0.423529411764706,0.423529411764706,0.423529411764706);
#16=FILL_AREA_STYLE_COLOUR('',#15);
#17=FILL_AREA_STYLE($,(#16));
#18=SURFACE_STYLE_FILL_AREA(#17);
#19=SURFACE_SIDE_STYLE('',(#18));
#20=SURFACE_STYLE_USAGE(.BOTH.,#19);
#21=PRESENTATION_STYLE_ASSIGNMENT((#20));
#22=MECHANICAL_DESIGN_GEOMETRIC_PRESENTATION_REPRESENTATION('NONE',(#23),#8);
#23=STYLED_ITEM('',(#21),#13);
#24=ADVANCED_BREP_SHAPE_REPRESENTATION('NONE',(#13),#8);
#25=SHAPE_REPRESENTATION_RELATIONSHIP('','',#3,#24);
#26=PRODUCT_DEFINITION_SHAPE('NONE','NONE',#1);
#27=MECHANICAL_CONTEXT('NONE',#32,'mechanical');
#28=PRODUCT_DEFINITION_FORMATION_WITH_SPECIFIED_SOURCE('ANY','UNSPECIFIED',#29,.NOT_KNOWN.);
#29=PRODUCT('','\X2\0414043504420430043B044C\X0\','NONE',(#27));
#30=PRODUCT_RELATED_PRODUCT_CATEGORY('detail','',(#29));
#31=DESIGN_CONTEXT('detailed design',#32,'design');
#32=APPLICATION_CONTEXT('configuration controlled 3d designs of mechanical parts and assemblies');
#33=APPLICATION_PROTOCOL_DEFINITION('international standard','config_control_design',
1994,#32);
#34=CC_DESIGN_DATE_AND_TIME_ASSIGNMENT(#35,#39,(#1));
#35=DATE_AND_TIME(#36,#37);
#36=CALENDAR_DATE(0,1,1);
#37=LOCAL_TIME(0,0,0.,#38);
#38=COORDINATED_UNIVERSAL_TIME_OFFSET(0,0,.AHEAD.);
#39=DATE_TIME_ROLE('creation_date');
#40=CC_DESIGN_APPROVAL(#41,(#1));
#41=APPROVAL(#42,'UNSPECIFIED');
#42=APPROVAL_STATUS('not_yet_approved');
#43=APPROVAL_DATE_TIME(#44,#41);
#44=DATE_AND_TIME(#45,#46);
#45=CALENDAR_DATE(0,1,1);
#46=LOCAL_TIME(0,0,0.,#47);
#47=COORDINATED_UNIVERSAL_TIME_OFFSET(0,0,.AHEAD.);
#48=PERSON('UNSPECIFIED','SEVER','UNSPECIFIED',('UNSPECIFIED'),('UNSPECIFIED'),(
'UNSPECIFIED'));
#49=ORGANIZATION('UNSPECIFIED','UNSPECIFIED','UNSPECIFIED');
#50=PERSON_AND_ORGANIZATION(#48,#49);
#51=PERSON_AND_ORGANIZATION_ROLE('creator');
#52=CC_DESIGN_PERSON_AND_ORGANIZATION_ASSIGNMENT(#50,#51,(#28,#1));
#53=ADVANCED_FACE('',(#75),#77,.T.);
#54=ADVANCED_FACE('',(#82),#84,.T.);
#55=ADVANCED_FACE('',(#89),#91,.T.);
#56=ADVANCED_FACE('',(#96,#98),#100,.T.);
#57=ADVANCED_FACE('',(#105),#107,.F.);
#58=ADVANCED_FACE('',(#112,#114),#116,.T.);
#59=ADVANCED_FACE('',(#121,#123),#125,.F.);
#60=ADVANCED_FACE('',(#130,#132),#134,.T.);
#61=ADVANCED_FACE('',(#139),#141,.T.);
#62=ADVANCED_FACE('',(#146,#148),#150,.F.);
#63=ADVANCED_FACE('',(#155,#157),#159,.F.);
#64=ADVANCED_FACE('',(#164,#166),#168,.F.);
#65=ADVANCED_FACE('',(#173),#175,.F.);
#66=ADVANCED_FACE('',(#180,#182),#184,.F.);
#67=ADVANCED_FACE('',(#189),#191,.F.);
#68=ADVANCED_FACE('',(#196,#198),#200,.F.);
#69=ADVANCED_FACE('',(#205),#207,.F.);
#70=ADVANCED_FACE('',(#212),#214,.F.);
#71=ADVANCED_FACE('',(#219),#221,.F.);
#72=ADVANCED_FACE('',(#226),#228,.T.);
#73=ADVANCED_FACE('',(#233),#235,.T.);
#74=ADVANCED_FACE('',(#240),#242,.F.);
#75=FACE_BOUND('',#76,.T.);
#76=EDGE_LOOP('',(#247,#248,#249,#250,#251,#252,#253));
#77=PLANE('',#78);
#78=AXIS2_PLACEMENT_3D('',#79,#80,#81);
#79=CARTESIAN_POINT('',(-3.75,4.25,0.));
#80=DIRECTION('',(-1.,1.0449157878825E-16,0.));
#81=DIRECTION('',(-1.0449157878825E-16,-1.,0.));
#82=FACE_BOUND('',#83,.T.);
#83=EDGE_LOOP('',(#254,#255,#256,#257,#258,#259));
#84=PLANE('',#85);
#85=AXIS2_PLACEMENT_3D('',#86,#87,#88);
#86=CARTESIAN_POINT('',(3.75,4.25,15.5));
#87=DIRECTION('',(0.,0.,-1.));
#88=DIRECTION('',(-1.,2.368475785867E-16,0.));
#89=FACE_BOUND('',#90,.T.);
#90=EDGE_LOOP('',(#260,#261,#262,#263,#264,#265,#266));
#91=PLANE('',#92);
#92=AXIS2_PLACEMENT_3D('',#93,#94,#95);
#93=CARTESIAN_POINT('',(0.,0.,22.5));
#94=DIRECTION('',(0.,0.,1.));
#95=DIRECTION('',(-1.,1.22464679914735E-16,0.));
#96=FACE_BOUND('',#97,.T.);
#97=EDGE_LOOP('',(#267,#268,#269,#270));
#98=FACE_BOUND('',#99,.T.);
#99=EDGE_LOOP('',(#271));
#100=PLANE('',#101);
#101=AXIS2_PLACEMENT_3D('',#102,#103,#104);
#102=CARTESIAN_POINT('',(4.28694117241927E-15,18.6,0.));
#103=DIRECTION('',(2.368475785867E-16,1.,0.));
#104=DIRECTION('',(-1.,2.368475785867E-16,-1.22464679914735E-16));
#105=FACE_BOUND('',#106,.T.);
#106=EDGE_LOOP('',(#272,#273,#274,#275));
#107=PLANE('',#108);
#108=AXIS2_PLACEMENT_3D('',#109,#110,#111);
#109=CARTESIAN_POINT('',(-2.35,11.6,22.5));
#110=DIRECTION('',(1.,-2.53765262771464E-16,-6.34413156928661E-17));
#111=DIRECTION('',(-6.34413156928661E-17,0.,-1.));
#112=FACE_BOUND('',#113,.T.);
#113=EDGE_LOOP('',(#276,#277,#278,#279));
#114=FACE_BOUND('',#115,.T.);
#115=EDGE_LOOP('',(#280));
#116=PLANE('',#117);
#117=AXIS2_PLACEMENT_3D('',#118,#119,#120);
#118=CARTESIAN_POINT('',(3.75,4.25,0.));
#119=DIRECTION('',(2.368475785867E-16,1.,0.));
#120=DIRECTION('',(-1.,2.368475785867E-16,0.));
#121=FACE_BOUND('',#122,.T.);
#122=EDGE_LOOP('',(#281,#282,#283,#284));
#123=FACE_BOUND('',#124,.T.);
#124=EDGE_LOOP('',(#285,#286,#287,#288));
#125=CYLINDRICAL_SURFACE('',#126,17.5);
#126=AXIS2_PLACEMENT_3D('',#127,#128,#129);
#127=CARTESIAN_POINT('',(5.,3.67650088815047E-15,-16.9115345252878));
#128=DIRECTION('',(-1.,0.,6.12323399573677E-17));
#129=DIRECTION('',(6.12323399573677E-17,-1.22464679914735E-16,1.));
#130=FACE_BOUND('',#131,.T.);
#131=EDGE_LOOP('',(#289,#290,#291,#292));
#132=FACE_BOUND('',#133,.T.);
#133=EDGE_LOOP('',(#293));
#134=PLANE('',#135);
#135=AXIS2_PLACEMENT_3D('',#136,#137,#138);
#136=CARTESIAN_POINT('',(-3.75,-4.25,0.));
#137=DIRECTION('',(-2.368475785867E-16,-1.,0.));
#138=DIRECTION('',(1.,-2.368475785867E-16,0.));
#139=FACE_BOUND('',#140,.T.);
#140=EDGE_LOOP('',(#294,#295,#296,#297,#298,#299,#300,#301));
#141=PLANE('',#142);
#142=AXIS2_PLACEMENT_3D('',#143,#144,#145);
#143=CARTESIAN_POINT('',(3.75,-4.25,0.));
#144=DIRECTION('',(1.,-1.0449157878825E-16,0.));
#145=DIRECTION('',(1.0449157878825E-16,1.,0.));
#146=FACE_OUTER_BOUND('',#147,.T.);
#147=EDGE_LOOP('',(#302));
#148=FACE_OUTER_BOUND('',#149,.T.);
#149=EDGE_LOOP('',(#303));
#150=CYLINDRICAL_SURFACE('',#151,1.225);
#151=AXIS2_PLACEMENT_3D('',#152,#153,#154);
#152=CARTESIAN_POINT('',(4.83256067935662E-15,20.55,19.));
#153=DIRECTION('',(-2.368475785867E-16,-1.,0.));
#154=DIRECTION('',(6.12323399573677E-17,-1.45027314501002E-32,-1.));
#155=FACE_OUTER_BOUND('',#156,.T.);
#156=EDGE_LOOP('',(#304));
#157=FACE_OUTER_BOUND('',#158,.T.);
#158=EDGE_LOOP('',(#305));
#159=CYLINDRICAL_SURFACE('',#160,1.225);
#160=AXIS2_PLACEMENT_3D('',#161,#162,#163);
#161=CARTESIAN_POINT('',(2.73464517881206E-15,5.75,3.04));
#162=DIRECTION('',(-2.368475785867E-16,-1.,0.));
#163=DIRECTION('',(6.12323399573677E-17,-1.45027314501002E-32,1.));
#164=FACE_BOUND('',#165,.T.);
#165=EDGE_LOOP('',(#306,#307,#308,#309));
#166=FACE_BOUND('',#167,.T.);
#167=EDGE_LOOP('',(#310));
#168=PLANE('',#169);
#169=AXIS2_PLACEMENT_3D('',#170,#171,#172);
#170=CARTESIAN_POINT('',(2.65,2.15,0.));
#171=DIRECTION('',(1.67580833905684E-16,1.,0.));
#172=DIRECTION('',(-1.,1.67580833905684E-16,0.));
#173=FACE_BOUND('',#174,.T.);
#174=EDGE_LOOP('',(#311,#312,#313,#314));
#175=PLANE('',#176);
#176=AXIS2_PLACEMENT_3D('',#177,#178,#179);
#177=CARTESIAN_POINT('',(-2.65,2.15,0.));
#178=DIRECTION('',(-1.,2.06553120860494E-16,0.));
#179=DIRECTION('',(-2.06553120860494E-16,-1.,0.));
#180=FACE_BOUND('',#181,.T.);
#181=EDGE_LOOP('',(#315,#316,#317,#318));
#182=FACE_BOUND('',#183,.T.);
#183=EDGE_LOOP('',(#319));
#184=PLANE('',#185);
#185=AXIS2_PLACEMENT_3D('',#186,#187,#188);
#186=CARTESIAN_POINT('',(-2.65,-2.15,0.));
#187=DIRECTION('',(-1.67580833905684E-16,-1.,0.));
#188=DIRECTION('',(1.,-1.67580833905684E-16,0.));
#189=FACE_BOUND('',#190,.T.);
#190=EDGE_LOOP('',(#320,#321,#322,#323));
#191=PLANE('',#192);
#192=AXIS2_PLACEMENT_3D('',#193,#194,#195);
#193=CARTESIAN_POINT('',(2.65,-2.15,0.));
#194=DIRECTION('',(1.,-2.06553120860494E-16,0.));
#195=DIRECTION('',(2.06553120860494E-16,1.,0.));
#196=FACE_OUTER_BOUND('',#197,.T.);
#197=EDGE_LOOP('',(#324));
#198=FACE_OUTER_BOUND('',#199,.T.);
#199=EDGE_LOOP('',(#325));
#200=CYLINDRICAL_SURFACE('',#201,1.225);
#201=AXIS2_PLACEMENT_3D('',#202,#203,#204);
#202=CARTESIAN_POINT('',(2.73464517881206E-15,5.75,3.04));
#203=DIRECTION('',(-2.368475785867E-16,-1.,0.));
#204=DIRECTION('',(6.12323399573677E-17,-1.45027314501002E-32,1.));
#205=FACE_BOUND('',#206,.T.);
#206=EDGE_LOOP('',(#326));
#207=PLANE('',#208);
#208=AXIS2_PLACEMENT_3D('',#209,#210,#211);
#209=CARTESIAN_POINT('',(1.77635683940025E-15,7.,0.));
#210=DIRECTION('',(-2.368475785867E-16,-1.,0.));
#211=DIRECTION('',(6.12323399573677E-17,-1.45027314501002E-32,-1.));
#212=FACE_BOUND('',#213,.T.);
#213=EDGE_LOOP('',(#327,#328,#329,#330));
#214=PLANE('',#215);
#215=AXIS2_PLACEMENT_3D('',#216,#217,#218);
#216=CARTESIAN_POINT('',(0.,0.,5.6));
#217=DIRECTION('',(0.,0.,1.));
#218=DIRECTION('',(-1.,1.22464679914735E-16,0.));
#219=FACE_BOUND('',#220,.T.);
#220=EDGE_LOOP('',(#331,#332,#333,#334,#335));
#221=CYLINDRICAL_SURFACE('',#222,7.);
#222=AXIS2_PLACEMENT_3D('',#223,#224,#225);
#223=CARTESIAN_POINT('',(31.75,11.25,8.5));
#224=DIRECTION('',(1.,0.,0.));
#225=DIRECTION('',(0.,1.01506105108586E-15,1.));
#226=FACE_BOUND('',#227,.T.);
#227=EDGE_LOOP('',(#336,#337,#338,#339));
#228=CYLINDRICAL_SURFACE('',#229,7.);
#229=AXIS2_PLACEMENT_3D('',#230,#231,#232);
#230=CARTESIAN_POINT('',(-31.75,2.75000000000001,15.5));
#231=DIRECTION('',(1.,-2.23792987640976E-16,5.59482469102441E-17));
#232=DIRECTION('',(-5.5948246910244E-17,6.34413156928655E-17,1.));
#233=FACE_BOUND('',#234,.T.);
#234=EDGE_LOOP('',(#340,#341,#342,#343,#344));
#235=CYLINDRICAL_SURFACE('',#236,1.);
#236=AXIS2_PLACEMENT_3D('',#237,#238,#239);
#237=CARTESIAN_POINT('',(-2.75,10.6,26.5));
#238=DIRECTION('',(0.,0.,1.));
#239=DIRECTION('',(4.44089209850063E-16,1.,0.));
#240=FACE_BOUND('',#241,.T.);
#241=EDGE_LOOP('',(#345,#346,#347,#348));
#242=CYLINDRICAL_SURFACE('',#243,1.);
#243=AXIS2_PLACEMENT_3D('',#244,#245,#246);
#244=CARTESIAN_POINT('',(-3.35,12.5078784028339,26.5));
#245=DIRECTION('',(8.88178419700125E-17,-1.1842378929335E-16,1.));
#246=DIRECTION('',(0.299999999999999,-0.953939201416946,-1.39614447578271E-16));
#247=ORIENTED_EDGE('',*,*,#349,.T.);
#248=ORIENTED_EDGE('',*,*,#350,.F.);
#249=ORIENTED_EDGE('',*,*,#351,.F.);
#250=ORIENTED_EDGE('',*,*,#352,.T.);
#251=ORIENTED_EDGE('',*,*,#353,.T.);
#252=ORIENTED_EDGE('',*,*,#354,.F.);
#253=ORIENTED_EDGE('',*,*,#355,.T.);
#254=ORIENTED_EDGE('',*,*,#356,.F.);
#255=ORIENTED_EDGE('',*,*,#357,.T.);
#256=ORIENTED_EDGE('',*,*,#358,.F.);
#257=ORIENTED_EDGE('',*,*,#359,.F.);
#258=ORIENTED_EDGE('',*,*,#360,.T.);
#259=ORIENTED_EDGE('',*,*,#361,.F.);
#260=ORIENTED_EDGE('',*,*,#362,.F.);
#261=ORIENTED_EDGE('',*,*,#363,.F.);
#262=ORIENTED_EDGE('',*,*,#355,.F.);
#263=ORIENTED_EDGE('',*,*,#364,.T.);
#264=ORIENTED_EDGE('',*,*,#365,.T.);
#265=ORIENTED_EDGE('',*,*,#366,.F.);
#266=ORIENTED_EDGE('',*,*,#367,.T.);
#267=ORIENTED_EDGE('',*,*,#368,.T.);
#268=ORIENTED_EDGE('',*,*,#366,.T.);
#269=ORIENTED_EDGE('',*,*,#369,.T.);
#270=ORIENTED_EDGE('',*,*,#358,.T.);
#271=ORIENTED_EDGE('',*,*,#370,.T.);
#272=ORIENTED_EDGE('',*,*,#371,.F.);
#273=ORIENTED_EDGE('',*,*,#367,.F.);
#274=ORIENTED_EDGE('',*,*,#368,.F.);
#275=ORIENTED_EDGE('',*,*,#357,.F.);
#276=ORIENTED_EDGE('',*,*,#372,.F.);
#277=ORIENTED_EDGE('',*,*,#373,.F.);
#278=ORIENTED_EDGE('',*,*,#374,.T.);
#279=ORIENTED_EDGE('',*,*,#351,.T.);
#280=ORIENTED_EDGE('',*,*,#375,.T.);
#281=ORIENTED_EDGE('',*,*,#374,.F.);
#282=ORIENTED_EDGE('',*,*,#376,.F.);
#283=ORIENTED_EDGE('',*,*,#377,.F.);
#284=ORIENTED_EDGE('',*,*,#352,.F.);
#285=ORIENTED_EDGE('',*,*,#378,.F.);
#286=ORIENTED_EDGE('',*,*,#379,.F.);
#287=ORIENTED_EDGE('',*,*,#380,.F.);
#288=ORIENTED_EDGE('',*,*,#381,.F.);
#289=ORIENTED_EDGE('',*,*,#382,.F.);
#290=ORIENTED_EDGE('',*,*,#353,.F.);
#291=ORIENTED_EDGE('',*,*,#377,.T.);
#292=ORIENTED_EDGE('',*,*,#383,.T.);
#293=ORIENTED_EDGE('',*,*,#384,.T.);
#294=ORIENTED_EDGE('',*,*,#385,.F.);
#295=ORIENTED_EDGE('',*,*,#383,.F.);
#296=ORIENTED_EDGE('',*,*,#376,.T.);
#297=ORIENTED_EDGE('',*,*,#373,.T.);
#298=ORIENTED_EDGE('',*,*,#386,.F.);
#299=ORIENTED_EDGE('',*,*,#359,.T.);
#300=ORIENTED_EDGE('',*,*,#369,.F.);
#301=ORIENTED_EDGE('',*,*,#365,.F.);
#302=ORIENTED_EDGE('',*,*,#370,.F.);
#303=ORIENTED_EDGE('',*,*,#387,.T.);
#304=ORIENTED_EDGE('',*,*,#375,.F.);
#305=ORIENTED_EDGE('',*,*,#388,.F.);
#306=ORIENTED_EDGE('',*,*,#378,.T.);
#307=ORIENTED_EDGE('',*,*,#389,.T.);
#308=ORIENTED_EDGE('',*,*,#390,.T.);
#309=ORIENTED_EDGE('',*,*,#391,.F.);
#310=ORIENTED_EDGE('',*,*,#388,.T.);
#311=ORIENTED_EDGE('',*,*,#391,.T.);
#312=ORIENTED_EDGE('',*,*,#392,.T.);
#313=ORIENTED_EDGE('',*,*,#393,.F.);
#314=ORIENTED_EDGE('',*,*,#379,.T.);
#315=ORIENTED_EDGE('',*,*,#380,.T.);
#316=ORIENTED_EDGE('',*,*,#393,.T.);
#317=ORIENTED_EDGE('',*,*,#394,.T.);
#318=ORIENTED_EDGE('',*,*,#395,.F.);
#319=ORIENTED_EDGE('',*,*,#396,.T.);
#320=ORIENTED_EDGE('',*,*,#381,.T.);
#321=ORIENTED_EDGE('',*,*,#395,.T.);
#322=ORIENTED_EDGE('',*,*,#397,.T.);
#323=ORIENTED_EDGE('',*,*,#389,.F.);
#324=ORIENTED_EDGE('',*,*,#396,.F.);
#325=ORIENTED_EDGE('',*,*,#384,.F.);
#326=ORIENTED_EDGE('',*,*,#387,.F.);
#327=ORIENTED_EDGE('',*,*,#397,.F.);
#328=ORIENTED_EDGE('',*,*,#394,.F.);
#329=ORIENTED_EDGE('',*,*,#392,.F.);
#330=ORIENTED_EDGE('',*,*,#390,.F.);
#331=ORIENTED_EDGE('',*,*,#398,.F.);
#332=ORIENTED_EDGE('',*,*,#360,.F.);
#333=ORIENTED_EDGE('',*,*,#386,.T.);
#334=ORIENTED_EDGE('',*,*,#372,.T.);
#335=ORIENTED_EDGE('',*,*,#350,.T.);
#336=ORIENTED_EDGE('',*,*,#382,.T.);
#337=ORIENTED_EDGE('',*,*,#385,.T.);
#338=ORIENTED_EDGE('',*,*,#364,.F.);
#339=ORIENTED_EDGE('',*,*,#354,.T.);
#340=ORIENTED_EDGE('',*,*,#399,.T.);
#341=ORIENTED_EDGE('',*,*,#361,.T.);
#342=ORIENTED_EDGE('',*,*,#398,.T.);
#343=ORIENTED_EDGE('',*,*,#349,.F.);
#344=ORIENTED_EDGE('',*,*,#363,.T.);
#345=ORIENTED_EDGE('',*,*,#371,.T.);
#346=ORIENTED_EDGE('',*,*,#356,.T.);
#347=ORIENTED_EDGE('',*,*,#399,.F.);
#348=ORIENTED_EDGE('',*,*,#362,.T.);
#349=EDGE_CURVE('',#400,#401,#402,.T.);
#350=EDGE_CURVE('',#403,#401,#404,.F.);
#351=EDGE_CURVE('',#405,#403,#406,.T.);
#352=EDGE_CURVE('',#405,#407,#408,.F.);
#353=EDGE_CURVE('',#407,#409,#410,.T.);
#354=EDGE_CURVE('',#411,#409,#412,.F.);
#355=EDGE_CURVE('',#411,#400,#413,.T.);
#356=EDGE_CURVE('',#414,#415,#416,.F.);
#357=EDGE_CURVE('',#414,#417,#418,.F.);
#358=EDGE_CURVE('',#419,#417,#420,.T.);
#359=EDGE_CURVE('',#421,#419,#422,.T.);
#360=EDGE_CURVE('',#421,#423,#424,.T.);
#361=EDGE_CURVE('',#415,#423,#425,.F.);
#362=EDGE_CURVE('',#426,#427,#428,.F.);
#363=EDGE_CURVE('',#400,#426,#429,.F.);
#364=EDGE_CURVE('',#411,#430,#431,.T.);
#365=EDGE_CURVE('',#430,#432,#433,.T.);
#366=EDGE_CURVE('',#434,#432,#435,.T.);
#367=EDGE_CURVE('',#434,#427,#436,.F.);
#368=EDGE_CURVE('',#417,#434,#437,.F.);
#369=EDGE_CURVE('',#432,#419,#438,.T.);
#370=EDGE_CURVE('',#439,#439,#440,.T.);
#371=EDGE_CURVE('',#427,#414,#441,.T.);
#372=EDGE_CURVE('',#442,#403,#443,.T.);
#373=EDGE_CURVE('',#444,#442,#445,.T.);
#374=EDGE_CURVE('',#444,#405,#446,.T.);
#375=EDGE_CURVE('',#447,#447,#448,.T.);
#376=EDGE_CURVE('',#449,#444,#450,.T.);
#377=EDGE_CURVE('',#407,#449,#451,.F.);
#378=EDGE_CURVE('',#452,#453,#454,.F.);
#379=EDGE_CURVE('',#455,#452,#456,.T.);
#380=EDGE_CURVE('',#457,#455,#458,.T.);
#381=EDGE_CURVE('',#453,#457,#459,.F.);
#382=EDGE_CURVE('',#409,#460,#461,.T.);
#383=EDGE_CURVE('',#449,#460,#462,.T.);
#384=EDGE_CURVE('',#463,#463,#464,.F.);
#385=EDGE_CURVE('',#460,#430,#465,.F.);
#386=EDGE_CURVE('',#421,#442,#466,.F.);
#387=EDGE_CURVE('',#467,#467,#468,.T.);
#388=EDGE_CURVE('',#469,#469,#470,.F.);
#389=EDGE_CURVE('',#453,#471,#472,.T.);
#390=EDGE_CURVE('',#471,#473,#474,.T.);
#391=EDGE_CURVE('',#452,#473,#475,.T.);
#392=EDGE_CURVE('',#473,#476,#477,.T.);
#393=EDGE_CURVE('',#455,#476,#478,.T.);
#394=EDGE_CURVE('',#476,#479,#480,.T.);
#395=EDGE_CURVE('',#457,#479,#481,.T.);
#396=EDGE_CURVE('',#482,#482,#483,.T.);
#397=EDGE_CURVE('',#479,#471,#484,.T.);
#398=EDGE_CURVE('',#423,#401,#485,.F.);
#399=EDGE_CURVE('',#426,#415,#486,.T.);
#400=VERTEX_POINT('',#487);
#401=VERTEX_POINT('',#488);
#402=LINE('',#489,#490);
#403=VERTEX_POINT('',#492);
#404=CIRCLE('',#493,7.00000000070193);
#405=VERTEX_POINT('',#497);
#406=LINE('',#498,#499);
#407=VERTEX_POINT('',#501);
#408=CIRCLE('',#502,17.5);
#409=VERTEX_POINT('',#506);
#410=LINE('',#507,#508);
#411=VERTEX_POINT('',#510);
#412=CIRCLE('',#511,7.);
#413=LINE('',#515,#516);
#414=VERTEX_POINT('',#518);
#415=VERTEX_POINT('',#519);
#416=CIRCLE('',#520,1.00000000000001);
#417=VERTEX_POINT('',#524);
#418=LINE('',#525,#526);
#419=VERTEX_POINT('',#528);
#420=LINE('',#529,#530);
#421=VERTEX_POINT('',#532);
#422=LINE('',#533,#534);
#423=VERTEX_POINT('',#536);
#424=LINE('',#537,#538);
#425=CIRCLE('',#540,0.999999999999994);
#426=VERTEX_POINT('',#544);
#427=VERTEX_POINT('',#545);
#428=CIRCLE('',#546,0.999999999999999);
#429=CIRCLE('',#550,1.);
#430=VERTEX_POINT('',#554);
#431=LINE('',#555,#556);
#432=VERTEX_POINT('',#558);
#433=LINE('',#559,#560);
#434=VERTEX_POINT('',#562);
#435=LINE('',#563,#564);
#436=LINE('',#566,#567);
#437=LINE('',#569,#570);
#438=LINE('',#572,#573);
#439=VERTEX_POINT('',#575);
#440=CIRCLE('',#576,1.225);
#441=LINE('',#580,#581);
#442=VERTEX_POINT('',#583);
#443=LINE('',#584,#585);
#444=VERTEX_POINT('',#587);
#445=LINE('',#588,#589);
#446=LINE('',#591,#592);
#447=VERTEX_POINT('',#594);
#448=CIRCLE('',#595,1.225);
#449=VERTEX_POINT('',#599);
#450=CIRCLE('',#600,17.5);
#451=LINE('',#604,#605);
#452=VERTEX_POINT('',#607);
#453=VERTEX_POINT('',#608);
#454=LINE('',#609,#610);
#455=VERTEX_POINT('',#612);
#456=CIRCLE('',#613,17.5);
#457=VERTEX_POINT('',#617);
#458=LINE('',#618,#619);
#459=CIRCLE('',#621,17.5);
#460=VERTEX_POINT('',#625);
#461=LINE('',#626,#627);
#462=LINE('',#629,#630);
#463=VERTEX_POINT('',#632);
#464=CIRCLE('',#633,1.225);
#465=CIRCLE('',#637,7.);
#466=CIRCLE('',#641,7.00000000000001);
#467=VERTEX_POINT('',#645);
#468=CIRCLE('',#646,1.225);
#469=VERTEX_POINT('',#650);
#470=CIRCLE('',#651,1.225);
#471=VERTEX_POINT('',#655);
#472=LINE('',#656,#657);
#473=VERTEX_POINT('',#659);
#474=LINE('',#660,#661);
#475=LINE('',#663,#664);
#476=VERTEX_POINT('',#666);
#477=LINE('',#667,#668);
#478=LINE('',#670,#671);
#479=VERTEX_POINT('',#673);
#480=LINE('',#674,#675);
#481=LINE('',#677,#678);
#482=VERTEX_POINT('',#680);
#483=CIRCLE('',#681,1.225);
#484=LINE('',#685,#686);
#485=B_SPLINE_CURVE_WITH_KNOTS('',3,
(#688,#689,#690,#691,#692,#693,#694,#695,#696,#697,#698,#699),
.UNSPECIFIED.,.F.,.F.,
(4,1,1,1,1,1,1,1,1,4),
(0.,0.0888617403076178,0.207143359418562,0.354991869376789,0.532289849252763,0.676453604856144,
0.787461340801418,0.861889361988862,0.93260363525323,1.),
.UNSPECIFIED.);
#486=LINE('',#700,#701);
#487=CARTESIAN_POINT('',(-3.75,10.6,22.5));
#488=CARTESIAN_POINT('',(-3.75,10.6,15.4697560932934));
#489=CARTESIAN_POINT('',(-3.75,10.6,22.5));
#490=VECTOR('',#491,1.);
#491=DIRECTION('',(0.,0.,-1.));
#492=CARTESIAN_POINT('',(-3.75,4.25,8.5));
#493=AXIS2_PLACEMENT_3D('',#494,#495,#496);
#494=CARTESIAN_POINT('',(-3.75,11.25,8.5));
#495=DIRECTION('',(1.,-1.0449157878825E-16,-1.54074395520079E-33));
#496=DIRECTION('',(-9.702789456954E-18,-0.0928571428384339,0.995679441900797));
#497=CARTESIAN_POINT('',(-3.75,4.25,0.0645515960771981));
#498=CARTESIAN_POINT('',(-3.75,4.25,0.0645515960771981));
#499=VECTOR('',#500,1.);
#500=DIRECTION('',(0.,0.,1.));
#501=CARTESIAN_POINT('',(-3.75,-4.25,0.0645515960771945));
#502=AXIS2_PLACEMENT_3D('',#503,#504,#505);
#503=CARTESIAN_POINT('',(-3.75,3.5527136788005E-15,-16.9115345252878));
#504=DIRECTION('',(-1.,1.0449157878825E-16,0.));
#505=DIRECTION('',(-2.537652627665E-17,-0.242857142852392,0.970062064079187));
#506=CARTESIAN_POINT('',(-3.75,-4.25,15.5));
#507=CARTESIAN_POINT('',(-3.75,-4.25,0.0645515960771945));
#508=VECTOR('',#509,1.);
#509=DIRECTION('',(0.,0.,1.));
#510=CARTESIAN_POINT('',(-3.75,2.75,22.5));
#511=AXIS2_PLACEMENT_3D('',#512,#513,#514);
#512=CARTESIAN_POINT('',(-3.75,2.75,15.5));
#513=DIRECTION('',(-1.,1.0449157878825E-16,0.));
#514=DIRECTION('',(-1.0449157878825E-16,-1.,0.));
#515=CARTESIAN_POINT('',(-3.75,2.75,22.5));
#516=VECTOR('',#517,1.);
#517=DIRECTION('',(1.6971562159875E-16,1.,0.));
#518=CARTESIAN_POINT('',(-2.35,12.5078784028339,15.5));
#519=CARTESIAN_POINT('',(-3.05,11.5539392014169,15.5));
#520=AXIS2_PLACEMENT_3D('',#521,#522,#523);
#521=CARTESIAN_POINT('',(-3.35,12.5078784028339,15.5));
#522=DIRECTION('',(0.,0.,1.));
#523=DIRECTION('',(0.299999999997626,-0.953939201417692,0.));
#524=CARTESIAN_POINT('',(-2.34999999999999,18.6,15.5));
#525=CARTESIAN_POINT('',(-2.35,18.6,15.5));
#526=VECTOR('',#527,1.);
#527=DIRECTION('',(-2.18686972723907E-16,-1.,0.));
#528=CARTESIAN_POINT('',(3.75,18.6,15.5));
#529=CARTESIAN_POINT('',(3.75,18.6,15.5));
#530=VECTOR('',#531,1.);
#531=DIRECTION('',(-1.,0.,-2.91206039245943E-16));
#532=CARTESIAN_POINT('',(3.75,11.25,15.5));
#533=CARTESIAN_POINT('',(3.75,11.25,15.5));
#534=VECTOR('',#535,1.);
#535=DIRECTION('',(1.81260901979617E-16,1.,0.));
#536=CARTESIAN_POINT('',(-3.50993420767853,11.25,15.5));
#537=CARTESIAN_POINT('',(3.75,11.25,15.5));
#538=VECTOR('',#539,1.);
#539=DIRECTION('',(-1.,0.,0.));
#540=AXIS2_PLACEMENT_3D('',#541,#542,#543);
#541=CARTESIAN_POINT('',(-2.75,10.6,15.5));
#542=DIRECTION('',(0.,0.,-1.));
#543=DIRECTION('',(-0.759934207678532,0.650000000000001,0.));
#544=CARTESIAN_POINT('',(-3.05,11.5539392014169,22.5));
#545=CARTESIAN_POINT('',(-2.35,12.5078784028339,22.5));
#546=AXIS2_PLACEMENT_3D('',#547,#548,#549);
#547=CARTESIAN_POINT('',(-3.35,12.5078784028339,22.5));
#548=DIRECTION('',(0.,0.,-1.));
#549=DIRECTION('',(1.,-3.55271367880051E-15,0.));
#550=AXIS2_PLACEMENT_3D('',#551,#552,#553);
#551=CARTESIAN_POINT('',(-2.75,10.6,22.5));
#552=DIRECTION('',(0.,0.,1.));
#553=DIRECTION('',(-0.3,0.953939201416946,0.));
#554=CARTESIAN_POINT('',(3.75,2.75,22.5));
#555=CARTESIAN_POINT('',(-3.75,2.75,22.5));
#556=VECTOR('',#557,1.);
#557=DIRECTION('',(1.,-1.77635683940025E-16,0.));
#558=CARTESIAN_POINT('',(3.75,18.6,22.5));
#559=CARTESIAN_POINT('',(3.75,2.75,22.5));
#560=VECTOR('',#561,1.);
#561=DIRECTION('',(2.24145973425899E-16,1.,0.));
#562=CARTESIAN_POINT('',(-2.34999999999999,18.6,22.5));
#563=CARTESIAN_POINT('',(-2.34999999999999,18.6,22.5));
#564=VECTOR('',#565,1.);
#565=DIRECTION('',(1.,-5.82412078491885E-16,5.82412078491885E-16));
#566=CARTESIAN_POINT('',(-2.35,12.5078784028339,22.5));
#567=VECTOR('',#568,1.);
#568=DIRECTION('',(2.18686972723907E-16,1.,0.));
#569=CARTESIAN_POINT('',(-2.35,18.6,22.5));
#570=VECTOR('',#571,1.);
#571=DIRECTION('',(-6.34413156928661E-17,0.,-1.));
#572=CARTESIAN_POINT('',(3.75,18.6,22.5));
#573=VECTOR('',#574,1.);
#574=DIRECTION('',(6.34413156928661E-17,0.,-1.));
#575=CARTESIAN_POINT('',(4.29569828466478E-15,18.6,17.775));
#576=AXIS2_PLACEMENT_3D('',#577,#578,#579);
#577=CARTESIAN_POINT('',(4.37070790111255E-15,18.6,19.));
#578=DIRECTION('',(-2.368475785867E-16,-1.,0.));
#579=DIRECTION('',(6.12323399573677E-17,-1.45027314501002E-32,-1.));
#580=CARTESIAN_POINT('',(-2.34999999999692,12.5078784028351,22.5));
#581=VECTOR('',#582,1.);
#582=DIRECTION('',(-6.34413156928661E-17,0.,-1.));
#583=CARTESIAN_POINT('',(3.75,4.25,8.5));
#584=CARTESIAN_POINT('',(3.75,4.25,8.5));
#585=VECTOR('',#586,1.);
#586=DIRECTION('',(-1.,0.,0.));
#587=CARTESIAN_POINT('',(3.75,4.25,0.0645515960771981));
#588=CARTESIAN_POINT('',(3.75,4.25,0.0645515960771981));
#589=VECTOR('',#590,1.);
#590=DIRECTION('',(0.,0.,1.));
#591=CARTESIAN_POINT('',(3.75,4.25,0.0645515960771963));
#592=VECTOR('',#593,1.);
#593=DIRECTION('',(-1.,1.1842378929335E-16,0.));
#594=CARTESIAN_POINT('',(2.60440266027534E-15,4.25,4.265));
#595=AXIS2_PLACEMENT_3D('',#596,#597,#598);
#596=CARTESIAN_POINT('',(2.22044604925031E-15,4.25,3.04));
#597=DIRECTION('',(-2.368475785867E-16,-1.,0.));
#598=DIRECTION('',(6.12323399573677E-17,-1.45027314501002E-32,1.));
#599=CARTESIAN_POINT('',(3.75,-4.25,0.0645515960771961));
#600=AXIS2_PLACEMENT_3D('',#601,#602,#603);
#601=CARTESIAN_POINT('',(3.75,3.5527136788005E-15,-16.9115345252878));
#602=DIRECTION('',(-1.,1.0449157878825E-16,0.));
#603=DIRECTION('',(-2.537652627665E-17,-0.242857142852392,0.970062064079187));
#604=CARTESIAN_POINT('',(3.75,-4.24999999999999,0.0645515960771945));
#605=VECTOR('',#606,1.);
#606=DIRECTION('',(-1.,-9.473903143468E-16,-2.368475785867E-16));
#607=CARTESIAN_POINT('',(-2.65,2.15,0.45589188163851));
#608=CARTESIAN_POINT('',(2.65,2.15,0.455891881638507));
#609=CARTESIAN_POINT('',(2.65,2.15,0.455891881638507));
#610=VECTOR('',#611,1.);
#611=DIRECTION('',(-1.,8.3790416952842E-17,0.));
#612=CARTESIAN_POINT('',(-2.65,-2.15,0.455891881638507));
#613=AXIS2_PLACEMENT_3D('',#614,#615,#616);
#614=CARTESIAN_POINT('',(-2.65,3.5527136788005E-15,-16.9115345252878));
#615=DIRECTION('',(-1.,2.06553120860494E-16,0.));
#616=DIRECTION('',(-2.53765262740397E-17,-0.122857142842102,0.992424366111935));
#617=CARTESIAN_POINT('',(2.65,-2.15,0.45589188163851));
#618=CARTESIAN_POINT('',(2.65,-2.15,0.455891881638506));
#619=VECTOR('',#620,1.);
#620=DIRECTION('',(-1.,8.3790416952842E-17,0.));
#621=AXIS2_PLACEMENT_3D('',#622,#623,#624);
#622=CARTESIAN_POINT('',(2.65,3.5527136788005E-15,-16.9115345252878));
#623=DIRECTION('',(-1.,2.06553120860494E-16,0.));
#624=DIRECTION('',(-2.53765262740397E-17,-0.122857142842102,0.992424366111935));
#625=CARTESIAN_POINT('',(3.75,-4.25,15.5));
#626=CARTESIAN_POINT('',(-3.75,-4.25,15.5));
#627=VECTOR('',#628,1.);
#628=DIRECTION('',(1.,-1.1842378929335E-16,0.));
#629=CARTESIAN_POINT('',(3.75,-4.25,0.0645515960771961));
#630=VECTOR('',#631,1.);
#631=DIRECTION('',(0.,0.,1.));
#632=CARTESIAN_POINT('',(5.91198242288385E-16,-4.25,4.265));
#633=AXIS2_PLACEMENT_3D('',#634,#635,#636);
#634=CARTESIAN_POINT('',(4.44089209850063E-16,-4.25,3.04));
#635=DIRECTION('',(-2.368475785867E-16,-1.,0.));
#636=DIRECTION('',(6.12323399573677E-17,-1.45027314501002E-32,1.));
#637=AXIS2_PLACEMENT_3D('',#638,#639,#640);
#638=CARTESIAN_POINT('',(3.75,2.75,15.5));
#639=DIRECTION('',(1.,-1.0449157878825E-16,0.));
#640=DIRECTION('',(-6.33906084552599E-32,-6.34413156928661E-16,1.));
#641=AXIS2_PLACEMENT_3D('',#642,#643,#644);
#642=CARTESIAN_POINT('',(3.75,11.25,8.5));
#643=DIRECTION('',(-1.,1.0449157878825E-16,0.));
#644=DIRECTION('',(-1.0449157878825E-16,-1.,-2.53765262771464E-16));
#645=CARTESIAN_POINT('',(1.54826637305906E-15,7.,17.775));
#646=AXIS2_PLACEMENT_3D('',#647,#648,#649);
#647=CARTESIAN_POINT('',(1.62327598950683E-15,7.,19.));
#648=DIRECTION('',(-2.368475785867E-16,-1.,0.));
#649=DIRECTION('',(6.12323399573677E-17,-1.45027314501002E-32,-1.));
#650=CARTESIAN_POINT('',(2.10702274524327E-15,2.15,4.265));
#651=AXIS2_PLACEMENT_3D('',#652,#653,#654);
#652=CARTESIAN_POINT('',(1.77635683940025E-15,2.15,3.04));
#653=DIRECTION('',(-1.67580833905684E-16,-1.,0.));
#654=DIRECTION('',(6.12323399573677E-17,-1.0261366592052E-32,1.));
#655=CARTESIAN_POINT('',(2.65,2.15,5.6));
#656=CARTESIAN_POINT('',(2.65,2.15,0.455891881638507));
#657=VECTOR('',#658,1.);
#658=DIRECTION('',(0.,0.,1.));
#659=CARTESIAN_POINT('',(-2.65,2.15,5.6));
#660=CARTESIAN_POINT('',(2.65,2.15,5.6));
#661=VECTOR('',#662,1.);
#662=DIRECTION('',(-1.,8.3790416952842E-17,0.));
#663=CARTESIAN_POINT('',(-2.65,2.15,0.45589188163851));
#664=VECTOR('',#665,1.);
#665=DIRECTION('',(0.,0.,1.));
#666=CARTESIAN_POINT('',(-2.65,-2.15,5.6));
#667=CARTESIAN_POINT('',(-2.65,2.15,5.6));
#668=VECTOR('',#669,1.);
#669=DIRECTION('',(-1.03276560430247E-16,-1.,0.));
#670=CARTESIAN_POINT('',(-2.65,-2.15,0.455891881638507));
#671=VECTOR('',#672,1.);
#672=DIRECTION('',(0.,0.,1.));
#673=CARTESIAN_POINT('',(2.65,-2.15,5.6));
#674=CARTESIAN_POINT('',(-2.65,-2.15,5.6));
#675=VECTOR('',#676,1.);
#676=DIRECTION('',(1.,-1.67580833905684E-16,0.));
#677=CARTESIAN_POINT('',(2.65,-2.15,0.45589188163851));
#678=VECTOR('',#679,1.);
#679=DIRECTION('',(0.,0.,1.));
#680=CARTESIAN_POINT('',(1.08857815732045E-15,-2.15,4.265));
#681=AXIS2_PLACEMENT_3D('',#682,#683,#684);
#682=CARTESIAN_POINT('',(8.88178419700125E-16,-2.15,3.04));
#683=DIRECTION('',(-1.67580833905684E-16,-1.,0.));
#684=DIRECTION('',(6.12323399573677E-17,-1.0261366592052E-32,1.));
#685=CARTESIAN_POINT('',(2.65,-2.15,5.6));
#686=VECTOR('',#687,1.);
#687=DIRECTION('',(1.03276560430247E-16,1.,0.));
#688=CARTESIAN_POINT('',(-3.75,10.6,15.4697560932934));
#689=CARTESIAN_POINT('',(-3.75000201855313,10.6208967452484,15.4717059961701));
#690=CARTESIAN_POINT('',(-3.74847143258198,10.6696289305475,15.4760278128056));
#691=CARTESIAN_POINT('',(-3.73975066421809,10.7528354557565,15.482532082489));
#692=CARTESIAN_POINT('',(-3.71911279828548,10.8554439425702,15.4891711398117));
#693=CARTESIAN_POINT('',(-3.68489795272963,10.9609822177163,15.4942996115879));
#694=CARTESIAN_POINT('',(-3.64253155434923,11.0540143339493,15.4974098685119));
#695=CARTESIAN_POINT('',(-3.60398133741531,11.1217029194396,15.4988988946965));
#696=CARTESIAN_POINT('',(-3.57064564533434,11.1722084526409,15.4996100565907));
#697=CARTESIAN_POINT('',(-3.540874668871,11.2126293045086,15.4999357608888));
#698=CARTESIAN_POINT('',(-3.52027437266984,11.237911805104,15.5000000960308));
#699=CARTESIAN_POINT('',(-3.50993420767853,11.25,15.5));
#700=CARTESIAN_POINT('',(-3.05,11.5539392014169,22.5));
#701=VECTOR('',#702,1.);
#702=DIRECTION('',(0.,0.,-1.));
ENDSEC;
END-ISO-10303-21;
