ISO-10303-21;
HEADER;
FILE_DESCRIPTION(('STEP AP203'),
    '1');
FILE_NAME('труба_для_дросселя_зеркало',
    '2026-08-20T18:27:00',
    ('SEVER'),
    (''),
    'C3D Converter',
    'C3D Toolkit',
    '');
/**/
FILE_SCHEMA(('CONFIG_CONTROL_DESIGN'));
ENDSEC;

DATA;
#1=PRODUCT_DEFINITION('','UNSPECIFIED',#28,#31);
#2=SHAPE_DEFINITION_REPRESENTATION(#26,#3);
#3=SHAPE_REPRESENTATION('NONE',(#4),#8);
#4=AXIS2_PLACEMENT_3D('',#5,#6,#7);
#5=CARTESIAN_POINT('',(0.,0.,0.));
#6=DIRECTION('',(0.,0.,1.));
#7=DIRECTION('',(1.,0.,0.));
#8=(GEOMETRIC_REPRESENTATION_CONTEXT(3)GLOBAL_UNCERTAINTY_ASSIGNED_CONTEXT((#10))
GLOBAL_UNIT_ASSIGNED_CONTEXT((#9,#11,#12))REPRESENTATION_CONTEXT('NONE','NONE'));
#9=(LENGTH_UNIT()NAMED_UNIT(*)SI_UNIT(.MILLI.,.METRE.));
#10=UNCERTAINTY_MEASURE_WITH_UNIT(LENGTH_MEASURE(1.E-5),#9,'NONE','NONE');
#11=(NAMED_UNIT(*)PLANE_ANGLE_UNIT()SI_UNIT($,.RADIAN.));
#12=(NAMED_UNIT(*)SI_UNIT($,.STERADIAN.)SOLID_ANGLE_UNIT());
#13=MANIFOLD_SOLID_BREP('',#14);
#14=CLOSED_SHELL('',(#53,#54,#55,#56,#57,#58,#59,#60,#61,#62,#63,#64,#65,#66,#67,
#68,#69,#70,#71,#72,#73,#74,#75,#76,#77,#78,#79,#80,#81,#82,#83,#84,#85,#86,#87,
#88,#89,#90,#91,#92,#93,#94,#95,#96,#97,#98,#99,#100,#101,#102,#103,#104,#105,#106,
#107,#108,#109));
#15=COLOUR_RGB('',0.705882352941176,0.705882352941176,0.705882352941176);
#16=FILL_AREA_STYLE_COLOUR('',#15);
#17=FILL_AREA_STYLE($,(#16));
#18=SURFACE_STYLE_FILL_AREA(#17);
#19=SURFACE_SIDE_STYLE('',(#18));
#20=SURFACE_STYLE_USAGE(.BOTH.,#19);
#21=PRESENTATION_STYLE_ASSIGNMENT((#20));
#22=MECHANICAL_DESIGN_GEOMETRIC_PRESENTATION_REPRESENTATION('NONE',(#23),#8);
#23=STYLED_ITEM('',(#21),#13);
#24=ADVANCED_BREP_SHAPE_REPRESENTATION('NONE',(#13),#8);
#25=SHAPE_REPRESENTATION_RELATIONSHIP('','',#3,#24);
#26=PRODUCT_DEFINITION_SHAPE('NONE','NONE',#1);
#27=MECHANICAL_CONTEXT('NONE',#32,'mechanical');
#28=PRODUCT_DEFINITION_FORMATION_WITH_SPECIFIED_SOURCE('ANY','UNSPECIFIED',#29,.NOT_KNOWN.);
#29=PRODUCT('','\X2\0414043504420430043B044C\X0\','NONE',(#27));
#30=PRODUCT_RELATED_PRODUCT_CATEGORY('detail','',(#29));
#31=DESIGN_CONTEXT('detailed design',#32,'design');
#32=APPLICATION_CONTEXT('configuration controlled 3d designs of mechanical parts and assemblies');
#33=APPLICATION_PROTOCOL_DEFINITION('international standard','config_control_design',
1994,#32);
#34=CC_DESIGN_DATE_AND_TIME_ASSIGNMENT(#35,#39,(#1));
#35=DATE_AND_TIME(#36,#37);
#36=CALENDAR_DATE(0,1,1);
#37=LOCAL_TIME(0,0,0.,#38);
#38=COORDINATED_UNIVERSAL_TIME_OFFSET(0,0,.AHEAD.);
#39=DATE_TIME_ROLE('creation_date');
#40=CC_DESIGN_APPROVAL(#41,(#1));
#41=APPROVAL(#42,'UNSPECIFIED');
#42=APPROVAL_STATUS('not_yet_approved');
#43=APPROVAL_DATE_TIME(#44,#41);
#44=DATE_AND_TIME(#45,#46);
#45=CALENDAR_DATE(0,1,1);
#46=LOCAL_TIME(0,0,0.,#47);
#47=COORDINATED_UNIVERSAL_TIME_OFFSET(0,0,.AHEAD.);
#48=PERSON('UNSPECIFIED','SEVER','UNSPECIFIED',('UNSPECIFIED'),('UNSPECIFIED'),(
'UNSPECIFIED'));
#49=ORGANIZATION('UNSPECIFIED','UNSPECIFIED','UNSPECIFIED');
#50=PERSON_AND_ORGANIZATION(#48,#49);
#51=PERSON_AND_ORGANIZATION_ROLE('creator');
#52=CC_DESIGN_PERSON_AND_ORGANIZATION_ASSIGNMENT(#50,#51,(#28,#1));
#53=ADVANCED_FACE('',(#110,#112),#114,.T.);
#54=ADVANCED_FACE('',(#119,#121),#123,.T.);
#55=ADVANCED_FACE('',(#128,#130),#132,.F.);
#56=ADVANCED_FACE('',(#137,#139,#141),#143,.T.);
#57=ADVANCED_FACE('',(#148),#150,.F.);
#58=ADVANCED_FACE('',(#155),#157,.T.);
#59=ADVANCED_FACE('',(#162),#164,.T.);
#60=ADVANCED_FACE('',(#169,#171),#173,.F.);
#61=ADVANCED_FACE('',(#178,#180),#182,.F.);
#62=ADVANCED_FACE('',(#187,#189,#191,#193,#195,#197),#199,.T.);
#63=ADVANCED_FACE('',(#204,#206,#208,#210,#212,#214),#216,.F.);
#64=ADVANCED_FACE('',(#221),#223,.T.);
#65=ADVANCED_FACE('',(#228),#230,.T.);
#66=ADVANCED_FACE('',(#235),#237,.T.);
#67=ADVANCED_FACE('',(#242),#244,.T.);
#68=ADVANCED_FACE('',(#249),#251,.T.);
#69=ADVANCED_FACE('',(#256),#258,.T.);
#70=ADVANCED_FACE('',(#263),#265,.T.);
#71=ADVANCED_FACE('',(#270),#272,.T.);
#72=ADVANCED_FACE('',(#277,#279),#281,.F.);
#73=ADVANCED_FACE('',(#286,#288),#290,.F.);
#74=ADVANCED_FACE('',(#295,#297),#299,.F.);
#75=ADVANCED_FACE('',(#304,#306),#308,.F.);
#76=ADVANCED_FACE('',(#313),#315,.T.);
#77=ADVANCED_FACE('',(#320),#322,.T.);
#78=ADVANCED_FACE('',(#327),#329,.T.);
#79=ADVANCED_FACE('',(#334),#336,.T.);
#80=ADVANCED_FACE('',(#341),#343,.T.);
#81=ADVANCED_FACE('',(#348),#350,.T.);
#82=ADVANCED_FACE('',(#355),#357,.T.);
#83=ADVANCED_FACE('',(#362),#364,.T.);
#84=ADVANCED_FACE('',(#369,#371),#373,.F.);
#85=ADVANCED_FACE('',(#378,#380),#382,.F.);
#86=ADVANCED_FACE('',(#387,#389),#391,.F.);
#87=ADVANCED_FACE('',(#396,#398),#400,.F.);
#88=ADVANCED_FACE('',(#405),#407,.T.);
#89=ADVANCED_FACE('',(#412),#414,.T.);
#90=ADVANCED_FACE('',(#419),#421,.T.);
#91=ADVANCED_FACE('',(#426),#428,.T.);
#92=ADVANCED_FACE('',(#433),#435,.T.);
#93=ADVANCED_FACE('',(#440),#442,.T.);
#94=ADVANCED_FACE('',(#447),#449,.T.);
#95=ADVANCED_FACE('',(#454),#456,.T.);
#96=ADVANCED_FACE('',(#461,#463,#465,#467,#469,#471),#473,.F.);
#97=ADVANCED_FACE('',(#478),#480,.T.);
#98=ADVANCED_FACE('',(#485),#487,.T.);
#99=ADVANCED_FACE('',(#492),#494,.T.);
#100=ADVANCED_FACE('',(#499),#501,.T.);
#101=ADVANCED_FACE('',(#506),#508,.T.);
#102=ADVANCED_FACE('',(#513),#515,.T.);
#103=ADVANCED_FACE('',(#520),#522,.T.);
#104=ADVANCED_FACE('',(#527),#529,.T.);
#105=ADVANCED_FACE('',(#534,#536,#538),#540,.T.);
#106=ADVANCED_FACE('',(#545,#547,#549),#551,.T.);
#107=ADVANCED_FACE('',(#556,#558),#560,.F.);
#108=ADVANCED_FACE('',(#565),#567,.F.);
#109=ADVANCED_FACE('',(#572),#574,.F.);
#110=FACE_BOUND('',#111,.T.);
#111=EDGE_LOOP('',(#579,#580,#581,#582));
#112=FACE_BOUND('',#113,.T.);
#113=EDGE_LOOP('',(#583));
#114=PLANE('',#115);
#115=AXIS2_PLACEMENT_3D('',#116,#117,#118);
#116=CARTESIAN_POINT('',(16.5,2.,1.));
#117=DIRECTION('',(7.40148683083438E-17,1.,0.));
#118=DIRECTION('',(1.,-7.40148683083438E-17,0.));
#119=FACE_BOUND('',#120,.T.);
#120=EDGE_LOOP('',(#584,#585,#586,#587));
#121=FACE_BOUND('',#122,.T.);
#122=EDGE_LOOP('',(#588));
#123=PLANE('',#124);
#124=AXIS2_PLACEMENT_3D('',#125,#126,#127);
#125=CARTESIAN_POINT('',(22.5,-2.,1.));
#126=DIRECTION('',(-3.70074341541719E-17,-1.,0.));
#127=DIRECTION('',(-1.,3.70074341541719E-17,0.));
#128=FACE_OUTER_BOUND('',#129,.T.);
#129=EDGE_LOOP('',(#589));
#130=FACE_OUTER_BOUND('',#131,.T.);
#131=EDGE_LOOP('',(#590));
#132=CYLINDRICAL_SURFACE('',#133,1.225);
#133=AXIS2_PLACEMENT_3D('',#134,#135,#136);
#134=CARTESIAN_POINT('',(19.9426693253569,-8.,-1.5));
#135=DIRECTION('',(7.40148683083438E-17,1.,0.));
#136=DIRECTION('',(-1.,7.40148683083438E-17,-1.22464679914735E-16));
#137=FACE_OUTER_BOUND('',#138,.T.);
#138=EDGE_LOOP('',(#591));
#139=FACE_OUTER_BOUND('',#140,.T.);
#140=EDGE_LOOP('',(#592));
#141=FACE_BOUND('',#142,.T.);
#142=EDGE_LOOP('',(#593,#594,#595,#596));
#143=CYLINDRICAL_SURFACE('',#144,17.5);
#144=AXIS2_PLACEMENT_3D('',#145,#146,#147);
#145=CARTESIAN_POINT('',(0.,0.,-15.));
#146=DIRECTION('',(0.,0.,1.));
#147=DIRECTION('',(-1.,1.22464679914735E-16,0.));
#148=FACE_BOUND('',#149,.T.);
#149=EDGE_LOOP('',(#597,#598,#599,#600));
#150=PLANE('',#151);
#151=AXIS2_PLACEMENT_3D('',#152,#153,#154);
#152=CARTESIAN_POINT('',(0.,0.,1.));
#153=DIRECTION('',(0.,0.,-1.));
#154=DIRECTION('',(-6.12323399573677E-17,-1.,0.));
#155=FACE_BOUND('',#156,.T.);
#156=EDGE_LOOP('',(#601,#602,#603,#604));
#157=PLANE('',#158);
#158=AXIS2_PLACEMENT_3D('',#159,#160,#161);
#159=CARTESIAN_POINT('',(22.5,2.,1.));
#160=DIRECTION('',(1.,0.,0.));
#161=DIRECTION('',(0.,-1.,0.));
#162=FACE_BOUND('',#163,.T.);
#163=EDGE_LOOP('',(#605,#606,#607,#608));
#164=PLANE('',#165);
#165=AXIS2_PLACEMENT_3D('',#166,#167,#168);
#166=CARTESIAN_POINT('',(0.,0.,-4.));
#167=DIRECTION('',(0.,0.,-1.));
#168=DIRECTION('',(-6.12323399573677E-17,-1.,0.));
#169=FACE_OUTER_BOUND('',#170,.T.);
#170=EDGE_LOOP('',(#609));
#171=FACE_OUTER_BOUND('',#172,.T.);
#172=EDGE_LOOP('',(#610));
#173=TOROIDAL_SURFACE('',#174,21.5,4.);
#174=AXIS2_PLACEMENT_3D('',#175,#176,#177);
#175=CARTESIAN_POINT('',(0.,0.,-6.));
#176=DIRECTION('',(0.,0.,1.));
#177=DIRECTION('',(-1.,1.22464679914735E-16,0.));
#178=FACE_OUTER_BOUND('',#179,.T.);
#179=EDGE_LOOP('',(#611));
#180=FACE_OUTER_BOUND('',#181,.T.);
#181=EDGE_LOOP('',(#612));
#182=TOROIDAL_SURFACE('',#183,21.5,4.);
#183=AXIS2_PLACEMENT_3D('',#184,#185,#186);
#184=CARTESIAN_POINT('',(0.,0.,9.));
#185=DIRECTION('',(0.,0.,1.));
#186=DIRECTION('',(-1.,1.22464679914735E-16,0.));
#187=FACE_BOUND('',#188,.T.);
#188=EDGE_LOOP('',(#613,#614,#615,#616,#617,#618,#619,#620));
#189=FACE_BOUND('',#190,.T.);
#190=EDGE_LOOP('',(#621));
#191=FACE_BOUND('',#192,.T.);
#192=EDGE_LOOP('',(#622));
#193=FACE_BOUND('',#194,.T.);
#194=EDGE_LOOP('',(#623));
#195=FACE_BOUND('',#196,.T.);
#196=EDGE_LOOP('',(#624));
#197=FACE_BOUND('',#198,.T.);
#198=EDGE_LOOP('',(#625));
#199=PLANE('',#200);
#200=AXIS2_PLACEMENT_3D('',#201,#202,#203);
#201=CARTESIAN_POINT('',(0.,0.,-10.));
#202=DIRECTION('',(0.,0.,1.));
#203=DIRECTION('',(-1.,1.22464679914735E-16,0.));
#204=FACE_BOUND('',#205,.T.);
#205=EDGE_LOOP('',(#626,#627,#628,#629,#630,#631,#632,#633));
#206=FACE_BOUND('',#207,.T.);
#207=EDGE_LOOP('',(#634));
#208=FACE_BOUND('',#209,.T.);
#209=EDGE_LOOP('',(#635));
#210=FACE_BOUND('',#211,.T.);
#211=EDGE_LOOP('',(#636));
#212=FACE_BOUND('',#213,.T.);
#213=EDGE_LOOP('',(#637));
#214=FACE_BOUND('',#215,.T.);
#215=EDGE_LOOP('',(#638));
#216=PLANE('',#217);
#217=AXIS2_PLACEMENT_3D('',#218,#219,#220);
#218=CARTESIAN_POINT('',(0.,0.,13.));
#219=DIRECTION('',(0.,0.,1.));
#220=DIRECTION('',(-1.,1.22464679914735E-16,0.));
#221=FACE_BOUND('',#222,.T.);
#222=EDGE_LOOP('',(#639,#640,#641,#642));
#223=CYLINDRICAL_SURFACE('',#224,2.);
#224=AXIS2_PLACEMENT_3D('',#225,#226,#227);
#225=CARTESIAN_POINT('',(29.,23.,-12.));
#226=DIRECTION('',(-1.,3.0626842058625E-16,0.));
#227=DIRECTION('',(0.,-5.44042003600698E-31,1.));
#228=FACE_BOUND('',#229,.T.);
#229=EDGE_LOOP('',(#643,#644,#645,#646));
#230=DEGENERATE_TOROIDAL_SURFACE('',#231,2.,2.,.T.);
#231=AXIS2_PLACEMENT_3D('',#232,#233,#234);
#232=CARTESIAN_POINT('',(-21.,21.,-12.));
#233=DIRECTION('',(0.,0.,1.));
#234=DIRECTION('',(1.,0.,0.));
#235=FACE_BOUND('',#236,.T.);
#236=EDGE_LOOP('',(#647,#648,#649,#650));
#237=CYLINDRICAL_SURFACE('',#238,2.);
#238=AXIS2_PLACEMENT_3D('',#239,#240,#241);
#239=CARTESIAN_POINT('',(-23.,29.,-12.));
#240=DIRECTION('',(-1.225073682345E-16,-1.,0.));
#241=DIRECTION('',(2.17616801440279E-31,0.,1.));
#242=FACE_BOUND('',#243,.T.);
#243=EDGE_LOOP('',(#651,#652,#653,#654));
#244=DEGENERATE_TOROIDAL_SURFACE('',#245,2.,2.,.T.);
#245=AXIS2_PLACEMENT_3D('',#246,#247,#248);
#246=CARTESIAN_POINT('',(-21.,-21.,-12.));
#247=DIRECTION('',(0.,0.,1.));
#248=DIRECTION('',(0.,1.,0.));
#249=FACE_BOUND('',#250,.T.);
#250=EDGE_LOOP('',(#655,#656,#657,#658));
#251=CYLINDRICAL_SURFACE('',#252,2.);
#252=AXIS2_PLACEMENT_3D('',#253,#254,#255);
#253=CARTESIAN_POINT('',(-29.,-23.,-12.));
#254=DIRECTION('',(1.,-1.225073682345E-16,0.));
#255=DIRECTION('',(0.,0.,1.));
#256=FACE_BOUND('',#257,.T.);
#257=EDGE_LOOP('',(#659,#660,#661,#662));
#258=DEGENERATE_TOROIDAL_SURFACE('',#259,2.,2.,.T.);
#259=AXIS2_PLACEMENT_3D('',#260,#261,#262);
#260=CARTESIAN_POINT('',(21.,-21.,-12.));
#261=DIRECTION('',(0.,0.,1.));
#262=DIRECTION('',(-1.,8.88178419700125E-16,0.));
#263=FACE_BOUND('',#264,.T.);
#264=EDGE_LOOP('',(#663,#664,#665,#666));
#265=CYLINDRICAL_SURFACE('',#266,2.);
#266=AXIS2_PLACEMENT_3D('',#267,#268,#269);
#267=CARTESIAN_POINT('',(23.,-29.,-12.));
#268=DIRECTION('',(1.225073682345E-16,1.,0.));
#269=DIRECTION('',(0.,0.,1.));
#270=FACE_BOUND('',#271,.T.);
#271=EDGE_LOOP('',(#667,#668,#669,#670));
#272=DEGENERATE_TOROIDAL_SURFACE('',#273,2.,2.,.T.);
#273=AXIS2_PLACEMENT_3D('',#274,#275,#276);
#274=CARTESIAN_POINT('',(21.,21.,-12.));
#275=DIRECTION('',(0.,0.,1.));
#276=DIRECTION('',(-1.77635683940025E-15,-1.,0.));
#277=FACE_OUTER_BOUND('',#278,.T.);
#278=EDGE_LOOP('',(#671));
#279=FACE_OUTER_BOUND('',#280,.T.);
#280=EDGE_LOOP('',(#672));
#281=CYLINDRICAL_SURFACE('',#282,2.1);
#282=AXIS2_PLACEMENT_3D('',#283,#284,#285);
#283=CARTESIAN_POINT('',(-20.,-20.,-15.));
#284=DIRECTION('',(0.,0.,1.));
#285=DIRECTION('',(-1.,1.22464679914735E-16,0.));
#286=FACE_OUTER_BOUND('',#287,.T.);
#287=EDGE_LOOP('',(#673));
#288=FACE_OUTER_BOUND('',#289,.T.);
#289=EDGE_LOOP('',(#674));
#290=CYLINDRICAL_SURFACE('',#291,2.1);
#291=AXIS2_PLACEMENT_3D('',#292,#293,#294);
#292=CARTESIAN_POINT('',(-20.,20.,-15.));
#293=DIRECTION('',(0.,0.,1.));
#294=DIRECTION('',(-1.,1.22464679914735E-16,0.));
#295=FACE_OUTER_BOUND('',#296,.T.);
#296=EDGE_LOOP('',(#675));
#297=FACE_OUTER_BOUND('',#298,.T.);
#298=EDGE_LOOP('',(#676));
#299=CYLINDRICAL_SURFACE('',#300,2.1);
#300=AXIS2_PLACEMENT_3D('',#301,#302,#303);
#301=CARTESIAN_POINT('',(20.,-20.,-15.));
#302=DIRECTION('',(0.,0.,1.));
#303=DIRECTION('',(-1.,1.22464679914735E-16,0.));
#304=FACE_OUTER_BOUND('',#305,.T.);
#305=EDGE_LOOP('',(#677));
#306=FACE_OUTER_BOUND('',#307,.T.);
#307=EDGE_LOOP('',(#678));
#308=CYLINDRICAL_SURFACE('',#309,2.1);
#309=AXIS2_PLACEMENT_3D('',#310,#311,#312);
#310=CARTESIAN_POINT('',(20.,20.,-15.));
#311=DIRECTION('',(0.,0.,1.));
#312=DIRECTION('',(-1.,1.22464679914735E-16,0.));
#313=FACE_BOUND('',#314,.T.);
#314=EDGE_LOOP('',(#679,#680,#681,#682));
#315=CYLINDRICAL_SURFACE('',#316,2.);
#316=AXIS2_PLACEMENT_3D('',#317,#318,#319);
#317=CARTESIAN_POINT('',(-29.,-23.,15.));
#318=DIRECTION('',(-1.,1.225073682345E-16,0.));
#319=DIRECTION('',(0.,0.,-1.));
#320=FACE_BOUND('',#321,.T.);
#321=EDGE_LOOP('',(#683,#684,#685,#686));
#322=DEGENERATE_TOROIDAL_SURFACE('',#323,2.,2.,.T.);
#323=AXIS2_PLACEMENT_3D('',#324,#325,#326);
#324=CARTESIAN_POINT('',(-21.,-21.,15.));
#325=DIRECTION('',(0.,0.,-1.));
#326=DIRECTION('',(1.,0.,0.));
#327=FACE_BOUND('',#328,.T.);
#328=EDGE_LOOP('',(#687,#688,#689,#690));
#329=CYLINDRICAL_SURFACE('',#330,2.);
#330=AXIS2_PLACEMENT_3D('',#331,#332,#333);
#331=CARTESIAN_POINT('',(-23.,29.,15.));
#332=DIRECTION('',(1.225073682345E-16,1.,0.));
#333=DIRECTION('',(2.17616801440279E-31,0.,-1.));
#334=FACE_BOUND('',#335,.T.);
#335=EDGE_LOOP('',(#691,#692,#693,#694));
#336=DEGENERATE_TOROIDAL_SURFACE('',#337,2.,2.,.T.);
#337=AXIS2_PLACEMENT_3D('',#338,#339,#340);
#338=CARTESIAN_POINT('',(-21.,21.,15.));
#339=DIRECTION('',(0.,0.,-1.));
#340=DIRECTION('',(0.,-1.,0.));
#341=FACE_BOUND('',#342,.T.);
#342=EDGE_LOOP('',(#695,#696,#697,#698));
#343=CYLINDRICAL_SURFACE('',#344,2.);
#344=AXIS2_PLACEMENT_3D('',#345,#346,#347);
#345=CARTESIAN_POINT('',(29.,23.,15.));
#346=DIRECTION('',(1.,-3.0626842058625E-16,0.));
#347=DIRECTION('',(0.,5.44042003600698E-31,-1.));
#348=FACE_BOUND('',#349,.T.);
#349=EDGE_LOOP('',(#699,#700,#701,#702));
#350=DEGENERATE_TOROIDAL_SURFACE('',#351,2.,2.,.T.);
#351=AXIS2_PLACEMENT_3D('',#352,#353,#354);
#352=CARTESIAN_POINT('',(21.,21.,15.));
#353=DIRECTION('',(0.,0.,-1.));
#354=DIRECTION('',(-1.,0.,0.));
#355=FACE_BOUND('',#356,.T.);
#356=EDGE_LOOP('',(#703,#704,#705,#706));
#357=CYLINDRICAL_SURFACE('',#358,2.);
#358=AXIS2_PLACEMENT_3D('',#359,#360,#361);
#359=CARTESIAN_POINT('',(23.,-29.,15.));
#360=DIRECTION('',(-1.225073682345E-16,-1.,0.));
#361=DIRECTION('',(2.17616801440279E-31,0.,-1.));
#362=FACE_BOUND('',#363,.T.);
#363=EDGE_LOOP('',(#707,#708,#709,#710));
#364=DEGENERATE_TOROIDAL_SURFACE('',#365,2.,2.,.T.);
#365=AXIS2_PLACEMENT_3D('',#366,#367,#368);
#366=CARTESIAN_POINT('',(21.,-21.,15.));
#367=DIRECTION('',(0.,0.,-1.));
#368=DIRECTION('',(-8.88178419700125E-16,1.,0.));
#369=FACE_OUTER_BOUND('',#370,.T.);
#370=EDGE_LOOP('',(#711));
#371=FACE_OUTER_BOUND('',#372,.T.);
#372=EDGE_LOOP('',(#712));
#373=CYLINDRICAL_SURFACE('',#374,2.1);
#374=AXIS2_PLACEMENT_3D('',#375,#376,#377);
#375=CARTESIAN_POINT('',(-20.,-20.,13.));
#376=DIRECTION('',(0.,0.,1.));
#377=DIRECTION('',(-1.,1.22464679914735E-16,0.));
#378=FACE_OUTER_BOUND('',#379,.T.);
#379=EDGE_LOOP('',(#713));
#380=FACE_OUTER_BOUND('',#381,.T.);
#381=EDGE_LOOP('',(#714));
#382=CYLINDRICAL_SURFACE('',#383,2.1);
#383=AXIS2_PLACEMENT_3D('',#384,#385,#386);
#384=CARTESIAN_POINT('',(-20.,20.,13.));
#385=DIRECTION('',(0.,0.,1.));
#386=DIRECTION('',(-1.,1.22464679914735E-16,0.));
#387=FACE_OUTER_BOUND('',#388,.T.);
#388=EDGE_LOOP('',(#715));
#389=FACE_OUTER_BOUND('',#390,.T.);
#390=EDGE_LOOP('',(#716));
#391=CYLINDRICAL_SURFACE('',#392,2.1);
#392=AXIS2_PLACEMENT_3D('',#393,#394,#395);
#393=CARTESIAN_POINT('',(20.,20.,13.));
#394=DIRECTION('',(0.,0.,1.));
#395=DIRECTION('',(-1.,1.22464679914735E-16,0.));
#396=FACE_OUTER_BOUND('',#397,.T.);
#397=EDGE_LOOP('',(#717));
#398=FACE_OUTER_BOUND('',#399,.T.);
#399=EDGE_LOOP('',(#718));
#400=CYLINDRICAL_SURFACE('',#401,2.1);
#401=AXIS2_PLACEMENT_3D('',#402,#403,#404);
#402=CARTESIAN_POINT('',(20.,-20.,13.));
#403=DIRECTION('',(0.,0.,1.));
#404=DIRECTION('',(-1.,1.22464679914735E-16,0.));
#405=FACE_BOUND('',#406,.T.);
#406=EDGE_LOOP('',(#719,#720,#721,#722));
#407=PLANE('',#408);
#408=AXIS2_PLACEMENT_3D('',#409,#410,#411);
#409=CARTESIAN_POINT('',(25.,25.,-15.));
#410=DIRECTION('',(3.5527136788005E-16,1.,0.));
#411=DIRECTION('',(-1.,3.5527136788005E-16,0.));
#412=FACE_BOUND('',#413,.T.);
#413=EDGE_LOOP('',(#723,#724,#725,#726));
#414=CYLINDRICAL_SURFACE('',#415,4.);
#415=AXIS2_PLACEMENT_3D('',#416,#417,#418);
#416=CARTESIAN_POINT('',(-21.,21.,-31.));
#417=DIRECTION('',(0.,0.,-1.));
#418=DIRECTION('',(-1.,0.,0.));
#419=FACE_BOUND('',#420,.T.);
#420=EDGE_LOOP('',(#727,#728,#729,#730));
#421=PLANE('',#422);
#422=AXIS2_PLACEMENT_3D('',#423,#424,#425);
#423=CARTESIAN_POINT('',(-25.,25.,-15.));
#424=DIRECTION('',(-1.,1.4210854715202E-16,0.));
#425=DIRECTION('',(-1.4210854715202E-16,-1.,0.));
#426=FACE_BOUND('',#427,.T.);
#427=EDGE_LOOP('',(#731,#732,#733,#734));
#428=CYLINDRICAL_SURFACE('',#429,4.);
#429=AXIS2_PLACEMENT_3D('',#430,#431,#432);
#430=CARTESIAN_POINT('',(-21.,-21.,-31.));
#431=DIRECTION('',(0.,0.,-1.));
#432=DIRECTION('',(0.,-1.,0.));
#433=FACE_BOUND('',#434,.T.);
#434=EDGE_LOOP('',(#735,#736,#737,#738));
#435=PLANE('',#436);
#436=AXIS2_PLACEMENT_3D('',#437,#438,#439);
#437=CARTESIAN_POINT('',(-25.,-25.,-15.));
#438=DIRECTION('',(-1.4210854715202E-16,-1.,0.));
#439=DIRECTION('',(1.,-1.4210854715202E-16,0.));
#440=FACE_BOUND('',#441,.T.);
#441=EDGE_LOOP('',(#739,#740,#741,#742));
#442=CYLINDRICAL_SURFACE('',#443,4.);
#443=AXIS2_PLACEMENT_3D('',#444,#445,#446);
#444=CARTESIAN_POINT('',(21.,-21.,-31.));
#445=DIRECTION('',(0.,0.,-1.));
#446=DIRECTION('',(1.,0.,0.));
#447=FACE_BOUND('',#448,.T.);
#448=EDGE_LOOP('',(#743,#744,#745,#746));
#449=PLANE('',#450);
#450=AXIS2_PLACEMENT_3D('',#451,#452,#453);
#451=CARTESIAN_POINT('',(25.,-25.,-15.));
#452=DIRECTION('',(1.,-1.4210854715202E-16,0.));
#453=DIRECTION('',(1.4210854715202E-16,1.,0.));
#454=FACE_BOUND('',#455,.T.);
#455=EDGE_LOOP('',(#747,#748,#749,#750));
#456=CYLINDRICAL_SURFACE('',#457,4.);
#457=AXIS2_PLACEMENT_3D('',#458,#459,#460);
#458=CARTESIAN_POINT('',(21.,21.,-31.));
#459=DIRECTION('',(0.,0.,-1.));
#460=DIRECTION('',(0.,1.,0.));
#461=FACE_BOUND('',#462,.T.);
#462=EDGE_LOOP('',(#751,#752,#753,#754,#755,#756,#757,#758));
#463=FACE_BOUND('',#464,.T.);
#464=EDGE_LOOP('',(#759));
#465=FACE_BOUND('',#466,.T.);
#466=EDGE_LOOP('',(#760));
#467=FACE_BOUND('',#468,.T.);
#468=EDGE_LOOP('',(#761));
#469=FACE_BOUND('',#470,.T.);
#470=EDGE_LOOP('',(#762));
#471=FACE_BOUND('',#472,.T.);
#472=EDGE_LOOP('',(#763));
#473=PLANE('',#474);
#474=AXIS2_PLACEMENT_3D('',#475,#476,#477);
#475=CARTESIAN_POINT('',(0.,0.,-15.));
#476=DIRECTION('',(0.,0.,1.));
#477=DIRECTION('',(-1.,1.22464679914735E-16,0.));
#478=FACE_BOUND('',#479,.T.);
#479=EDGE_LOOP('',(#764,#765,#766,#767,#768,#769));
#480=PLANE('',#481);
#481=AXIS2_PLACEMENT_3D('',#482,#483,#484);
#482=CARTESIAN_POINT('',(-25.,-25.,13.));
#483=DIRECTION('',(-1.4210854715202E-16,-1.,0.));
#484=DIRECTION('',(1.,-1.4210854715202E-16,0.));
#485=FACE_BOUND('',#486,.T.);
#486=EDGE_LOOP('',(#770,#771,#772,#773));
#487=CYLINDRICAL_SURFACE('',#488,4.);
#488=AXIS2_PLACEMENT_3D('',#489,#490,#491);
#489=CARTESIAN_POINT('',(-21.,-21.,-3.));
#490=DIRECTION('',(0.,0.,-1.));
#491=DIRECTION('',(0.,-1.,0.));
#492=FACE_BOUND('',#493,.T.);
#493=EDGE_LOOP('',(#774,#775,#776,#777));
#494=PLANE('',#495);
#495=AXIS2_PLACEMENT_3D('',#496,#497,#498);
#496=CARTESIAN_POINT('',(-25.,25.,13.));
#497=DIRECTION('',(-1.,1.4210854715202E-16,0.));
#498=DIRECTION('',(-1.4210854715202E-16,-1.,0.));
#499=FACE_BOUND('',#500,.T.);
#500=EDGE_LOOP('',(#778,#779,#780,#781));
#501=CYLINDRICAL_SURFACE('',#502,4.);
#502=AXIS2_PLACEMENT_3D('',#503,#504,#505);
#503=CARTESIAN_POINT('',(-21.,21.,-3.));
#504=DIRECTION('',(0.,0.,-1.));
#505=DIRECTION('',(-1.,0.,0.));
#506=FACE_BOUND('',#507,.T.);
#507=EDGE_LOOP('',(#782,#783,#784,#785,#786,#787));
#508=PLANE('',#509);
#509=AXIS2_PLACEMENT_3D('',#510,#511,#512);
#510=CARTESIAN_POINT('',(25.,25.,13.));
#511=DIRECTION('',(3.5527136788005E-16,1.,0.));
#512=DIRECTION('',(-1.,3.5527136788005E-16,0.));
#513=FACE_BOUND('',#514,.T.);
#514=EDGE_LOOP('',(#788,#789,#790,#791));
#515=CYLINDRICAL_SURFACE('',#516,4.);
#516=AXIS2_PLACEMENT_3D('',#517,#518,#519);
#517=CARTESIAN_POINT('',(21.,21.,-3.));
#518=DIRECTION('',(0.,0.,-1.));
#519=DIRECTION('',(0.,1.,0.));
#520=FACE_BOUND('',#521,.T.);
#521=EDGE_LOOP('',(#792,#793,#794,#795));
#522=PLANE('',#523);
#523=AXIS2_PLACEMENT_3D('',#524,#525,#526);
#524=CARTESIAN_POINT('',(25.,-25.,13.));
#525=DIRECTION('',(1.,-1.4210854715202E-16,0.));
#526=DIRECTION('',(1.4210854715202E-16,1.,0.));
#527=FACE_BOUND('',#528,.T.);
#528=EDGE_LOOP('',(#796,#797,#798,#799));
#529=CYLINDRICAL_SURFACE('',#530,4.);
#530=AXIS2_PLACEMENT_3D('',#531,#532,#533);
#531=CARTESIAN_POINT('',(21.,-21.,-3.));
#532=DIRECTION('',(0.,0.,-1.));
#533=DIRECTION('',(1.,0.,0.));
#534=FACE_BOUND('',#535,.T.);
#535=EDGE_LOOP('',(#800,#801,#802,#803,#804,#805,#806,#807,#808));
#536=FACE_BOUND('',#537,.T.);
#537=EDGE_LOOP('',(#809));
#538=FACE_BOUND('',#539,.T.);
#539=EDGE_LOOP('',(#810));
#540=PLANE('',#541);
#541=AXIS2_PLACEMENT_3D('',#542,#543,#544);
#542=CARTESIAN_POINT('',(0.,0.,20.));
#543=DIRECTION('',(0.,0.,1.));
#544=DIRECTION('',(-1.,1.22464679914735E-16,0.));
#545=FACE_BOUND('',#546,.T.);
#546=EDGE_LOOP('',(#811,#812,#813,#814,#815,#816,#817,#818));
#547=FACE_BOUND('',#548,.T.);
#548=EDGE_LOOP('',(#819));
#549=FACE_BOUND('',#550,.T.);
#550=EDGE_LOOP('',(#820));
#551=PLANE('',#552);
#552=AXIS2_PLACEMENT_3D('',#553,#554,#555);
#553=CARTESIAN_POINT('',(0.,0.,20.));
#554=DIRECTION('',(0.,0.,1.));
#555=DIRECTION('',(-1.,1.22464679914735E-16,0.));
#556=FACE_BOUND('',#557,.T.);
#557=EDGE_LOOP('',(#821,#822,#823,#824,#825));
#558=FACE_OUTER_BOUND('',#559,.T.);
#559=EDGE_LOOP('',(#826));
#560=CYLINDRICAL_SURFACE('',#561,14.5);
#561=AXIS2_PLACEMENT_3D('',#562,#563,#564);
#562=CARTESIAN_POINT('',(0.,0.,-15.));
#563=DIRECTION('',(0.,0.,1.));
#564=DIRECTION('',(-1.,1.22464679914735E-16,0.));
#565=FACE_BOUND('',#566,.T.);
#566=EDGE_LOOP('',(#827,#828,#829,#830));
#567=CYLINDRICAL_SURFACE('',#568,3.5);
#568=AXIS2_PLACEMENT_3D('',#569,#570,#571);
#569=CARTESIAN_POINT('',(-1.83697019872103E-15,25.,20.));
#570=DIRECTION('',(1.22464679914735E-16,-1.,-6.12323399573677E-17));
#571=DIRECTION('',(-6.12323399573677E-17,-6.12323399573677E-17,1.));
#572=FACE_BOUND('',#573,.T.);
#573=EDGE_LOOP('',(#831,#832,#833,#834));
#574=CYLINDRICAL_SURFACE('',#575,3.5);
#575=AXIS2_PLACEMENT_3D('',#576,#577,#578);
#576=CARTESIAN_POINT('',(-1.83697019872103E-15,25.,20.));
#577=DIRECTION('',(1.22464679914735E-16,-1.,-6.12323399573677E-17));
#578=DIRECTION('',(-6.12323399573677E-17,-6.12323399573677E-17,1.));
#579=ORIENTED_EDGE('',*,*,#835,.T.);
#580=ORIENTED_EDGE('',*,*,#836,.T.);
#581=ORIENTED_EDGE('',*,*,#837,.T.);
#582=ORIENTED_EDGE('',*,*,#838,.F.);
#583=ORIENTED_EDGE('',*,*,#839,.T.);
#584=ORIENTED_EDGE('',*,*,#840,.T.);
#585=ORIENTED_EDGE('',*,*,#841,.F.);
#586=ORIENTED_EDGE('',*,*,#842,.F.);
#587=ORIENTED_EDGE('',*,*,#843,.T.);
#588=ORIENTED_EDGE('',*,*,#844,.T.);
#589=ORIENTED_EDGE('',*,*,#839,.F.);
#590=ORIENTED_EDGE('',*,*,#844,.F.);
#591=ORIENTED_EDGE('',*,*,#845,.F.);
#592=ORIENTED_EDGE('',*,*,#846,.F.);
#593=ORIENTED_EDGE('',*,*,#840,.F.);
#594=ORIENTED_EDGE('',*,*,#847,.F.);
#595=ORIENTED_EDGE('',*,*,#835,.F.);
#596=ORIENTED_EDGE('',*,*,#848,.F.);
#597=ORIENTED_EDGE('',*,*,#847,.T.);
#598=ORIENTED_EDGE('',*,*,#843,.F.);
#599=ORIENTED_EDGE('',*,*,#849,.F.);
#600=ORIENTED_EDGE('',*,*,#836,.F.);
#601=ORIENTED_EDGE('',*,*,#849,.T.);
#602=ORIENTED_EDGE('',*,*,#842,.T.);
#603=ORIENTED_EDGE('',*,*,#850,.F.);
#604=ORIENTED_EDGE('',*,*,#837,.F.);
#605=ORIENTED_EDGE('',*,*,#848,.T.);
#606=ORIENTED_EDGE('',*,*,#838,.T.);
#607=ORIENTED_EDGE('',*,*,#850,.T.);
#608=ORIENTED_EDGE('',*,*,#841,.T.);
#609=ORIENTED_EDGE('',*,*,#846,.T.);
#610=ORIENTED_EDGE('',*,*,#851,.F.);
#611=ORIENTED_EDGE('',*,*,#845,.T.);
#612=ORIENTED_EDGE('',*,*,#852,.F.);
#613=ORIENTED_EDGE('',*,*,#853,.T.);
#614=ORIENTED_EDGE('',*,*,#854,.F.);
#615=ORIENTED_EDGE('',*,*,#855,.T.);
#616=ORIENTED_EDGE('',*,*,#856,.F.);
#617=ORIENTED_EDGE('',*,*,#857,.T.);
#618=ORIENTED_EDGE('',*,*,#858,.F.);
#619=ORIENTED_EDGE('',*,*,#859,.T.);
#620=ORIENTED_EDGE('',*,*,#860,.F.);
#621=ORIENTED_EDGE('',*,*,#851,.T.);
#622=ORIENTED_EDGE('',*,*,#861,.T.);
#623=ORIENTED_EDGE('',*,*,#862,.T.);
#624=ORIENTED_EDGE('',*,*,#863,.T.);
#625=ORIENTED_EDGE('',*,*,#864,.T.);
#626=ORIENTED_EDGE('',*,*,#865,.F.);
#627=ORIENTED_EDGE('',*,*,#866,.F.);
#628=ORIENTED_EDGE('',*,*,#867,.F.);
#629=ORIENTED_EDGE('',*,*,#868,.F.);
#630=ORIENTED_EDGE('',*,*,#869,.F.);
#631=ORIENTED_EDGE('',*,*,#870,.F.);
#632=ORIENTED_EDGE('',*,*,#871,.F.);
#633=ORIENTED_EDGE('',*,*,#872,.F.);
#634=ORIENTED_EDGE('',*,*,#873,.T.);
#635=ORIENTED_EDGE('',*,*,#874,.T.);
#636=ORIENTED_EDGE('',*,*,#875,.T.);
#637=ORIENTED_EDGE('',*,*,#876,.T.);
#638=ORIENTED_EDGE('',*,*,#852,.T.);
#639=ORIENTED_EDGE('',*,*,#877,.T.);
#640=ORIENTED_EDGE('',*,*,#878,.T.);
#641=ORIENTED_EDGE('',*,*,#853,.F.);
#642=ORIENTED_EDGE('',*,*,#879,.F.);
#643=ORIENTED_EDGE('',*,*,#854,.T.);
#644=ORIENTED_EDGE('',*,*,#878,.F.);
#645=ORIENTED_EDGE('',*,*,#880,.F.);
#646=ORIENTED_EDGE('',*,*,#881,.T.);
#647=ORIENTED_EDGE('',*,*,#882,.T.);
#648=ORIENTED_EDGE('',*,*,#883,.T.);
#649=ORIENTED_EDGE('',*,*,#855,.F.);
#650=ORIENTED_EDGE('',*,*,#881,.F.);
#651=ORIENTED_EDGE('',*,*,#856,.T.);
#652=ORIENTED_EDGE('',*,*,#883,.F.);
#653=ORIENTED_EDGE('',*,*,#884,.F.);
#654=ORIENTED_EDGE('',*,*,#885,.T.);
#655=ORIENTED_EDGE('',*,*,#886,.T.);
#656=ORIENTED_EDGE('',*,*,#887,.T.);
#657=ORIENTED_EDGE('',*,*,#857,.F.);
#658=ORIENTED_EDGE('',*,*,#885,.F.);
#659=ORIENTED_EDGE('',*,*,#858,.T.);
#660=ORIENTED_EDGE('',*,*,#887,.F.);
#661=ORIENTED_EDGE('',*,*,#888,.F.);
#662=ORIENTED_EDGE('',*,*,#889,.T.);
#663=ORIENTED_EDGE('',*,*,#890,.T.);
#664=ORIENTED_EDGE('',*,*,#891,.T.);
#665=ORIENTED_EDGE('',*,*,#859,.F.);
#666=ORIENTED_EDGE('',*,*,#889,.F.);
#667=ORIENTED_EDGE('',*,*,#860,.T.);
#668=ORIENTED_EDGE('',*,*,#891,.F.);
#669=ORIENTED_EDGE('',*,*,#892,.F.);
#670=ORIENTED_EDGE('',*,*,#879,.T.);
#671=ORIENTED_EDGE('',*,*,#861,.F.);
#672=ORIENTED_EDGE('',*,*,#893,.F.);
#673=ORIENTED_EDGE('',*,*,#862,.F.);
#674=ORIENTED_EDGE('',*,*,#894,.F.);
#675=ORIENTED_EDGE('',*,*,#863,.F.);
#676=ORIENTED_EDGE('',*,*,#895,.F.);
#677=ORIENTED_EDGE('',*,*,#864,.F.);
#678=ORIENTED_EDGE('',*,*,#896,.F.);
#679=ORIENTED_EDGE('',*,*,#897,.F.);
#680=ORIENTED_EDGE('',*,*,#898,.F.);
#681=ORIENTED_EDGE('',*,*,#865,.T.);
#682=ORIENTED_EDGE('',*,*,#899,.T.);
#683=ORIENTED_EDGE('',*,*,#866,.T.);
#684=ORIENTED_EDGE('',*,*,#898,.T.);
#685=ORIENTED_EDGE('',*,*,#900,.F.);
#686=ORIENTED_EDGE('',*,*,#901,.F.);
#687=ORIENTED_EDGE('',*,*,#902,.F.);
#688=ORIENTED_EDGE('',*,*,#903,.F.);
#689=ORIENTED_EDGE('',*,*,#867,.T.);
#690=ORIENTED_EDGE('',*,*,#901,.T.);
#691=ORIENTED_EDGE('',*,*,#868,.T.);
#692=ORIENTED_EDGE('',*,*,#903,.T.);
#693=ORIENTED_EDGE('',*,*,#904,.F.);
#694=ORIENTED_EDGE('',*,*,#905,.F.);
#695=ORIENTED_EDGE('',*,*,#906,.F.);
#696=ORIENTED_EDGE('',*,*,#907,.F.);
#697=ORIENTED_EDGE('',*,*,#869,.T.);
#698=ORIENTED_EDGE('',*,*,#905,.T.);
#699=ORIENTED_EDGE('',*,*,#870,.T.);
#700=ORIENTED_EDGE('',*,*,#907,.T.);
#701=ORIENTED_EDGE('',*,*,#908,.F.);
#702=ORIENTED_EDGE('',*,*,#909,.F.);
#703=ORIENTED_EDGE('',*,*,#910,.F.);
#704=ORIENTED_EDGE('',*,*,#911,.F.);
#705=ORIENTED_EDGE('',*,*,#871,.T.);
#706=ORIENTED_EDGE('',*,*,#909,.T.);
#707=ORIENTED_EDGE('',*,*,#872,.T.);
#708=ORIENTED_EDGE('',*,*,#911,.T.);
#709=ORIENTED_EDGE('',*,*,#912,.F.);
#710=ORIENTED_EDGE('',*,*,#899,.F.);
#711=ORIENTED_EDGE('',*,*,#913,.F.);
#712=ORIENTED_EDGE('',*,*,#873,.F.);
#713=ORIENTED_EDGE('',*,*,#914,.F.);
#714=ORIENTED_EDGE('',*,*,#874,.F.);
#715=ORIENTED_EDGE('',*,*,#915,.F.);
#716=ORIENTED_EDGE('',*,*,#875,.F.);
#717=ORIENTED_EDGE('',*,*,#916,.F.);
#718=ORIENTED_EDGE('',*,*,#876,.F.);
#719=ORIENTED_EDGE('',*,*,#877,.F.);
#720=ORIENTED_EDGE('',*,*,#917,.F.);
#721=ORIENTED_EDGE('',*,*,#918,.T.);
#722=ORIENTED_EDGE('',*,*,#919,.T.);
#723=ORIENTED_EDGE('',*,*,#880,.T.);
#724=ORIENTED_EDGE('',*,*,#919,.F.);
#725=ORIENTED_EDGE('',*,*,#920,.T.);
#726=ORIENTED_EDGE('',*,*,#921,.T.);
#727=ORIENTED_EDGE('',*,*,#882,.F.);
#728=ORIENTED_EDGE('',*,*,#921,.F.);
#729=ORIENTED_EDGE('',*,*,#922,.T.);
#730=ORIENTED_EDGE('',*,*,#923,.T.);
#731=ORIENTED_EDGE('',*,*,#884,.T.);
#732=ORIENTED_EDGE('',*,*,#923,.F.);
#733=ORIENTED_EDGE('',*,*,#924,.T.);
#734=ORIENTED_EDGE('',*,*,#925,.T.);
#735=ORIENTED_EDGE('',*,*,#886,.F.);
#736=ORIENTED_EDGE('',*,*,#925,.F.);
#737=ORIENTED_EDGE('',*,*,#926,.T.);
#738=ORIENTED_EDGE('',*,*,#927,.T.);
#739=ORIENTED_EDGE('',*,*,#888,.T.);
#740=ORIENTED_EDGE('',*,*,#927,.F.);
#741=ORIENTED_EDGE('',*,*,#928,.T.);
#742=ORIENTED_EDGE('',*,*,#929,.T.);
#743=ORIENTED_EDGE('',*,*,#890,.F.);
#744=ORIENTED_EDGE('',*,*,#929,.F.);
#745=ORIENTED_EDGE('',*,*,#930,.T.);
#746=ORIENTED_EDGE('',*,*,#931,.T.);
#747=ORIENTED_EDGE('',*,*,#892,.T.);
#748=ORIENTED_EDGE('',*,*,#931,.F.);
#749=ORIENTED_EDGE('',*,*,#932,.T.);
#750=ORIENTED_EDGE('',*,*,#917,.T.);
#751=ORIENTED_EDGE('',*,*,#928,.F.);
#752=ORIENTED_EDGE('',*,*,#926,.F.);
#753=ORIENTED_EDGE('',*,*,#924,.F.);
#754=ORIENTED_EDGE('',*,*,#922,.F.);
#755=ORIENTED_EDGE('',*,*,#920,.F.);
#756=ORIENTED_EDGE('',*,*,#918,.F.);
#757=ORIENTED_EDGE('',*,*,#932,.F.);
#758=ORIENTED_EDGE('',*,*,#930,.F.);
#759=ORIENTED_EDGE('',*,*,#896,.T.);
#760=ORIENTED_EDGE('',*,*,#895,.T.);
#761=ORIENTED_EDGE('',*,*,#894,.T.);
#762=ORIENTED_EDGE('',*,*,#893,.T.);
#763=ORIENTED_EDGE('',*,*,#933,.T.);
#764=ORIENTED_EDGE('',*,*,#934,.T.);
#765=ORIENTED_EDGE('',*,*,#935,.F.);
#766=ORIENTED_EDGE('',*,*,#936,.F.);
#767=ORIENTED_EDGE('',*,*,#897,.T.);
#768=ORIENTED_EDGE('',*,*,#937,.T.);
#769=ORIENTED_EDGE('',*,*,#938,.F.);
#770=ORIENTED_EDGE('',*,*,#900,.T.);
#771=ORIENTED_EDGE('',*,*,#936,.T.);
#772=ORIENTED_EDGE('',*,*,#939,.T.);
#773=ORIENTED_EDGE('',*,*,#940,.F.);
#774=ORIENTED_EDGE('',*,*,#902,.T.);
#775=ORIENTED_EDGE('',*,*,#940,.T.);
#776=ORIENTED_EDGE('',*,*,#941,.F.);
#777=ORIENTED_EDGE('',*,*,#942,.F.);
#778=ORIENTED_EDGE('',*,*,#904,.T.);
#779=ORIENTED_EDGE('',*,*,#942,.T.);
#780=ORIENTED_EDGE('',*,*,#943,.T.);
#781=ORIENTED_EDGE('',*,*,#944,.F.);
#782=ORIENTED_EDGE('',*,*,#945,.T.);
#783=ORIENTED_EDGE('',*,*,#946,.F.);
#784=ORIENTED_EDGE('',*,*,#947,.F.);
#785=ORIENTED_EDGE('',*,*,#906,.T.);
#786=ORIENTED_EDGE('',*,*,#944,.T.);
#787=ORIENTED_EDGE('',*,*,#948,.F.);
#788=ORIENTED_EDGE('',*,*,#908,.T.);
#789=ORIENTED_EDGE('',*,*,#947,.T.);
#790=ORIENTED_EDGE('',*,*,#949,.T.);
#791=ORIENTED_EDGE('',*,*,#950,.F.);
#792=ORIENTED_EDGE('',*,*,#910,.T.);
#793=ORIENTED_EDGE('',*,*,#950,.T.);
#794=ORIENTED_EDGE('',*,*,#951,.F.);
#795=ORIENTED_EDGE('',*,*,#952,.F.);
#796=ORIENTED_EDGE('',*,*,#912,.T.);
#797=ORIENTED_EDGE('',*,*,#952,.T.);
#798=ORIENTED_EDGE('',*,*,#953,.T.);
#799=ORIENTED_EDGE('',*,*,#937,.F.);
#800=ORIENTED_EDGE('',*,*,#954,.T.);
#801=ORIENTED_EDGE('',*,*,#948,.T.);
#802=ORIENTED_EDGE('',*,*,#943,.F.);
#803=ORIENTED_EDGE('',*,*,#941,.T.);
#804=ORIENTED_EDGE('',*,*,#939,.F.);
#805=ORIENTED_EDGE('',*,*,#935,.T.);
#806=ORIENTED_EDGE('',*,*,#955,.T.);
#807=ORIENTED_EDGE('',*,*,#956,.T.);
#808=ORIENTED_EDGE('',*,*,#957,.T.);
#809=ORIENTED_EDGE('',*,*,#913,.T.);
#810=ORIENTED_EDGE('',*,*,#914,.T.);
#811=ORIENTED_EDGE('',*,*,#958,.T.);
#812=ORIENTED_EDGE('',*,*,#959,.T.);
#813=ORIENTED_EDGE('',*,*,#960,.T.);
#814=ORIENTED_EDGE('',*,*,#938,.T.);
#815=ORIENTED_EDGE('',*,*,#953,.F.);
#816=ORIENTED_EDGE('',*,*,#951,.T.);
#817=ORIENTED_EDGE('',*,*,#949,.F.);
#818=ORIENTED_EDGE('',*,*,#946,.T.);
#819=ORIENTED_EDGE('',*,*,#915,.T.);
#820=ORIENTED_EDGE('',*,*,#916,.T.);
#821=ORIENTED_EDGE('',*,*,#961,.T.);
#822=ORIENTED_EDGE('',*,*,#957,.F.);
#823=ORIENTED_EDGE('',*,*,#956,.F.);
#824=ORIENTED_EDGE('',*,*,#962,.T.);
#825=ORIENTED_EDGE('',*,*,#959,.F.);
#826=ORIENTED_EDGE('',*,*,#933,.F.);
#827=ORIENTED_EDGE('',*,*,#934,.F.);
#828=ORIENTED_EDGE('',*,*,#960,.F.);
#829=ORIENTED_EDGE('',*,*,#962,.F.);
#830=ORIENTED_EDGE('',*,*,#955,.F.);
#831=ORIENTED_EDGE('',*,*,#945,.F.);
#832=ORIENTED_EDGE('',*,*,#954,.F.);
#833=ORIENTED_EDGE('',*,*,#961,.F.);
#834=ORIENTED_EDGE('',*,*,#958,.F.);
#835=EDGE_CURVE('',#963,#964,#965,.T.);
#836=EDGE_CURVE('',#964,#966,#967,.T.);
#837=EDGE_CURVE('',#966,#968,#969,.T.);
#838=EDGE_CURVE('',#963,#968,#970,.T.);
#839=EDGE_CURVE('',#971,#971,#972,.F.);
#840=EDGE_CURVE('',#973,#974,#975,.F.);
#841=EDGE_CURVE('',#976,#974,#977,.T.);
#842=EDGE_CURVE('',#978,#976,#979,.T.);
#843=EDGE_CURVE('',#978,#973,#980,.T.);
#844=EDGE_CURVE('',#981,#981,#982,.T.);
#845=EDGE_CURVE('',#983,#983,#984,.T.);
#846=EDGE_CURVE('',#985,#985,#986,.F.);
#847=EDGE_CURVE('',#964,#973,#987,.F.);
#848=EDGE_CURVE('',#974,#963,#988,.T.);
#849=EDGE_CURVE('',#966,#978,#989,.T.);
#850=EDGE_CURVE('',#968,#976,#990,.T.);
#851=EDGE_CURVE('',#991,#991,#992,.F.);
#852=EDGE_CURVE('',#993,#993,#994,.T.);
#853=EDGE_CURVE('',#995,#996,#997,.T.);
#854=EDGE_CURVE('',#998,#996,#999,.F.);
#855=EDGE_CURVE('',#998,#1000,#1001,.T.);
#856=EDGE_CURVE('',#1002,#1000,#1003,.F.);
#857=EDGE_CURVE('',#1002,#1004,#1005,.T.);
#858=EDGE_CURVE('',#1006,#1004,#1007,.F.);
#859=EDGE_CURVE('',#1006,#1008,#1009,.T.);
#860=EDGE_CURVE('',#995,#1008,#1010,.F.);
#861=EDGE_CURVE('',#1011,#1011,#1012,.F.);
#862=EDGE_CURVE('',#1013,#1013,#1014,.F.);
#863=EDGE_CURVE('',#1015,#1015,#1016,.F.);
#864=EDGE_CURVE('',#1017,#1017,#1018,.F.);
#865=EDGE_CURVE('',#1019,#1020,#1021,.T.);
#866=EDGE_CURVE('',#1022,#1019,#1023,.F.);
#867=EDGE_CURVE('',#1024,#1022,#1025,.T.);
#868=EDGE_CURVE('',#1026,#1024,#1027,.F.);
#869=EDGE_CURVE('',#1028,#1026,#1029,.T.);
#870=EDGE_CURVE('',#1030,#1028,#1031,.F.);
#871=EDGE_CURVE('',#1032,#1030,#1033,.T.);
#872=EDGE_CURVE('',#1020,#1032,#1034,.F.);
#873=EDGE_CURVE('',#1035,#1035,#1036,.T.);
#874=EDGE_CURVE('',#1037,#1037,#1038,.T.);
#875=EDGE_CURVE('',#1039,#1039,#1040,.T.);
#876=EDGE_CURVE('',#1041,#1041,#1042,.T.);
#877=EDGE_CURVE('',#1043,#1044,#1045,.T.);
#878=EDGE_CURVE('',#1044,#996,#1046,.T.);
#879=EDGE_CURVE('',#1043,#995,#1047,.F.);
#880=EDGE_CURVE('',#1048,#1044,#1049,.F.);
#881=EDGE_CURVE('',#1048,#998,#1050,.F.);
#882=EDGE_CURVE('',#1048,#1051,#1052,.T.);
#883=EDGE_CURVE('',#1051,#1000,#1053,.T.);
#884=EDGE_CURVE('',#1054,#1051,#1055,.F.);
#885=EDGE_CURVE('',#1054,#1002,#1056,.F.);
#886=EDGE_CURVE('',#1054,#1057,#1058,.T.);
#887=EDGE_CURVE('',#1057,#1004,#1059,.T.);
#888=EDGE_CURVE('',#1060,#1057,#1061,.F.);
#889=EDGE_CURVE('',#1060,#1006,#1062,.F.);
#890=EDGE_CURVE('',#1060,#1063,#1064,.T.);
#891=EDGE_CURVE('',#1063,#1008,#1065,.T.);
#892=EDGE_CURVE('',#1043,#1063,#1066,.F.);
#893=EDGE_CURVE('',#1067,#1067,#1068,.T.);
#894=EDGE_CURVE('',#1069,#1069,#1070,.T.);
#895=EDGE_CURVE('',#1071,#1071,#1072,.T.);
#896=EDGE_CURVE('',#1073,#1073,#1074,.T.);
#897=EDGE_CURVE('',#1075,#1076,#1077,.T.);
#898=EDGE_CURVE('',#1019,#1075,#1078,.T.);
#899=EDGE_CURVE('',#1020,#1076,#1079,.F.);
#900=EDGE_CURVE('',#1080,#1075,#1081,.F.);
#901=EDGE_CURVE('',#1022,#1080,#1082,.F.);
#902=EDGE_CURVE('',#1083,#1080,#1084,.T.);
#903=EDGE_CURVE('',#1024,#1083,#1085,.T.);
#904=EDGE_CURVE('',#1086,#1083,#1087,.F.);
#905=EDGE_CURVE('',#1026,#1086,#1088,.F.);
#906=EDGE_CURVE('',#1089,#1086,#1090,.T.);
#907=EDGE_CURVE('',#1028,#1089,#1091,.T.);
#908=EDGE_CURVE('',#1092,#1089,#1093,.F.);
#909=EDGE_CURVE('',#1030,#1092,#1094,.F.);
#910=EDGE_CURVE('',#1095,#1092,#1096,.T.);
#911=EDGE_CURVE('',#1032,#1095,#1097,.T.);
#912=EDGE_CURVE('',#1076,#1095,#1098,.F.);
#913=EDGE_CURVE('',#1099,#1099,#1100,.F.);
#914=EDGE_CURVE('',#1101,#1101,#1102,.F.);
#915=EDGE_CURVE('',#1103,#1103,#1104,.F.);
#916=EDGE_CURVE('',#1105,#1105,#1106,.F.);
#917=EDGE_CURVE('',#1107,#1043,#1108,.T.);
#918=EDGE_CURVE('',#1107,#1109,#1110,.T.);
#919=EDGE_CURVE('',#1109,#1044,#1111,.T.);
#920=EDGE_CURVE('',#1109,#1112,#1113,.F.);
#921=EDGE_CURVE('',#1112,#1048,#1114,.T.);
#922=EDGE_CURVE('',#1112,#1115,#1116,.T.);
#923=EDGE_CURVE('',#1115,#1051,#1117,.T.);
#924=EDGE_CURVE('',#1115,#1118,#1119,.F.);
#925=EDGE_CURVE('',#1118,#1054,#1120,.T.);
#926=EDGE_CURVE('',#1118,#1121,#1122,.T.);
#927=EDGE_CURVE('',#1121,#1057,#1123,.T.);
#928=EDGE_CURVE('',#1121,#1124,#1125,.F.);
#929=EDGE_CURVE('',#1124,#1060,#1126,.T.);
#930=EDGE_CURVE('',#1124,#1127,#1128,.T.);
#931=EDGE_CURVE('',#1127,#1063,#1129,.T.);
#932=EDGE_CURVE('',#1127,#1107,#1130,.F.);
#933=EDGE_CURVE('',#1131,#1131,#1132,.T.);
#934=EDGE_CURVE('',#1133,#1134,#1135,.F.);
#935=EDGE_CURVE('',#1136,#1134,#1137,.T.);
#936=EDGE_CURVE('',#1075,#1136,#1138,.T.);
#937=EDGE_CURVE('',#1076,#1139,#1140,.T.);
#938=EDGE_CURVE('',#1133,#1139,#1141,.T.);
#939=EDGE_CURVE('',#1136,#1142,#1143,.F.);
#940=EDGE_CURVE('',#1080,#1142,#1144,.T.);
#941=EDGE_CURVE('',#1145,#1142,#1146,.T.);
#942=EDGE_CURVE('',#1083,#1145,#1147,.T.);
#943=EDGE_CURVE('',#1145,#1148,#1149,.F.);
#944=EDGE_CURVE('',#1086,#1148,#1150,.T.);
#945=EDGE_CURVE('',#1151,#1152,#1153,.T.);
#946=EDGE_CURVE('',#1154,#1152,#1155,.T.);
#947=EDGE_CURVE('',#1089,#1154,#1156,.T.);
#948=EDGE_CURVE('',#1151,#1148,#1157,.T.);
#949=EDGE_CURVE('',#1154,#1158,#1159,.F.);
#950=EDGE_CURVE('',#1092,#1158,#1160,.T.);
#951=EDGE_CURVE('',#1161,#1158,#1162,.T.);
#952=EDGE_CURVE('',#1095,#1161,#1163,.T.);
#953=EDGE_CURVE('',#1161,#1139,#1164,.F.);
#954=EDGE_CURVE('',#1165,#1151,#1166,.F.);
#955=EDGE_CURVE('',#1134,#1167,#1168,.F.);
#956=EDGE_CURVE('',#1167,#1169,#1170,.F.);
#957=EDGE_CURVE('',#1169,#1165,#1171,.F.);
#958=EDGE_CURVE('',#1152,#1172,#1173,.T.);
#959=EDGE_CURVE('',#1172,#1174,#1175,.F.);
#960=EDGE_CURVE('',#1174,#1133,#1176,.T.);
#961=EDGE_CURVE('',#1172,#1165,#1177,.F.);
#962=EDGE_CURVE('',#1167,#1174,#1178,.T.);
#963=VERTEX_POINT('',#1179);
#964=VERTEX_POINT('',#1180);
#965=LINE('',#1181,#1182);
#966=VERTEX_POINT('',#1184);
#967=LINE('',#1185,#1186);
#968=VERTEX_POINT('',#1188);
#969=LINE('',#1189,#1190);
#970=LINE('',#1192,#1193);
#971=VERTEX_POINT('',#1195);
#972=CIRCLE('',#1196,1.225);
#973=VERTEX_POINT('',#1200);
#974=VERTEX_POINT('',#1201);
#975=LINE('',#1202,#1203);
#976=VERTEX_POINT('',#1205);
#977=LINE('',#1206,#1207);
#978=VERTEX_POINT('',#1209);
#979=LINE('',#1210,#1211);
#980=LINE('',#1213,#1214);
#981=VERTEX_POINT('',#1216);
#982=CIRCLE('',#1217,1.225);
#983=VERTEX_POINT('',#1221);
#984=CIRCLE('',#1222,17.5);
#985=VERTEX_POINT('',#1226);
#986=CIRCLE('',#1227,17.5);
#987=CIRCLE('',#1231,17.5);
#988=CIRCLE('',#1235,17.5);
#989=LINE('',#1239,#1240);
#990=LINE('',#1242,#1243);
#991=VERTEX_POINT('',#1245);
#992=CIRCLE('',#1246,21.5);
#993=VERTEX_POINT('',#1250);
#994=CIRCLE('',#1251,21.5);
#995=VERTEX_POINT('',#1255);
#996=VERTEX_POINT('',#1256);
#997=LINE('',#1257,#1258);
#998=VERTEX_POINT('',#1260);
#999=CIRCLE('',#1261,2.);
#1000=VERTEX_POINT('',#1265);
#1001=LINE('',#1266,#1267);
#1002=VERTEX_POINT('',#1269);
#1003=CIRCLE('',#1270,2.);
#1004=VERTEX_POINT('',#1274);
#1005=LINE('',#1275,#1276);
#1006=VERTEX_POINT('',#1278);
#1007=CIRCLE('',#1279,2.);
#1008=VERTEX_POINT('',#1283);
#1009=LINE('',#1284,#1285);
#1010=CIRCLE('',#1287,2.);
#1011=VERTEX_POINT('',#1291);
#1012=CIRCLE('',#1292,2.1);
#1013=VERTEX_POINT('',#1296);
#1014=CIRCLE('',#1297,2.1);
#1015=VERTEX_POINT('',#1301);
#1016=CIRCLE('',#1302,2.1);
#1017=VERTEX_POINT('',#1306);
#1018=CIRCLE('',#1307,2.1);
#1019=VERTEX_POINT('',#1311);
#1020=VERTEX_POINT('',#1312);
#1021=LINE('',#1313,#1314);
#1022=VERTEX_POINT('',#1316);
#1023=CIRCLE('',#1317,2.);
#1024=VERTEX_POINT('',#1321);
#1025=LINE('',#1322,#1323);
#1026=VERTEX_POINT('',#1325);
#1027=CIRCLE('',#1326,2.);
#1028=VERTEX_POINT('',#1330);
#1029=LINE('',#1331,#1332);
#1030=VERTEX_POINT('',#1334);
#1031=CIRCLE('',#1335,2.);
#1032=VERTEX_POINT('',#1339);
#1033=LINE('',#1340,#1341);
#1034=CIRCLE('',#1343,2.);
#1035=VERTEX_POINT('',#1347);
#1036=CIRCLE('',#1348,2.1);
#1037=VERTEX_POINT('',#1352);
#1038=CIRCLE('',#1353,2.1);
#1039=VERTEX_POINT('',#1357);
#1040=CIRCLE('',#1358,2.1);
#1041=VERTEX_POINT('',#1362);
#1042=CIRCLE('',#1363,2.1);
#1043=VERTEX_POINT('',#1367);
#1044=VERTEX_POINT('',#1368);
#1045=LINE('',#1369,#1370);
#1046=CIRCLE('',#1372,2.);
#1047=(BOUNDED_CURVE()B_SPLINE_CURVE(3,
(#1376,#1377,#1378,#1379),
.UNSPECIFIED.,.F.,.F.)B_SPLINE_CURVE_WITH_KNOTS((4,4),
(0.,1.),
.UNSPECIFIED.)CURVE()GEOMETRIC_REPRESENTATION_ITEM()RATIONAL_B_SPLINE_CURVE((1.,
0.804737854124365,0.804737854124365,1.))REPRESENTATION_ITEM(''));
#1048=VERTEX_POINT('',#1380);
#1049=CIRCLE('',#1381,4.);
#1050=CIRCLE('',#1385,2.);
#1051=VERTEX_POINT('',#1389);
#1052=LINE('',#1390,#1391);
#1053=CIRCLE('',#1393,2.);
#1054=VERTEX_POINT('',#1397);
#1055=CIRCLE('',#1398,4.);
#1056=CIRCLE('',#1402,2.);
#1057=VERTEX_POINT('',#1406);
#1058=LINE('',#1407,#1408);
#1059=CIRCLE('',#1410,2.);
#1060=VERTEX_POINT('',#1414);
#1061=CIRCLE('',#1415,4.);
#1062=CIRCLE('',#1419,2.);
#1063=VERTEX_POINT('',#1423);
#1064=LINE('',#1424,#1425);
#1065=CIRCLE('',#1427,2.);
#1066=CIRCLE('',#1431,4.);
#1067=VERTEX_POINT('',#1435);
#1068=CIRCLE('',#1436,2.1);
#1069=VERTEX_POINT('',#1440);
#1070=CIRCLE('',#1441,2.1);
#1071=VERTEX_POINT('',#1445);
#1072=CIRCLE('',#1446,2.1);
#1073=VERTEX_POINT('',#1450);
#1074=CIRCLE('',#1451,2.1);
#1075=VERTEX_POINT('',#1455);
#1076=VERTEX_POINT('',#1456);
#1077=LINE('',#1457,#1458);
#1078=(BOUNDED_CURVE()B_SPLINE_CURVE(3,
(#1460,#1461,#1462,#1463),
.UNSPECIFIED.,.F.,.F.)B_SPLINE_CURVE_WITH_KNOTS((4,4),
(0.,1.),
.UNSPECIFIED.)CURVE()GEOMETRIC_REPRESENTATION_ITEM()RATIONAL_B_SPLINE_CURVE((1.,
0.804737854124365,0.804737854124365,1.))REPRESENTATION_ITEM(''));
#1079=CIRCLE('',#1464,2.);
#1080=VERTEX_POINT('',#1468);
#1081=CIRCLE('',#1469,4.);
#1082=CIRCLE('',#1473,2.);
#1083=VERTEX_POINT('',#1477);
#1084=LINE('',#1478,#1479);
#1085=(BOUNDED_CURVE()B_SPLINE_CURVE(3,
(#1481,#1482,#1483,#1484),
.UNSPECIFIED.,.F.,.F.)B_SPLINE_CURVE_WITH_KNOTS((4,4),
(0.,1.),
.UNSPECIFIED.)CURVE()GEOMETRIC_REPRESENTATION_ITEM()RATIONAL_B_SPLINE_CURVE((1.,
0.804737854124365,0.804737854124365,1.))REPRESENTATION_ITEM(''));
#1086=VERTEX_POINT('',#1485);
#1087=CIRCLE('',#1486,4.);
#1088=CIRCLE('',#1490,2.);
#1089=VERTEX_POINT('',#1494);
#1090=LINE('',#1495,#1496);
#1091=CIRCLE('',#1498,2.);
#1092=VERTEX_POINT('',#1502);
#1093=CIRCLE('',#1503,4.);
#1094=CIRCLE('',#1507,2.);
#1095=VERTEX_POINT('',#1511);
#1096=LINE('',#1512,#1513);
#1097=(BOUNDED_CURVE()B_SPLINE_CURVE(3,
(#1515,#1516,#1517,#1518),
.UNSPECIFIED.,.F.,.F.)B_SPLINE_CURVE_WITH_KNOTS((4,4),
(0.,1.),
.UNSPECIFIED.)CURVE()GEOMETRIC_REPRESENTATION_ITEM()RATIONAL_B_SPLINE_CURVE((1.,
0.804737854124365,0.804737854124365,1.))REPRESENTATION_ITEM(''));
#1098=CIRCLE('',#1519,4.);
#1099=VERTEX_POINT('',#1523);
#1100=CIRCLE('',#1524,2.1);
#1101=VERTEX_POINT('',#1528);
#1102=CIRCLE('',#1529,2.1);
#1103=VERTEX_POINT('',#1533);
#1104=CIRCLE('',#1534,2.1);
#1105=VERTEX_POINT('',#1538);
#1106=CIRCLE('',#1539,2.1);
#1107=VERTEX_POINT('',#1543);
#1108=LINE('',#1544,#1545);
#1109=VERTEX_POINT('',#1547);
#1110=LINE('',#1548,#1549);
#1111=LINE('',#1551,#1552);
#1112=VERTEX_POINT('',#1554);
#1113=CIRCLE('',#1555,4.);
#1114=LINE('',#1559,#1560);
#1115=VERTEX_POINT('',#1562);
#1116=LINE('',#1563,#1564);
#1117=LINE('',#1566,#1567);
#1118=VERTEX_POINT('',#1569);
#1119=CIRCLE('',#1570,4.);
#1120=LINE('',#1574,#1575);
#1121=VERTEX_POINT('',#1577);
#1122=LINE('',#1578,#1579);
#1123=LINE('',#1581,#1582);
#1124=VERTEX_POINT('',#1584);
#1125=CIRCLE('',#1585,4.);
#1126=LINE('',#1589,#1590);
#1127=VERTEX_POINT('',#1592);
#1128=LINE('',#1593,#1594);
#1129=LINE('',#1596,#1597);
#1130=CIRCLE('',#1599,4.);
#1131=VERTEX_POINT('',#1603);
#1132=CIRCLE('',#1604,14.5);
#1133=VERTEX_POINT('',#1608);
#1134=VERTEX_POINT('',#1609);
#1135=CIRCLE('',#1610,3.5);
#1136=VERTEX_POINT('',#1614);
#1137=LINE('',#1615,#1616);
#1138=LINE('',#1618,#1619);
#1139=VERTEX_POINT('',#1621);
#1140=LINE('',#1622,#1623);
#1141=LINE('',#1625,#1626);
#1142=VERTEX_POINT('',#1628);
#1143=CIRCLE('',#1629,4.);
#1144=LINE('',#1633,#1634);
#1145=VERTEX_POINT('',#1636);
#1146=LINE('',#1637,#1638);
#1147=LINE('',#1640,#1641);
#1148=VERTEX_POINT('',#1643);
#1149=CIRCLE('',#1644,4.);
#1150=LINE('',#1648,#1649);
#1151=VERTEX_POINT('',#1651);
#1152=VERTEX_POINT('',#1652);
#1153=CIRCLE('',#1653,3.5);
#1154=VERTEX_POINT('',#1657);
#1155=LINE('',#1658,#1659);
#1156=LINE('',#1661,#1662);
#1157=LINE('',#1664,#1665);
#1158=VERTEX_POINT('',#1667);
#1159=CIRCLE('',#1668,4.);
#1160=LINE('',#1672,#1673);
#1161=VERTEX_POINT('',#1675);
#1162=LINE('',#1676,#1677);
#1163=LINE('',#1679,#1680);
#1164=CIRCLE('',#1682,4.);
#1165=VERTEX_POINT('',#1686);
#1166=LINE('',#1687,#1688);
#1167=VERTEX_POINT('',#1690);
#1168=LINE('',#1691,#1692);
#1169=VERTEX_POINT('',#1694);
#1170=CIRCLE('',#1695,14.5);
#1171=CIRCLE('',#1699,14.5);
#1172=VERTEX_POINT('',#1703);
#1173=LINE('',#1704,#1705);
#1174=VERTEX_POINT('',#1707);
#1175=CIRCLE('',#1708,14.5);
#1176=LINE('',#1712,#1713);
#1177=B_SPLINE_CURVE_WITH_KNOTS('',3,
(#1715,#1716,#1717,#1718,#1719,#1720,#1721,#1722,#1723,#1724,#1725,#1726,#1727,#1728,
#1729,#1730,#1731,#1732,#1733,#1734,#1735,#1736,#1737,#1738,#1739,#1740,#1741,#1742,
#1743,#1744,#1745,#1746,#1747,#1748,#1749,#1750,#1751,#1752,#1753,#1754,#1755,#1756,
#1757,#1758,#1759,#1760,#1761,#1762,#1763,#1764,#1765,#1766,#1767,#1768,#1769,#1770,
#1771,#1772,#1773,#1774,#1775,#1776,#1777,#1778,#1779,#1780,#1781,#1782,#1783,#1784,
#1785,#1786,#1787,#1788,#1789,#1790,#1791,#1792,#1793,#1794,#1795,#1796,#1797,#1798,
#1799,#1800,#1801,#1802,#1803,#1804,#1805,#1806,#1807,#1808,#1809,#1810,#1811,#1812,
#1813,#1814,#1815,#1816,#1817,#1818,#1819,#1820,#1821,#1822,#1823,#1824,#1825,#1826,
#1827,#1828,#1829),
.UNSPECIFIED.,.F.,.F.,
(4,1,1,1,1,1,1,1,1,1,1,1,1,1,1,1,1,1,1,1,1,1,1,1,1,1,1,1,1,1,1,1,1,1,1,1,1,1,1,1,
1,1,1,1,1,1,1,1,1,1,1,1,1,1,1,1,1,1,1,1,1,1,1,1,1,1,1,1,1,1,1,1,1,1,1,1,1,1,1,1,
1,1,1,1,1,1,1,1,1,1,1,1,1,1,1,1,1,1,1,1,1,1,1,1,1,1,1,1,1,1,1,1,4),
(0.,0.00647896549436266,0.0130106930110764,0.0195956698856185,0.026291958000341,
0.0330432012629817,0.0399719033333324,0.0470278740162425,0.0542733816006317,0.0615821575045493,
0.0691265981097017,0.0768401427228069,0.0848514564954033,0.0929944874886899,0.101441289588539,
0.110062157813283,0.118912336467647,0.127830308631733,0.137902073823401,0.149055770097703,
0.165258884283532,0.181375799944401,0.197374471686894,0.208168108883795,0.217840072948446,
0.226324828837712,0.234745382309319,0.243063221638268,0.251339349567342,0.259568570019815,
0.267794160409747,0.277316586912046,0.288152073004514,0.304606766765777,0.321310489312608,
0.338295845748615,0.350000410899868,0.360468269433484,0.369657338456244,0.378789474139775,
0.387631973600304,0.396240802244307,0.407108756128994,0.417595733948776,0.427690312707161,
0.434854543747208,0.441964379213694,0.448898610591054,0.455712853859057,0.462339433333238,
0.468896870206069,0.475176802881519,0.481253346699969,0.488789606555018,0.496031344965592,
0.499995182266665,0.502974722719758,0.507953543179933,0.512926982807493,0.517921197874091,
0.522939799689014,0.529701624720998,0.536519961742108,0.543391415937045,0.548611647392455,
0.553844524851274,0.559301595998368,0.564967212385485,0.571024845281386,0.577267664991115,
0.586530084155665,0.596300044063863,0.606596642215879,0.614784002348377,0.623176451816678,
0.631810121990497,0.64048658070588,0.649132287133272,0.657698920557436,0.666054410844257,
0.674275984268064,0.684706692438825,0.694892101758693,0.704822589650521,0.712160475507326,
0.719496519505112,0.726895680100847,0.73435816671544,0.74205595882553,0.74992339313741,
0.758085767624528,0.76637695559995,0.775999400876005,0.786823090312976,0.803016081792252,
0.819379382616298,0.835880208016791,0.847326984681992,0.857723581799376,0.867017267443079,
0.876264143872297,0.885361990231521,0.894344603745869,0.903122350657558,0.911809257606136,
0.921200718640495,0.931377211910094,0.945812571188944,0.960086107201794,0.974213950576867,
0.983749755307911,0.992341838259805,1.),
.UNSPECIFIED.);
#1178=B_SPLINE_CURVE_WITH_KNOTS('',3,
(#1830,#1831,#1832,#1833,#1834,#1835,#1836,#1837,#1838,#1839,#1840,#1841,#1842,#1843,
#1844,#1845,#1846,#1847,#1848,#1849,#1850,#1851,#1852,#1853,#1854,#1855,#1856,#1857,
#1858,#1859,#1860,#1861,#1862,#1863,#1864,#1865,#1866,#1867,#1868,#1869,#1870,#1871,
#1872,#1873,#1874,#1875,#1876,#1877,#1878,#1879,#1880,#1881,#1882,#1883,#1884,#1885,
#1886,#1887,#1888,#1889,#1890,#1891,#1892,#1893,#1894,#1895,#1896,#1897,#1898,#1899,
#1900,#1901,#1902,#1903,#1904,#1905,#1906,#1907,#1908,#1909,#1910,#1911,#1912,#1913,
#1914,#1915,#1916,#1917,#1918,#1919,#1920,#1921,#1922,#1923,#1924,#1925,#1926,#1927,
#1928,#1929,#1930,#1931,#1932,#1933,#1934,#1935,#1936,#1937,#1938,#1939,#1940,#1941,
#1942,#1943,#1944),
.UNSPECIFIED.,.F.,.F.,
(4,1,1,1,1,1,1,1,1,1,1,1,1,1,1,1,1,1,1,1,1,1,1,1,1,1,1,1,1,1,1,1,1,1,1,1,1,1,1,1,
1,1,1,1,1,1,1,1,1,1,1,1,1,1,1,1,1,1,1,1,1,1,1,1,1,1,1,1,1,1,1,1,1,1,1,1,1,1,1,1,
1,1,1,1,1,1,1,1,1,1,1,1,1,1,1,1,1,1,1,1,1,1,1,1,1,1,1,1,1,1,1,1,4),
(0.,0.00647896549451826,0.0130106930112952,0.0195956698858403,0.0262919580005085,
0.033043201263066,0.0399719033333025,0.0470278740160996,0.0542733816003857,0.0615821575042116,
0.0691265981093013,0.0768401427223732,0.0848514564949867,0.0929944874883311,0.101441289588286,
0.110062157813158,0.11891233646766,0.127830308631871,0.137902073823632,0.149055770097989,
0.165258884283772,0.181375799944521,0.197374471686849,0.20816810888364,0.217840072948214,
0.226324828837447,0.234745382309049,0.243063221638039,0.251339349567192,0.259568570019799,
0.267794160409899,0.277316586912365,0.288152073004959,0.304606766766122,0.321310489312518,
0.338295845747691,0.350000410898589,0.360468269432414,0.369657338456309,0.378789474141676,
0.387631973604118,0.396240802249467,0.407108756133656,0.417595733951495,0.427690312707545,
0.434854543746644,0.441964379212935,0.448898610590641,0.45571285385886,0.462339433333385,
0.468896870206946,0.475176802885144,0.481253346708212,0.488789606566955,0.496031344978054,
0.4999951822356,0.502974722729215,0.507953543182246,0.512926982803433,0.517921197867111,
0.522939799680872,0.529701624713304,0.536519961735827,0.543391415932217,0.548611647388424,
0.553844524848045,0.559301595995995,0.564967212384001,0.571024845280669,0.577267664990956,
0.586530084155749,0.596300044063934,0.606596642215859,0.614784002348337,0.623176451816641,
0.631810121990445,0.640486580705764,0.649132287133083,0.657698920557204,0.666054410844089,
0.674275984268064,0.684706692439123,0.694892101759198,0.704822589651072,0.712160475507756,
0.71949651950537,0.726895680100924,0.734358166715374,0.742055958825379,0.749923393137214,
0.758085767624334,0.766376955599781,0.775999400875894,0.786823090312941,0.803016081792308,
0.819379382616402,0.835880208016903,0.847326984682076,0.857723581799418,0.867017267443065,
0.876264143872224,0.88536199023139,0.894344603745687,0.903122350657341,0.911809257605895,
0.921200718640248,0.93137721190985,0.945812571188743,0.960086107201665,0.974213950576822,
0.983749755307931,0.992341838259851,1.),
.UNSPECIFIED.);
#1179=CARTESIAN_POINT('',(17.3853386507137,2.,-4.));
#1180=CARTESIAN_POINT('',(17.3853386507137,2.,1.));
#1181=CARTESIAN_POINT('',(17.3853386507137,2.,-4.));
#1182=VECTOR('',#1183,1.);
#1183=DIRECTION('',(0.,0.,1.));
#1184=CARTESIAN_POINT('',(22.5,2.,1.));
#1185=CARTESIAN_POINT('',(17.3853386507137,2.,1.));
#1186=VECTOR('',#1187,1.);
#1187=DIRECTION('',(1.,-8.68267084607726E-17,0.));
#1188=CARTESIAN_POINT('',(22.5,2.,-4.));
#1189=CARTESIAN_POINT('',(22.5,2.,1.));
#1190=VECTOR('',#1191,1.);
#1191=DIRECTION('',(0.,0.,-1.));
#1192=CARTESIAN_POINT('',(17.3853386507137,2.,-4.));
#1193=VECTOR('',#1194,1.);
#1194=DIRECTION('',(1.,-8.68267084607726E-17,0.));
#1195=CARTESIAN_POINT('',(18.7176693253569,2.,-1.5));
#1196=AXIS2_PLACEMENT_3D('',#1197,#1198,#1199);
#1197=CARTESIAN_POINT('',(19.9426693253569,2.,-1.5));
#1198=DIRECTION('',(7.40148683083438E-17,1.,0.));
#1199=DIRECTION('',(-1.,7.40148683083438E-17,-1.22464679914735E-16));
#1200=CARTESIAN_POINT('',(17.3853386507137,-2.,1.));
#1201=CARTESIAN_POINT('',(17.3853386507137,-2.,-4.));
#1202=CARTESIAN_POINT('',(17.3853386514043,-1.99999999993705,-4.));
#1203=VECTOR('',#1204,1.);
#1204=DIRECTION('',(0.,0.,1.));
#1205=CARTESIAN_POINT('',(22.5,-2.,-4.));
#1206=CARTESIAN_POINT('',(22.5,-2.,-4.));
#1207=VECTOR('',#1208,1.);
#1208=DIRECTION('',(-1.,4.34133542303863E-17,0.));
#1209=CARTESIAN_POINT('',(22.5,-2.,1.));
#1210=CARTESIAN_POINT('',(22.5,-2.,1.));
#1211=VECTOR('',#1212,1.);
#1212=DIRECTION('',(0.,0.,-1.));
#1213=CARTESIAN_POINT('',(22.5,-2.,1.));
#1214=VECTOR('',#1215,1.);
#1215=DIRECTION('',(-1.,4.34133542303863E-17,0.));
#1216=CARTESIAN_POINT('',(18.7176693253569,-2.,-1.5));
#1217=AXIS2_PLACEMENT_3D('',#1218,#1219,#1220);
#1218=CARTESIAN_POINT('',(19.9426693253569,-2.,-1.5));
#1219=DIRECTION('',(3.70074341541719E-17,1.,0.));
#1220=DIRECTION('',(-1.,3.70074341541719E-17,-1.22464679914735E-16));
#1221=CARTESIAN_POINT('',(-17.5,4.28626379701574E-15,9.));
#1222=AXIS2_PLACEMENT_3D('',#1223,#1224,#1225);
#1223=CARTESIAN_POINT('',(0.,0.,9.));
#1224=DIRECTION('',(0.,0.,1.));
#1225=DIRECTION('',(-1.,1.22464679914735E-16,0.));
#1226=CARTESIAN_POINT('',(-17.5,6.22915409010976E-15,-6.));
#1227=AXIS2_PLACEMENT_3D('',#1228,#1229,#1230);
#1228=CARTESIAN_POINT('',(0.,0.,-6.));
#1229=DIRECTION('',(0.,0.,1.));
#1230=DIRECTION('',(-1.,1.22464679914735E-16,0.));
#1231=AXIS2_PLACEMENT_3D('',#1232,#1233,#1234);
#1232=CARTESIAN_POINT('',(0.,0.,1.));
#1233=DIRECTION('',(0.,0.,1.));
#1234=DIRECTION('',(0.993447922899774,-0.114285714269653,0.));
#1235=AXIS2_PLACEMENT_3D('',#1236,#1237,#1238);
#1236=CARTESIAN_POINT('',(0.,0.,-4.));
#1237=DIRECTION('',(0.,0.,1.));
#1238=DIRECTION('',(0.993447922899774,-0.114285714269653,0.));
#1239=CARTESIAN_POINT('',(22.5,2.,1.));
#1240=VECTOR('',#1241,1.);
#1241=DIRECTION('',(-8.88178419700125E-16,-1.,0.));
#1242=CARTESIAN_POINT('',(22.5,2.,-4.));
#1243=VECTOR('',#1244,1.);
#1244=DIRECTION('',(-8.88178419700125E-16,-1.,0.));
#1245=CARTESIAN_POINT('',(-21.5,5.26598123633362E-15,-10.));
#1246=AXIS2_PLACEMENT_3D('',#1247,#1248,#1249);
#1247=CARTESIAN_POINT('',(0.,0.,-10.));
#1248=DIRECTION('',(0.,0.,1.));
#1249=DIRECTION('',(-1.,1.22464679914735E-16,0.));
#1250=CARTESIAN_POINT('',(-21.5,5.26598123633362E-15,13.));
#1251=AXIS2_PLACEMENT_3D('',#1252,#1253,#1254);
#1252=CARTESIAN_POINT('',(0.,0.,13.));
#1253=DIRECTION('',(0.,0.,1.));
#1254=DIRECTION('',(-1.,1.22464679914735E-16,0.));
#1255=CARTESIAN_POINT('',(21.,23.,-10.));
#1256=CARTESIAN_POINT('',(-21.,23.,-10.));
#1257=CARTESIAN_POINT('',(21.,23.,-10.));
#1258=VECTOR('',#1259,1.);
#1259=DIRECTION('',(-1.,3.38353683695286E-16,0.));
#1260=CARTESIAN_POINT('',(-23.,21.,-10.));
#1261=AXIS2_PLACEMENT_3D('',#1262,#1263,#1264);
#1262=CARTESIAN_POINT('',(-21.,21.,-10.));
#1263=DIRECTION('',(0.,0.,1.));
#1264=DIRECTION('',(0.,1.,0.));
#1265=CARTESIAN_POINT('',(-23.,-21.,-10.));
#1266=CARTESIAN_POINT('',(-23.,21.,-10.));
#1267=VECTOR('',#1268,1.);
#1268=DIRECTION('',(-8.45884209238214E-17,-1.,0.));
#1269=CARTESIAN_POINT('',(-21.,-23.,-10.));
#1270=AXIS2_PLACEMENT_3D('',#1271,#1272,#1273);
#1271=CARTESIAN_POINT('',(-21.,-21.,-10.));
#1272=DIRECTION('',(0.,0.,1.));
#1273=DIRECTION('',(-1.,0.,0.));
#1274=CARTESIAN_POINT('',(21.,-23.,-10.));
#1275=CARTESIAN_POINT('',(-21.,-23.,-10.));
#1276=VECTOR('',#1277,1.);
#1277=DIRECTION('',(1.,-8.45884209238215E-17,0.));
#1278=CARTESIAN_POINT('',(23.,-21.,-10.));
#1279=AXIS2_PLACEMENT_3D('',#1280,#1281,#1282);
#1280=CARTESIAN_POINT('',(21.,-21.,-10.));
#1281=DIRECTION('',(0.,0.,1.));
#1282=DIRECTION('',(0.,-1.,0.));
#1283=CARTESIAN_POINT('',(23.,21.,-10.));
#1284=CARTESIAN_POINT('',(23.,-21.,-10.));
#1285=VECTOR('',#1286,1.);
#1286=DIRECTION('',(8.45884209238214E-17,1.,0.));
#1287=AXIS2_PLACEMENT_3D('',#1288,#1289,#1290);
#1288=CARTESIAN_POINT('',(21.,21.,-10.));
#1289=DIRECTION('',(0.,0.,1.));
#1290=DIRECTION('',(1.,1.77635683940025E-15,0.));
#1291=CARTESIAN_POINT('',(-22.1,-20.,-10.));
#1292=AXIS2_PLACEMENT_3D('',#1293,#1294,#1295);
#1293=CARTESIAN_POINT('',(-20.,-20.,-10.));
#1294=DIRECTION('',(0.,0.,1.));
#1295=DIRECTION('',(-1.,1.22464679914735E-16,0.));
#1296=CARTESIAN_POINT('',(-22.1,20.,-10.));
#1297=AXIS2_PLACEMENT_3D('',#1298,#1299,#1300);
#1298=CARTESIAN_POINT('',(-20.,20.,-10.));
#1299=DIRECTION('',(0.,0.,1.));
#1300=DIRECTION('',(-1.,1.22464679914735E-16,0.));
#1301=CARTESIAN_POINT('',(17.9,-20.,-10.));
#1302=AXIS2_PLACEMENT_3D('',#1303,#1304,#1305);
#1303=CARTESIAN_POINT('',(20.,-20.,-10.));
#1304=DIRECTION('',(0.,0.,1.));
#1305=DIRECTION('',(-1.,1.22464679914735E-16,0.));
#1306=CARTESIAN_POINT('',(17.9,20.,-10.));
#1307=AXIS2_PLACEMENT_3D('',#1308,#1309,#1310);
#1308=CARTESIAN_POINT('',(20.,20.,-10.));
#1309=DIRECTION('',(0.,0.,1.));
#1310=DIRECTION('',(-1.,1.22464679914735E-16,0.));
#1311=CARTESIAN_POINT('',(-21.,-23.,13.));
#1312=CARTESIAN_POINT('',(21.,-23.,13.));
#1313=CARTESIAN_POINT('',(-21.,-23.,13.));
#1314=VECTOR('',#1315,1.);
#1315=DIRECTION('',(1.,-8.45884209238215E-17,0.));
#1316=CARTESIAN_POINT('',(-23.,-21.,13.));
#1317=AXIS2_PLACEMENT_3D('',#1318,#1319,#1320);
#1318=CARTESIAN_POINT('',(-21.,-21.,13.));
#1319=DIRECTION('',(0.,0.,-1.));
#1320=DIRECTION('',(-1.77635683940025E-15,-1.,0.));
#1321=CARTESIAN_POINT('',(-23.,21.,13.));
#1322=CARTESIAN_POINT('',(-23.,21.,13.));
#1323=VECTOR('',#1324,1.);
#1324=DIRECTION('',(-8.45884209238214E-17,-1.,0.));
#1325=CARTESIAN_POINT('',(-21.,23.,13.));
#1326=AXIS2_PLACEMENT_3D('',#1327,#1328,#1329);
#1327=CARTESIAN_POINT('',(-21.,21.,13.));
#1328=DIRECTION('',(0.,0.,-1.));
#1329=DIRECTION('',(-1.,0.,0.));
#1330=CARTESIAN_POINT('',(21.,23.,13.));
#1331=CARTESIAN_POINT('',(21.,23.,13.));
#1332=VECTOR('',#1333,1.);
#1333=DIRECTION('',(-1.,3.38353683695286E-16,0.));
#1334=CARTESIAN_POINT('',(23.,21.,13.));
#1335=AXIS2_PLACEMENT_3D('',#1336,#1337,#1338);
#1336=CARTESIAN_POINT('',(21.,21.,13.));
#1337=DIRECTION('',(0.,0.,-1.));
#1338=DIRECTION('',(0.,1.,0.));
#1339=CARTESIAN_POINT('',(23.,-21.,13.));
#1340=CARTESIAN_POINT('',(23.,-21.,13.));
#1341=VECTOR('',#1342,1.);
#1342=DIRECTION('',(1.69176841847643E-16,1.,0.));
#1343=AXIS2_PLACEMENT_3D('',#1344,#1345,#1346);
#1344=CARTESIAN_POINT('',(21.,-21.,13.));
#1345=DIRECTION('',(0.,0.,-1.));
#1346=DIRECTION('',(1.,-1.77635683940025E-15,0.));
#1347=CARTESIAN_POINT('',(-22.1,-20.,13.));
#1348=AXIS2_PLACEMENT_3D('',#1349,#1350,#1351);
#1349=CARTESIAN_POINT('',(-20.,-20.,13.));
#1350=DIRECTION('',(0.,0.,1.));
#1351=DIRECTION('',(-1.,1.22464679914735E-16,0.));
#1352=CARTESIAN_POINT('',(-22.1,20.,13.));
#1353=AXIS2_PLACEMENT_3D('',#1354,#1355,#1356);
#1354=CARTESIAN_POINT('',(-20.,20.,13.));
#1355=DIRECTION('',(0.,0.,1.));
#1356=DIRECTION('',(-1.,1.22464679914735E-16,0.));
#1357=CARTESIAN_POINT('',(17.9,20.,13.));
#1358=AXIS2_PLACEMENT_3D('',#1359,#1360,#1361);
#1359=CARTESIAN_POINT('',(20.,20.,13.));
#1360=DIRECTION('',(0.,0.,1.));
#1361=DIRECTION('',(-1.,1.22464679914735E-16,0.));
#1362=CARTESIAN_POINT('',(17.9,-20.,13.));
#1363=AXIS2_PLACEMENT_3D('',#1364,#1365,#1366);
#1364=CARTESIAN_POINT('',(20.,-20.,13.));
#1365=DIRECTION('',(0.,0.,1.));
#1366=DIRECTION('',(-1.,1.22464679914735E-16,0.));
#1367=CARTESIAN_POINT('',(21.,25.,-12.));
#1368=CARTESIAN_POINT('',(-21.,25.,-12.));
#1369=CARTESIAN_POINT('',(21.,25.,-12.));
#1370=VECTOR('',#1371,1.);
#1371=DIRECTION('',(-1.,3.38353683695286E-16,0.));
#1372=AXIS2_PLACEMENT_3D('',#1373,#1374,#1375);
#1373=CARTESIAN_POINT('',(-21.,23.,-12.));
#1374=DIRECTION('',(1.,-3.0626842058625E-16,-1.66622885175365E-46));
#1375=DIRECTION('',(3.0626842058625E-16,1.,1.83758917935762E-15));
#1376=CARTESIAN_POINT('',(20.9999999999437,23.000000000573,-10.));
#1377=CARTESIAN_POINT('',(20.9999999999107,24.1715728761624,-10.));
#1378=CARTESIAN_POINT('',(20.9999999998873,25.0000000011459,-10.8284271247462));
#1379=CARTESIAN_POINT('',(20.9999999998873,25.0000000011459,-12.));
#1380=CARTESIAN_POINT('',(-25.,21.,-12.));
#1381=AXIS2_PLACEMENT_3D('',#1382,#1383,#1384);
#1382=CARTESIAN_POINT('',(-21.,21.,-12.));
#1383=DIRECTION('',(0.,0.,1.));
#1384=DIRECTION('',(3.82856869892695E-16,1.,0.));
#1385=AXIS2_PLACEMENT_3D('',#1386,#1387,#1388);
#1386=CARTESIAN_POINT('',(-23.,21.,-12.));
#1387=DIRECTION('',(3.21624529935327E-16,-1.,0.));
#1388=DIRECTION('',(-1.77635683940025E-15,0.,1.));
#1389=CARTESIAN_POINT('',(-25.,-21.,-12.));
#1390=CARTESIAN_POINT('',(-25.,21.,-12.));
#1391=VECTOR('',#1392,1.);
#1392=DIRECTION('',(-8.45884209238214E-17,-1.,4.22942104619107E-17));
#1393=AXIS2_PLACEMENT_3D('',#1394,#1395,#1396);
#1394=CARTESIAN_POINT('',(-23.,-21.,-12.));
#1395=DIRECTION('',(1.225073682345E-16,1.,-2.66596616280583E-47));
#1396=DIRECTION('',(-1.,1.225073682345E-16,6.12323399573676E-17));
#1397=CARTESIAN_POINT('',(-21.,-25.,-12.));
#1398=AXIS2_PLACEMENT_3D('',#1399,#1400,#1401);
#1399=CARTESIAN_POINT('',(-21.,-21.,-12.));
#1400=DIRECTION('',(0.,0.,1.));
#1401=DIRECTION('',(-1.,1.04899068466779E-15,0.));
#1402=AXIS2_PLACEMENT_3D('',#1403,#1404,#1405);
#1403=CARTESIAN_POINT('',(-21.,-23.,-12.));
#1404=DIRECTION('',(1.,-1.22464679914735E-16,0.));
#1405=DIRECTION('',(-1.97215226305253E-31,-1.77635683940025E-15,1.));
#1406=CARTESIAN_POINT('',(21.,-25.,-12.));
#1407=CARTESIAN_POINT('',(-21.,-25.,-12.));
#1408=VECTOR('',#1409,1.);
#1409=DIRECTION('',(1.,-8.45884209238215E-17,0.));
#1410=AXIS2_PLACEMENT_3D('',#1411,#1412,#1413);
#1411=CARTESIAN_POINT('',(21.,-23.,-12.));
#1412=DIRECTION('',(-1.,1.225073682345E-16,0.));
#1413=DIRECTION('',(-1.225073682345E-16,-1.,6.12323399573677E-17));
#1414=CARTESIAN_POINT('',(25.,-21.,-12.));
#1415=AXIS2_PLACEMENT_3D('',#1416,#1417,#1418);
#1416=CARTESIAN_POINT('',(21.,-21.,-12.));
#1417=DIRECTION('',(0.,0.,1.));
#1418=DIRECTION('',(6.12323399573677E-17,-1.,0.));
#1419=AXIS2_PLACEMENT_3D('',#1420,#1421,#1422);
#1420=CARTESIAN_POINT('',(23.,-21.,-12.));
#1421=DIRECTION('',(5.66553889764798E-16,1.,0.));
#1422=DIRECTION('',(1.00640187697252E-30,0.,1.));
#1423=CARTESIAN_POINT('',(25.,21.,-12.));
#1424=CARTESIAN_POINT('',(25.,-21.,-12.));
#1425=VECTOR('',#1426,1.);
#1426=DIRECTION('',(8.45884209238214E-17,1.,0.));
#1427=AXIS2_PLACEMENT_3D('',#1428,#1429,#1430);
#1428=CARTESIAN_POINT('',(23.,21.,-12.));
#1429=DIRECTION('',(-1.225073682345E-16,-1.,0.));
#1430=DIRECTION('',(1.,-1.225073682345E-16,6.12323399573677E-17));
#1431=AXIS2_PLACEMENT_3D('',#1432,#1433,#1434);
#1432=CARTESIAN_POINT('',(21.,21.,-12.));
#1433=DIRECTION('',(0.,0.,1.));
#1434=DIRECTION('',(1.,6.12323399573677E-17,0.));
#1435=CARTESIAN_POINT('',(-22.1,-20.,-15.));
#1436=AXIS2_PLACEMENT_3D('',#1437,#1438,#1439);
#1437=CARTESIAN_POINT('',(-20.,-20.,-15.));
#1438=DIRECTION('',(0.,0.,1.));
#1439=DIRECTION('',(-1.,1.22464679914735E-16,0.));
#1440=CARTESIAN_POINT('',(-22.1,20.,-15.));
#1441=AXIS2_PLACEMENT_3D('',#1442,#1443,#1444);
#1442=CARTESIAN_POINT('',(-20.,20.,-15.));
#1443=DIRECTION('',(0.,0.,1.));
#1444=DIRECTION('',(-1.,1.22464679914735E-16,0.));
#1445=CARTESIAN_POINT('',(17.9,-20.,-15.));
#1446=AXIS2_PLACEMENT_3D('',#1447,#1448,#1449);
#1447=CARTESIAN_POINT('',(20.,-20.,-15.));
#1448=DIRECTION('',(0.,0.,1.));
#1449=DIRECTION('',(-1.,1.22464679914735E-16,0.));
#1450=CARTESIAN_POINT('',(17.9,20.,-15.));
#1451=AXIS2_PLACEMENT_3D('',#1452,#1453,#1454);
#1452=CARTESIAN_POINT('',(20.,20.,-15.));
#1453=DIRECTION('',(0.,0.,1.));
#1454=DIRECTION('',(-1.,1.22464679914735E-16,0.));
#1455=CARTESIAN_POINT('',(-21.,-25.,15.));
#1456=CARTESIAN_POINT('',(21.,-25.,15.));
#1457=CARTESIAN_POINT('',(-21.,-25.,15.));
#1458=VECTOR('',#1459,1.);
#1459=DIRECTION('',(1.,-8.45884209238215E-17,0.));
#1460=CARTESIAN_POINT('',(-21.0000000000563,-23.000000000573,13.));
#1461=CARTESIAN_POINT('',(-21.0000000000894,-24.1715728761624,13.));
#1462=CARTESIAN_POINT('',(-21.0000000001127,-25.000000001146,13.8284271247462));
#1463=CARTESIAN_POINT('',(-21.0000000001127,-25.000000001146,15.));
#1464=AXIS2_PLACEMENT_3D('',#1465,#1466,#1467);
#1465=CARTESIAN_POINT('',(21.,-23.,15.));
#1466=DIRECTION('',(1.,-1.225073682345E-16,0.));
#1467=DIRECTION('',(-1.225073682345E-16,-1.,-6.12323399573677E-17));
#1468=CARTESIAN_POINT('',(-25.,-21.,15.));
#1469=AXIS2_PLACEMENT_3D('',#1470,#1471,#1472);
#1470=CARTESIAN_POINT('',(-21.,-21.,15.));
#1471=DIRECTION('',(0.,0.,-1.));
#1472=DIRECTION('',(0.,-1.,0.));
#1473=AXIS2_PLACEMENT_3D('',#1474,#1475,#1476);
#1474=CARTESIAN_POINT('',(-23.,-21.,15.));
#1475=DIRECTION('',(-1.225073682345E-16,-1.,-2.66596616280583E-47));
#1476=DIRECTION('',(-1.,1.225073682345E-16,-6.12323399573677E-17));
#1477=CARTESIAN_POINT('',(-25.,21.,15.));
#1478=CARTESIAN_POINT('',(-25.,21.,15.));
#1479=VECTOR('',#1480,1.);
#1480=DIRECTION('',(-8.45884209238214E-17,-1.,0.));
#1481=CARTESIAN_POINT('',(-23.000000000573,21.0000000000564,13.));
#1482=CARTESIAN_POINT('',(-24.1715728761624,21.0000000000894,13.));
#1483=CARTESIAN_POINT('',(-25.0000000011459,21.0000000001127,13.8284271247462));
#1484=CARTESIAN_POINT('',(-25.0000000011459,21.0000000001127,15.));
#1485=CARTESIAN_POINT('',(-21.,25.,15.));
#1486=AXIS2_PLACEMENT_3D('',#1487,#1488,#1489);
#1487=CARTESIAN_POINT('',(-21.,21.,15.));
#1488=DIRECTION('',(0.,0.,-1.));
#1489=DIRECTION('',(-1.,-8.88178419700125E-16,0.));
#1490=AXIS2_PLACEMENT_3D('',#1491,#1492,#1493);
#1491=CARTESIAN_POINT('',(-21.,23.,15.));
#1492=DIRECTION('',(-1.,3.0626842058625E-16,1.66622885175365E-46));
#1493=DIRECTION('',(3.0626842058625E-16,1.,-6.12323399573677E-17));
#1494=CARTESIAN_POINT('',(21.,25.,15.));
#1495=CARTESIAN_POINT('',(21.,25.,15.));
#1496=VECTOR('',#1497,1.);
#1497=DIRECTION('',(-1.,3.38353683695286E-16,0.));
#1498=AXIS2_PLACEMENT_3D('',#1499,#1500,#1501);
#1499=CARTESIAN_POINT('',(21.,23.,15.));
#1500=DIRECTION('',(1.,6.12323399573677E-17,0.));
#1501=DIRECTION('',(0.,1.08770485875751E-31,-1.));
#1502=CARTESIAN_POINT('',(25.,21.,15.));
#1503=AXIS2_PLACEMENT_3D('',#1504,#1505,#1506);
#1504=CARTESIAN_POINT('',(21.,21.,15.));
#1505=DIRECTION('',(0.,0.,-1.));
#1506=DIRECTION('',(-8.88178419700125E-16,1.,0.));
#1507=AXIS2_PLACEMENT_3D('',#1508,#1509,#1510);
#1508=CARTESIAN_POINT('',(23.,21.,15.));
#1509=DIRECTION('',(1.225073682345E-16,1.,2.66596616280583E-47));
#1510=DIRECTION('',(1.,-1.225073682345E-16,-6.12323399573677E-17));
#1511=CARTESIAN_POINT('',(25.,-21.,15.));
#1512=CARTESIAN_POINT('',(25.,-21.,15.));
#1513=VECTOR('',#1514,1.);
#1514=DIRECTION('',(8.45884209238215E-17,1.,0.));
#1515=CARTESIAN_POINT('',(23.000000000573,-21.0000000000564,13.));
#1516=CARTESIAN_POINT('',(24.1715728761624,-21.0000000000894,13.));
#1517=CARTESIAN_POINT('',(25.0000000011459,-21.0000000001127,13.8284271247462));
#1518=CARTESIAN_POINT('',(25.0000000011459,-21.0000000001127,15.));
#1519=AXIS2_PLACEMENT_3D('',#1520,#1521,#1522);
#1520=CARTESIAN_POINT('',(21.,-21.,15.));
#1521=DIRECTION('',(0.,0.,-1.));
#1522=DIRECTION('',(1.,0.,0.));
#1523=CARTESIAN_POINT('',(-22.1,-20.,20.));
#1524=AXIS2_PLACEMENT_3D('',#1525,#1526,#1527);
#1525=CARTESIAN_POINT('',(-20.,-20.,20.));
#1526=DIRECTION('',(0.,0.,1.));
#1527=DIRECTION('',(-1.,1.22464679914735E-16,0.));
#1528=CARTESIAN_POINT('',(-22.1,20.,20.));
#1529=AXIS2_PLACEMENT_3D('',#1530,#1531,#1532);
#1530=CARTESIAN_POINT('',(-20.,20.,20.));
#1531=DIRECTION('',(0.,0.,1.));
#1532=DIRECTION('',(-1.,1.22464679914735E-16,0.));
#1533=CARTESIAN_POINT('',(17.9,20.,20.));
#1534=AXIS2_PLACEMENT_3D('',#1535,#1536,#1537);
#1535=CARTESIAN_POINT('',(20.,20.,20.));
#1536=DIRECTION('',(0.,0.,1.));
#1537=DIRECTION('',(-1.,1.22464679914735E-16,0.));
#1538=CARTESIAN_POINT('',(17.9,-20.,20.));
#1539=AXIS2_PLACEMENT_3D('',#1540,#1541,#1542);
#1540=CARTESIAN_POINT('',(20.,-20.,20.));
#1541=DIRECTION('',(0.,0.,1.));
#1542=DIRECTION('',(-1.,1.22464679914735E-16,0.));
#1543=CARTESIAN_POINT('',(21.,25.,-15.));
#1544=CARTESIAN_POINT('',(21.,25.,-15.));
#1545=VECTOR('',#1546,1.);
#1546=DIRECTION('',(0.,0.,1.));
#1547=CARTESIAN_POINT('',(-21.,25.,-15.));
#1548=CARTESIAN_POINT('',(21.,25.,-15.));
#1549=VECTOR('',#1550,1.);
#1550=DIRECTION('',(-1.,3.38353683695286E-16,0.));
#1551=CARTESIAN_POINT('',(-21.,25.,-15.));
#1552=VECTOR('',#1553,1.);
#1553=DIRECTION('',(0.,0.,1.));
#1554=CARTESIAN_POINT('',(-25.,21.,-15.));
#1555=AXIS2_PLACEMENT_3D('',#1556,#1557,#1558);
#1556=CARTESIAN_POINT('',(-21.,21.,-15.));
#1557=DIRECTION('',(0.,0.,-1.));
#1558=DIRECTION('',(-1.,0.,0.));
#1559=CARTESIAN_POINT('',(-25.,21.,-15.));
#1560=VECTOR('',#1561,1.);
#1561=DIRECTION('',(0.,0.,1.));
#1562=CARTESIAN_POINT('',(-25.,-21.,-15.));
#1563=CARTESIAN_POINT('',(-25.,21.,-15.));
#1564=VECTOR('',#1565,1.);
#1565=DIRECTION('',(-8.45884209238214E-17,-1.,0.));
#1566=CARTESIAN_POINT('',(-25.,-21.,-15.));
#1567=VECTOR('',#1568,1.);
#1568=DIRECTION('',(0.,0.,1.));
#1569=CARTESIAN_POINT('',(-21.,-25.,-15.));
#1570=AXIS2_PLACEMENT_3D('',#1571,#1572,#1573);
#1571=CARTESIAN_POINT('',(-21.,-21.,-15.));
#1572=DIRECTION('',(0.,0.,-1.));
#1573=DIRECTION('',(-8.88178419700125E-16,-1.,0.));
#1574=CARTESIAN_POINT('',(-21.,-25.,-15.));
#1575=VECTOR('',#1576,1.);
#1576=DIRECTION('',(0.,0.,1.));
#1577=CARTESIAN_POINT('',(21.,-25.,-15.));
#1578=CARTESIAN_POINT('',(-21.,-25.,-15.));
#1579=VECTOR('',#1580,1.);
#1580=DIRECTION('',(1.,-8.45884209238215E-17,0.));
#1581=CARTESIAN_POINT('',(21.,-25.,-15.));
#1582=VECTOR('',#1583,1.);
#1583=DIRECTION('',(0.,0.,1.));
#1584=CARTESIAN_POINT('',(25.,-21.,-15.));
#1585=AXIS2_PLACEMENT_3D('',#1586,#1587,#1588);
#1586=CARTESIAN_POINT('',(21.,-21.,-15.));
#1587=DIRECTION('',(0.,0.,-1.));
#1588=DIRECTION('',(1.,-8.88178419700126E-16,0.));
#1589=CARTESIAN_POINT('',(25.,-21.,-15.));
#1590=VECTOR('',#1591,1.);
#1591=DIRECTION('',(0.,0.,1.));
#1592=CARTESIAN_POINT('',(25.,21.,-15.));
#1593=CARTESIAN_POINT('',(25.,-21.,-15.));
#1594=VECTOR('',#1595,1.);
#1595=DIRECTION('',(8.45884209238214E-17,1.,0.));
#1596=CARTESIAN_POINT('',(25.000000000573,20.9999999999437,-15.));
#1597=VECTOR('',#1598,1.);
#1598=DIRECTION('',(0.,0.,1.));
#1599=AXIS2_PLACEMENT_3D('',#1600,#1601,#1602);
#1600=CARTESIAN_POINT('',(21.,21.,-15.));
#1601=DIRECTION('',(0.,0.,-1.));
#1602=DIRECTION('',(0.,1.,0.));
#1603=CARTESIAN_POINT('',(-14.5,3.55147571752732E-15,-15.));
#1604=AXIS2_PLACEMENT_3D('',#1605,#1606,#1607);
#1605=CARTESIAN_POINT('',(0.,0.,-15.));
#1606=DIRECTION('',(0.,0.,1.));
#1607=DIRECTION('',(-1.,1.22464679914735E-16,0.));
#1608=CARTESIAN_POINT('',(3.50000000000001,-25.,20.));
#1609=CARTESIAN_POINT('',(-3.5,-25.,20.));
#1610=AXIS2_PLACEMENT_3D('',#1611,#1612,#1613);
#1611=CARTESIAN_POINT('',(3.5527136788005E-15,-25.,20.));
#1612=DIRECTION('',(-1.4210854715202E-16,-1.,-1.3684555315672E-48));
#1613=DIRECTION('',(-1.,1.4210854715202E-16,-2.81750495869184E-11));
#1614=CARTESIAN_POINT('',(-21.,-25.,20.));
#1615=CARTESIAN_POINT('',(-21.,-25.,20.));
#1616=VECTOR('',#1617,1.);
#1617=DIRECTION('',(1.,0.,0.));
#1618=CARTESIAN_POINT('',(-21.,-25.,15.));
#1619=VECTOR('',#1620,1.);
#1620=DIRECTION('',(0.,0.,1.));
#1621=CARTESIAN_POINT('',(21.,-25.,20.));
#1622=CARTESIAN_POINT('',(21.,-25.,15.));
#1623=VECTOR('',#1624,1.);
#1624=DIRECTION('',(0.,0.,1.));
#1625=CARTESIAN_POINT('',(3.50000000000001,-25.,20.));
#1626=VECTOR('',#1627,1.);
#1627=DIRECTION('',(1.,0.,0.));
#1628=CARTESIAN_POINT('',(-25.,-21.,20.));
#1629=AXIS2_PLACEMENT_3D('',#1630,#1631,#1632);
#1630=CARTESIAN_POINT('',(-21.,-21.,20.));
#1631=DIRECTION('',(0.,0.,1.));
#1632=DIRECTION('',(-1.,0.,0.));
#1633=CARTESIAN_POINT('',(-25.,-21.,15.));
#1634=VECTOR('',#1635,1.);
#1635=DIRECTION('',(0.,0.,1.));
#1636=CARTESIAN_POINT('',(-25.,21.,20.));
#1637=CARTESIAN_POINT('',(-25.,21.,20.));
#1638=VECTOR('',#1639,1.);
#1639=DIRECTION('',(-8.45884209238214E-17,-1.,0.));
#1640=CARTESIAN_POINT('',(-25.,21.,15.));
#1641=VECTOR('',#1642,1.);
#1642=DIRECTION('',(0.,0.,1.));
#1643=CARTESIAN_POINT('',(-21.,25.,20.));
#1644=AXIS2_PLACEMENT_3D('',#1645,#1646,#1647);
#1645=CARTESIAN_POINT('',(-21.,21.,20.));
#1646=DIRECTION('',(0.,0.,1.));
#1647=DIRECTION('',(0.,1.,0.));
#1648=CARTESIAN_POINT('',(-21.,25.,15.));
#1649=VECTOR('',#1650,1.);
#1650=DIRECTION('',(0.,0.,1.));
#1651=CARTESIAN_POINT('',(-3.50000000000002,25.,20.));
#1652=CARTESIAN_POINT('',(3.50000000000001,25.,20.));
#1653=AXIS2_PLACEMENT_3D('',#1654,#1655,#1656);
#1654=CARTESIAN_POINT('',(-3.5527136788005E-15,25.,20.));
#1655=DIRECTION('',(-3.5527136788005E-16,-1.,-2.73691106313441E-48));
#1656=DIRECTION('',(-1.,3.5527136788005E-16,-2.03012210217172E-15));
#1657=CARTESIAN_POINT('',(21.,25.,20.));
#1658=CARTESIAN_POINT('',(21.,25.,20.));
#1659=VECTOR('',#1660,1.);
#1660=DIRECTION('',(-1.,2.03012210217172E-16,0.));
#1661=CARTESIAN_POINT('',(21.,25.,15.));
#1662=VECTOR('',#1663,1.);
#1663=DIRECTION('',(0.,0.,1.));
#1664=CARTESIAN_POINT('',(-3.50000000000002,25.,20.));
#1665=VECTOR('',#1666,1.);
#1666=DIRECTION('',(-1.,4.06024420434343E-16,0.));
#1667=CARTESIAN_POINT('',(25.,21.,20.));
#1668=AXIS2_PLACEMENT_3D('',#1669,#1670,#1671);
#1669=CARTESIAN_POINT('',(21.,21.,20.));
#1670=DIRECTION('',(0.,0.,1.));
#1671=DIRECTION('',(1.,-1.77635683940025E-15,0.));
#1672=CARTESIAN_POINT('',(25.,21.,15.));
#1673=VECTOR('',#1674,1.);
#1674=DIRECTION('',(1.14594200795182E-10,-1.12699183318909E-11,1.));
#1675=CARTESIAN_POINT('',(25.,-21.,20.));
#1676=CARTESIAN_POINT('',(25.,-21.,20.));
#1677=VECTOR('',#1678,1.);
#1678=DIRECTION('',(8.45884209238214E-17,1.,0.));
#1679=CARTESIAN_POINT('',(25.,-21.,15.));
#1680=VECTOR('',#1681,1.);
#1681=DIRECTION('',(0.,0.,1.));
#1682=AXIS2_PLACEMENT_3D('',#1683,#1684,#1685);
#1683=CARTESIAN_POINT('',(21.,-21.,20.));
#1684=DIRECTION('',(0.,0.,1.));
#1685=DIRECTION('',(-8.88178419700124E-16,-1.,0.));
#1686=CARTESIAN_POINT('',(-3.5,14.0712472794703,20.));
#1687=CARTESIAN_POINT('',(-3.50000000050135,25.,19.9999999999507));
#1688=VECTOR('',#1689,1.);
#1689=DIRECTION('',(1.21904819664143E-16,-1.,0.));
#1690=CARTESIAN_POINT('',(-3.5,-14.0712472794703,20.));
#1691=CARTESIAN_POINT('',(-3.50000000050135,-14.0712472794703,19.9999999999507));
#1692=VECTOR('',#1693,1.);
#1693=DIRECTION('',(1.21904819664143E-16,-1.,0.));
#1694=CARTESIAN_POINT('',(-14.5,3.55147571752732E-15,20.));
#1695=AXIS2_PLACEMENT_3D('',#1696,#1697,#1698);
#1696=CARTESIAN_POINT('',(0.,0.,20.));
#1697=DIRECTION('',(0.,0.,1.));
#1698=DIRECTION('',(-1.,1.22464679914735E-16,0.));
#1699=AXIS2_PLACEMENT_3D('',#1700,#1701,#1702);
#1700=CARTESIAN_POINT('',(0.,0.,20.));
#1701=DIRECTION('',(0.,0.,1.));
#1702=DIRECTION('',(-0.241379310344828,0.97043084686002,0.));
#1703=CARTESIAN_POINT('',(3.5,14.0712472794703,20.));
#1704=CARTESIAN_POINT('',(3.5,25.,20.));
#1705=VECTOR('',#1706,1.);
#1706=DIRECTION('',(1.21904819664143E-16,-1.,0.));
#1707=CARTESIAN_POINT('',(3.5,-14.0712472794703,20.));
#1708=AXIS2_PLACEMENT_3D('',#1709,#1710,#1711);
#1709=CARTESIAN_POINT('',(0.,0.,20.));
#1710=DIRECTION('',(0.,0.,1.));
#1711=DIRECTION('',(0.241379310344828,-0.97043084686002,0.));
#1712=CARTESIAN_POINT('',(3.5,-14.0712472794703,20.));
#1713=VECTOR('',#1714,1.);
#1714=DIRECTION('',(1.21904819664143E-16,-1.,0.));
#1715=CARTESIAN_POINT('',(-3.50000000050135,14.0712472794592,19.9999999999507));
#1716=CARTESIAN_POINT('',(-3.50000004450616,14.0712472293378,19.9761507607543));
#1717=CARTESIAN_POINT('',(-3.49951044782632,14.0713690795486,19.9282636861295));
#1718=CARTESIAN_POINT('',(-3.49729390889907,14.0719202016954,19.8561864189685));
#1719=CARTESIAN_POINT('',(-3.49354680921377,14.0728510910479,19.7833872975718));
#1720=CARTESIAN_POINT('',(-3.48821906603247,14.0741728333939,19.7098923593117));
#1721=CARTESIAN_POINT('',(-3.48121812897031,14.0759064340893,19.6352831930552));
#1722=CARTESIAN_POINT('',(-3.47246020704941,14.0780699368702,19.5595424641588));
#1723=CARTESIAN_POINT('',(-3.46178903891624,14.0806982917285,19.4822263104066));
#1724=CARTESIAN_POINT('',(-3.44915863482463,14.083798154222,19.4038030038151));
#1725=CARTESIAN_POINT('',(-3.4344099023837,14.0874027561907,19.3239354186752));
#1726=CARTESIAN_POINT('',(-3.41744838645551,14.0915280517094,19.2427658436698));
#1727=CARTESIAN_POINT('',(-3.39795793706789,14.0962418290726,19.159533314329));
#1728=CARTESIAN_POINT('',(-3.37586554204734,14.1015504918495,19.0747050066794));
#1729=CARTESIAN_POINT('',(-3.35088807641637,14.1075084161883,18.9879078445814));
#1730=CARTESIAN_POINT('',(-3.3229897923294,14.1141080060583,18.8996908171743));
#1731=CARTESIAN_POINT('',(-3.2918981066543,14.1213944490494,18.8098376066829));
#1732=CARTESIAN_POINT('',(-3.25775578305668,14.1293126288661,18.7192933603225));
#1733=CARTESIAN_POINT('',(-3.21910195473542,14.1381741231721,18.6248568257004));
#1734=CARTESIAN_POINT('',(-3.17423920707516,14.1483230869041,18.5239436481026));
#1735=CARTESIAN_POINT('',(-3.11441801499593,14.1616388281478,18.4006220194476));
#1736=CARTESIAN_POINT('',(-3.03888276286297,14.1780780855536,18.2605515300943));
#1737=CARTESIAN_POINT('',(-2.94720689280106,14.1974334894099,18.1094137744254));
#1738=CARTESIAN_POINT('',(-2.85919838920897,14.2153988052812,17.9795383033121));
#1739=CARTESIAN_POINT('',(-2.77989045718619,14.2310865931854,17.8724647959692));
#1740=CARTESIAN_POINT('',(-2.71425171687645,14.2437427927081,17.7895382690008));
#1741=CARTESIAN_POINT('',(-2.65186601618868,14.2554855108244,17.7151661770952));
#1742=CARTESIAN_POINT('',(-2.5908185466319,14.2667084033187,17.646181479255));
#1743=CARTESIAN_POINT('',(-2.52850861649058,14.2778850902479,17.5793806262832));
#1744=CARTESIAN_POINT('',(-2.46497601755621,14.2889925410795,17.5147197555493));
#1745=CARTESIAN_POINT('',(-2.40003535137957,14.3000456583616,17.4519539766856));
#1746=CARTESIAN_POINT('',(-2.33014257583176,14.3116118566719,17.3877993210432));
#1747=CARTESIAN_POINT('',(-2.25129598965288,14.3242505448733,17.31936211691));
#1748=CARTESIAN_POINT('',(-2.14697179040325,14.3403373198049,17.2344848454231));
#1749=CARTESIAN_POINT('',(-2.01801479432857,14.3591475773039,17.138420708616));
#1750=CARTESIAN_POINT('',(-1.86546845440275,14.379788563981,17.0366546136127));
#1751=CARTESIAN_POINT('',(-1.72261145343982,14.3975378850145,16.9518902450721));
#1752=CARTESIAN_POINT('',(-1.59616126166234,14.4120173844282,16.8843591613498));
#1753=CARTESIAN_POINT('',(-1.49301917243035,14.4230412939015,16.8338053903217));
#1754=CARTESIAN_POINT('',(-1.39690931835328,14.4326544450003,16.790323120086));
#1755=CARTESIAN_POINT('',(-1.30504238675106,14.4412497207436,16.7519048513094));
#1756=CARTESIAN_POINT('',(-1.21407434010279,14.4491780732279,16.7168465381942));
#1757=CARTESIAN_POINT('',(-1.11614016851366,14.4570986359443,16.6821574869392));
#1758=CARTESIAN_POINT('',(-1.01139305334537,14.4648308776792,16.648627996126));
#1759=CARTESIAN_POINT('',(-0.900283189004268,14.4721632821122,16.6171349188094));
#1760=CARTESIAN_POINT('',(-0.801371702521464,14.4779385046137,16.592530565043));
#1761=CARTESIAN_POINT('',(-0.713923221769608,14.4824823969449,16.5732847750869));
#1762=CARTESIAN_POINT('',(-0.63744074955394,14.4860486584704,16.5582463860381));
#1763=CARTESIAN_POINT('',(-0.561895361241718,14.489173317213,16.5451208779843));
#1764=CARTESIAN_POINT('',(-0.487824956479946,14.4918537688635,16.5338985957083));
#1765=CARTESIAN_POINT('',(-0.414893827579774,14.4941230590804,16.5244243001273));
#1766=CARTESIAN_POINT('',(-0.343722551866305,14.4959826316978,16.5166786805137));
#1767=CARTESIAN_POINT('',(-0.274415060293017,14.4974562404857,16.5105521540913));
#1768=CARTESIAN_POINT('',(-0.201401778463782,14.4986661303881,16.5055292534959));
#1769=CARTESIAN_POINT('',(-0.124754773620178,14.4995397048598,16.5019070892182));
#1770=CARTESIAN_POINT('',(-0.0558128100881143,14.4999377970639,16.5002576898882));
#1771=CARTESIAN_POINT('',(-0.00362140165021515,14.5000165410455,16.4999314805535));
#1772=CARTESIAN_POINT('',(0.0402434028077314,14.4999667982845,16.5001375697232));
#1773=CARTESIAN_POINT('',(0.0878158823312936,14.4997687378958,16.5009581448554));
#1774=CARTESIAN_POINT('',(0.142774995486659,14.4993317913427,16.5027691207645));
#1775=CARTESIAN_POINT('',(0.197841545044437,14.4986852281085,16.5054504916612));
#1776=CARTESIAN_POINT('',(0.259420052595409,14.4977278640925,16.5094241367025));
#1777=CARTESIAN_POINT('',(0.327596674320102,14.4963628674648,16.5150966203571));
#1778=CARTESIAN_POINT('',(0.402405720099104,14.4944798880635,16.5229364919779));
#1779=CARTESIAN_POINT('',(0.471394247651849,14.4923860341338,16.5316748594387));
#1780=CARTESIAN_POINT('',(0.534424909561089,14.4901854208384,16.5408819389407));
#1781=CARTESIAN_POINT('',(0.592155729546552,14.4879425374569,16.5502884196543));
#1782=CARTESIAN_POINT('',(0.651323406187146,14.4854061316149,16.5609548574888));
#1783=CARTESIAN_POINT('',(0.713259118214793,14.4824928762202,16.573244386909));
#1784=CARTESIAN_POINT('',(0.777767496205311,14.4791760337532,16.5872870399129));
#1785=CARTESIAN_POINT('',(0.854833106651934,14.4748606511988,16.6056334396739));
#1786=CARTESIAN_POINT('',(0.944593694033745,14.4693177739205,16.629331338199));
#1787=CARTESIAN_POINT('',(1.04784087066599,14.4622182536501,16.6599252099311));
#1788=CARTESIAN_POINT('',(1.14627996080783,14.4547275292865,16.6925075520711));
#1789=CARTESIAN_POINT('',(1.23893531376187,14.4470579575481,16.7261929826279));
#1790=CARTESIAN_POINT('',(1.32497222007125,14.4394243052163,16.7600353653428));
#1791=CARTESIAN_POINT('',(1.41169004525071,14.4312051771377,16.7968532513777));
#1792=CARTESIAN_POINT('',(1.49818437308949,14.4224802600785,16.8363844692259));
#1793=CARTESIAN_POINT('',(1.58331781328284,14.4133793022184,16.8781281446921));
#1794=CARTESIAN_POINT('',(1.66622012333221,14.4040260089018,16.9215932638408));
#1795=CARTESIAN_POINT('',(1.74655439620889,14.3945006953853,16.9664695430286));
#1796=CARTESIAN_POINT('',(1.83153253474578,14.3839524427722,17.0168814844942));
#1797=CARTESIAN_POINT('',(1.92062829205979,14.3723421228904,17.0733211722915));
#1798=CARTESIAN_POINT('',(2.01299028740577,14.359687890665,17.1360996726286));
#1799=CARTESIAN_POINT('',(2.09415650428412,14.3480476104138,17.1950905255902));
#1800=CARTESIAN_POINT('',(2.16542276075703,14.3374441668829,17.2498909530565));
#1801=CARTESIAN_POINT('',(2.22820048614152,14.3278207178835,17.3005008787403));
#1802=CARTESIAN_POINT('',(2.29013331703643,14.3180510497366,17.3528318549686));
#1803=CARTESIAN_POINT('',(2.3518143859279,14.3080489707938,17.4074590999177));
#1804=CARTESIAN_POINT('',(2.41343033439954,14.2977852206565,17.4646938433891));
#1805=CARTESIAN_POINT('',(2.47546093348024,14.2871766871789,17.525194286838));
#1806=CARTESIAN_POINT('',(2.53746695642443,14.2762945958424,17.5887826581329));
#1807=CARTESIAN_POINT('',(2.60217198953534,14.2646484062457,17.6586506784285));
#1808=CARTESIAN_POINT('',(2.67130191729385,14.25187581758,17.7376265928762));
#1809=CARTESIAN_POINT('',(2.75618902845387,14.235743821503,17.8411057482852));
#1810=CARTESIAN_POINT('',(2.85146817326182,14.2169916685693,17.9678214570624));
#1811=CARTESIAN_POINT('',(2.95182133363107,14.1964791809228,18.1164969307671));
#1812=CARTESIAN_POINT('',(3.03547667488324,14.1787828884864,18.2553483904098));
#1813=CARTESIAN_POINT('',(3.10255829844851,14.1642226615394,18.3786024326119));
#1814=CARTESIAN_POINT('',(3.15359330373114,14.1529366361711,18.4805419546029));
#1815=CARTESIAN_POINT('',(3.19809282528319,14.1429418128532,18.5767422012118));
#1816=CARTESIAN_POINT('',(3.23792226883965,14.13387327751,18.6698682427968));
#1817=CARTESIAN_POINT('',(3.2746509992359,14.1254059730688,18.7630853512213));
#1818=CARTESIAN_POINT('',(3.30814639051894,14.1175963043036,18.8557309919356));
#1819=CARTESIAN_POINT('',(3.33858195638188,14.1104274890416,18.9478822024687));
#1820=CARTESIAN_POINT('',(3.36691744173626,14.1036920740495,19.0423086520418));
#1821=CARTESIAN_POINT('',(3.39390083449927,14.0972226046234,19.1424962527778));
#1822=CARTESIAN_POINT('',(3.42265489184207,14.0902711049971,19.2640473977293));
#1823=CARTESIAN_POINT('',(3.45013989580035,14.0835644366211,19.4042789177399));
#1824=CARTESIAN_POINT('',(3.47341171601103,14.0778387741974,19.5600139712008));
#1825=CARTESIAN_POINT('',(3.48783882573671,14.0742679070081,19.6987808060618));
#1826=CARTESIAN_POINT('',(3.49569942260936,14.0723165799828,19.8171757150341));
#1827=CARTESIAN_POINT('',(3.49927712110198,14.0714271559865,19.9119952975172));
#1828=CARTESIAN_POINT('',(3.500000093983,14.0712471671652,19.9718076559006));
#1829=CARTESIAN_POINT('',(3.49999999999069,14.0712472795824,20.));
#1830=CARTESIAN_POINT('',(-3.50000000049203,-14.0712472795713,19.9999999999507));
#1831=CARTESIAN_POINT('',(-3.50000004450256,-14.0712472295158,19.9761507607543));
#1832=CARTESIAN_POINT('',(-3.499510447828,-14.0713690797877,19.9282636861295));
#1833=CARTESIAN_POINT('',(-3.49729390889861,-14.0719202019103,19.8561864189683));
#1834=CARTESIAN_POINT('',(-3.4935468092139,-14.0728510912703,19.7833872975718));
#1835=CARTESIAN_POINT('',(-3.48821906603248,-14.0741728336155,19.7098923593124));
#1836=CARTESIAN_POINT('',(-3.48121812897048,-14.0759064343129,19.6352831930567));
#1837=CARTESIAN_POINT('',(-3.47246020704972,-14.0780699370956,19.5595424641613));
#1838=CARTESIAN_POINT('',(-3.46178903891678,-14.0806982919562,19.4822263104103));
#1839=CARTESIAN_POINT('',(-3.44915863482544,-14.0837981544524,19.4038030038199));
#1840=CARTESIAN_POINT('',(-3.43440990238483,-14.0874027564243,19.3239354186809));
#1841=CARTESIAN_POINT('',(-3.41744838645695,-14.0915280519467,19.2427658436764));
#1842=CARTESIAN_POINT('',(-3.39795793706964,-14.0962418293143,19.159533314336));
#1843=CARTESIAN_POINT('',(-3.37586554204936,-14.1015504920963,19.0747050066868));
#1844=CARTESIAN_POINT('',(-3.35088807641861,-14.107508416441,18.9879078445888));
#1845=CARTESIAN_POINT('',(-3.32298979233181,-14.1141080063177,18.8996908171816));
#1846=CARTESIAN_POINT('',(-3.29189810665681,-14.1213944493165,18.8098376066899));
#1847=CARTESIAN_POINT('',(-3.25775578305929,-14.129312629142,18.7192933603291));
#1848=CARTESIAN_POINT('',(-3.21910195473816,-14.1381741234582,18.6248568257068));
#1849=CARTESIAN_POINT('',(-3.17423920707815,-14.1483230872024,18.523943648109));
#1850=CARTESIAN_POINT('',(-3.11441801499952,-14.161638828463,18.4006220194547));
#1851=CARTESIAN_POINT('',(-3.03888276286752,-14.1780780858914,18.2605515301023));
#1852=CARTESIAN_POINT('',(-2.94720689280693,-14.1974334897771,18.1094137744347));
#1853=CARTESIAN_POINT('',(-2.85919838921631,-14.2153988056791,17.9795383033225));
#1854=CARTESIAN_POINT('',(-2.77989045719492,-14.231086593613,17.8724647959806));
#1855=CARTESIAN_POINT('',(-2.71425171688626,-14.2437427931617,17.7895382690129));
#1856=CARTESIAN_POINT('',(-2.65186601619937,-14.255485511304,17.7151661771076));
#1857=CARTESIAN_POINT('',(-2.59081854664324,-14.2667084038251,17.6461814792675));
#1858=CARTESIAN_POINT('',(-2.52850861650238,-14.2778850907832,17.5793806262955));
#1859=CARTESIAN_POINT('',(-2.46497601756818,-14.2889925416457,17.5147197555611));
#1860=CARTESIAN_POINT('',(-2.40003535139147,-14.3000456589613,17.4519539766968));
#1861=CARTESIAN_POINT('',(-2.3301425758435,-14.3116118573094,17.3877993210536));
#1862=CARTESIAN_POINT('',(-2.2512959896645,-14.324250545556,17.3193621169198));
#1863=CARTESIAN_POINT('',(-2.14697179041538,-14.3403373205514,17.2344848454325));
#1864=CARTESIAN_POINT('',(-2.01801479434205,-14.3591475781367,17.1384207086256));
#1865=CARTESIAN_POINT('',(-1.86546845441819,-14.3797885649283,17.0366546136224));
#1866=CARTESIAN_POINT('',(-1.72261145345402,-14.3975378860831,16.9518902450801));
#1867=CARTESIAN_POINT('',(-1.59616126167392,-14.4120173856163,16.8843591613557));
#1868=CARTESIAN_POINT('',(-1.49301917243582,-14.4230412951957,16.8338053903242));
#1869=CARTESIAN_POINT('',(-1.39690931834866,-14.4326544464013,16.7903231200838));
#1870=CARTESIAN_POINT('',(-1.30504238673485,-14.4412497222538,16.7519048513027));
#1871=CARTESIAN_POINT('',(-1.21407434007397,-14.4491780748539,16.7168465381834));
#1872=CARTESIAN_POINT('',(-1.11614016847637,-14.4570986377027,16.6821574869266));
#1873=CARTESIAN_POINT('',(-1.01139305330274,-14.4648308795897,16.6486279961131));
#1874=CARTESIAN_POINT('',(-0.900283188953689,-14.4721632841979,16.6171349187959));
#1875=CARTESIAN_POINT('',(-0.801371702467391,-14.4779385068679,16.5925305650303));
#1876=CARTESIAN_POINT('',(-0.71392322171256,-14.4824823993584,16.573284775075));
#1877=CARTESIAN_POINT('',(-0.637440749490999,-14.4860486610314,16.5582463860264));
#1878=CARTESIAN_POINT('',(-0.561895361169184,-14.4891733199272,16.5451208779724));
#1879=CARTESIAN_POINT('',(-0.487824956391714,-14.4918537717389,16.5338985956957));
#1880=CARTESIAN_POINT('',(-0.414893827469588,-14.4941230621135,16.524424300114));
#1881=CARTESIAN_POINT('',(-0.343722551721929,-14.4959826349274,16.5166786804992));
#1882=CARTESIAN_POINT('',(-0.274415060112846,-14.4974562437934,16.510552154077));
#1883=CARTESIAN_POINT('',(-0.201401778262872,-14.4986661342544,16.5055292534841));
#1884=CARTESIAN_POINT('',(-0.124754773384449,-14.4995397072719,16.5019070892094));
#1885=CARTESIAN_POINT('',(-0.055812809978447,-14.4999378049818,16.5002576898876));
#1886=CARTESIAN_POINT('',(-0.00362140154649285,-14.5000165383997,16.4999314805535));
#1887=CARTESIAN_POINT('',(0.0402434028826915,-14.4999667936188,16.5001375697234));
#1888=CARTESIAN_POINT('',(0.0878158825328432,-14.4997687342103,16.5009581448607));
#1889=CARTESIAN_POINT('',(0.142774995653053,-14.4993317875542,16.5027691207716));
#1890=CARTESIAN_POINT('',(0.197841545161403,-14.4986852245414,16.5054504916681));
#1891=CARTESIAN_POINT('',(0.259420052681411,-14.4977278606684,16.509424136709));
#1892=CARTESIAN_POINT('',(0.327596674392194,-14.4963628642204,16.515096620364));
#1893=CARTESIAN_POINT('',(0.402405720154394,-14.4944798849968,16.5229364919844));
#1894=CARTESIAN_POINT('',(0.471394247701315,-14.4923860312248,16.5316748594454));
#1895=CARTESIAN_POINT('',(0.534424909609672,-14.4901854180661,16.5408819389482));
#1896=CARTESIAN_POINT('',(0.592155729592452,-14.4879425348052,16.5502884196622));
#1897=CARTESIAN_POINT('',(0.651323406230217,-14.4854061290816,16.560954857497));
#1898=CARTESIAN_POINT('',(0.713259118254652,-14.4824928738058,16.5732443869173));
#1899=CARTESIAN_POINT('',(0.777767496241679,-14.4791760314572,16.5872870399212));
#1900=CARTESIAN_POINT('',(0.854833106682987,-14.4748606490377,16.6056334396818));
#1901=CARTESIAN_POINT('',(0.944593694058326,-14.4693177719075,16.629331338206));
#1902=CARTESIAN_POINT('',(1.04784087068388,-14.4622182517953,16.6599252099367));
#1903=CARTESIAN_POINT('',(1.14627996081915,-14.4547275275717,16.6925075520751));
#1904=CARTESIAN_POINT('',(1.2389353137674,-14.4470579559561,16.72619298263));
#1905=CARTESIAN_POINT('',(1.32497222007218,-14.4394243037314,16.7600353653432));
#1906=CARTESIAN_POINT('',(1.41169004524764,-14.4312051757541,16.7968532513764));
#1907=CARTESIAN_POINT('',(1.49818437308322,-14.4224802587895,16.836384469223));
#1908=CARTESIAN_POINT('',(1.58331781327404,-14.4133793010168,16.8781281446876));
#1909=CARTESIAN_POINT('',(1.66622012332175,-14.4040260077799,16.9215932638351));
#1910=CARTESIAN_POINT('',(1.74655439619756,-14.394500694336,16.9664695430221));
#1911=CARTESIAN_POINT('',(1.83153253473422,-14.3839524417952,17.0168814844871));
#1912=CARTESIAN_POINT('',(1.92062829204828,-14.3723421219842,17.0733211722839));
#1913=CARTESIAN_POINT('',(2.01299028739442,-14.3596878898271,17.1360996726206));
#1914=CARTESIAN_POINT('',(2.09415650427309,-14.3480476096317,17.195090525582));
#1915=CARTESIAN_POINT('',(2.16542276074593,-14.3374441661472,17.2498909530478));
#1916=CARTESIAN_POINT('',(2.22820048612995,-14.3278207171867,17.3005008787307));
#1917=CARTESIAN_POINT('',(2.29013331702443,-14.3180510490764,17.3528318549582));
#1918=CARTESIAN_POINT('',(2.35181438591558,-14.3080489701683,17.4074590999066));
#1919=CARTESIAN_POINT('',(2.4134303343872,-14.2977852200639,17.4646938433773));
#1920=CARTESIAN_POINT('',(2.47546093346819,-14.2871766866179,17.525194286826));
#1921=CARTESIAN_POINT('',(2.53746695641289,-14.2762945953113,17.5887826581207));
#1922=CARTESIAN_POINT('',(2.60217198952457,-14.2646484057443,17.6586506784165));
#1923=CARTESIAN_POINT('',(2.67130191728403,-14.2518758171086,17.7376265928646));
#1924=CARTESIAN_POINT('',(2.75618902844527,-14.2357438210664,17.8411057482742));
#1925=CARTESIAN_POINT('',(2.85146817325455,-14.2169916681687,17.9678214570521));
#1926=CARTESIAN_POINT('',(2.95182133362516,-14.1964791805571,18.1164969307578));
#1927=CARTESIAN_POINT('',(3.03547667487836,-14.1787828881476,18.2553483904012));
#1928=CARTESIAN_POINT('',(3.10255829844436,-14.1642226612208,18.378602432604));
#1929=CARTESIAN_POINT('',(3.15359330372745,-14.1529366358672,18.4805419545952));
#1930=CARTESIAN_POINT('',(3.19809282527986,-14.1429418125615,18.5767422012043));
#1931=CARTESIAN_POINT('',(3.23792226883662,-14.1338732772291,18.6698682427895));
#1932=CARTESIAN_POINT('',(3.27465099923316,-14.1254059727973,18.763085351214));
#1933=CARTESIAN_POINT('',(3.30814639051648,-14.1175963040405,18.8557309919285));
#1934=CARTESIAN_POINT('',(3.33858195637971,-14.1104274887859,18.9478822024618));
#1935=CARTESIAN_POINT('',(3.36691744173439,-14.1036920738006,19.0423086520352));
#1936=CARTESIAN_POINT('',(3.39390083449771,-14.0972226043807,19.1424962527717));
#1937=CARTESIAN_POINT('',(3.42265489184094,-14.0902711047609,19.2640473977239));
#1938=CARTESIAN_POINT('',(3.45013989579959,-14.0835644363907,19.4042789177355));
#1939=CARTESIAN_POINT('',(3.47341171601073,-14.0778387739732,19.5600139711976));
#1940=CARTESIAN_POINT('',(3.48783882573629,-14.074267906783,19.6987808060599));
#1941=CARTESIAN_POINT('',(3.49569942260992,-14.0723165797694,19.817175715033));
#1942=CARTESIAN_POINT('',(3.4992771211,-14.071427155744,19.9119952975164));
#1943=CARTESIAN_POINT('',(3.50000009398678,-14.0712471669893,19.9718076559003));
#1944=CARTESIAN_POINT('',(3.5,-14.0712472794703,20.));
ENDSEC;
END-ISO-10303-21;
