ISO-10303-21;
HEADER;
FILE_DESCRIPTION(('STEP AP203'),
    '1');
FILE_NAME('Крепление для нагревателя ответная часть',
    '2026-07-28T19:26:51',
    ('SEVER'),
    (''),
    'C3D Converter',
    'C3D Toolkit',
    '');
/**/
FILE_SCHEMA(('CONFIG_CONTROL_DESIGN'));
ENDSEC;

DATA;
#1=PRODUCT_DEFINITION('','UNSPECIFIED',#28,#31);
#2=SHAPE_DEFINITION_REPRESENTATION(#26,#3);
#3=SHAPE_REPRESENTATION('NONE',(#4),#8);
#4=AXIS2_PLACEMENT_3D('',#5,#6,#7);
#5=CARTESIAN_POINT('',(0.,0.,0.));
#6=DIRECTION('',(0.,0.,1.));
#7=DIRECTION('',(1.,0.,0.));
#8=(GEOMETRIC_REPRESENTATION_CONTEXT(3)GLOBAL_UNCERTAINTY_ASSIGNED_CONTEXT((#10))
GLOBAL_UNIT_ASSIGNED_CONTEXT((#9,#11,#12))REPRESENTATION_CONTEXT('NONE','NONE'));
#9=(LENGTH_UNIT()NAMED_UNIT(*)SI_UNIT(.MILLI.,.METRE.));
#10=UNCERTAINTY_MEASURE_WITH_UNIT(LENGTH_MEASURE(1.E-5),#9,'NONE','NONE');
#11=(NAMED_UNIT(*)PLANE_ANGLE_UNIT()SI_UNIT($,.RADIAN.));
#12=(NAMED_UNIT(*)SI_UNIT($,.STERADIAN.)SOLID_ANGLE_UNIT());
#13=MANIFOLD_SOLID_BREP('',#14);
#14=CLOSED_SHELL('',(#53,#54,#55,#56,#57,#58,#59,#60,#61,#62,#63,#64,#65,#66,#67,
#68,#69,#70,#71,#72,#73,#74,#75,#76,#77,#78,#79,#80,#81,#82,#83,#84,#85,#86,#87,
#88,#89,#90,#91,#92,#93,#94,#95,#96,#97,#98,#99,#100,#101,#102,#103,#104,#105,#106,
#107,#108,#109,#110,#111,#112,#113,#114,#115,#116));
#15=COLOUR_RGB('',0.564705882352941,0.564705882352941,0.564705882352941);
#16=FILL_AREA_STYLE_COLOUR('',#15);
#17=FILL_AREA_STYLE($,(#16));
#18=SURFACE_STYLE_FILL_AREA(#17);
#19=SURFACE_SIDE_STYLE('',(#18));
#20=SURFACE_STYLE_USAGE(.BOTH.,#19);
#21=PRESENTATION_STYLE_ASSIGNMENT((#20));
#22=MECHANICAL_DESIGN_GEOMETRIC_PRESENTATION_REPRESENTATION('NONE',(#23),#8);
#23=STYLED_ITEM('',(#21),#13);
#24=ADVANCED_BREP_SHAPE_REPRESENTATION('NONE',(#13),#8);
#25=SHAPE_REPRESENTATION_RELATIONSHIP('','',#3,#24);
#26=PRODUCT_DEFINITION_SHAPE('NONE','NONE',#1);
#27=MECHANICAL_CONTEXT('NONE',#32,'mechanical');
#28=PRODUCT_DEFINITION_FORMATION_WITH_SPECIFIED_SOURCE('ANY','UNSPECIFIED',#29,.NOT_KNOWN.);
#29=PRODUCT('','\X2\0414043504420430043B044C\X0\','NONE',(#27));
#30=PRODUCT_RELATED_PRODUCT_CATEGORY('detail','',(#29));
#31=DESIGN_CONTEXT('detailed design',#32,'design');
#32=APPLICATION_CONTEXT('configuration controlled 3d designs of mechanical parts and assemblies');
#33=APPLICATION_PROTOCOL_DEFINITION('international standard','config_control_design',
1994,#32);
#34=CC_DESIGN_DATE_AND_TIME_ASSIGNMENT(#35,#39,(#1));
#35=DATE_AND_TIME(#36,#37);
#36=CALENDAR_DATE(0,1,1);
#37=LOCAL_TIME(0,0,0.,#38);
#38=COORDINATED_UNIVERSAL_TIME_OFFSET(0,0,.AHEAD.);
#39=DATE_TIME_ROLE('creation_date');
#40=CC_DESIGN_APPROVAL(#41,(#1));
#41=APPROVAL(#42,'UNSPECIFIED');
#42=APPROVAL_STATUS('not_yet_approved');
#43=APPROVAL_DATE_TIME(#44,#41);
#44=DATE_AND_TIME(#45,#46);
#45=CALENDAR_DATE(0,1,1);
#46=LOCAL_TIME(0,0,0.,#47);
#47=COORDINATED_UNIVERSAL_TIME_OFFSET(0,0,.AHEAD.);
#48=PERSON('UNSPECIFIED','SEVER','UNSPECIFIED',('UNSPECIFIED'),('UNSPECIFIED'),(
'UNSPECIFIED'));
#49=ORGANIZATION('UNSPECIFIED','UNSPECIFIED','UNSPECIFIED');
#50=PERSON_AND_ORGANIZATION(#48,#49);
#51=PERSON_AND_ORGANIZATION_ROLE('creator');
#52=CC_DESIGN_PERSON_AND_ORGANIZATION_ASSIGNMENT(#50,#51,(#28,#1));
#53=ADVANCED_FACE('',(#117,#119,#121,#123,#125,#127),#129,.T.);
#54=ADVANCED_FACE('',(#134),#136,.T.);
#55=ADVANCED_FACE('',(#141),#143,.T.);
#56=ADVANCED_FACE('',(#148),#150,.T.);
#57=ADVANCED_FACE('',(#155),#157,.T.);
#58=ADVANCED_FACE('',(#162),#164,.T.);
#59=ADVANCED_FACE('',(#169),#171,.T.);
#60=ADVANCED_FACE('',(#176),#178,.T.);
#61=ADVANCED_FACE('',(#183),#185,.T.);
#62=ADVANCED_FACE('',(#190),#192,.T.);
#63=ADVANCED_FACE('',(#197),#199,.T.);
#64=ADVANCED_FACE('',(#204),#206,.T.);
#65=ADVANCED_FACE('',(#211),#213,.T.);
#66=ADVANCED_FACE('',(#218),#220,.T.);
#67=ADVANCED_FACE('',(#225),#227,.T.);
#68=ADVANCED_FACE('',(#232),#234,.T.);
#69=ADVANCED_FACE('',(#239),#241,.T.);
#70=ADVANCED_FACE('',(#246),#248,.T.);
#71=ADVANCED_FACE('',(#253,#255),#257,.F.);
#72=ADVANCED_FACE('',(#262,#264),#266,.F.);
#73=ADVANCED_FACE('',(#271,#273),#275,.F.);
#74=ADVANCED_FACE('',(#280,#282),#284,.F.);
#75=ADVANCED_FACE('',(#289,#291),#293,.T.);
#76=ADVANCED_FACE('',(#298),#300,.T.);
#77=ADVANCED_FACE('',(#305),#307,.T.);
#78=ADVANCED_FACE('',(#312),#314,.T.);
#79=ADVANCED_FACE('',(#319),#321,.T.);
#80=ADVANCED_FACE('',(#326),#328,.T.);
#81=ADVANCED_FACE('',(#333),#335,.T.);
#82=ADVANCED_FACE('',(#340),#342,.T.);
#83=ADVANCED_FACE('',(#347),#349,.T.);
#84=ADVANCED_FACE('',(#354),#356,.T.);
#85=ADVANCED_FACE('',(#361),#363,.T.);
#86=ADVANCED_FACE('',(#368),#370,.T.);
#87=ADVANCED_FACE('',(#375,#377,#379,#381,#383,#385),#387,.F.);
#88=ADVANCED_FACE('',(#392,#394),#396,.F.);
#89=ADVANCED_FACE('',(#401,#403),#405,.F.);
#90=ADVANCED_FACE('',(#410,#412,#414,#416,#418,#420),#422,.F.);
#91=ADVANCED_FACE('',(#427,#429),#431,.T.);
#92=ADVANCED_FACE('',(#436),#438,.T.);
#93=ADVANCED_FACE('',(#443),#445,.T.);
#94=ADVANCED_FACE('',(#450),#452,.T.);
#95=ADVANCED_FACE('',(#457),#459,.T.);
#96=ADVANCED_FACE('',(#464),#466,.T.);
#97=ADVANCED_FACE('',(#471),#473,.T.);
#98=ADVANCED_FACE('',(#478),#480,.T.);
#99=ADVANCED_FACE('',(#485),#487,.T.);
#100=ADVANCED_FACE('',(#492,#494),#496,.F.);
#101=ADVANCED_FACE('',(#501,#503),#505,.F.);
#102=ADVANCED_FACE('',(#510,#512),#514,.F.);
#103=ADVANCED_FACE('',(#519,#521),#523,.F.);
#104=ADVANCED_FACE('',(#528,#530),#532,.F.);
#105=ADVANCED_FACE('',(#537),#539,.T.);
#106=ADVANCED_FACE('',(#544),#546,.T.);
#107=ADVANCED_FACE('',(#551),#553,.T.);
#108=ADVANCED_FACE('',(#558),#560,.T.);
#109=ADVANCED_FACE('',(#565),#567,.T.);
#110=ADVANCED_FACE('',(#572),#574,.T.);
#111=ADVANCED_FACE('',(#579),#581,.T.);
#112=ADVANCED_FACE('',(#586),#588,.T.);
#113=ADVANCED_FACE('',(#593,#595),#597,.T.);
#114=ADVANCED_FACE('',(#602,#604),#606,.T.);
#115=ADVANCED_FACE('',(#611,#613),#615,.T.);
#116=ADVANCED_FACE('',(#620,#622),#624,.T.);
#117=FACE_BOUND('',#118,.T.);
#118=EDGE_LOOP('',(#629,#630,#631,#632,#633,#634,#635,#636,#637,#638,#639,#640,#641,
#642,#643,#644,#645,#646,#647,#648));
#119=FACE_BOUND('',#120,.T.);
#120=EDGE_LOOP('',(#649));
#121=FACE_BOUND('',#122,.T.);
#122=EDGE_LOOP('',(#650));
#123=FACE_BOUND('',#124,.T.);
#124=EDGE_LOOP('',(#651));
#125=FACE_BOUND('',#126,.T.);
#126=EDGE_LOOP('',(#652));
#127=FACE_BOUND('',#128,.T.);
#128=EDGE_LOOP('',(#653));
#129=PLANE('',#130);
#130=AXIS2_PLACEMENT_3D('',#131,#132,#133);
#131=CARTESIAN_POINT('',(0.,0.,25.));
#132=DIRECTION('',(0.,0.,1.));
#133=DIRECTION('',(6.12323399573677E-17,1.,0.));
#134=FACE_BOUND('',#135,.T.);
#135=EDGE_LOOP('',(#654,#655,#656,#657));
#136=PLANE('',#137);
#137=AXIS2_PLACEMENT_3D('',#138,#139,#140);
#138=CARTESIAN_POINT('',(-40.75,-13.8,25.));
#139=DIRECTION('',(-2.22044604925031E-16,-1.,0.));
#140=DIRECTION('',(1.,-2.22044604925031E-16,0.));
#141=FACE_BOUND('',#142,.T.);
#142=EDGE_LOOP('',(#658,#659,#660,#661,#662,#663,#664,#665,#666,#667,#668,#669,#670,
#671,#672,#673));
#143=PLANE('',#144);
#144=AXIS2_PLACEMENT_3D('',#145,#146,#147);
#145=CARTESIAN_POINT('',(-40.75,35.05,20.));
#146=DIRECTION('',(-1.,0.,0.));
#147=DIRECTION('',(0.,-1.,0.));
#148=FACE_BOUND('',#149,.T.);
#149=EDGE_LOOP('',(#674,#675,#676,#677));
#150=CYLINDRICAL_SURFACE('',#151,4.);
#151=AXIS2_PLACEMENT_3D('',#152,#153,#154);
#152=CARTESIAN_POINT('',(-36.75,-31.05,6.));
#153=DIRECTION('',(0.,0.,-1.));
#154=DIRECTION('',(0.,-1.,0.));
#155=FACE_BOUND('',#156,.T.);
#156=EDGE_LOOP('',(#678,#679,#680,#681));
#157=PLANE('',#158);
#158=AXIS2_PLACEMENT_3D('',#159,#160,#161);
#159=CARTESIAN_POINT('',(-40.75,-35.05,20.));
#160=DIRECTION('',(0.,-1.,0.));
#161=DIRECTION('',(1.,0.,0.));
#162=FACE_BOUND('',#163,.T.);
#163=EDGE_LOOP('',(#682,#683,#684,#685));
#164=CYLINDRICAL_SURFACE('',#165,4.);
#165=AXIS2_PLACEMENT_3D('',#166,#167,#168);
#166=CARTESIAN_POINT('',(36.75,-31.05,6.));
#167=DIRECTION('',(0.,0.,-1.));
#168=DIRECTION('',(1.,0.,0.));
#169=FACE_BOUND('',#170,.T.);
#170=EDGE_LOOP('',(#686,#687,#688,#689));
#171=PLANE('',#172);
#172=AXIS2_PLACEMENT_3D('',#173,#174,#175);
#173=CARTESIAN_POINT('',(40.75,-35.05,20.));
#174=DIRECTION('',(1.,0.,0.));
#175=DIRECTION('',(0.,1.,0.));
#176=FACE_BOUND('',#177,.T.);
#177=EDGE_LOOP('',(#690,#691,#692,#693));
#178=CYLINDRICAL_SURFACE('',#179,4.);
#179=AXIS2_PLACEMENT_3D('',#180,#181,#182);
#180=CARTESIAN_POINT('',(36.75,31.05,6.));
#181=DIRECTION('',(0.,0.,-1.));
#182=DIRECTION('',(0.,1.,0.));
#183=FACE_BOUND('',#184,.T.);
#184=EDGE_LOOP('',(#694,#695,#696,#697));
#185=PLANE('',#186);
#186=AXIS2_PLACEMENT_3D('',#187,#188,#189);
#187=CARTESIAN_POINT('',(40.75,35.05,20.));
#188=DIRECTION('',(0.,1.,0.));
#189=DIRECTION('',(-1.,0.,0.));
#190=FACE_BOUND('',#191,.T.);
#191=EDGE_LOOP('',(#698,#699,#700,#701));
#192=CYLINDRICAL_SURFACE('',#193,4.);
#193=AXIS2_PLACEMENT_3D('',#194,#195,#196);
#194=CARTESIAN_POINT('',(-36.75,31.05,6.));
#195=DIRECTION('',(0.,0.,-1.));
#196=DIRECTION('',(-1.,0.,0.));
#197=FACE_BOUND('',#198,.T.);
#198=EDGE_LOOP('',(#702,#703,#704,#705));
#199=PLANE('',#200);
#200=AXIS2_PLACEMENT_3D('',#201,#202,#203);
#201=CARTESIAN_POINT('',(-32.75,13.7,25.));
#202=DIRECTION('',(0.,1.,0.));
#203=DIRECTION('',(-1.,0.,0.));
#204=FACE_BOUND('',#205,.T.);
#205=EDGE_LOOP('',(#706,#707,#708,#709));
#206=PLANE('',#207);
#207=AXIS2_PLACEMENT_3D('',#208,#209,#210);
#208=CARTESIAN_POINT('',(-32.75,10.3,25.));
#209=DIRECTION('',(1.,0.,0.));
#210=DIRECTION('',(0.,1.,0.));
#211=FACE_BOUND('',#212,.T.);
#212=EDGE_LOOP('',(#710,#711,#712,#713));
#213=PLANE('',#214);
#214=AXIS2_PLACEMENT_3D('',#215,#216,#217);
#215=CARTESIAN_POINT('',(-40.75,10.3,25.));
#216=DIRECTION('',(0.,-1.,0.));
#217=DIRECTION('',(1.,0.,0.));
#218=FACE_BOUND('',#219,.T.);
#219=EDGE_LOOP('',(#714,#715,#716,#717));
#220=PLANE('',#221);
#221=AXIS2_PLACEMENT_3D('',#222,#223,#224);
#222=CARTESIAN_POINT('',(-32.75,1.65000000000001,25.));
#223=DIRECTION('',(5.55111512312578E-17,1.,0.));
#224=DIRECTION('',(-1.,5.55111512312578E-17,0.));
#225=FACE_BOUND('',#226,.T.);
#226=EDGE_LOOP('',(#718,#719,#720,#721));
#227=PLANE('',#228);
#228=AXIS2_PLACEMENT_3D('',#229,#230,#231);
#229=CARTESIAN_POINT('',(-32.75,-1.74999999999999,25.));
#230=DIRECTION('',(1.,0.,0.));
#231=DIRECTION('',(0.,1.,0.));
#232=FACE_BOUND('',#233,.T.);
#233=EDGE_LOOP('',(#722,#723,#724,#725));
#234=PLANE('',#235);
#235=AXIS2_PLACEMENT_3D('',#236,#237,#238);
#236=CARTESIAN_POINT('',(-40.75,-1.74999999999999,25.));
#237=DIRECTION('',(-5.55111512312578E-17,-1.,0.));
#238=DIRECTION('',(1.,-5.55111512312578E-17,0.));
#239=FACE_BOUND('',#240,.T.);
#240=EDGE_LOOP('',(#726,#727,#728,#729));
#241=PLANE('',#242);
#242=AXIS2_PLACEMENT_3D('',#243,#244,#245);
#243=CARTESIAN_POINT('',(-32.75,-10.4,25.));
#244=DIRECTION('',(0.,1.,0.));
#245=DIRECTION('',(-1.,0.,0.));
#246=FACE_BOUND('',#247,.T.);
#247=EDGE_LOOP('',(#730,#731,#732,#733));
#248=PLANE('',#249);
#249=AXIS2_PLACEMENT_3D('',#250,#251,#252);
#250=CARTESIAN_POINT('',(-32.75,-13.8,25.));
#251=DIRECTION('',(1.,0.,0.));
#252=DIRECTION('',(0.,1.,0.));
#253=FACE_OUTER_BOUND('',#254,.T.);
#254=EDGE_LOOP('',(#734));
#255=FACE_OUTER_BOUND('',#256,.T.);
#256=EDGE_LOOP('',(#735));
#257=CYLINDRICAL_SURFACE('',#258,2.1);
#258=AXIS2_PLACEMENT_3D('',#259,#260,#261);
#259=CARTESIAN_POINT('',(35.75,-30.05,20.));
#260=DIRECTION('',(0.,0.,1.));
#261=DIRECTION('',(6.12323399573677E-17,1.,0.));
#262=FACE_OUTER_BOUND('',#263,.T.);
#263=EDGE_LOOP('',(#736));
#264=FACE_OUTER_BOUND('',#265,.T.);
#265=EDGE_LOOP('',(#737));
#266=CYLINDRICAL_SURFACE('',#267,2.1);
#267=AXIS2_PLACEMENT_3D('',#268,#269,#270);
#268=CARTESIAN_POINT('',(-35.75,-30.05,20.));
#269=DIRECTION('',(0.,0.,1.));
#270=DIRECTION('',(6.12323399573677E-17,1.,0.));
#271=FACE_OUTER_BOUND('',#272,.T.);
#272=EDGE_LOOP('',(#738));
#273=FACE_OUTER_BOUND('',#274,.T.);
#274=EDGE_LOOP('',(#739));
#275=CYLINDRICAL_SURFACE('',#276,2.1);
#276=AXIS2_PLACEMENT_3D('',#277,#278,#279);
#277=CARTESIAN_POINT('',(35.75,30.05,20.));
#278=DIRECTION('',(0.,0.,1.));
#279=DIRECTION('',(6.12323399573677E-17,1.,0.));
#280=FACE_OUTER_BOUND('',#281,.T.);
#281=EDGE_LOOP('',(#740));
#282=FACE_OUTER_BOUND('',#283,.T.);
#283=EDGE_LOOP('',(#741));
#284=CYLINDRICAL_SURFACE('',#285,2.1);
#285=AXIS2_PLACEMENT_3D('',#286,#287,#288);
#286=CARTESIAN_POINT('',(-35.75,30.05,20.));
#287=DIRECTION('',(0.,0.,1.));
#288=DIRECTION('',(6.12323399573677E-17,1.,0.));
#289=FACE_OUTER_BOUND('',#290,.T.);
#290=EDGE_LOOP('',(#742));
#291=FACE_OUTER_BOUND('',#292,.T.);
#292=EDGE_LOOP('',(#743));
#293=TOROIDAL_SURFACE('',#294,26.5,9.);
#294=AXIS2_PLACEMENT_3D('',#295,#296,#297);
#295=CARTESIAN_POINT('',(3.5527136788005E-15,-2.17540971751503E-31,16.));
#296=DIRECTION('',(0.,0.,1.));
#297=DIRECTION('',(6.12323399573676E-17,1.,0.));
#298=FACE_BOUND('',#299,.T.);
#299=EDGE_LOOP('',(#744,#745,#746,#747));
#300=PLANE('',#301);
#301=AXIS2_PLACEMENT_3D('',#302,#303,#304);
#302=CARTESIAN_POINT('',(0.,0.,28.5));
#303=DIRECTION('',(0.,0.,1.));
#304=DIRECTION('',(6.12323399573677E-17,1.,0.));
#305=FACE_BOUND('',#306,.T.);
#306=EDGE_LOOP('',(#748,#749,#750,#751));
#307=CYLINDRICAL_SURFACE('',#308,2.);
#308=AXIS2_PLACEMENT_3D('',#309,#310,#311);
#309=CARTESIAN_POINT('',(-38.75,43.05,22.));
#310=DIRECTION('',(0.,1.,0.));
#311=DIRECTION('',(0.,0.,-1.));
#312=FACE_BOUND('',#313,.T.);
#313=EDGE_LOOP('',(#752,#753,#754,#755));
#314=PLANE('',#315);
#315=AXIS2_PLACEMENT_3D('',#316,#317,#318);
#316=CARTESIAN_POINT('',(0.,0.,28.5));
#317=DIRECTION('',(0.,0.,1.));
#318=DIRECTION('',(6.12323399573677E-17,1.,0.));
#319=FACE_BOUND('',#320,.T.);
#320=EDGE_LOOP('',(#756,#757,#758,#759));
#321=PLANE('',#322);
#322=AXIS2_PLACEMENT_3D('',#323,#324,#325);
#323=CARTESIAN_POINT('',(0.,0.,28.5));
#324=DIRECTION('',(0.,0.,1.));
#325=DIRECTION('',(6.12323399573677E-17,1.,0.));
#326=FACE_BOUND('',#327,.T.);
#327=EDGE_LOOP('',(#760,#761,#762,#763));
#328=DEGENERATE_TOROIDAL_SURFACE('',#329,2.,2.,.T.);
#329=AXIS2_PLACEMENT_3D('',#330,#331,#332);
#330=CARTESIAN_POINT('',(-36.75,-31.05,22.));
#331=DIRECTION('',(0.,0.,-1.));
#332=DIRECTION('',(0.,-1.,0.));
#333=FACE_BOUND('',#334,.T.);
#334=EDGE_LOOP('',(#764,#765,#766,#767));
#335=CYLINDRICAL_SURFACE('',#336,2.);
#336=AXIS2_PLACEMENT_3D('',#337,#338,#339);
#337=CARTESIAN_POINT('',(-48.75,-33.05,22.));
#338=DIRECTION('',(-1.,0.,0.));
#339=DIRECTION('',(0.,0.,-1.));
#340=FACE_BOUND('',#341,.T.);
#341=EDGE_LOOP('',(#768,#769,#770,#771));
#342=DEGENERATE_TOROIDAL_SURFACE('',#343,2.,2.,.T.);
#343=AXIS2_PLACEMENT_3D('',#344,#345,#346);
#344=CARTESIAN_POINT('',(36.75,-31.05,22.));
#345=DIRECTION('',(0.,0.,-1.));
#346=DIRECTION('',(1.,0.,0.));
#347=FACE_BOUND('',#348,.T.);
#348=EDGE_LOOP('',(#772,#773,#774,#775));
#349=CYLINDRICAL_SURFACE('',#350,2.);
#350=AXIS2_PLACEMENT_3D('',#351,#352,#353);
#351=CARTESIAN_POINT('',(38.75,-43.05,22.));
#352=DIRECTION('',(0.,-1.,0.));
#353=DIRECTION('',(0.,0.,-1.));
#354=FACE_BOUND('',#355,.T.);
#355=EDGE_LOOP('',(#776,#777,#778,#779));
#356=DEGENERATE_TOROIDAL_SURFACE('',#357,2.,2.,.T.);
#357=AXIS2_PLACEMENT_3D('',#358,#359,#360);
#358=CARTESIAN_POINT('',(36.75,31.05,22.));
#359=DIRECTION('',(0.,0.,-1.));
#360=DIRECTION('',(0.,1.,0.));
#361=FACE_BOUND('',#362,.T.);
#362=EDGE_LOOP('',(#780,#781,#782,#783));
#363=CYLINDRICAL_SURFACE('',#364,2.);
#364=AXIS2_PLACEMENT_3D('',#365,#366,#367);
#365=CARTESIAN_POINT('',(48.75,33.05,22.));
#366=DIRECTION('',(1.,0.,0.));
#367=DIRECTION('',(0.,0.,-1.));
#368=FACE_BOUND('',#369,.T.);
#369=EDGE_LOOP('',(#784,#785,#786,#787));
#370=DEGENERATE_TOROIDAL_SURFACE('',#371,2.,2.,.T.);
#371=AXIS2_PLACEMENT_3D('',#372,#373,#374);
#372=CARTESIAN_POINT('',(-36.75,31.05,22.));
#373=DIRECTION('',(0.,0.,-1.));
#374=DIRECTION('',(-1.,0.,0.));
#375=FACE_BOUND('',#376,.T.);
#376=EDGE_LOOP('',(#788,#789,#790,#791,#792,#793,#794,#795));
#377=FACE_BOUND('',#378,.T.);
#378=EDGE_LOOP('',(#796));
#379=FACE_BOUND('',#380,.T.);
#380=EDGE_LOOP('',(#797));
#381=FACE_BOUND('',#382,.T.);
#382=EDGE_LOOP('',(#798));
#383=FACE_BOUND('',#384,.T.);
#384=EDGE_LOOP('',(#799));
#385=FACE_BOUND('',#386,.T.);
#386=EDGE_LOOP('',(#800));
#387=PLANE('',#388);
#388=AXIS2_PLACEMENT_3D('',#389,#390,#391);
#389=CARTESIAN_POINT('',(0.,0.,20.));
#390=DIRECTION('',(0.,0.,1.));
#391=DIRECTION('',(6.12323399573677E-17,1.,0.));
#392=FACE_OUTER_BOUND('',#393,.T.);
#393=EDGE_LOOP('',(#801));
#394=FACE_OUTER_BOUND('',#395,.T.);
#395=EDGE_LOOP('',(#802));
#396=CYLINDRICAL_SURFACE('',#397,17.5);
#397=AXIS2_PLACEMENT_3D('',#398,#399,#400);
#398=CARTESIAN_POINT('',(3.5527136788005E-15,-2.17540971751503E-31,20.));
#399=DIRECTION('',(0.,0.,1.));
#400=DIRECTION('',(6.12323399573677E-17,1.,0.));
#401=FACE_OUTER_BOUND('',#402,.T.);
#402=EDGE_LOOP('',(#803));
#403=FACE_OUTER_BOUND('',#404,.T.);
#404=EDGE_LOOP('',(#804));
#405=TOROIDAL_SURFACE('',#406,28.,8.);
#406=AXIS2_PLACEMENT_3D('',#407,#408,#409);
#407=CARTESIAN_POINT('',(0.,0.,12.));
#408=DIRECTION('',(0.,0.,1.));
#409=DIRECTION('',(-1.,1.22464679914735E-16,0.));
#410=FACE_BOUND('',#411,.T.);
#411=EDGE_LOOP('',(#805,#806,#807,#808,#809,#810,#811,#812));
#412=FACE_BOUND('',#413,.T.);
#413=EDGE_LOOP('',(#813));
#414=FACE_BOUND('',#415,.T.);
#415=EDGE_LOOP('',(#814));
#416=FACE_BOUND('',#417,.T.);
#417=EDGE_LOOP('',(#815));
#418=FACE_BOUND('',#419,.T.);
#419=EDGE_LOOP('',(#816));
#420=FACE_BOUND('',#421,.T.);
#421=EDGE_LOOP('',(#817));
#422=PLANE('',#423);
#423=AXIS2_PLACEMENT_3D('',#424,#425,#426);
#424=CARTESIAN_POINT('',(0.,0.,0.));
#425=DIRECTION('',(0.,0.,1.));
#426=DIRECTION('',(-1.,1.22464679914735E-16,0.));
#427=FACE_OUTER_BOUND('',#428,.T.);
#428=EDGE_LOOP('',(#818));
#429=FACE_OUTER_BOUND('',#430,.T.);
#430=EDGE_LOOP('',(#819));
#431=CYLINDRICAL_SURFACE('',#432,20.);
#432=AXIS2_PLACEMENT_3D('',#433,#434,#435);
#433=CARTESIAN_POINT('',(0.,0.,5.));
#434=DIRECTION('',(0.,0.,1.));
#435=DIRECTION('',(-1.,1.22464679914735E-16,0.));
#436=FACE_BOUND('',#437,.T.);
#437=EDGE_LOOP('',(#820,#821,#822,#823));
#438=CYLINDRICAL_SURFACE('',#439,4.);
#439=AXIS2_PLACEMENT_3D('',#440,#441,#442);
#440=CARTESIAN_POINT('',(21.,-21.,-16.));
#441=DIRECTION('',(0.,0.,-1.));
#442=DIRECTION('',(1.,0.,0.));
#443=FACE_BOUND('',#444,.T.);
#444=EDGE_LOOP('',(#824,#825,#826,#827));
#445=PLANE('',#446);
#446=AXIS2_PLACEMENT_3D('',#447,#448,#449);
#447=CARTESIAN_POINT('',(-25.,-25.,0.));
#448=DIRECTION('',(-1.4210854715202E-16,-1.,0.));
#449=DIRECTION('',(1.,-1.4210854715202E-16,0.));
#450=FACE_BOUND('',#451,.T.);
#451=EDGE_LOOP('',(#828,#829,#830,#831));
#452=CYLINDRICAL_SURFACE('',#453,4.);
#453=AXIS2_PLACEMENT_3D('',#454,#455,#456);
#454=CARTESIAN_POINT('',(-21.,-21.,-16.));
#455=DIRECTION('',(0.,0.,-1.));
#456=DIRECTION('',(0.,-1.,0.));
#457=FACE_BOUND('',#458,.T.);
#458=EDGE_LOOP('',(#832,#833,#834,#835));
#459=PLANE('',#460);
#460=AXIS2_PLACEMENT_3D('',#461,#462,#463);
#461=CARTESIAN_POINT('',(-25.,25.,0.));
#462=DIRECTION('',(-1.,1.4210854715202E-16,0.));
#463=DIRECTION('',(-1.4210854715202E-16,-1.,0.));
#464=FACE_BOUND('',#465,.T.);
#465=EDGE_LOOP('',(#836,#837,#838,#839));
#466=CYLINDRICAL_SURFACE('',#467,4.);
#467=AXIS2_PLACEMENT_3D('',#468,#469,#470);
#468=CARTESIAN_POINT('',(-21.,21.,-16.));
#469=DIRECTION('',(0.,0.,-1.));
#470=DIRECTION('',(-1.,0.,0.));
#471=FACE_BOUND('',#472,.T.);
#472=EDGE_LOOP('',(#840,#841,#842,#843));
#473=PLANE('',#474);
#474=AXIS2_PLACEMENT_3D('',#475,#476,#477);
#475=CARTESIAN_POINT('',(25.,25.,0.));
#476=DIRECTION('',(1.4210854715202E-16,1.,0.));
#477=DIRECTION('',(-1.,1.4210854715202E-16,0.));
#478=FACE_BOUND('',#479,.T.);
#479=EDGE_LOOP('',(#844,#845,#846,#847));
#480=CYLINDRICAL_SURFACE('',#481,4.);
#481=AXIS2_PLACEMENT_3D('',#482,#483,#484);
#482=CARTESIAN_POINT('',(21.,21.,-16.));
#483=DIRECTION('',(0.,0.,-1.));
#484=DIRECTION('',(0.,1.,0.));
#485=FACE_BOUND('',#486,.T.);
#486=EDGE_LOOP('',(#848,#849,#850,#851));
#487=PLANE('',#488);
#488=AXIS2_PLACEMENT_3D('',#489,#490,#491);
#489=CARTESIAN_POINT('',(25.,-25.,0.));
#490=DIRECTION('',(1.,-2.8421709430404E-16,0.));
#491=DIRECTION('',(2.8421709430404E-16,1.,0.));
#492=FACE_OUTER_BOUND('',#493,.T.);
#493=EDGE_LOOP('',(#852));
#494=FACE_OUTER_BOUND('',#495,.T.);
#495=EDGE_LOOP('',(#853));
#496=CYLINDRICAL_SURFACE('',#497,2.1);
#497=AXIS2_PLACEMENT_3D('',#498,#499,#500);
#498=CARTESIAN_POINT('',(-20.,-20.,0.));
#499=DIRECTION('',(0.,0.,1.));
#500=DIRECTION('',(-1.,1.22464679914735E-16,0.));
#501=FACE_OUTER_BOUND('',#502,.T.);
#502=EDGE_LOOP('',(#854));
#503=FACE_OUTER_BOUND('',#504,.T.);
#504=EDGE_LOOP('',(#855));
#505=CYLINDRICAL_SURFACE('',#506,2.1);
#506=AXIS2_PLACEMENT_3D('',#507,#508,#509);
#507=CARTESIAN_POINT('',(-20.,20.,0.));
#508=DIRECTION('',(0.,0.,1.));
#509=DIRECTION('',(-1.,1.22464679914735E-16,0.));
#510=FACE_OUTER_BOUND('',#511,.T.);
#511=EDGE_LOOP('',(#856));
#512=FACE_OUTER_BOUND('',#513,.T.);
#513=EDGE_LOOP('',(#857));
#514=CYLINDRICAL_SURFACE('',#515,2.1);
#515=AXIS2_PLACEMENT_3D('',#516,#517,#518);
#516=CARTESIAN_POINT('',(20.,-20.,0.));
#517=DIRECTION('',(0.,0.,1.));
#518=DIRECTION('',(-1.,1.22464679914735E-16,0.));
#519=FACE_OUTER_BOUND('',#520,.T.);
#520=EDGE_LOOP('',(#858));
#521=FACE_OUTER_BOUND('',#522,.T.);
#522=EDGE_LOOP('',(#859));
#523=CYLINDRICAL_SURFACE('',#524,2.1);
#524=AXIS2_PLACEMENT_3D('',#525,#526,#527);
#525=CARTESIAN_POINT('',(20.,20.,0.));
#526=DIRECTION('',(0.,0.,1.));
#527=DIRECTION('',(-1.,1.22464679914735E-16,0.));
#528=FACE_BOUND('',#529,.T.);
#529=EDGE_LOOP('',(#860,#861,#862,#863));
#530=FACE_OUTER_BOUND('',#531,.T.);
#531=EDGE_LOOP('',(#864));
#532=TOROIDAL_SURFACE('',#533,23.,3.);
#533=AXIS2_PLACEMENT_3D('',#534,#535,#536);
#534=CARTESIAN_POINT('',(0.,0.,8.));
#535=DIRECTION('',(0.,0.,1.));
#536=DIRECTION('',(-1.,1.22464679914735E-16,0.));
#537=FACE_BOUND('',#538,.T.);
#538=EDGE_LOOP('',(#865,#866,#867,#868));
#539=DEGENERATE_TOROIDAL_SURFACE('',#540,2.,2.,.T.);
#540=AXIS2_PLACEMENT_3D('',#541,#542,#543);
#541=CARTESIAN_POINT('',(21.,-21.,3.));
#542=DIRECTION('',(0.,9.56195036631529E-32,-1.));
#543=DIRECTION('',(1.,-3.22973970800046E-16,-3.0882610784018E-47));
#544=FACE_BOUND('',#545,.T.);
#545=EDGE_LOOP('',(#869,#870,#871,#872,#873));
#546=CYLINDRICAL_SURFACE('',#547,2.);
#547=AXIS2_PLACEMENT_3D('',#548,#549,#550);
#548=CARTESIAN_POINT('',(-33.,-23.,3.));
#549=DIRECTION('',(1.,-5.38289951333409E-17,0.));
#550=DIRECTION('',(0.,-1.91239007326306E-31,1.));
#551=FACE_BOUND('',#552,.T.);
#552=EDGE_LOOP('',(#874,#875,#876,#877));
#553=DEGENERATE_TOROIDAL_SURFACE('',#554,2.,2.,.T.);
#554=AXIS2_PLACEMENT_3D('',#555,#556,#557);
#555=CARTESIAN_POINT('',(-21.,-21.,3.));
#556=DIRECTION('',(0.,9.56195036631529E-32,-1.));
#557=DIRECTION('',(-5.38289951333409E-17,-1.,-9.56195036631529E-32));
#558=FACE_BOUND('',#559,.T.);
#559=EDGE_LOOP('',(#878,#879,#880,#881,#882));
#560=CYLINDRICAL_SURFACE('',#561,2.);
#561=AXIS2_PLACEMENT_3D('',#562,#563,#564);
#562=CARTESIAN_POINT('',(-23.,33.,3.));
#563=DIRECTION('',(-1.07657990266682E-16,-1.,0.));
#564=DIRECTION('',(0.,0.,1.));
#565=FACE_BOUND('',#566,.T.);
#566=EDGE_LOOP('',(#883,#884,#885,#886));
#567=DEGENERATE_TOROIDAL_SURFACE('',#568,2.,2.,.T.);
#568=AXIS2_PLACEMENT_3D('',#569,#570,#571);
#569=CARTESIAN_POINT('',(-21.,21.,3.));
#570=DIRECTION('',(0.,0.,-1.));
#571=DIRECTION('',(-1.,1.07657990266682E-16,0.));
#572=FACE_BOUND('',#573,.T.);
#573=EDGE_LOOP('',(#887,#888,#889,#890,#891));
#574=CYLINDRICAL_SURFACE('',#575,2.);
#575=AXIS2_PLACEMENT_3D('',#576,#577,#578);
#576=CARTESIAN_POINT('',(33.,23.,3.));
#577=DIRECTION('',(-1.,1.07657990266682E-16,0.));
#578=DIRECTION('',(0.,0.,1.));
#579=FACE_BOUND('',#580,.T.);
#580=EDGE_LOOP('',(#892,#893,#894,#895));
#581=DEGENERATE_TOROIDAL_SURFACE('',#582,2.,2.,.T.);
#582=AXIS2_PLACEMENT_3D('',#583,#584,#585);
#583=CARTESIAN_POINT('',(21.,21.,3.));
#584=DIRECTION('',(0.,0.,-1.));
#585=DIRECTION('',(1.07657990266682E-16,1.,0.));
#586=FACE_BOUND('',#587,.T.);
#587=EDGE_LOOP('',(#896,#897,#898,#899,#900));
#588=CYLINDRICAL_SURFACE('',#589,2.);
#589=AXIS2_PLACEMENT_3D('',#590,#591,#592);
#590=CARTESIAN_POINT('',(23.,-33.,3.));
#591=DIRECTION('',(3.22973970800046E-16,1.,0.));
#592=DIRECTION('',(0.,0.,1.));
#593=FACE_BOUND('',#594,.T.);
#594=EDGE_LOOP('',(#901,#902,#903,#904));
#595=FACE_BOUND('',#596,.T.);
#596=EDGE_LOOP('',(#905));
#597=PLANE('',#598);
#598=AXIS2_PLACEMENT_3D('',#599,#600,#601);
#599=CARTESIAN_POINT('',(0.,0.,5.));
#600=DIRECTION('',(0.,0.,1.));
#601=DIRECTION('',(-1.,1.22464679914735E-16,0.));
#602=FACE_BOUND('',#603,.T.);
#603=EDGE_LOOP('',(#906,#907,#908,#909));
#604=FACE_BOUND('',#605,.T.);
#605=EDGE_LOOP('',(#910));
#606=PLANE('',#607);
#607=AXIS2_PLACEMENT_3D('',#608,#609,#610);
#608=CARTESIAN_POINT('',(0.,0.,5.));
#609=DIRECTION('',(0.,0.,1.));
#610=DIRECTION('',(-1.,1.22464679914735E-16,0.));
#611=FACE_BOUND('',#612,.T.);
#612=EDGE_LOOP('',(#911,#912,#913,#914));
#613=FACE_BOUND('',#614,.T.);
#614=EDGE_LOOP('',(#915));
#615=PLANE('',#616);
#616=AXIS2_PLACEMENT_3D('',#617,#618,#619);
#617=CARTESIAN_POINT('',(0.,0.,5.));
#618=DIRECTION('',(0.,0.,1.));
#619=DIRECTION('',(-1.,1.22464679914735E-16,0.));
#620=FACE_BOUND('',#621,.T.);
#621=EDGE_LOOP('',(#916,#917,#918,#919));
#622=FACE_BOUND('',#623,.T.);
#623=EDGE_LOOP('',(#920));
#624=PLANE('',#625);
#625=AXIS2_PLACEMENT_3D('',#626,#627,#628);
#626=CARTESIAN_POINT('',(0.,0.,5.));
#627=DIRECTION('',(0.,0.,1.));
#628=DIRECTION('',(-1.,1.22464679914735E-16,0.));
#629=ORIENTED_EDGE('',*,*,#921,.F.);
#630=ORIENTED_EDGE('',*,*,#922,.T.);
#631=ORIENTED_EDGE('',*,*,#923,.F.);
#632=ORIENTED_EDGE('',*,*,#924,.T.);
#633=ORIENTED_EDGE('',*,*,#925,.F.);
#634=ORIENTED_EDGE('',*,*,#926,.T.);
#635=ORIENTED_EDGE('',*,*,#927,.F.);
#636=ORIENTED_EDGE('',*,*,#928,.T.);
#637=ORIENTED_EDGE('',*,*,#929,.F.);
#638=ORIENTED_EDGE('',*,*,#930,.T.);
#639=ORIENTED_EDGE('',*,*,#931,.F.);
#640=ORIENTED_EDGE('',*,*,#932,.F.);
#641=ORIENTED_EDGE('',*,*,#933,.F.);
#642=ORIENTED_EDGE('',*,*,#934,.T.);
#643=ORIENTED_EDGE('',*,*,#935,.F.);
#644=ORIENTED_EDGE('',*,*,#936,.F.);
#645=ORIENTED_EDGE('',*,*,#937,.F.);
#646=ORIENTED_EDGE('',*,*,#938,.T.);
#647=ORIENTED_EDGE('',*,*,#939,.F.);
#648=ORIENTED_EDGE('',*,*,#940,.F.);
#649=ORIENTED_EDGE('',*,*,#941,.T.);
#650=ORIENTED_EDGE('',*,*,#942,.T.);
#651=ORIENTED_EDGE('',*,*,#943,.T.);
#652=ORIENTED_EDGE('',*,*,#944,.T.);
#653=ORIENTED_EDGE('',*,*,#945,.T.);
#654=ORIENTED_EDGE('',*,*,#921,.T.);
#655=ORIENTED_EDGE('',*,*,#946,.T.);
#656=ORIENTED_EDGE('',*,*,#947,.F.);
#657=ORIENTED_EDGE('',*,*,#948,.F.);
#658=ORIENTED_EDGE('',*,*,#949,.F.);
#659=ORIENTED_EDGE('',*,*,#950,.T.);
#660=ORIENTED_EDGE('',*,*,#951,.T.);
#661=ORIENTED_EDGE('',*,*,#922,.F.);
#662=ORIENTED_EDGE('',*,*,#948,.T.);
#663=ORIENTED_EDGE('',*,*,#952,.F.);
#664=ORIENTED_EDGE('',*,*,#953,.F.);
#665=ORIENTED_EDGE('',*,*,#938,.F.);
#666=ORIENTED_EDGE('',*,*,#954,.T.);
#667=ORIENTED_EDGE('',*,*,#955,.F.);
#668=ORIENTED_EDGE('',*,*,#956,.F.);
#669=ORIENTED_EDGE('',*,*,#934,.F.);
#670=ORIENTED_EDGE('',*,*,#957,.T.);
#671=ORIENTED_EDGE('',*,*,#958,.F.);
#672=ORIENTED_EDGE('',*,*,#959,.F.);
#673=ORIENTED_EDGE('',*,*,#930,.F.);
#674=ORIENTED_EDGE('',*,*,#951,.F.);
#675=ORIENTED_EDGE('',*,*,#960,.F.);
#676=ORIENTED_EDGE('',*,*,#961,.T.);
#677=ORIENTED_EDGE('',*,*,#923,.T.);
#678=ORIENTED_EDGE('',*,*,#961,.F.);
#679=ORIENTED_EDGE('',*,*,#962,.T.);
#680=ORIENTED_EDGE('',*,*,#963,.T.);
#681=ORIENTED_EDGE('',*,*,#924,.F.);
#682=ORIENTED_EDGE('',*,*,#963,.F.);
#683=ORIENTED_EDGE('',*,*,#964,.F.);
#684=ORIENTED_EDGE('',*,*,#965,.T.);
#685=ORIENTED_EDGE('',*,*,#925,.T.);
#686=ORIENTED_EDGE('',*,*,#966,.T.);
#687=ORIENTED_EDGE('',*,*,#926,.F.);
#688=ORIENTED_EDGE('',*,*,#965,.F.);
#689=ORIENTED_EDGE('',*,*,#967,.T.);
#690=ORIENTED_EDGE('',*,*,#966,.F.);
#691=ORIENTED_EDGE('',*,*,#968,.F.);
#692=ORIENTED_EDGE('',*,*,#969,.T.);
#693=ORIENTED_EDGE('',*,*,#927,.T.);
#694=ORIENTED_EDGE('',*,*,#969,.F.);
#695=ORIENTED_EDGE('',*,*,#970,.T.);
#696=ORIENTED_EDGE('',*,*,#971,.T.);
#697=ORIENTED_EDGE('',*,*,#928,.F.);
#698=ORIENTED_EDGE('',*,*,#971,.F.);
#699=ORIENTED_EDGE('',*,*,#972,.F.);
#700=ORIENTED_EDGE('',*,*,#949,.T.);
#701=ORIENTED_EDGE('',*,*,#929,.T.);
#702=ORIENTED_EDGE('',*,*,#931,.T.);
#703=ORIENTED_EDGE('',*,*,#959,.T.);
#704=ORIENTED_EDGE('',*,*,#973,.F.);
#705=ORIENTED_EDGE('',*,*,#974,.F.);
#706=ORIENTED_EDGE('',*,*,#932,.T.);
#707=ORIENTED_EDGE('',*,*,#974,.T.);
#708=ORIENTED_EDGE('',*,*,#975,.F.);
#709=ORIENTED_EDGE('',*,*,#976,.F.);
#710=ORIENTED_EDGE('',*,*,#933,.T.);
#711=ORIENTED_EDGE('',*,*,#976,.T.);
#712=ORIENTED_EDGE('',*,*,#977,.F.);
#713=ORIENTED_EDGE('',*,*,#957,.F.);
#714=ORIENTED_EDGE('',*,*,#935,.T.);
#715=ORIENTED_EDGE('',*,*,#956,.T.);
#716=ORIENTED_EDGE('',*,*,#978,.F.);
#717=ORIENTED_EDGE('',*,*,#979,.F.);
#718=ORIENTED_EDGE('',*,*,#936,.T.);
#719=ORIENTED_EDGE('',*,*,#979,.T.);
#720=ORIENTED_EDGE('',*,*,#980,.F.);
#721=ORIENTED_EDGE('',*,*,#981,.F.);
#722=ORIENTED_EDGE('',*,*,#937,.T.);
#723=ORIENTED_EDGE('',*,*,#981,.T.);
#724=ORIENTED_EDGE('',*,*,#982,.F.);
#725=ORIENTED_EDGE('',*,*,#954,.F.);
#726=ORIENTED_EDGE('',*,*,#939,.T.);
#727=ORIENTED_EDGE('',*,*,#953,.T.);
#728=ORIENTED_EDGE('',*,*,#983,.F.);
#729=ORIENTED_EDGE('',*,*,#984,.F.);
#730=ORIENTED_EDGE('',*,*,#940,.T.);
#731=ORIENTED_EDGE('',*,*,#984,.T.);
#732=ORIENTED_EDGE('',*,*,#985,.F.);
#733=ORIENTED_EDGE('',*,*,#946,.F.);
#734=ORIENTED_EDGE('',*,*,#941,.F.);
#735=ORIENTED_EDGE('',*,*,#986,.F.);
#736=ORIENTED_EDGE('',*,*,#942,.F.);
#737=ORIENTED_EDGE('',*,*,#987,.F.);
#738=ORIENTED_EDGE('',*,*,#943,.F.);
#739=ORIENTED_EDGE('',*,*,#988,.F.);
#740=ORIENTED_EDGE('',*,*,#944,.F.);
#741=ORIENTED_EDGE('',*,*,#989,.F.);
#742=ORIENTED_EDGE('',*,*,#945,.F.);
#743=ORIENTED_EDGE('',*,*,#990,.T.);
#744=ORIENTED_EDGE('',*,*,#952,.T.);
#745=ORIENTED_EDGE('',*,*,#947,.T.);
#746=ORIENTED_EDGE('',*,*,#985,.T.);
#747=ORIENTED_EDGE('',*,*,#983,.T.);
#748=ORIENTED_EDGE('',*,*,#991,.F.);
#749=ORIENTED_EDGE('',*,*,#992,.T.);
#750=ORIENTED_EDGE('',*,*,#993,.T.);
#751=ORIENTED_EDGE('',*,*,#950,.F.);
#752=ORIENTED_EDGE('',*,*,#955,.T.);
#753=ORIENTED_EDGE('',*,*,#982,.T.);
#754=ORIENTED_EDGE('',*,*,#980,.T.);
#755=ORIENTED_EDGE('',*,*,#978,.T.);
#756=ORIENTED_EDGE('',*,*,#958,.T.);
#757=ORIENTED_EDGE('',*,*,#977,.T.);
#758=ORIENTED_EDGE('',*,*,#975,.T.);
#759=ORIENTED_EDGE('',*,*,#973,.T.);
#760=ORIENTED_EDGE('',*,*,#993,.F.);
#761=ORIENTED_EDGE('',*,*,#994,.T.);
#762=ORIENTED_EDGE('',*,*,#995,.T.);
#763=ORIENTED_EDGE('',*,*,#960,.T.);
#764=ORIENTED_EDGE('',*,*,#995,.F.);
#765=ORIENTED_EDGE('',*,*,#996,.T.);
#766=ORIENTED_EDGE('',*,*,#997,.T.);
#767=ORIENTED_EDGE('',*,*,#962,.F.);
#768=ORIENTED_EDGE('',*,*,#997,.F.);
#769=ORIENTED_EDGE('',*,*,#998,.T.);
#770=ORIENTED_EDGE('',*,*,#999,.T.);
#771=ORIENTED_EDGE('',*,*,#964,.T.);
#772=ORIENTED_EDGE('',*,*,#1000,.T.);
#773=ORIENTED_EDGE('',*,*,#967,.F.);
#774=ORIENTED_EDGE('',*,*,#999,.F.);
#775=ORIENTED_EDGE('',*,*,#1001,.T.);
#776=ORIENTED_EDGE('',*,*,#1000,.F.);
#777=ORIENTED_EDGE('',*,*,#1002,.T.);
#778=ORIENTED_EDGE('',*,*,#1003,.T.);
#779=ORIENTED_EDGE('',*,*,#968,.T.);
#780=ORIENTED_EDGE('',*,*,#1003,.F.);
#781=ORIENTED_EDGE('',*,*,#1004,.T.);
#782=ORIENTED_EDGE('',*,*,#1005,.T.);
#783=ORIENTED_EDGE('',*,*,#970,.F.);
#784=ORIENTED_EDGE('',*,*,#1005,.F.);
#785=ORIENTED_EDGE('',*,*,#1006,.T.);
#786=ORIENTED_EDGE('',*,*,#991,.T.);
#787=ORIENTED_EDGE('',*,*,#972,.T.);
#788=ORIENTED_EDGE('',*,*,#1002,.F.);
#789=ORIENTED_EDGE('',*,*,#1001,.F.);
#790=ORIENTED_EDGE('',*,*,#998,.F.);
#791=ORIENTED_EDGE('',*,*,#996,.F.);
#792=ORIENTED_EDGE('',*,*,#994,.F.);
#793=ORIENTED_EDGE('',*,*,#992,.F.);
#794=ORIENTED_EDGE('',*,*,#1006,.F.);
#795=ORIENTED_EDGE('',*,*,#1004,.F.);
#796=ORIENTED_EDGE('',*,*,#989,.T.);
#797=ORIENTED_EDGE('',*,*,#988,.T.);
#798=ORIENTED_EDGE('',*,*,#987,.T.);
#799=ORIENTED_EDGE('',*,*,#986,.T.);
#800=ORIENTED_EDGE('',*,*,#1007,.F.);
#801=ORIENTED_EDGE('',*,*,#990,.F.);
#802=ORIENTED_EDGE('',*,*,#1008,.F.);
#803=ORIENTED_EDGE('',*,*,#1009,.F.);
#804=ORIENTED_EDGE('',*,*,#1007,.T.);
#805=ORIENTED_EDGE('',*,*,#1010,.F.);
#806=ORIENTED_EDGE('',*,*,#1011,.F.);
#807=ORIENTED_EDGE('',*,*,#1012,.F.);
#808=ORIENTED_EDGE('',*,*,#1013,.F.);
#809=ORIENTED_EDGE('',*,*,#1014,.F.);
#810=ORIENTED_EDGE('',*,*,#1015,.F.);
#811=ORIENTED_EDGE('',*,*,#1016,.F.);
#812=ORIENTED_EDGE('',*,*,#1017,.F.);
#813=ORIENTED_EDGE('',*,*,#1008,.T.);
#814=ORIENTED_EDGE('',*,*,#1018,.T.);
#815=ORIENTED_EDGE('',*,*,#1019,.T.);
#816=ORIENTED_EDGE('',*,*,#1020,.T.);
#817=ORIENTED_EDGE('',*,*,#1021,.T.);
#818=ORIENTED_EDGE('',*,*,#1009,.T.);
#819=ORIENTED_EDGE('',*,*,#1022,.T.);
#820=ORIENTED_EDGE('',*,*,#1023,.F.);
#821=ORIENTED_EDGE('',*,*,#1010,.T.);
#822=ORIENTED_EDGE('',*,*,#1024,.T.);
#823=ORIENTED_EDGE('',*,*,#1025,.T.);
#824=ORIENTED_EDGE('',*,*,#1023,.T.);
#825=ORIENTED_EDGE('',*,*,#1026,.F.);
#826=ORIENTED_EDGE('',*,*,#1027,.F.);
#827=ORIENTED_EDGE('',*,*,#1011,.T.);
#828=ORIENTED_EDGE('',*,*,#1028,.F.);
#829=ORIENTED_EDGE('',*,*,#1012,.T.);
#830=ORIENTED_EDGE('',*,*,#1027,.T.);
#831=ORIENTED_EDGE('',*,*,#1029,.T.);
#832=ORIENTED_EDGE('',*,*,#1028,.T.);
#833=ORIENTED_EDGE('',*,*,#1030,.F.);
#834=ORIENTED_EDGE('',*,*,#1031,.F.);
#835=ORIENTED_EDGE('',*,*,#1013,.T.);
#836=ORIENTED_EDGE('',*,*,#1032,.F.);
#837=ORIENTED_EDGE('',*,*,#1014,.T.);
#838=ORIENTED_EDGE('',*,*,#1031,.T.);
#839=ORIENTED_EDGE('',*,*,#1033,.T.);
#840=ORIENTED_EDGE('',*,*,#1032,.T.);
#841=ORIENTED_EDGE('',*,*,#1034,.F.);
#842=ORIENTED_EDGE('',*,*,#1035,.F.);
#843=ORIENTED_EDGE('',*,*,#1015,.T.);
#844=ORIENTED_EDGE('',*,*,#1036,.F.);
#845=ORIENTED_EDGE('',*,*,#1016,.T.);
#846=ORIENTED_EDGE('',*,*,#1035,.T.);
#847=ORIENTED_EDGE('',*,*,#1037,.T.);
#848=ORIENTED_EDGE('',*,*,#1024,.F.);
#849=ORIENTED_EDGE('',*,*,#1017,.T.);
#850=ORIENTED_EDGE('',*,*,#1036,.T.);
#851=ORIENTED_EDGE('',*,*,#1038,.F.);
#852=ORIENTED_EDGE('',*,*,#1039,.F.);
#853=ORIENTED_EDGE('',*,*,#1018,.F.);
#854=ORIENTED_EDGE('',*,*,#1040,.F.);
#855=ORIENTED_EDGE('',*,*,#1019,.F.);
#856=ORIENTED_EDGE('',*,*,#1041,.F.);
#857=ORIENTED_EDGE('',*,*,#1020,.F.);
#858=ORIENTED_EDGE('',*,*,#1042,.F.);
#859=ORIENTED_EDGE('',*,*,#1021,.F.);
#860=ORIENTED_EDGE('',*,*,#1043,.T.);
#861=ORIENTED_EDGE('',*,*,#1044,.T.);
#862=ORIENTED_EDGE('',*,*,#1045,.T.);
#863=ORIENTED_EDGE('',*,*,#1046,.T.);
#864=ORIENTED_EDGE('',*,*,#1022,.F.);
#865=ORIENTED_EDGE('',*,*,#1047,.F.);
#866=ORIENTED_EDGE('',*,*,#1025,.F.);
#867=ORIENTED_EDGE('',*,*,#1048,.T.);
#868=ORIENTED_EDGE('',*,*,#1049,.T.);
#869=ORIENTED_EDGE('',*,*,#1047,.T.);
#870=ORIENTED_EDGE('',*,*,#1050,.F.);
#871=ORIENTED_EDGE('',*,*,#1051,.F.);
#872=ORIENTED_EDGE('',*,*,#1052,.F.);
#873=ORIENTED_EDGE('',*,*,#1026,.T.);
#874=ORIENTED_EDGE('',*,*,#1053,.F.);
#875=ORIENTED_EDGE('',*,*,#1029,.F.);
#876=ORIENTED_EDGE('',*,*,#1052,.T.);
#877=ORIENTED_EDGE('',*,*,#1054,.T.);
#878=ORIENTED_EDGE('',*,*,#1053,.T.);
#879=ORIENTED_EDGE('',*,*,#1055,.F.);
#880=ORIENTED_EDGE('',*,*,#1056,.F.);
#881=ORIENTED_EDGE('',*,*,#1057,.F.);
#882=ORIENTED_EDGE('',*,*,#1030,.T.);
#883=ORIENTED_EDGE('',*,*,#1058,.F.);
#884=ORIENTED_EDGE('',*,*,#1033,.F.);
#885=ORIENTED_EDGE('',*,*,#1057,.T.);
#886=ORIENTED_EDGE('',*,*,#1059,.T.);
#887=ORIENTED_EDGE('',*,*,#1058,.T.);
#888=ORIENTED_EDGE('',*,*,#1060,.F.);
#889=ORIENTED_EDGE('',*,*,#1061,.F.);
#890=ORIENTED_EDGE('',*,*,#1062,.F.);
#891=ORIENTED_EDGE('',*,*,#1034,.T.);
#892=ORIENTED_EDGE('',*,*,#1063,.F.);
#893=ORIENTED_EDGE('',*,*,#1037,.F.);
#894=ORIENTED_EDGE('',*,*,#1062,.T.);
#895=ORIENTED_EDGE('',*,*,#1064,.T.);
#896=ORIENTED_EDGE('',*,*,#1048,.F.);
#897=ORIENTED_EDGE('',*,*,#1038,.T.);
#898=ORIENTED_EDGE('',*,*,#1063,.T.);
#899=ORIENTED_EDGE('',*,*,#1065,.F.);
#900=ORIENTED_EDGE('',*,*,#1066,.F.);
#901=ORIENTED_EDGE('',*,*,#1054,.F.);
#902=ORIENTED_EDGE('',*,*,#1051,.T.);
#903=ORIENTED_EDGE('',*,*,#1045,.F.);
#904=ORIENTED_EDGE('',*,*,#1055,.T.);
#905=ORIENTED_EDGE('',*,*,#1039,.T.);
#906=ORIENTED_EDGE('',*,*,#1059,.F.);
#907=ORIENTED_EDGE('',*,*,#1056,.T.);
#908=ORIENTED_EDGE('',*,*,#1044,.F.);
#909=ORIENTED_EDGE('',*,*,#1060,.T.);
#910=ORIENTED_EDGE('',*,*,#1040,.T.);
#911=ORIENTED_EDGE('',*,*,#1049,.F.);
#912=ORIENTED_EDGE('',*,*,#1066,.T.);
#913=ORIENTED_EDGE('',*,*,#1046,.F.);
#914=ORIENTED_EDGE('',*,*,#1050,.T.);
#915=ORIENTED_EDGE('',*,*,#1041,.T.);
#916=ORIENTED_EDGE('',*,*,#1064,.F.);
#917=ORIENTED_EDGE('',*,*,#1061,.T.);
#918=ORIENTED_EDGE('',*,*,#1043,.F.);
#919=ORIENTED_EDGE('',*,*,#1065,.T.);
#920=ORIENTED_EDGE('',*,*,#1042,.T.);
#921=EDGE_CURVE('',#1067,#1068,#1069,.T.);
#922=EDGE_CURVE('',#1067,#1070,#1071,.T.);
#923=EDGE_CURVE('',#1072,#1070,#1073,.F.);
#924=EDGE_CURVE('',#1072,#1074,#1075,.T.);
#925=EDGE_CURVE('',#1076,#1074,#1077,.F.);
#926=EDGE_CURVE('',#1076,#1078,#1079,.T.);
#927=EDGE_CURVE('',#1080,#1078,#1081,.F.);
#928=EDGE_CURVE('',#1080,#1082,#1083,.T.);
#929=EDGE_CURVE('',#1084,#1082,#1085,.F.);
#930=EDGE_CURVE('',#1084,#1086,#1087,.T.);
#931=EDGE_CURVE('',#1088,#1086,#1089,.T.);
#932=EDGE_CURVE('',#1090,#1088,#1091,.T.);
#933=EDGE_CURVE('',#1092,#1090,#1093,.T.);
#934=EDGE_CURVE('',#1092,#1094,#1095,.T.);
#935=EDGE_CURVE('',#1096,#1094,#1097,.T.);
#936=EDGE_CURVE('',#1098,#1096,#1099,.T.);
#937=EDGE_CURVE('',#1100,#1098,#1101,.T.);
#938=EDGE_CURVE('',#1100,#1102,#1103,.T.);
#939=EDGE_CURVE('',#1104,#1102,#1105,.T.);
#940=EDGE_CURVE('',#1068,#1104,#1106,.T.);
#941=EDGE_CURVE('',#1107,#1107,#1108,.F.);
#942=EDGE_CURVE('',#1109,#1109,#1110,.F.);
#943=EDGE_CURVE('',#1111,#1111,#1112,.F.);
#944=EDGE_CURVE('',#1113,#1113,#1114,.F.);
#945=EDGE_CURVE('',#1115,#1115,#1116,.F.);
#946=EDGE_CURVE('',#1068,#1117,#1118,.T.);
#947=EDGE_CURVE('',#1119,#1117,#1120,.T.);
#948=EDGE_CURVE('',#1067,#1119,#1121,.T.);
#949=EDGE_CURVE('',#1122,#1084,#1123,.T.);
#950=EDGE_CURVE('',#1122,#1124,#1125,.T.);
#951=EDGE_CURVE('',#1124,#1070,#1126,.T.);
#952=EDGE_CURVE('',#1127,#1119,#1128,.T.);
#953=EDGE_CURVE('',#1102,#1127,#1129,.T.);
#954=EDGE_CURVE('',#1100,#1130,#1131,.T.);
#955=EDGE_CURVE('',#1132,#1130,#1133,.T.);
#956=EDGE_CURVE('',#1094,#1132,#1134,.T.);
#957=EDGE_CURVE('',#1092,#1135,#1136,.T.);
#958=EDGE_CURVE('',#1137,#1135,#1138,.T.);
#959=EDGE_CURVE('',#1086,#1137,#1139,.T.);
#960=EDGE_CURVE('',#1140,#1124,#1141,.F.);
#961=EDGE_CURVE('',#1140,#1072,#1142,.T.);
#962=EDGE_CURVE('',#1140,#1143,#1144,.T.);
#963=EDGE_CURVE('',#1143,#1074,#1145,.T.);
#964=EDGE_CURVE('',#1146,#1143,#1147,.F.);
#965=EDGE_CURVE('',#1146,#1076,#1148,.T.);
#966=EDGE_CURVE('',#1149,#1078,#1150,.T.);
#967=EDGE_CURVE('',#1146,#1149,#1151,.T.);
#968=EDGE_CURVE('',#1152,#1149,#1153,.F.);
#969=EDGE_CURVE('',#1152,#1080,#1154,.T.);
#970=EDGE_CURVE('',#1152,#1155,#1156,.T.);
#971=EDGE_CURVE('',#1155,#1082,#1157,.T.);
#972=EDGE_CURVE('',#1122,#1155,#1158,.F.);
#973=EDGE_CURVE('',#1159,#1137,#1160,.T.);
#974=EDGE_CURVE('',#1088,#1159,#1161,.T.);
#975=EDGE_CURVE('',#1162,#1159,#1163,.T.);
#976=EDGE_CURVE('',#1090,#1162,#1164,.T.);
#977=EDGE_CURVE('',#1135,#1162,#1165,.T.);
#978=EDGE_CURVE('',#1166,#1132,#1167,.T.);
#979=EDGE_CURVE('',#1096,#1166,#1168,.T.);
#980=EDGE_CURVE('',#1169,#1166,#1170,.T.);
#981=EDGE_CURVE('',#1098,#1169,#1171,.T.);
#982=EDGE_CURVE('',#1130,#1169,#1172,.T.);
#983=EDGE_CURVE('',#1173,#1127,#1174,.T.);
#984=EDGE_CURVE('',#1104,#1173,#1175,.T.);
#985=EDGE_CURVE('',#1117,#1173,#1176,.T.);
#986=EDGE_CURVE('',#1177,#1177,#1178,.T.);
#987=EDGE_CURVE('',#1179,#1179,#1180,.T.);
#988=EDGE_CURVE('',#1181,#1181,#1182,.T.);
#989=EDGE_CURVE('',#1183,#1183,#1184,.T.);
#990=EDGE_CURVE('',#1185,#1185,#1186,.F.);
#991=EDGE_CURVE('',#1187,#1122,#1188,.F.);
#992=EDGE_CURVE('',#1187,#1189,#1190,.T.);
#993=EDGE_CURVE('',#1189,#1124,#1191,.F.);
#994=EDGE_CURVE('',#1189,#1192,#1193,.F.);
#995=EDGE_CURVE('',#1192,#1140,#1194,.F.);
#996=EDGE_CURVE('',#1192,#1195,#1196,.T.);
#997=EDGE_CURVE('',#1195,#1143,#1197,.F.);
#998=EDGE_CURVE('',#1195,#1198,#1199,.F.);
#999=EDGE_CURVE('',#1198,#1146,#1200,.F.);
#1000=EDGE_CURVE('',#1201,#1149,#1202,.F.);
#1001=EDGE_CURVE('',#1198,#1201,#1203,.T.);
#1002=EDGE_CURVE('',#1201,#1204,#1205,.F.);
#1003=EDGE_CURVE('',#1204,#1152,#1206,.F.);
#1004=EDGE_CURVE('',#1204,#1207,#1208,.T.);
#1005=EDGE_CURVE('',#1207,#1155,#1209,.F.);
#1006=EDGE_CURVE('',#1207,#1187,#1210,.F.);
#1007=EDGE_CURVE('',#1211,#1211,#1212,.F.);
#1008=EDGE_CURVE('',#1213,#1213,#1214,.T.);
#1009=EDGE_CURVE('',#1215,#1215,#1216,.F.);
#1010=EDGE_CURVE('',#1217,#1218,#1219,.F.);
#1011=EDGE_CURVE('',#1220,#1217,#1221,.T.);
#1012=EDGE_CURVE('',#1222,#1220,#1223,.F.);
#1013=EDGE_CURVE('',#1224,#1222,#1225,.T.);
#1014=EDGE_CURVE('',#1226,#1224,#1227,.F.);
#1015=EDGE_CURVE('',#1228,#1226,#1229,.T.);
#1016=EDGE_CURVE('',#1230,#1228,#1231,.F.);
#1017=EDGE_CURVE('',#1218,#1230,#1232,.T.);
#1018=EDGE_CURVE('',#1233,#1233,#1234,.T.);
#1019=EDGE_CURVE('',#1235,#1235,#1236,.T.);
#1020=EDGE_CURVE('',#1237,#1237,#1238,.T.);
#1021=EDGE_CURVE('',#1239,#1239,#1240,.T.);
#1022=EDGE_CURVE('',#1241,#1241,#1242,.T.);
#1023=EDGE_CURVE('',#1217,#1243,#1244,.T.);
#1024=EDGE_CURVE('',#1218,#1245,#1246,.T.);
#1025=EDGE_CURVE('',#1245,#1243,#1247,.F.);
#1026=EDGE_CURVE('',#1248,#1243,#1249,.T.);
#1027=EDGE_CURVE('',#1220,#1248,#1250,.T.);
#1028=EDGE_CURVE('',#1222,#1251,#1252,.T.);
#1029=EDGE_CURVE('',#1248,#1251,#1253,.F.);
#1030=EDGE_CURVE('',#1254,#1251,#1255,.T.);
#1031=EDGE_CURVE('',#1224,#1254,#1256,.T.);
#1032=EDGE_CURVE('',#1226,#1257,#1258,.T.);
#1033=EDGE_CURVE('',#1254,#1257,#1259,.F.);
#1034=EDGE_CURVE('',#1260,#1257,#1261,.T.);
#1035=EDGE_CURVE('',#1228,#1260,#1262,.T.);
#1036=EDGE_CURVE('',#1230,#1263,#1264,.T.);
#1037=EDGE_CURVE('',#1260,#1263,#1265,.F.);
#1038=EDGE_CURVE('',#1245,#1263,#1266,.T.);
#1039=EDGE_CURVE('',#1267,#1267,#1268,.F.);
#1040=EDGE_CURVE('',#1269,#1269,#1270,.F.);
#1041=EDGE_CURVE('',#1271,#1271,#1272,.F.);
#1042=EDGE_CURVE('',#1273,#1273,#1274,.F.);
#1043=EDGE_CURVE('',#1275,#1276,#1277,.T.);
#1044=EDGE_CURVE('',#1276,#1278,#1279,.T.);
#1045=EDGE_CURVE('',#1278,#1280,#1281,.T.);
#1046=EDGE_CURVE('',#1280,#1275,#1282,.T.);
#1047=EDGE_CURVE('',#1243,#1283,#1284,.T.);
#1048=EDGE_CURVE('',#1245,#1285,#1286,.T.);
#1049=EDGE_CURVE('',#1285,#1283,#1287,.F.);
#1050=EDGE_CURVE('',#1280,#1283,#1288,.T.);
#1051=EDGE_CURVE('',#1289,#1280,#1290,.T.);
#1052=EDGE_CURVE('',#1248,#1289,#1291,.T.);
#1053=EDGE_CURVE('',#1251,#1292,#1293,.T.);
#1054=EDGE_CURVE('',#1289,#1292,#1294,.F.);
#1055=EDGE_CURVE('',#1278,#1292,#1295,.T.);
#1056=EDGE_CURVE('',#1296,#1278,#1297,.T.);
#1057=EDGE_CURVE('',#1254,#1296,#1298,.T.);
#1058=EDGE_CURVE('',#1257,#1299,#1300,.T.);
#1059=EDGE_CURVE('',#1296,#1299,#1301,.F.);
#1060=EDGE_CURVE('',#1276,#1299,#1302,.T.);
#1061=EDGE_CURVE('',#1303,#1276,#1304,.T.);
#1062=EDGE_CURVE('',#1260,#1303,#1305,.T.);
#1063=EDGE_CURVE('',#1263,#1306,#1307,.T.);
#1064=EDGE_CURVE('',#1303,#1306,#1308,.F.);
#1065=EDGE_CURVE('',#1275,#1306,#1309,.T.);
#1066=EDGE_CURVE('',#1285,#1275,#1310,.T.);
#1067=VERTEX_POINT('',#1311);
#1068=VERTEX_POINT('',#1312);
#1069=LINE('',#1313,#1314);
#1070=VERTEX_POINT('',#1316);
#1071=LINE('',#1317,#1318);
#1072=VERTEX_POINT('',#1320);
#1073=CIRCLE('',#1321,4.);
#1074=VERTEX_POINT('',#1325);
#1075=LINE('',#1326,#1327);
#1076=VERTEX_POINT('',#1329);
#1077=CIRCLE('',#1330,4.);
#1078=VERTEX_POINT('',#1334);
#1079=LINE('',#1335,#1336);
#1080=VERTEX_POINT('',#1338);
#1081=CIRCLE('',#1339,4.);
#1082=VERTEX_POINT('',#1343);
#1083=LINE('',#1344,#1345);
#1084=VERTEX_POINT('',#1347);
#1085=CIRCLE('',#1348,4.);
#1086=VERTEX_POINT('',#1352);
#1087=LINE('',#1353,#1354);
#1088=VERTEX_POINT('',#1356);
#1089=LINE('',#1357,#1358);
#1090=VERTEX_POINT('',#1360);
#1091=LINE('',#1361,#1362);
#1092=VERTEX_POINT('',#1364);
#1093=LINE('',#1365,#1366);
#1094=VERTEX_POINT('',#1368);
#1095=LINE('',#1369,#1370);
#1096=VERTEX_POINT('',#1372);
#1097=LINE('',#1373,#1374);
#1098=VERTEX_POINT('',#1376);
#1099=LINE('',#1377,#1378);
#1100=VERTEX_POINT('',#1380);
#1101=LINE('',#1381,#1382);
#1102=VERTEX_POINT('',#1384);
#1103=LINE('',#1385,#1386);
#1104=VERTEX_POINT('',#1388);
#1105=LINE('',#1389,#1390);
#1106=LINE('',#1392,#1393);
#1107=VERTEX_POINT('',#1395);
#1108=CIRCLE('',#1396,2.1);
#1109=VERTEX_POINT('',#1400);
#1110=CIRCLE('',#1401,2.1);
#1111=VERTEX_POINT('',#1405);
#1112=CIRCLE('',#1406,2.1);
#1113=VERTEX_POINT('',#1410);
#1114=CIRCLE('',#1411,2.1);
#1115=VERTEX_POINT('',#1415);
#1116=CIRCLE('',#1416,26.5);
#1117=VERTEX_POINT('',#1420);
#1118=LINE('',#1421,#1422);
#1119=VERTEX_POINT('',#1424);
#1120=LINE('',#1425,#1426);
#1121=LINE('',#1428,#1429);
#1122=VERTEX_POINT('',#1431);
#1123=LINE('',#1432,#1433);
#1124=VERTEX_POINT('',#1435);
#1125=LINE('',#1436,#1437);
#1126=LINE('',#1439,#1440);
#1127=VERTEX_POINT('',#1442);
#1128=LINE('',#1443,#1444);
#1129=LINE('',#1446,#1447);
#1130=VERTEX_POINT('',#1449);
#1131=LINE('',#1450,#1451);
#1132=VERTEX_POINT('',#1453);
#1133=LINE('',#1454,#1455);
#1134=LINE('',#1457,#1458);
#1135=VERTEX_POINT('',#1460);
#1136=LINE('',#1461,#1462);
#1137=VERTEX_POINT('',#1464);
#1138=LINE('',#1465,#1466);
#1139=LINE('',#1468,#1469);
#1140=VERTEX_POINT('',#1471);
#1141=CIRCLE('',#1472,4.);
#1142=LINE('',#1476,#1477);
#1143=VERTEX_POINT('',#1479);
#1144=LINE('',#1480,#1481);
#1145=LINE('',#1483,#1484);
#1146=VERTEX_POINT('',#1486);
#1147=CIRCLE('',#1487,4.);
#1148=LINE('',#1491,#1492);
#1149=VERTEX_POINT('',#1494);
#1150=LINE('',#1495,#1496);
#1151=LINE('',#1498,#1499);
#1152=VERTEX_POINT('',#1501);
#1153=CIRCLE('',#1502,4.);
#1154=LINE('',#1506,#1507);
#1155=VERTEX_POINT('',#1509);
#1156=LINE('',#1510,#1511);
#1157=LINE('',#1513,#1514);
#1158=CIRCLE('',#1516,4.);
#1159=VERTEX_POINT('',#1520);
#1160=LINE('',#1521,#1522);
#1161=LINE('',#1524,#1525);
#1162=VERTEX_POINT('',#1527);
#1163=LINE('',#1528,#1529);
#1164=LINE('',#1531,#1532);
#1165=LINE('',#1534,#1535);
#1166=VERTEX_POINT('',#1537);
#1167=LINE('',#1538,#1539);
#1168=LINE('',#1541,#1542);
#1169=VERTEX_POINT('',#1544);
#1170=LINE('',#1545,#1546);
#1171=LINE('',#1548,#1549);
#1172=LINE('',#1551,#1552);
#1173=VERTEX_POINT('',#1554);
#1174=LINE('',#1555,#1556);
#1175=LINE('',#1558,#1559);
#1176=LINE('',#1561,#1562);
#1177=VERTEX_POINT('',#1564);
#1178=CIRCLE('',#1565,2.1);
#1179=VERTEX_POINT('',#1569);
#1180=CIRCLE('',#1570,2.1);
#1181=VERTEX_POINT('',#1574);
#1182=CIRCLE('',#1575,2.1);
#1183=VERTEX_POINT('',#1579);
#1184=CIRCLE('',#1580,2.1);
#1185=VERTEX_POINT('',#1584);
#1186=CIRCLE('',#1585,17.5);
#1187=VERTEX_POINT('',#1589);
#1188=CIRCLE('',#1590,2.);
#1189=VERTEX_POINT('',#1594);
#1190=LINE('',#1595,#1596);
#1191=CIRCLE('',#1598,2.);
#1192=VERTEX_POINT('',#1602);
#1193=CIRCLE('',#1603,2.);
#1194=CIRCLE('',#1607,2.);
#1195=VERTEX_POINT('',#1611);
#1196=LINE('',#1612,#1613);
#1197=CIRCLE('',#1615,2.);
#1198=VERTEX_POINT('',#1619);
#1199=CIRCLE('',#1620,1.99999999999999);
#1200=CIRCLE('',#1624,2.);
#1201=VERTEX_POINT('',#1628);
#1202=CIRCLE('',#1629,2.);
#1203=LINE('',#1633,#1634);
#1204=VERTEX_POINT('',#1636);
#1205=CIRCLE('',#1637,2.);
#1206=CIRCLE('',#1641,2.);
#1207=VERTEX_POINT('',#1645);
#1208=LINE('',#1646,#1647);
#1209=CIRCLE('',#1649,2.);
#1210=CIRCLE('',#1653,1.99999999999999);
#1211=VERTEX_POINT('',#1657);
#1212=CIRCLE('',#1658,28.);
#1213=VERTEX_POINT('',#1662);
#1214=CIRCLE('',#1663,17.5);
#1215=VERTEX_POINT('',#1667);
#1216=CIRCLE('',#1668,20.);
#1217=VERTEX_POINT('',#1672);
#1218=VERTEX_POINT('',#1673);
#1219=CIRCLE('',#1674,4.);
#1220=VERTEX_POINT('',#1678);
#1221=LINE('',#1679,#1680);
#1222=VERTEX_POINT('',#1682);
#1223=CIRCLE('',#1683,4.);
#1224=VERTEX_POINT('',#1687);
#1225=LINE('',#1688,#1689);
#1226=VERTEX_POINT('',#1691);
#1227=CIRCLE('',#1692,3.99999999999999);
#1228=VERTEX_POINT('',#1696);
#1229=LINE('',#1697,#1698);
#1230=VERTEX_POINT('',#1700);
#1231=CIRCLE('',#1701,3.99999999999999);
#1232=LINE('',#1705,#1706);
#1233=VERTEX_POINT('',#1708);
#1234=CIRCLE('',#1709,2.1);
#1235=VERTEX_POINT('',#1713);
#1236=CIRCLE('',#1714,2.1);
#1237=VERTEX_POINT('',#1718);
#1238=CIRCLE('',#1719,2.1);
#1239=VERTEX_POINT('',#1723);
#1240=CIRCLE('',#1724,2.1);
#1241=VERTEX_POINT('',#1728);
#1242=CIRCLE('',#1729,20.);
#1243=VERTEX_POINT('',#1733);
#1244=LINE('',#1734,#1735);
#1245=VERTEX_POINT('',#1737);
#1246=LINE('',#1738,#1739);
#1247=CIRCLE('',#1741,4.);
#1248=VERTEX_POINT('',#1745);
#1249=LINE('',#1746,#1747);
#1250=LINE('',#1749,#1750);
#1251=VERTEX_POINT('',#1752);
#1252=LINE('',#1753,#1754);
#1253=CIRCLE('',#1756,4.);
#1254=VERTEX_POINT('',#1760);
#1255=LINE('',#1761,#1762);
#1256=LINE('',#1764,#1765);
#1257=VERTEX_POINT('',#1767);
#1258=LINE('',#1768,#1769);
#1259=CIRCLE('',#1771,4.);
#1260=VERTEX_POINT('',#1775);
#1261=LINE('',#1776,#1777);
#1262=LINE('',#1779,#1780);
#1263=VERTEX_POINT('',#1782);
#1264=LINE('',#1783,#1784);
#1265=CIRCLE('',#1786,4.);
#1266=LINE('',#1790,#1791);
#1267=VERTEX_POINT('',#1793);
#1268=CIRCLE('',#1794,2.1);
#1269=VERTEX_POINT('',#1798);
#1270=CIRCLE('',#1799,2.1);
#1271=VERTEX_POINT('',#1803);
#1272=CIRCLE('',#1804,2.1);
#1273=VERTEX_POINT('',#1808);
#1274=CIRCLE('',#1809,2.1);
#1275=VERTEX_POINT('',#1813);
#1276=VERTEX_POINT('',#1814);
#1277=CIRCLE('',#1815,23.);
#1278=VERTEX_POINT('',#1819);
#1279=CIRCLE('',#1820,23.);
#1280=VERTEX_POINT('',#1824);
#1281=CIRCLE('',#1825,23.);
#1282=CIRCLE('',#1829,23.);
#1283=VERTEX_POINT('',#1833);
#1284=CIRCLE('',#1834,2.);
#1285=VERTEX_POINT('',#1838);
#1286=CIRCLE('',#1839,2.);
#1287=CIRCLE('',#1843,2.);
#1288=LINE('',#1847,#1848);
#1289=VERTEX_POINT('',#1850);
#1290=LINE('',#1851,#1852);
#1291=CIRCLE('',#1854,2.);
#1292=VERTEX_POINT('',#1858);
#1293=CIRCLE('',#1859,2.);
#1294=CIRCLE('',#1863,2.);
#1295=LINE('',#1867,#1868);
#1296=VERTEX_POINT('',#1870);
#1297=LINE('',#1871,#1872);
#1298=CIRCLE('',#1874,2.);
#1299=VERTEX_POINT('',#1878);
#1300=CIRCLE('',#1879,2.);
#1301=CIRCLE('',#1883,2.);
#1302=LINE('',#1887,#1888);
#1303=VERTEX_POINT('',#1890);
#1304=LINE('',#1891,#1892);
#1305=CIRCLE('',#1894,2.);
#1306=VERTEX_POINT('',#1898);
#1307=CIRCLE('',#1899,2.);
#1308=CIRCLE('',#1903,1.99999999999999);
#1309=LINE('',#1907,#1908);
#1310=LINE('',#1910,#1911);
#1311=CARTESIAN_POINT('',(-40.75,-13.8,25.));
#1312=CARTESIAN_POINT('',(-32.75,-13.8,25.));
#1313=CARTESIAN_POINT('',(-40.75,-13.8,25.));
#1314=VECTOR('',#1315,1.);
#1315=DIRECTION('',(1.,0.,0.));
#1316=CARTESIAN_POINT('',(-40.75,-31.05,25.));
#1317=CARTESIAN_POINT('',(-40.75,-13.8,25.));
#1318=VECTOR('',#1319,1.);
#1319=DIRECTION('',(0.,-1.,0.));
#1320=CARTESIAN_POINT('',(-36.75,-35.05,25.));
#1321=AXIS2_PLACEMENT_3D('',#1322,#1323,#1324);
#1322=CARTESIAN_POINT('',(-36.75,-31.05,25.));
#1323=DIRECTION('',(0.,0.,1.));
#1324=DIRECTION('',(-1.,5.32907051820075E-15,0.));
#1325=CARTESIAN_POINT('',(36.75,-35.05,25.));
#1326=CARTESIAN_POINT('',(-36.75,-35.05,25.));
#1327=VECTOR('',#1328,1.);
#1328=DIRECTION('',(1.,0.,0.));
#1329=CARTESIAN_POINT('',(40.75,-31.05,25.));
#1330=AXIS2_PLACEMENT_3D('',#1331,#1332,#1333);
#1331=CARTESIAN_POINT('',(36.75,-31.05,25.));
#1332=DIRECTION('',(0.,0.,1.));
#1333=DIRECTION('',(0.,-1.,0.));
#1334=CARTESIAN_POINT('',(40.75,31.05,25.));
#1335=CARTESIAN_POINT('',(40.75,-31.05,25.));
#1336=VECTOR('',#1337,1.);
#1337=DIRECTION('',(0.,1.,0.));
#1338=CARTESIAN_POINT('',(36.75,35.05,25.));
#1339=AXIS2_PLACEMENT_3D('',#1340,#1341,#1342);
#1340=CARTESIAN_POINT('',(36.75,31.05,25.));
#1341=DIRECTION('',(0.,0.,1.));
#1342=DIRECTION('',(1.,-4.44089209850063E-15,0.));
#1343=CARTESIAN_POINT('',(-36.75,35.05,25.));
#1344=CARTESIAN_POINT('',(36.75,35.05,25.));
#1345=VECTOR('',#1346,1.);
#1346=DIRECTION('',(-1.,0.,0.));
#1347=CARTESIAN_POINT('',(-40.75,31.05,25.));
#1348=AXIS2_PLACEMENT_3D('',#1349,#1350,#1351);
#1349=CARTESIAN_POINT('',(-36.75,31.05,25.));
#1350=DIRECTION('',(0.,0.,1.));
#1351=DIRECTION('',(0.,1.,0.));
#1352=CARTESIAN_POINT('',(-40.75,13.7,25.));
#1353=CARTESIAN_POINT('',(-40.75,31.05,25.));
#1354=VECTOR('',#1355,1.);
#1355=DIRECTION('',(0.,-1.,0.));
#1356=CARTESIAN_POINT('',(-32.75,13.7,25.));
#1357=CARTESIAN_POINT('',(-32.75,13.7,25.));
#1358=VECTOR('',#1359,1.);
#1359=DIRECTION('',(-1.,0.,0.));
#1360=CARTESIAN_POINT('',(-32.75,10.3,25.));
#1361=CARTESIAN_POINT('',(-32.75,10.3,25.));
#1362=VECTOR('',#1363,1.);
#1363=DIRECTION('',(0.,1.,0.));
#1364=CARTESIAN_POINT('',(-40.75,10.3,25.));
#1365=CARTESIAN_POINT('',(-40.75,10.3,25.));
#1366=VECTOR('',#1367,1.);
#1367=DIRECTION('',(1.,0.,0.));
#1368=CARTESIAN_POINT('',(-40.75,1.65000000000001,25.));
#1369=CARTESIAN_POINT('',(-40.75,10.3,25.));
#1370=VECTOR('',#1371,1.);
#1371=DIRECTION('',(0.,-1.,0.));
#1372=CARTESIAN_POINT('',(-32.75,1.65000000000001,25.));
#1373=CARTESIAN_POINT('',(-32.75,1.65000000000001,25.));
#1374=VECTOR('',#1375,1.);
#1375=DIRECTION('',(-1.,2.77555756156289E-17,0.));
#1376=CARTESIAN_POINT('',(-32.75,-1.74999999999999,25.));
#1377=CARTESIAN_POINT('',(-32.75,-1.74999999999999,25.));
#1378=VECTOR('',#1379,1.);
#1379=DIRECTION('',(0.,1.,0.));
#1380=CARTESIAN_POINT('',(-40.75,-1.74999999999999,25.));
#1381=CARTESIAN_POINT('',(-40.75,-1.74999999999999,25.));
#1382=VECTOR('',#1383,1.);
#1383=DIRECTION('',(1.,-2.77555756156289E-17,0.));
#1384=CARTESIAN_POINT('',(-40.75,-10.4,25.));
#1385=CARTESIAN_POINT('',(-40.75,-1.74999999999999,25.));
#1386=VECTOR('',#1387,1.);
#1387=DIRECTION('',(0.,-1.,0.));
#1388=CARTESIAN_POINT('',(-32.75,-10.4,25.));
#1389=CARTESIAN_POINT('',(-32.75,-10.4,25.));
#1390=VECTOR('',#1391,1.);
#1391=DIRECTION('',(-1.,0.,0.));
#1392=CARTESIAN_POINT('',(-32.75,-13.8,25.));
#1393=VECTOR('',#1394,1.);
#1394=DIRECTION('',(0.,1.,0.));
#1395=CARTESIAN_POINT('',(35.75,-27.95,25.));
#1396=AXIS2_PLACEMENT_3D('',#1397,#1398,#1399);
#1397=CARTESIAN_POINT('',(35.75,-30.05,25.));
#1398=DIRECTION('',(0.,0.,1.));
#1399=DIRECTION('',(6.12323399573677E-17,1.,0.));
#1400=CARTESIAN_POINT('',(-35.75,-27.95,25.));
#1401=AXIS2_PLACEMENT_3D('',#1402,#1403,#1404);
#1402=CARTESIAN_POINT('',(-35.75,-30.05,25.));
#1403=DIRECTION('',(0.,0.,1.));
#1404=DIRECTION('',(6.12323399573677E-17,1.,0.));
#1405=CARTESIAN_POINT('',(35.75,32.15,25.));
#1406=AXIS2_PLACEMENT_3D('',#1407,#1408,#1409);
#1407=CARTESIAN_POINT('',(35.75,30.05,25.));
#1408=DIRECTION('',(0.,0.,1.));
#1409=DIRECTION('',(6.12323399573677E-17,1.,0.));
#1410=CARTESIAN_POINT('',(-35.75,32.15,25.));
#1411=AXIS2_PLACEMENT_3D('',#1412,#1413,#1414);
#1412=CARTESIAN_POINT('',(-35.75,30.05,25.));
#1413=DIRECTION('',(0.,0.,1.));
#1414=DIRECTION('',(6.12323399573677E-17,1.,0.));
#1415=CARTESIAN_POINT('',(8.42068470541123E-15,26.5,25.));
#1416=AXIS2_PLACEMENT_3D('',#1417,#1418,#1419);
#1417=CARTESIAN_POINT('',(3.5527136788005E-15,-2.17540971751503E-31,25.));
#1418=DIRECTION('',(0.,0.,1.));
#1419=DIRECTION('',(6.12323399573677E-17,1.,0.));
#1420=CARTESIAN_POINT('',(-32.75,-13.8,28.5));
#1421=CARTESIAN_POINT('',(-32.75,-13.8,25.));
#1422=VECTOR('',#1423,1.);
#1423=DIRECTION('',(0.,0.,1.));
#1424=CARTESIAN_POINT('',(-40.75,-13.8,28.5));
#1425=CARTESIAN_POINT('',(-40.75,-13.8,28.5));
#1426=VECTOR('',#1427,1.);
#1427=DIRECTION('',(1.,-2.22044604925031E-16,0.));
#1428=CARTESIAN_POINT('',(-40.75,-13.8,25.));
#1429=VECTOR('',#1430,1.);
#1430=DIRECTION('',(0.,0.,1.));
#1431=CARTESIAN_POINT('',(-40.75,31.05,22.));
#1432=CARTESIAN_POINT('',(-40.75,31.05,22.));
#1433=VECTOR('',#1434,1.);
#1434=DIRECTION('',(0.,0.,1.));
#1435=CARTESIAN_POINT('',(-40.75,-31.05,22.));
#1436=CARTESIAN_POINT('',(-40.75,31.05,22.));
#1437=VECTOR('',#1438,1.);
#1438=DIRECTION('',(0.,-1.,0.));
#1439=CARTESIAN_POINT('',(-40.75,-31.05,22.));
#1440=VECTOR('',#1441,1.);
#1441=DIRECTION('',(0.,0.,1.));
#1442=CARTESIAN_POINT('',(-40.75,-10.4,28.5));
#1443=CARTESIAN_POINT('',(-40.75,-10.4,28.5));
#1444=VECTOR('',#1445,1.);
#1445=DIRECTION('',(0.,-1.,0.));
#1446=CARTESIAN_POINT('',(-40.75,-10.4,25.));
#1447=VECTOR('',#1448,1.);
#1448=DIRECTION('',(0.,0.,1.));
#1449=CARTESIAN_POINT('',(-40.75,-1.74999999999999,28.5));
#1450=CARTESIAN_POINT('',(-40.75,-1.74999999999999,25.));
#1451=VECTOR('',#1452,1.);
#1452=DIRECTION('',(0.,0.,1.));
#1453=CARTESIAN_POINT('',(-40.75,1.65000000000001,28.5));
#1454=CARTESIAN_POINT('',(-40.75,1.65000000000001,28.5));
#1455=VECTOR('',#1456,1.);
#1456=DIRECTION('',(0.,-1.,0.));
#1457=CARTESIAN_POINT('',(-40.75,1.65000000000001,25.));
#1458=VECTOR('',#1459,1.);
#1459=DIRECTION('',(0.,0.,1.));
#1460=CARTESIAN_POINT('',(-40.75,10.3,28.5));
#1461=CARTESIAN_POINT('',(-40.75,10.3,25.));
#1462=VECTOR('',#1463,1.);
#1463=DIRECTION('',(0.,0.,1.));
#1464=CARTESIAN_POINT('',(-40.75,13.7,28.5));
#1465=CARTESIAN_POINT('',(-40.75,13.7,28.5));
#1466=VECTOR('',#1467,1.);
#1467=DIRECTION('',(0.,-1.,0.));
#1468=CARTESIAN_POINT('',(-40.75,13.7,25.));
#1469=VECTOR('',#1470,1.);
#1470=DIRECTION('',(0.,0.,1.));
#1471=CARTESIAN_POINT('',(-36.75,-35.05,22.));
#1472=AXIS2_PLACEMENT_3D('',#1473,#1474,#1475);
#1473=CARTESIAN_POINT('',(-36.75,-31.05,22.));
#1474=DIRECTION('',(0.,0.,1.));
#1475=DIRECTION('',(-1.,-6.12323399573677E-17,0.));
#1476=CARTESIAN_POINT('',(-36.75,-35.05,22.));
#1477=VECTOR('',#1478,1.);
#1478=DIRECTION('',(0.,0.,1.));
#1479=CARTESIAN_POINT('',(36.75,-35.05,22.));
#1480=CARTESIAN_POINT('',(-36.75,-35.05,22.));
#1481=VECTOR('',#1482,1.);
#1482=DIRECTION('',(1.,0.,0.));
#1483=CARTESIAN_POINT('',(36.75,-35.05,22.));
#1484=VECTOR('',#1485,1.);
#1485=DIRECTION('',(0.,0.,1.));
#1486=CARTESIAN_POINT('',(40.75,-31.05,22.));
#1487=AXIS2_PLACEMENT_3D('',#1488,#1489,#1490);
#1488=CARTESIAN_POINT('',(36.75,-31.05,22.));
#1489=DIRECTION('',(0.,0.,1.));
#1490=DIRECTION('',(6.12323399573677E-17,-1.,0.));
#1491=CARTESIAN_POINT('',(40.75,-31.05,22.));
#1492=VECTOR('',#1493,1.);
#1493=DIRECTION('',(0.,0.,1.));
#1494=CARTESIAN_POINT('',(40.75,31.05,22.));
#1495=CARTESIAN_POINT('',(40.75,31.05,22.));
#1496=VECTOR('',#1497,1.);
#1497=DIRECTION('',(0.,0.,1.));
#1498=CARTESIAN_POINT('',(40.75,-31.05,22.));
#1499=VECTOR('',#1500,1.);
#1500=DIRECTION('',(0.,1.,0.));
#1501=CARTESIAN_POINT('',(36.75,35.05,22.));
#1502=AXIS2_PLACEMENT_3D('',#1503,#1504,#1505);
#1503=CARTESIAN_POINT('',(36.75,31.05,22.));
#1504=DIRECTION('',(0.,0.,1.));
#1505=DIRECTION('',(1.,6.12323399573677E-17,0.));
#1506=CARTESIAN_POINT('',(36.75,35.05,22.));
#1507=VECTOR('',#1508,1.);
#1508=DIRECTION('',(0.,0.,1.));
#1509=CARTESIAN_POINT('',(-36.75,35.05,22.));
#1510=CARTESIAN_POINT('',(36.75,35.05,22.));
#1511=VECTOR('',#1512,1.);
#1512=DIRECTION('',(-1.,0.,0.));
#1513=CARTESIAN_POINT('',(-36.75,35.05,22.));
#1514=VECTOR('',#1515,1.);
#1515=DIRECTION('',(0.,0.,1.));
#1516=AXIS2_PLACEMENT_3D('',#1517,#1518,#1519);
#1517=CARTESIAN_POINT('',(-36.75,31.05,22.));
#1518=DIRECTION('',(0.,0.,1.));
#1519=DIRECTION('',(-6.12323399573677E-17,1.,0.));
#1520=CARTESIAN_POINT('',(-32.75,13.7,28.5));
#1521=CARTESIAN_POINT('',(-32.75,13.7,28.5));
#1522=VECTOR('',#1523,1.);
#1523=DIRECTION('',(-1.,0.,0.));
#1524=CARTESIAN_POINT('',(-32.75,13.7,25.));
#1525=VECTOR('',#1526,1.);
#1526=DIRECTION('',(0.,0.,1.));
#1527=CARTESIAN_POINT('',(-32.75,10.3,28.5));
#1528=CARTESIAN_POINT('',(-32.75,10.3,28.5));
#1529=VECTOR('',#1530,1.);
#1530=DIRECTION('',(0.,1.,0.));
#1531=CARTESIAN_POINT('',(-32.75,10.3,25.));
#1532=VECTOR('',#1533,1.);
#1533=DIRECTION('',(0.,0.,1.));
#1534=CARTESIAN_POINT('',(-40.75,10.3,28.5));
#1535=VECTOR('',#1536,1.);
#1536=DIRECTION('',(1.,0.,0.));
#1537=CARTESIAN_POINT('',(-32.75,1.65000000000001,28.5));
#1538=CARTESIAN_POINT('',(-32.75,1.65000000000001,28.5));
#1539=VECTOR('',#1540,1.);
#1540=DIRECTION('',(-1.,5.55111512312578E-17,0.));
#1541=CARTESIAN_POINT('',(-32.75,1.65000000000001,25.));
#1542=VECTOR('',#1543,1.);
#1543=DIRECTION('',(0.,0.,1.));
#1544=CARTESIAN_POINT('',(-32.75,-1.74999999999999,28.5));
#1545=CARTESIAN_POINT('',(-32.75,-1.74999999999999,28.5));
#1546=VECTOR('',#1547,1.);
#1547=DIRECTION('',(0.,1.,0.));
#1548=CARTESIAN_POINT('',(-32.75,-1.74999999999999,25.));
#1549=VECTOR('',#1550,1.);
#1550=DIRECTION('',(0.,0.,1.));
#1551=CARTESIAN_POINT('',(-40.75,-1.74999999999999,28.5));
#1552=VECTOR('',#1553,1.);
#1553=DIRECTION('',(1.,-5.55111512312578E-17,0.));
#1554=CARTESIAN_POINT('',(-32.75,-10.4,28.5));
#1555=CARTESIAN_POINT('',(-32.75,-10.4,28.5));
#1556=VECTOR('',#1557,1.);
#1557=DIRECTION('',(-1.,0.,0.));
#1558=CARTESIAN_POINT('',(-32.75,-10.4,25.));
#1559=VECTOR('',#1560,1.);
#1560=DIRECTION('',(0.,0.,1.));
#1561=CARTESIAN_POINT('',(-32.75,-13.8,28.5));
#1562=VECTOR('',#1563,1.);
#1563=DIRECTION('',(0.,1.,0.));
#1564=CARTESIAN_POINT('',(35.75,-27.95,20.));
#1565=AXIS2_PLACEMENT_3D('',#1566,#1567,#1568);
#1566=CARTESIAN_POINT('',(35.75,-30.05,20.));
#1567=DIRECTION('',(0.,0.,1.));
#1568=DIRECTION('',(6.12323399573677E-17,1.,0.));
#1569=CARTESIAN_POINT('',(-35.75,-27.95,20.));
#1570=AXIS2_PLACEMENT_3D('',#1571,#1572,#1573);
#1571=CARTESIAN_POINT('',(-35.75,-30.05,20.));
#1572=DIRECTION('',(0.,0.,1.));
#1573=DIRECTION('',(6.12323399573677E-17,1.,0.));
#1574=CARTESIAN_POINT('',(35.75,32.15,20.));
#1575=AXIS2_PLACEMENT_3D('',#1576,#1577,#1578);
#1576=CARTESIAN_POINT('',(35.75,30.05,20.));
#1577=DIRECTION('',(0.,0.,1.));
#1578=DIRECTION('',(6.12323399573677E-17,1.,0.));
#1579=CARTESIAN_POINT('',(-35.75,32.15,20.));
#1580=AXIS2_PLACEMENT_3D('',#1581,#1582,#1583);
#1581=CARTESIAN_POINT('',(-35.75,30.05,20.));
#1582=DIRECTION('',(0.,0.,1.));
#1583=DIRECTION('',(6.12323399573677E-17,1.,0.));
#1584=CARTESIAN_POINT('',(6.7674115265623E-15,17.5,16.));
#1585=AXIS2_PLACEMENT_3D('',#1586,#1587,#1588);
#1586=CARTESIAN_POINT('',(3.5527136788005E-15,-2.17540971751503E-31,16.));
#1587=DIRECTION('',(0.,0.,1.));
#1588=DIRECTION('',(6.12323399573677E-17,1.,0.));
#1589=CARTESIAN_POINT('',(-38.75,31.05,20.));
#1590=AXIS2_PLACEMENT_3D('',#1591,#1592,#1593);
#1591=CARTESIAN_POINT('',(-38.75,31.05,22.));
#1592=DIRECTION('',(0.,-1.,0.));
#1593=DIRECTION('',(-1.,0.,6.04901474817726E-16));
#1594=CARTESIAN_POINT('',(-38.75,-31.05,20.));
#1595=CARTESIAN_POINT('',(-38.75,31.05,20.));
#1596=VECTOR('',#1597,1.);
#1597=DIRECTION('',(0.,-1.,0.));
#1598=AXIS2_PLACEMENT_3D('',#1599,#1600,#1601);
#1599=CARTESIAN_POINT('',(-38.75,-31.05,22.));
#1600=DIRECTION('',(0.,-1.,0.));
#1601=DIRECTION('',(-1.,0.,3.82856869892695E-16));
#1602=CARTESIAN_POINT('',(-36.75,-33.05,20.));
#1603=AXIS2_PLACEMENT_3D('',#1604,#1605,#1606);
#1604=CARTESIAN_POINT('',(-36.75,-31.05,20.));
#1605=DIRECTION('',(0.,0.,-1.));
#1606=DIRECTION('',(0.,-1.,0.));
#1607=AXIS2_PLACEMENT_3D('',#1608,#1609,#1610);
#1608=CARTESIAN_POINT('',(-36.75,-33.05,22.));
#1609=DIRECTION('',(1.,0.,0.));
#1610=DIRECTION('',(0.,-1.,6.04901474817726E-16));
#1611=CARTESIAN_POINT('',(36.75,-33.05,20.));
#1612=CARTESIAN_POINT('',(-36.75,-33.05,20.));
#1613=VECTOR('',#1614,1.);
#1614=DIRECTION('',(1.,0.,0.));
#1615=AXIS2_PLACEMENT_3D('',#1616,#1617,#1618);
#1616=CARTESIAN_POINT('',(36.75,-33.05,22.));
#1617=DIRECTION('',(1.,0.,0.));
#1618=DIRECTION('',(0.,-1.,3.82856869892695E-16));
#1619=CARTESIAN_POINT('',(38.75,-31.05,20.));
#1620=AXIS2_PLACEMENT_3D('',#1621,#1622,#1623);
#1621=CARTESIAN_POINT('',(36.75,-31.05,20.));
#1622=DIRECTION('',(0.,0.,-1.));
#1623=DIRECTION('',(1.,-1.77635683940026E-15,0.));
#1624=AXIS2_PLACEMENT_3D('',#1625,#1626,#1627);
#1625=CARTESIAN_POINT('',(38.75,-31.05,22.));
#1626=DIRECTION('',(0.,1.,0.));
#1627=DIRECTION('',(1.,0.,6.04901474817726E-16));
#1628=CARTESIAN_POINT('',(38.75,31.05,20.));
#1629=AXIS2_PLACEMENT_3D('',#1630,#1631,#1632);
#1630=CARTESIAN_POINT('',(38.75,31.05,22.));
#1631=DIRECTION('',(0.,1.,0.));
#1632=DIRECTION('',(1.,0.,3.82856869892695E-16));
#1633=CARTESIAN_POINT('',(38.75,-31.05,20.));
#1634=VECTOR('',#1635,1.);
#1635=DIRECTION('',(0.,1.,0.));
#1636=CARTESIAN_POINT('',(36.75,33.05,20.));
#1637=AXIS2_PLACEMENT_3D('',#1638,#1639,#1640);
#1638=CARTESIAN_POINT('',(36.75,31.05,20.));
#1639=DIRECTION('',(0.,0.,-1.));
#1640=DIRECTION('',(0.,1.,0.));
#1641=AXIS2_PLACEMENT_3D('',#1642,#1643,#1644);
#1642=CARTESIAN_POINT('',(36.75,33.05,22.));
#1643=DIRECTION('',(-1.,0.,0.));
#1644=DIRECTION('',(0.,1.,6.04901474817726E-16));
#1645=CARTESIAN_POINT('',(-36.75,33.05,20.));
#1646=CARTESIAN_POINT('',(36.75,33.05,20.));
#1647=VECTOR('',#1648,1.);
#1648=DIRECTION('',(-1.,0.,0.));
#1649=AXIS2_PLACEMENT_3D('',#1650,#1651,#1652);
#1650=CARTESIAN_POINT('',(-36.75,33.05,22.));
#1651=DIRECTION('',(-1.,0.,0.));
#1652=DIRECTION('',(0.,1.,3.82856869892695E-16));
#1653=AXIS2_PLACEMENT_3D('',#1654,#1655,#1656);
#1654=CARTESIAN_POINT('',(-36.75,31.05,20.));
#1655=DIRECTION('',(0.,0.,-1.));
#1656=DIRECTION('',(-1.,3.55271367880051E-15,0.));
#1657=CARTESIAN_POINT('',(-28.,6.85802207522518E-15,20.));
#1658=AXIS2_PLACEMENT_3D('',#1659,#1660,#1661);
#1659=CARTESIAN_POINT('',(0.,0.,20.));
#1660=DIRECTION('',(0.,0.,1.));
#1661=DIRECTION('',(-1.,1.22464679914735E-16,0.));
#1662=CARTESIAN_POINT('',(6.7674115265623E-15,17.5,0.));
#1663=AXIS2_PLACEMENT_3D('',#1664,#1665,#1666);
#1664=CARTESIAN_POINT('',(3.5527136788005E-15,-2.17540971751503E-31,0.));
#1665=DIRECTION('',(0.,0.,1.));
#1666=DIRECTION('',(6.12323399573677E-17,1.,0.));
#1667=CARTESIAN_POINT('',(-20.,4.89858719658941E-15,12.));
#1668=AXIS2_PLACEMENT_3D('',#1669,#1670,#1671);
#1669=CARTESIAN_POINT('',(0.,0.,12.));
#1670=DIRECTION('',(0.,0.,1.));
#1671=DIRECTION('',(-1.,1.22464679914735E-16,0.));
#1672=CARTESIAN_POINT('',(21.,-25.,-2.96059473233375E-16));
#1673=CARTESIAN_POINT('',(25.,-21.,-2.96059473233375E-16));
#1674=AXIS2_PLACEMENT_3D('',#1675,#1676,#1677);
#1675=CARTESIAN_POINT('',(21.,-21.,0.));
#1676=DIRECTION('',(0.,0.,-1.));
#1677=DIRECTION('',(1.,0.,0.));
#1678=CARTESIAN_POINT('',(-21.,-25.,-2.96059473233375E-16));
#1679=CARTESIAN_POINT('',(-21.,-25.,0.));
#1680=VECTOR('',#1681,1.);
#1681=DIRECTION('',(1.,-1.69176841847643E-16,0.));
#1682=CARTESIAN_POINT('',(-25.,-21.,-2.96059473233375E-16));
#1683=AXIS2_PLACEMENT_3D('',#1684,#1685,#1686);
#1684=CARTESIAN_POINT('',(-21.,-21.,0.));
#1685=DIRECTION('',(0.,0.,-1.));
#1686=DIRECTION('',(0.,-1.,0.));
#1687=CARTESIAN_POINT('',(-25.,21.,-2.96059473233375E-16));
#1688=CARTESIAN_POINT('',(-25.,21.,0.));
#1689=VECTOR('',#1690,1.);
#1690=DIRECTION('',(-1.69176841847643E-16,-1.,0.));
#1691=CARTESIAN_POINT('',(-21.,25.,-2.96059473233375E-16));
#1692=AXIS2_PLACEMENT_3D('',#1693,#1694,#1695);
#1693=CARTESIAN_POINT('',(-21.,21.,0.));
#1694=DIRECTION('',(0.,0.,-1.));
#1695=DIRECTION('',(-1.,0.,0.));
#1696=CARTESIAN_POINT('',(21.,25.,-2.96059473233375E-16));
#1697=CARTESIAN_POINT('',(21.,25.,0.));
#1698=VECTOR('',#1699,1.);
#1699=DIRECTION('',(-1.,1.69176841847643E-16,0.));
#1700=CARTESIAN_POINT('',(25.,21.,-2.96059473233375E-16));
#1701=AXIS2_PLACEMENT_3D('',#1702,#1703,#1704);
#1702=CARTESIAN_POINT('',(21.,21.,0.));
#1703=DIRECTION('',(0.,0.,-1.));
#1704=DIRECTION('',(8.88178419700128E-16,1.,0.));
#1705=CARTESIAN_POINT('',(25.,-21.,0.));
#1706=VECTOR('',#1707,1.);
#1707=DIRECTION('',(3.38353683695286E-16,1.,0.));
#1708=CARTESIAN_POINT('',(-22.1,-20.,0.));
#1709=AXIS2_PLACEMENT_3D('',#1710,#1711,#1712);
#1710=CARTESIAN_POINT('',(-20.,-20.,0.));
#1711=DIRECTION('',(0.,0.,1.));
#1712=DIRECTION('',(-1.,1.22464679914735E-16,0.));
#1713=CARTESIAN_POINT('',(-22.1,20.,0.));
#1714=AXIS2_PLACEMENT_3D('',#1715,#1716,#1717);
#1715=CARTESIAN_POINT('',(-20.,20.,0.));
#1716=DIRECTION('',(0.,0.,1.));
#1717=DIRECTION('',(-1.,1.22464679914735E-16,0.));
#1718=CARTESIAN_POINT('',(17.9,-20.,0.));
#1719=AXIS2_PLACEMENT_3D('',#1720,#1721,#1722);
#1720=CARTESIAN_POINT('',(20.,-20.,0.));
#1721=DIRECTION('',(0.,0.,1.));
#1722=DIRECTION('',(-1.,1.22464679914735E-16,0.));
#1723=CARTESIAN_POINT('',(17.9,20.,0.));
#1724=AXIS2_PLACEMENT_3D('',#1725,#1726,#1727);
#1725=CARTESIAN_POINT('',(20.,20.,0.));
#1726=DIRECTION('',(0.,0.,1.));
#1727=DIRECTION('',(-1.,1.22464679914735E-16,0.));
#1728=CARTESIAN_POINT('',(-20.,4.89858719658941E-15,8.));
#1729=AXIS2_PLACEMENT_3D('',#1730,#1731,#1732);
#1730=CARTESIAN_POINT('',(0.,0.,8.));
#1731=DIRECTION('',(0.,0.,1.));
#1732=DIRECTION('',(-1.,1.22464679914735E-16,0.));
#1733=CARTESIAN_POINT('',(21.,-25.,3.));
#1734=CARTESIAN_POINT('',(21.,-25.,-8.88178419700125E-16));
#1735=VECTOR('',#1736,1.);
#1736=DIRECTION('',(0.,0.,1.));
#1737=CARTESIAN_POINT('',(25.,-21.,3.));
#1738=CARTESIAN_POINT('',(25.,-21.,-8.88178419700125E-16));
#1739=VECTOR('',#1740,1.);
#1740=DIRECTION('',(0.,0.,1.));
#1741=AXIS2_PLACEMENT_3D('',#1742,#1743,#1744);
#1742=CARTESIAN_POINT('',(21.,-21.,3.));
#1743=DIRECTION('',(0.,0.,1.));
#1744=DIRECTION('',(6.12323399573677E-17,-1.,0.));
#1745=CARTESIAN_POINT('',(-21.,-25.,3.));
#1746=CARTESIAN_POINT('',(-21.,-25.,3.));
#1747=VECTOR('',#1748,1.);
#1748=DIRECTION('',(1.,-8.45884209238215E-17,0.));
#1749=CARTESIAN_POINT('',(-21.,-25.,-8.88178419700125E-16));
#1750=VECTOR('',#1751,1.);
#1751=DIRECTION('',(0.,0.,1.));
#1752=CARTESIAN_POINT('',(-25.,-21.,3.));
#1753=CARTESIAN_POINT('',(-25.,-21.,-8.88178419700125E-16));
#1754=VECTOR('',#1755,1.);
#1755=DIRECTION('',(0.,0.,1.));
#1756=AXIS2_PLACEMENT_3D('',#1757,#1758,#1759);
#1757=CARTESIAN_POINT('',(-21.,-21.,3.));
#1758=DIRECTION('',(0.,0.,1.));
#1759=DIRECTION('',(-1.,-6.12323399573677E-17,0.));
#1760=CARTESIAN_POINT('',(-25.,21.,3.));
#1761=CARTESIAN_POINT('',(-25.,21.,3.));
#1762=VECTOR('',#1763,1.);
#1763=DIRECTION('',(-1.69176841847643E-16,-1.,0.));
#1764=CARTESIAN_POINT('',(-25.,21.,-8.88178419700125E-16));
#1765=VECTOR('',#1766,1.);
#1766=DIRECTION('',(0.,0.,1.));
#1767=CARTESIAN_POINT('',(-21.,25.,3.));
#1768=CARTESIAN_POINT('',(-21.,25.,-8.88178419700125E-16));
#1769=VECTOR('',#1770,1.);
#1770=DIRECTION('',(0.,0.,1.));
#1771=AXIS2_PLACEMENT_3D('',#1772,#1773,#1774);
#1772=CARTESIAN_POINT('',(-21.,21.,3.));
#1773=DIRECTION('',(0.,0.,1.));
#1774=DIRECTION('',(-6.12323399573677E-17,1.,0.));
#1775=CARTESIAN_POINT('',(21.,25.,3.));
#1776=CARTESIAN_POINT('',(21.,25.,3.));
#1777=VECTOR('',#1778,1.);
#1778=DIRECTION('',(-1.,1.69176841847643E-16,0.));
#1779=CARTESIAN_POINT('',(21.,25.,-8.88178419700125E-16));
#1780=VECTOR('',#1781,1.);
#1781=DIRECTION('',(0.,0.,1.));
#1782=CARTESIAN_POINT('',(25.,21.,3.));
#1783=CARTESIAN_POINT('',(25.,21.,-8.88178419700125E-16));
#1784=VECTOR('',#1785,1.);
#1785=DIRECTION('',(0.,0.,1.));
#1786=AXIS2_PLACEMENT_3D('',#1787,#1788,#1789);
#1787=CARTESIAN_POINT('',(21.,21.,3.));
#1788=DIRECTION('',(0.,0.,1.));
#1789=DIRECTION('',(1.,-1.60812264967664E-16,0.));
#1790=CARTESIAN_POINT('',(25.,-21.,3.));
#1791=VECTOR('',#1792,1.);
#1792=DIRECTION('',(3.38353683695286E-16,1.,0.));
#1793=CARTESIAN_POINT('',(-22.1,-20.,5.));
#1794=AXIS2_PLACEMENT_3D('',#1795,#1796,#1797);
#1795=CARTESIAN_POINT('',(-20.,-20.,5.));
#1796=DIRECTION('',(0.,0.,1.));
#1797=DIRECTION('',(-1.,1.22464679914735E-16,0.));
#1798=CARTESIAN_POINT('',(-22.1,20.,5.));
#1799=AXIS2_PLACEMENT_3D('',#1800,#1801,#1802);
#1800=CARTESIAN_POINT('',(-20.,20.,5.));
#1801=DIRECTION('',(0.,0.,1.));
#1802=DIRECTION('',(-1.,1.22464679914735E-16,0.));
#1803=CARTESIAN_POINT('',(17.9,-20.,5.));
#1804=AXIS2_PLACEMENT_3D('',#1805,#1806,#1807);
#1805=CARTESIAN_POINT('',(20.,-20.,5.));
#1806=DIRECTION('',(0.,0.,1.));
#1807=DIRECTION('',(-1.,1.22464679914735E-16,0.));
#1808=CARTESIAN_POINT('',(17.9,20.,5.));
#1809=AXIS2_PLACEMENT_3D('',#1810,#1811,#1812);
#1810=CARTESIAN_POINT('',(20.,20.,5.));
#1811=DIRECTION('',(0.,0.,1.));
#1812=DIRECTION('',(-1.,1.22464679914735E-16,0.));
#1813=CARTESIAN_POINT('',(23.,-1.22361102908561E-14,5.));
#1814=CARTESIAN_POINT('',(6.44547750630868E-15,23.,5.));
#1815=AXIS2_PLACEMENT_3D('',#1816,#1817,#1818);
#1816=CARTESIAN_POINT('',(0.,0.,5.));
#1817=DIRECTION('',(0.,0.,1.));
#1818=DIRECTION('',(1.,-6.89018569679533E-16,0.));
#1819=CARTESIAN_POINT('',(-23.,5.71971953265473E-15,5.));
#1820=AXIS2_PLACEMENT_3D('',#1821,#1822,#1823);
#1821=CARTESIAN_POINT('',(0.,0.,5.));
#1822=DIRECTION('',(0.,0.,1.));
#1823=DIRECTION('',(3.06161699786838E-16,1.,0.));
#1824=CARTESIAN_POINT('',(-5.48122289713929E-15,-23.,5.));
#1825=AXIS2_PLACEMENT_3D('',#1826,#1827,#1828);
#1826=CARTESIAN_POINT('',(0.,0.,5.));
#1827=DIRECTION('',(0.,0.,1.));
#1828=DIRECTION('',(-1.,1.22464679914735E-16,0.));
#1829=AXIS2_PLACEMENT_3D('',#1830,#1831,#1832);
#1830=CARTESIAN_POINT('',(0.,0.,5.));
#1831=DIRECTION('',(0.,0.,1.));
#1832=DIRECTION('',(-1.83697019872103E-16,-1.,0.));
#1833=CARTESIAN_POINT('',(21.,-23.,5.));
#1834=AXIS2_PLACEMENT_3D('',#1835,#1836,#1837);
#1835=CARTESIAN_POINT('',(21.,-23.,3.));
#1836=DIRECTION('',(-1.,5.38289951333409E-17,1.02942035946727E-47));
#1837=DIRECTION('',(-5.38289951333409E-17,-1.,-1.60812264967664E-16));
#1838=CARTESIAN_POINT('',(23.,-21.,5.));
#1839=AXIS2_PLACEMENT_3D('',#1840,#1841,#1842);
#1840=CARTESIAN_POINT('',(23.,-21.,3.));
#1841=DIRECTION('',(-3.22973970800046E-16,-1.,0.));
#1842=DIRECTION('',(1.,-3.22973970800046E-16,-1.60812264967664E-16));
#1843=AXIS2_PLACEMENT_3D('',#1844,#1845,#1846);
#1844=CARTESIAN_POINT('',(21.,-21.,5.));
#1845=DIRECTION('',(0.,0.,1.));
#1846=DIRECTION('',(0.,-1.,0.));
#1847=CARTESIAN_POINT('',(-6.73741433722021E-15,-23.,5.));
#1848=VECTOR('',#1849,1.);
#1849=DIRECTION('',(1.,-1.69176841847643E-16,0.));
#1850=CARTESIAN_POINT('',(-21.,-23.,5.));
#1851=CARTESIAN_POINT('',(-21.,-23.,5.));
#1852=VECTOR('',#1853,1.);
#1853=DIRECTION('',(1.,0.,0.));
#1854=AXIS2_PLACEMENT_3D('',#1855,#1856,#1857);
#1855=CARTESIAN_POINT('',(-21.,-23.,3.));
#1856=DIRECTION('',(-1.,5.38289951333409E-17,1.02942035946727E-47));
#1857=DIRECTION('',(-5.38289951333409E-17,-1.,-1.60812264967664E-16));
#1858=CARTESIAN_POINT('',(-23.,-21.,5.));
#1859=AXIS2_PLACEMENT_3D('',#1860,#1861,#1862);
#1860=CARTESIAN_POINT('',(-23.,-21.,3.));
#1861=DIRECTION('',(1.07657990266682E-16,1.,0.));
#1862=DIRECTION('',(-1.,1.07657990266682E-16,-1.60812264967664E-16));
#1863=AXIS2_PLACEMENT_3D('',#1864,#1865,#1866);
#1864=CARTESIAN_POINT('',(-21.,-21.,5.));
#1865=DIRECTION('',(0.,0.,1.));
#1866=DIRECTION('',(-1.,0.,0.));
#1867=CARTESIAN_POINT('',(-23.,5.84923591752008E-15,5.));
#1868=VECTOR('',#1869,1.);
#1869=DIRECTION('',(-1.69176841847643E-16,-1.,0.));
#1870=CARTESIAN_POINT('',(-23.,21.,5.));
#1871=CARTESIAN_POINT('',(-23.,21.,5.));
#1872=VECTOR('',#1873,1.);
#1873=DIRECTION('',(-1.69176841847643E-16,-1.,0.));
#1874=AXIS2_PLACEMENT_3D('',#1875,#1876,#1877);
#1875=CARTESIAN_POINT('',(-23.,21.,3.));
#1876=DIRECTION('',(1.07657990266682E-16,1.,0.));
#1877=DIRECTION('',(-1.,1.07657990266682E-16,-1.60812264967664E-16));
#1878=CARTESIAN_POINT('',(-21.,23.,5.));
#1879=AXIS2_PLACEMENT_3D('',#1880,#1881,#1882);
#1880=CARTESIAN_POINT('',(-21.,23.,3.));
#1881=DIRECTION('',(1.,-1.07657990266682E-16,0.));
#1882=DIRECTION('',(1.07657990266682E-16,1.,-1.60812264967664E-16));
#1883=AXIS2_PLACEMENT_3D('',#1884,#1885,#1886);
#1884=CARTESIAN_POINT('',(-21.,21.,5.));
#1885=DIRECTION('',(0.,0.,1.));
#1886=DIRECTION('',(-1.77635683940025E-15,1.,0.));
#1887=CARTESIAN_POINT('',(5.84923591752008E-15,23.,5.));
#1888=VECTOR('',#1889,1.);
#1889=DIRECTION('',(-1.,1.69176841847643E-16,0.));
#1890=CARTESIAN_POINT('',(21.,23.,5.));
#1891=CARTESIAN_POINT('',(21.,23.,5.));
#1892=VECTOR('',#1893,1.);
#1893=DIRECTION('',(-1.,1.69176841847643E-16,0.));
#1894=AXIS2_PLACEMENT_3D('',#1895,#1896,#1897);
#1895=CARTESIAN_POINT('',(21.,23.,3.));
#1896=DIRECTION('',(1.,-1.07657990266682E-16,0.));
#1897=DIRECTION('',(1.07657990266682E-16,1.,-1.60812264967664E-16));
#1898=CARTESIAN_POINT('',(23.,21.,5.));
#1899=AXIS2_PLACEMENT_3D('',#1900,#1901,#1902);
#1900=CARTESIAN_POINT('',(23.,21.,3.));
#1901=DIRECTION('',(-3.22973970800046E-16,-1.,0.));
#1902=DIRECTION('',(1.,-3.22973970800046E-16,-1.60812264967664E-16));
#1903=AXIS2_PLACEMENT_3D('',#1904,#1905,#1906);
#1904=CARTESIAN_POINT('',(21.,21.,5.));
#1905=DIRECTION('',(0.,0.,1.));
#1906=DIRECTION('',(1.,0.,0.));
#1907=CARTESIAN_POINT('',(23.,-1.11783064357208E-14,5.));
#1908=VECTOR('',#1909,1.);
#1909=DIRECTION('',(3.38353683695286E-16,1.,0.));
#1910=CARTESIAN_POINT('',(23.,-21.,5.));
#1911=VECTOR('',#1912,1.);
#1912=DIRECTION('',(1.69176841847643E-16,1.,0.));
ENDSEC;
END-ISO-10303-21;
