ISO-10303-21;
HEADER;
FILE_DESCRIPTION(('STEP AP203'),
    '1');
FILE_NAME('Установочный калибратор',
    '',
    ('UNSPECIFIED'),
    ('UNSPECIFIED'),
    'C3D Converter',
    'C3D Toolkit',
    '');
FILE_SCHEMA(('CONFIG_CONTROL_DESIGN'));
ENDSEC;

DATA;
#1=PRODUCT_DEFINITION('','UNSPECIFIED',#28,#31);
#2=SHAPE_DEFINITION_REPRESENTATION(#26,#3);
#3=SHAPE_REPRESENTATION('NONE',(#4),#8);
#4=AXIS2_PLACEMENT_3D('',#5,#6,#7);
#5=CARTESIAN_POINT('',(0.,0.,0.));
#6=DIRECTION('',(0.,0.,1.));
#7=DIRECTION('',(1.,0.,0.));
#8=(GEOMETRIC_REPRESENTATION_CONTEXT(3)GLOBAL_UNCERTAINTY_ASSIGNED_CONTEXT((#10))
GLOBAL_UNIT_ASSIGNED_CONTEXT((#9,#11,#12))REPRESENTATION_CONTEXT('NONE','NONE'));
#9=(LENGTH_UNIT()NAMED_UNIT(*)SI_UNIT(.MILLI.,.METRE.));
#10=UNCERTAINTY_MEASURE_WITH_UNIT(LENGTH_MEASURE(1.E-5),#9,'NONE','NONE');
#11=(NAMED_UNIT(*)PLANE_ANGLE_UNIT()SI_UNIT($,.RADIAN.));
#12=(NAMED_UNIT(*)SI_UNIT($,.STERADIAN.)SOLID_ANGLE_UNIT());
#13=MANIFOLD_SOLID_BREP('',#14);
#14=CLOSED_SHELL('',(#53,#54,#55,#56,#57,#58,#59,#60,#61,#62,#63,#64,#65,#66,#67,
#68,#69,#70,#71,#72,#73,#74,#75,#76,#77,#78,#79,#80,#81,#82));
#15=COLOUR_RGB('',0.298039215686275,0.6,0.);
#16=FILL_AREA_STYLE_COLOUR('',#15);
#17=FILL_AREA_STYLE($,(#16));
#18=SURFACE_STYLE_FILL_AREA(#17);
#19=SURFACE_SIDE_STYLE('',(#18));
#20=SURFACE_STYLE_USAGE(.BOTH.,#19);
#21=PRESENTATION_STYLE_ASSIGNMENT((#20));
#22=MECHANICAL_DESIGN_GEOMETRIC_PRESENTATION_REPRESENTATION('NONE',(#23),#8);
#23=STYLED_ITEM('',(#21),#13);
#24=ADVANCED_BREP_SHAPE_REPRESENTATION('NONE',(#13),#8);
#25=SHAPE_REPRESENTATION_RELATIONSHIP('','',#3,#24);
#26=PRODUCT_DEFINITION_SHAPE('NONE','NONE',#1);
#27=MECHANICAL_CONTEXT('NONE',#32,'mechanical');
#28=PRODUCT_DEFINITION_FORMATION_WITH_SPECIFIED_SOURCE('ANY','UNSPECIFIED',#29,.NOT_KNOWN.);
#29=PRODUCT('','\X2\0414043504420430043B044C\X0\','NONE',(#27));
#30=PRODUCT_RELATED_PRODUCT_CATEGORY('detail','',(#29));
#31=DESIGN_CONTEXT('detailed design',#32,'design');
#32=APPLICATION_CONTEXT('configuration controlled 3d designs of mechanical parts and assemblies');
#33=APPLICATION_PROTOCOL_DEFINITION('international standard','config_control_design',
1994,#32);
#34=CC_DESIGN_DATE_AND_TIME_ASSIGNMENT(#35,#39,(#1));
#35=DATE_AND_TIME(#36,#37);
#36=CALENDAR_DATE(0,1,1);
#37=LOCAL_TIME(0,0,0.,#38);
#38=COORDINATED_UNIVERSAL_TIME_OFFSET(0,0,.AHEAD.);
#39=DATE_TIME_ROLE('creation_date');
#40=CC_DESIGN_APPROVAL(#41,(#1));
#41=APPROVAL(#42,'UNSPECIFIED');
#42=APPROVAL_STATUS('not_yet_approved');
#43=APPROVAL_DATE_TIME(#44,#41);
#44=DATE_AND_TIME(#45,#46);
#45=CALENDAR_DATE(0,1,1);
#46=LOCAL_TIME(0,0,0.,#47);
#47=COORDINATED_UNIVERSAL_TIME_OFFSET(0,0,.AHEAD.);
#48=PERSON('UNSPECIFIED','SEVER','UNSPECIFIED',('UNSPECIFIED'),('UNSPECIFIED'),(
'UNSPECIFIED'));
#49=ORGANIZATION('UNSPECIFIED','UNSPECIFIED','UNSPECIFIED');
#50=PERSON_AND_ORGANIZATION(#48,#49);
#51=PERSON_AND_ORGANIZATION_ROLE('creator');
#52=CC_DESIGN_PERSON_AND_ORGANIZATION_ASSIGNMENT(#50,#51,(#28,#1));
#53=ADVANCED_FACE('',(#83),#85,.T.);
#54=ADVANCED_FACE('',(#90),#92,.T.);
#55=ADVANCED_FACE('',(#97),#99,.T.);
#56=ADVANCED_FACE('',(#104),#106,.T.);
#57=ADVANCED_FACE('',(#111),#113,.F.);
#58=ADVANCED_FACE('',(#118),#120,.T.);
#59=ADVANCED_FACE('',(#125),#127,.T.);
#60=ADVANCED_FACE('',(#132),#134,.T.);
#61=ADVANCED_FACE('',(#139),#141,.T.);
#62=ADVANCED_FACE('',(#146),#148,.T.);
#63=ADVANCED_FACE('',(#153),#155,.T.);
#64=ADVANCED_FACE('',(#160),#162,.T.);
#65=ADVANCED_FACE('',(#167),#169,.T.);
#66=ADVANCED_FACE('',(#174),#176,.T.);
#67=ADVANCED_FACE('',(#181),#183,.F.);
#68=ADVANCED_FACE('',(#188),#190,.F.);
#69=ADVANCED_FACE('',(#195),#197,.T.);
#70=ADVANCED_FACE('',(#202),#204,.F.);
#71=ADVANCED_FACE('',(#209),#211,.T.);
#72=ADVANCED_FACE('',(#216),#218,.T.);
#73=ADVANCED_FACE('',(#223),#225,.T.);
#74=ADVANCED_FACE('',(#230),#232,.T.);
#75=ADVANCED_FACE('',(#237),#239,.T.);
#76=ADVANCED_FACE('',(#244),#246,.T.);
#77=ADVANCED_FACE('',(#251),#253,.T.);
#78=ADVANCED_FACE('',(#258),#260,.T.);
#79=ADVANCED_FACE('',(#265),#267,.T.);
#80=ADVANCED_FACE('',(#272),#274,.T.);
#81=ADVANCED_FACE('',(#279),#281,.T.);
#82=ADVANCED_FACE('',(#286),#288,.T.);
#83=FACE_BOUND('',#84,.T.);
#84=EDGE_LOOP('',(#293,#294,#295,#296,#297,#298,#299,#300,#301,#302,#303,#304));
#85=PLANE('',#86);
#86=AXIS2_PLACEMENT_3D('',#87,#88,#89);
#87=CARTESIAN_POINT('',(-5.625,-1.51550041394485E-15,24.75));
#88=DIRECTION('',(0.,0.,1.));
#89=DIRECTION('',(1.,0.,0.));
#90=FACE_BOUND('',#91,.T.);
#91=EDGE_LOOP('',(#305,#306,#307,#308,#309,#310,#311,#312,#313,#314,#315,#316));
#92=PLANE('',#93);
#93=AXIS2_PLACEMENT_3D('',#94,#95,#96);
#94=CARTESIAN_POINT('',(5.625,1.51550041394485E-15,-24.75));
#95=DIRECTION('',(0.,0.,-1.));
#96=DIRECTION('',(-1.,0.,0.));
#97=FACE_BOUND('',#98,.T.);
#98=EDGE_LOOP('',(#317,#318,#319,#320));
#99=PLANE('',#100);
#100=AXIS2_PLACEMENT_3D('',#101,#102,#103);
#101=CARTESIAN_POINT('',(0.,1.,6.12323399573677E-17));
#102=DIRECTION('',(0.,1.,6.12323399573677E-17));
#103=DIRECTION('',(6.12323399573677E-17,6.12323399573677E-17,-1.));
#104=FACE_BOUND('',#105,.T.);
#105=EDGE_LOOP('',(#321,#322,#323,#324));
#106=PLANE('',#107);
#107=AXIS2_PLACEMENT_3D('',#108,#109,#110);
#108=CARTESIAN_POINT('',(0.,1.,6.12323399573677E-17));
#109=DIRECTION('',(0.,1.,6.12323399573677E-17));
#110=DIRECTION('',(6.12323399573677E-17,6.12323399573677E-17,-1.));
#111=FACE_BOUND('',#112,.T.);
#112=EDGE_LOOP('',(#325,#326,#327,#328));
#113=PLANE('',#114);
#114=AXIS2_PLACEMENT_3D('',#115,#116,#117);
#115=CARTESIAN_POINT('',(0.,0.,0.));
#116=DIRECTION('',(0.,1.,6.12323399573677E-17));
#117=DIRECTION('',(6.12323399573677E-17,6.12323399573677E-17,-1.));
#118=FACE_BOUND('',#119,.T.);
#119=EDGE_LOOP('',(#329,#330,#331,#332));
#120=PLANE('',#121);
#121=AXIS2_PLACEMENT_3D('',#122,#123,#124);
#122=CARTESIAN_POINT('',(5.625,-1.51550041394485E-15,24.75));
#123=DIRECTION('',(1.,0.,7.17719935111212E-17));
#124=DIRECTION('',(7.17719935111212E-17,6.12323399573677E-17,-1.));
#125=FACE_BOUND('',#126,.T.);
#126=EDGE_LOOP('',(#333,#334,#335,#336));
#127=PLANE('',#128);
#128=AXIS2_PLACEMENT_3D('',#129,#130,#131);
#129=CARTESIAN_POINT('',(0.,1.3,7.96020419445779E-17));
#130=DIRECTION('',(0.,1.,6.12323399573677E-17));
#131=DIRECTION('',(6.12323399573677E-17,6.12323399573677E-17,-1.));
#132=FACE_BOUND('',#133,.T.);
#133=EDGE_LOOP('',(#337,#338,#339,#340));
#134=PLANE('',#135);
#135=AXIS2_PLACEMENT_3D('',#136,#137,#138);
#136=CARTESIAN_POINT('',(-2.625,0.999999999999998,24.75));
#137=DIRECTION('',(1.,0.,5.38289951333409E-17));
#138=DIRECTION('',(5.38289951333409E-17,6.28004943222311E-17,-1.));
#139=FACE_BOUND('',#140,.T.);
#140=EDGE_LOOP('',(#341,#342,#343,#344));
#141=PLANE('',#142);
#142=AXIS2_PLACEMENT_3D('',#143,#144,#145);
#143=CARTESIAN_POINT('',(-2.325,0.,1.61486985400023E-17));
#144=DIRECTION('',(1.,0.,5.38289951333409E-17));
#145=DIRECTION('',(5.38289951333409E-17,-1.22464679914735E-16,-1.));
#146=FACE_BOUND('',#147,.T.);
#147=EDGE_LOOP('',(#345,#346,#347,#348));
#148=PLANE('',#149);
#149=AXIS2_PLACEMENT_3D('',#150,#151,#152);
#150=CARTESIAN_POINT('',(-2.625,0.999999999999998,24.75));
#151=DIRECTION('',(1.,0.,5.38289951333409E-17));
#152=DIRECTION('',(5.38289951333409E-17,6.28004943222311E-17,-1.));
#153=FACE_BOUND('',#154,.T.);
#154=EDGE_LOOP('',(#349,#350,#351,#352));
#155=PLANE('',#156);
#156=AXIS2_PLACEMENT_3D('',#157,#158,#159);
#157=CARTESIAN_POINT('',(-2.325,0.,1.61486985400023E-17));
#158=DIRECTION('',(1.,0.,5.38289951333409E-17));
#159=DIRECTION('',(5.38289951333409E-17,-1.22464679914735E-16,-1.));
#160=FACE_BOUND('',#161,.T.);
#161=EDGE_LOOP('',(#353,#354,#355,#356));
#162=PLANE('',#163);
#163=AXIS2_PLACEMENT_3D('',#164,#165,#166);
#164=CARTESIAN_POINT('',(-2.625,0.999999999999998,24.75));
#165=DIRECTION('',(1.,0.,5.38289951333409E-17));
#166=DIRECTION('',(5.38289951333409E-17,6.28004943222311E-17,-1.));
#167=FACE_BOUND('',#168,.T.);
#168=EDGE_LOOP('',(#357,#358,#359,#360,#361,#362,#363,#364));
#169=PLANE('',#170);
#170=AXIS2_PLACEMENT_3D('',#171,#172,#173);
#171=CARTESIAN_POINT('',(0.,29.,1.77573785876366E-15));
#172=DIRECTION('',(0.,1.,6.12323399573677E-17));
#173=DIRECTION('',(6.12323399573677E-17,6.12323399573677E-17,-1.));
#174=FACE_BOUND('',#175,.T.);
#175=EDGE_LOOP('',(#365,#366,#367,#368,#369,#370,#371,#372));
#176=PLANE('',#177);
#177=AXIS2_PLACEMENT_3D('',#178,#179,#180);
#178=CARTESIAN_POINT('',(-5.625,1.51550041394485E-15,-24.75));
#179=DIRECTION('',(-1.,0.,-7.17719935111212E-17));
#180=DIRECTION('',(-7.17719935111212E-17,-6.12323399573677E-17,1.));
#181=FACE_BOUND('',#182,.T.);
#182=EDGE_LOOP('',(#373,#374,#375,#376));
#183=PLANE('',#184);
#184=AXIS2_PLACEMENT_3D('',#185,#186,#187);
#185=CARTESIAN_POINT('',(-4.625,9.,20.));
#186=DIRECTION('',(0.,0.,1.));
#187=DIRECTION('',(0.,1.,0.));
#188=FACE_BOUND('',#189,.T.);
#189=EDGE_LOOP('',(#377,#378,#379,#380));
#190=PLANE('',#191);
#191=AXIS2_PLACEMENT_3D('',#192,#193,#194);
#192=CARTESIAN_POINT('',(-4.625,29.,-20.));
#193=DIRECTION('',(0.,0.,-1.));
#194=DIRECTION('',(0.,-1.,0.));
#195=FACE_BOUND('',#196,.T.);
#196=EDGE_LOOP('',(#381,#382,#383,#384));
#197=PLANE('',#198);
#198=AXIS2_PLACEMENT_3D('',#199,#200,#201);
#199=CARTESIAN_POINT('',(-4.625,0.,7.17719935111212E-17));
#200=DIRECTION('',(-1.,0.,-7.17719935111212E-17));
#201=DIRECTION('',(4.39476710609096E-33,1.,-6.12323399573677E-17));
#202=FACE_BOUND('',#203,.T.);
#203=EDGE_LOOP('',(#385,#386,#387,#388));
#204=PLANE('',#205);
#205=AXIS2_PLACEMENT_3D('',#206,#207,#208);
#206=CARTESIAN_POINT('',(-4.625,9.,-20.));
#207=DIRECTION('',(0.,-1.,8.88178419700125E-17));
#208=DIRECTION('',(-8.88178419700125E-17,8.88178419700125E-17,1.));
#209=FACE_BOUND('',#210,.T.);
#210=EDGE_LOOP('',(#389,#390,#391,#392));
#211=CYLINDRICAL_SURFACE('',#212,0.3);
#212=AXIS2_PLACEMENT_3D('',#213,#214,#215);
#213=CARTESIAN_POINT('',(3.425,1.,-25.95));
#214=DIRECTION('',(-5.133979304625E-17,-6.41747413078125E-17,1.));
#215=DIRECTION('',(-3.29471793753973E-33,1.,6.41747413078125E-17));
#216=FACE_BOUND('',#217,.T.);
#217=EDGE_LOOP('',(#393,#394,#395,#396));
#218=CYLINDRICAL_SURFACE('',#219,0.3);
#219=AXIS2_PLACEMENT_3D('',#220,#221,#222);
#220=CARTESIAN_POINT('',(1.925,0.999999999999999,24.45));
#221=DIRECTION('',(1.,0.,-1.0449157878825E-15));
#222=DIRECTION('',(1.24902976659994E-29,1.,1.1842378929335E-14));
#223=FACE_BOUND('',#224,.T.);
#224=EDGE_LOOP('',(#397,#398,#399,#400));
#225=CYLINDRICAL_SURFACE('',#226,0.3);
#226=AXIS2_PLACEMENT_3D('',#227,#228,#229);
#227=CARTESIAN_POINT('',(3.825,0.999999999999998,25.95));
#228=DIRECTION('',(8.556632174375E-17,6.41747413078125E-17,-1.));
#229=DIRECTION('',(-1.48029736616687E-15,1.,6.41747413078124E-17));
#230=FACE_BOUND('',#231,.T.);
#231=EDGE_LOOP('',(#401,#402,#403,#404));
#232=CYLINDRICAL_SURFACE('',#233,0.3);
#233=AXIS2_PLACEMENT_3D('',#234,#235,#236);
#234=CARTESIAN_POINT('',(5.325,1.,-24.45));
#235=DIRECTION('',(-1.,6.53072367426563E-17,-1.0449157878825E-15));
#236=DIRECTION('',(6.53072367426439E-17,1.,1.1842378929335E-14));
#237=FACE_BOUND('',#238,.T.);
#238=EDGE_LOOP('',(#405,#406,#407,#408));
#239=CYLINDRICAL_SURFACE('',#240,0.3);
#240=AXIS2_PLACEMENT_3D('',#241,#242,#243);
#241=CARTESIAN_POINT('',(-2.625,6.7,-25.95));
#242=DIRECTION('',(-5.133979304625E-17,1.026795860925E-16,1.));
#243=DIRECTION('',(1.,5.27154870006356E-33,5.133979304625E-17));
#244=FACE_BOUND('',#245,.T.);
#245=EDGE_LOOP('',(#409,#410,#411,#412));
#246=CYLINDRICAL_SURFACE('',#247,0.3);
#247=AXIS2_PLACEMENT_3D('',#248,#249,#250);
#248=CARTESIAN_POINT('',(-2.625,8.2,24.45));
#249=DIRECTION('',(1.30614473485313E-16,-1.,1.0449157878825E-15));
#250=DIRECTION('',(1.,1.306144734853E-16,-1.1842378929335E-14));
#251=FACE_BOUND('',#252,.T.);
#252=EDGE_LOOP('',(#413,#414,#415,#416));
#253=CYLINDRICAL_SURFACE('',#254,0.3);
#254=AXIS2_PLACEMENT_3D('',#255,#256,#257);
#255=CARTESIAN_POINT('',(-2.625,6.30000000000001,25.95));
#256=DIRECTION('',(5.133979304625E-17,-1.3690611479E-16,-1.));
#257=DIRECTION('',(1.,7.02873160008475E-33,5.133979304625E-17));
#258=FACE_BOUND('',#259,.T.);
#259=EDGE_LOOP('',(#417,#418,#419,#420));
#260=CYLINDRICAL_SURFACE('',#261,0.3);
#261=AXIS2_PLACEMENT_3D('',#262,#263,#264);
#262=CARTESIAN_POINT('',(-2.625,4.8,-24.45));
#263=DIRECTION('',(2.61228946970625E-16,1.,1.0449157878825E-15));
#264=DIRECTION('',(1.,-2.61228946970613E-16,-1.1842378929335E-14));
#265=FACE_BOUND('',#266,.T.);
#266=EDGE_LOOP('',(#421,#422,#423,#424));
#267=CYLINDRICAL_SURFACE('',#268,0.3);
#268=AXIS2_PLACEMENT_3D('',#269,#270,#271);
#269=CARTESIAN_POINT('',(-2.625,23.7,-25.95));
#270=DIRECTION('',(-5.133979304625E-17,1.3690611479E-16,1.));
#271=DIRECTION('',(1.,-1.1842378929335E-14,5.13397930462516E-17));
#272=FACE_BOUND('',#273,.T.);
#273=EDGE_LOOP('',(#425,#426,#427,#428));
#274=CYLINDRICAL_SURFACE('',#275,0.3);
#275=AXIS2_PLACEMENT_3D('',#276,#277,#278);
#276=CARTESIAN_POINT('',(-2.625,25.2,24.45));
#277=DIRECTION('',(0.,-1.,0.));
#278=DIRECTION('',(1.,0.,1.1842378929335E-14));
#279=FACE_BOUND('',#280,.T.);
#280=EDGE_LOOP('',(#429,#430,#431,#432));
#281=CYLINDRICAL_SURFACE('',#282,0.3);
#282=AXIS2_PLACEMENT_3D('',#283,#284,#285);
#283=CARTESIAN_POINT('',(-2.625,23.3,25.95));
#284=DIRECTION('',(5.133979304625E-17,-1.3690611479E-16,-1.));
#285=DIRECTION('',(1.,7.02873160008475E-33,5.133979304625E-17));
#286=FACE_BOUND('',#287,.T.);
#287=EDGE_LOOP('',(#433,#434,#435,#436));
#288=CYLINDRICAL_SURFACE('',#289,0.3);
#289=AXIS2_PLACEMENT_3D('',#290,#291,#292);
#290=CARTESIAN_POINT('',(-2.625,21.8,-24.45));
#291=DIRECTION('',(2.61228946970625E-16,1.,1.0449157878825E-15));
#292=DIRECTION('',(1.,-2.61228946970625E-16,1.21013264584077E-29));
#293=ORIENTED_EDGE('',*,*,#437,.F.);
#294=ORIENTED_EDGE('',*,*,#438,.T.);
#295=ORIENTED_EDGE('',*,*,#439,.F.);
#296=ORIENTED_EDGE('',*,*,#440,.F.);
#297=ORIENTED_EDGE('',*,*,#441,.T.);
#298=ORIENTED_EDGE('',*,*,#442,.T.);
#299=ORIENTED_EDGE('',*,*,#443,.F.);
#300=ORIENTED_EDGE('',*,*,#444,.F.);
#301=ORIENTED_EDGE('',*,*,#445,.F.);
#302=ORIENTED_EDGE('',*,*,#446,.T.);
#303=ORIENTED_EDGE('',*,*,#447,.F.);
#304=ORIENTED_EDGE('',*,*,#448,.T.);
#305=ORIENTED_EDGE('',*,*,#449,.F.);
#306=ORIENTED_EDGE('',*,*,#450,.F.);
#307=ORIENTED_EDGE('',*,*,#451,.F.);
#308=ORIENTED_EDGE('',*,*,#452,.F.);
#309=ORIENTED_EDGE('',*,*,#453,.F.);
#310=ORIENTED_EDGE('',*,*,#454,.F.);
#311=ORIENTED_EDGE('',*,*,#455,.F.);
#312=ORIENTED_EDGE('',*,*,#456,.F.);
#313=ORIENTED_EDGE('',*,*,#457,.T.);
#314=ORIENTED_EDGE('',*,*,#458,.T.);
#315=ORIENTED_EDGE('',*,*,#459,.F.);
#316=ORIENTED_EDGE('',*,*,#460,.F.);
#317=ORIENTED_EDGE('',*,*,#461,.F.);
#318=ORIENTED_EDGE('',*,*,#443,.T.);
#319=ORIENTED_EDGE('',*,*,#462,.T.);
#320=ORIENTED_EDGE('',*,*,#455,.T.);
#321=ORIENTED_EDGE('',*,*,#463,.F.);
#322=ORIENTED_EDGE('',*,*,#453,.T.);
#323=ORIENTED_EDGE('',*,*,#464,.F.);
#324=ORIENTED_EDGE('',*,*,#445,.T.);
#325=ORIENTED_EDGE('',*,*,#465,.F.);
#326=ORIENTED_EDGE('',*,*,#441,.F.);
#327=ORIENTED_EDGE('',*,*,#466,.F.);
#328=ORIENTED_EDGE('',*,*,#457,.F.);
#329=ORIENTED_EDGE('',*,*,#465,.T.);
#330=ORIENTED_EDGE('',*,*,#456,.T.);
#331=ORIENTED_EDGE('',*,*,#462,.F.);
#332=ORIENTED_EDGE('',*,*,#442,.F.);
#333=ORIENTED_EDGE('',*,*,#467,.T.);
#334=ORIENTED_EDGE('',*,*,#468,.T.);
#335=ORIENTED_EDGE('',*,*,#469,.T.);
#336=ORIENTED_EDGE('',*,*,#470,.T.);
#337=ORIENTED_EDGE('',*,*,#471,.F.);
#338=ORIENTED_EDGE('',*,*,#446,.F.);
#339=ORIENTED_EDGE('',*,*,#464,.T.);
#340=ORIENTED_EDGE('',*,*,#452,.T.);
#341=ORIENTED_EDGE('',*,*,#472,.T.);
#342=ORIENTED_EDGE('',*,*,#473,.T.);
#343=ORIENTED_EDGE('',*,*,#474,.T.);
#344=ORIENTED_EDGE('',*,*,#475,.T.);
#345=ORIENTED_EDGE('',*,*,#476,.F.);
#346=ORIENTED_EDGE('',*,*,#448,.F.);
#347=ORIENTED_EDGE('',*,*,#477,.F.);
#348=ORIENTED_EDGE('',*,*,#450,.T.);
#349=ORIENTED_EDGE('',*,*,#478,.T.);
#350=ORIENTED_EDGE('',*,*,#479,.T.);
#351=ORIENTED_EDGE('',*,*,#480,.T.);
#352=ORIENTED_EDGE('',*,*,#481,.T.);
#353=ORIENTED_EDGE('',*,*,#482,.F.);
#354=ORIENTED_EDGE('',*,*,#460,.T.);
#355=ORIENTED_EDGE('',*,*,#483,.F.);
#356=ORIENTED_EDGE('',*,*,#438,.F.);
#357=ORIENTED_EDGE('',*,*,#484,.T.);
#358=ORIENTED_EDGE('',*,*,#485,.T.);
#359=ORIENTED_EDGE('',*,*,#439,.T.);
#360=ORIENTED_EDGE('',*,*,#483,.T.);
#361=ORIENTED_EDGE('',*,*,#459,.T.);
#362=ORIENTED_EDGE('',*,*,#486,.T.);
#363=ORIENTED_EDGE('',*,*,#487,.T.);
#364=ORIENTED_EDGE('',*,*,#488,.T.);
#365=ORIENTED_EDGE('',*,*,#489,.T.);
#366=ORIENTED_EDGE('',*,*,#490,.T.);
#367=ORIENTED_EDGE('',*,*,#486,.F.);
#368=ORIENTED_EDGE('',*,*,#458,.F.);
#369=ORIENTED_EDGE('',*,*,#466,.T.);
#370=ORIENTED_EDGE('',*,*,#440,.T.);
#371=ORIENTED_EDGE('',*,*,#485,.F.);
#372=ORIENTED_EDGE('',*,*,#491,.T.);
#373=ORIENTED_EDGE('',*,*,#491,.F.);
#374=ORIENTED_EDGE('',*,*,#484,.F.);
#375=ORIENTED_EDGE('',*,*,#492,.F.);
#376=ORIENTED_EDGE('',*,*,#493,.T.);
#377=ORIENTED_EDGE('',*,*,#490,.F.);
#378=ORIENTED_EDGE('',*,*,#494,.F.);
#379=ORIENTED_EDGE('',*,*,#495,.F.);
#380=ORIENTED_EDGE('',*,*,#487,.F.);
#381=ORIENTED_EDGE('',*,*,#488,.F.);
#382=ORIENTED_EDGE('',*,*,#495,.T.);
#383=ORIENTED_EDGE('',*,*,#496,.T.);
#384=ORIENTED_EDGE('',*,*,#492,.T.);
#385=ORIENTED_EDGE('',*,*,#489,.F.);
#386=ORIENTED_EDGE('',*,*,#493,.F.);
#387=ORIENTED_EDGE('',*,*,#496,.F.);
#388=ORIENTED_EDGE('',*,*,#494,.T.);
#389=ORIENTED_EDGE('',*,*,#463,.T.);
#390=ORIENTED_EDGE('',*,*,#497,.T.);
#391=ORIENTED_EDGE('',*,*,#467,.F.);
#392=ORIENTED_EDGE('',*,*,#498,.F.);
#393=ORIENTED_EDGE('',*,*,#444,.T.);
#394=ORIENTED_EDGE('',*,*,#499,.T.);
#395=ORIENTED_EDGE('',*,*,#468,.F.);
#396=ORIENTED_EDGE('',*,*,#497,.F.);
#397=ORIENTED_EDGE('',*,*,#461,.T.);
#398=ORIENTED_EDGE('',*,*,#500,.T.);
#399=ORIENTED_EDGE('',*,*,#469,.F.);
#400=ORIENTED_EDGE('',*,*,#499,.F.);
#401=ORIENTED_EDGE('',*,*,#454,.T.);
#402=ORIENTED_EDGE('',*,*,#498,.T.);
#403=ORIENTED_EDGE('',*,*,#470,.F.);
#404=ORIENTED_EDGE('',*,*,#500,.F.);
#405=ORIENTED_EDGE('',*,*,#477,.T.);
#406=ORIENTED_EDGE('',*,*,#501,.T.);
#407=ORIENTED_EDGE('',*,*,#472,.F.);
#408=ORIENTED_EDGE('',*,*,#502,.F.);
#409=ORIENTED_EDGE('',*,*,#447,.T.);
#410=ORIENTED_EDGE('',*,*,#503,.T.);
#411=ORIENTED_EDGE('',*,*,#473,.F.);
#412=ORIENTED_EDGE('',*,*,#501,.F.);
#413=ORIENTED_EDGE('',*,*,#471,.T.);
#414=ORIENTED_EDGE('',*,*,#504,.T.);
#415=ORIENTED_EDGE('',*,*,#474,.F.);
#416=ORIENTED_EDGE('',*,*,#503,.F.);
#417=ORIENTED_EDGE('',*,*,#451,.T.);
#418=ORIENTED_EDGE('',*,*,#502,.T.);
#419=ORIENTED_EDGE('',*,*,#475,.F.);
#420=ORIENTED_EDGE('',*,*,#504,.F.);
#421=ORIENTED_EDGE('',*,*,#482,.T.);
#422=ORIENTED_EDGE('',*,*,#505,.T.);
#423=ORIENTED_EDGE('',*,*,#478,.F.);
#424=ORIENTED_EDGE('',*,*,#506,.F.);
#425=ORIENTED_EDGE('',*,*,#437,.T.);
#426=ORIENTED_EDGE('',*,*,#507,.T.);
#427=ORIENTED_EDGE('',*,*,#479,.F.);
#428=ORIENTED_EDGE('',*,*,#505,.F.);
#429=ORIENTED_EDGE('',*,*,#476,.T.);
#430=ORIENTED_EDGE('',*,*,#508,.T.);
#431=ORIENTED_EDGE('',*,*,#480,.F.);
#432=ORIENTED_EDGE('',*,*,#507,.F.);
#433=ORIENTED_EDGE('',*,*,#449,.T.);
#434=ORIENTED_EDGE('',*,*,#506,.T.);
#435=ORIENTED_EDGE('',*,*,#481,.F.);
#436=ORIENTED_EDGE('',*,*,#508,.F.);
#437=EDGE_CURVE('',#509,#510,#511,.T.);
#438=EDGE_CURVE('',#509,#512,#513,.T.);
#439=EDGE_CURVE('',#514,#512,#515,.T.);
#440=EDGE_CURVE('',#516,#514,#517,.T.);
#441=EDGE_CURVE('',#516,#518,#519,.T.);
#442=EDGE_CURVE('',#518,#520,#521,.T.);
#443=EDGE_CURVE('',#522,#520,#523,.T.);
#444=EDGE_CURVE('',#524,#522,#525,.T.);
#445=EDGE_CURVE('',#526,#524,#527,.T.);
#446=EDGE_CURVE('',#526,#528,#529,.T.);
#447=EDGE_CURVE('',#530,#528,#531,.T.);
#448=EDGE_CURVE('',#530,#510,#532,.T.);
#449=EDGE_CURVE('',#533,#534,#535,.T.);
#450=EDGE_CURVE('',#536,#533,#537,.T.);
#451=EDGE_CURVE('',#538,#536,#539,.T.);
#452=EDGE_CURVE('',#540,#538,#541,.T.);
#453=EDGE_CURVE('',#542,#540,#543,.T.);
#454=EDGE_CURVE('',#544,#542,#545,.T.);
#455=EDGE_CURVE('',#546,#544,#547,.T.);
#456=EDGE_CURVE('',#548,#546,#549,.T.);
#457=EDGE_CURVE('',#548,#550,#551,.T.);
#458=EDGE_CURVE('',#550,#552,#553,.T.);
#459=EDGE_CURVE('',#554,#552,#555,.T.);
#460=EDGE_CURVE('',#534,#554,#556,.T.);
#461=EDGE_CURVE('',#522,#544,#557,.T.);
#462=EDGE_CURVE('',#520,#546,#558,.T.);
#463=EDGE_CURVE('',#542,#524,#559,.T.);
#464=EDGE_CURVE('',#526,#540,#560,.T.);
#465=EDGE_CURVE('',#518,#548,#561,.T.);
#466=EDGE_CURVE('',#550,#516,#562,.T.);
#467=EDGE_CURVE('',#563,#564,#565,.T.);
#468=EDGE_CURVE('',#564,#566,#567,.T.);
#469=EDGE_CURVE('',#566,#568,#569,.T.);
#470=EDGE_CURVE('',#568,#563,#570,.T.);
#471=EDGE_CURVE('',#528,#538,#571,.T.);
#472=EDGE_CURVE('',#572,#573,#574,.T.);
#473=EDGE_CURVE('',#573,#575,#576,.T.);
#474=EDGE_CURVE('',#575,#577,#578,.T.);
#475=EDGE_CURVE('',#577,#572,#579,.T.);
#476=EDGE_CURVE('',#510,#533,#580,.T.);
#477=EDGE_CURVE('',#536,#530,#581,.T.);
#478=EDGE_CURVE('',#582,#583,#584,.T.);
#479=EDGE_CURVE('',#583,#585,#586,.T.);
#480=EDGE_CURVE('',#585,#587,#588,.T.);
#481=EDGE_CURVE('',#587,#582,#589,.T.);
#482=EDGE_CURVE('',#534,#509,#590,.T.);
#483=EDGE_CURVE('',#512,#554,#591,.T.);
#484=EDGE_CURVE('',#592,#593,#594,.F.);
#485=EDGE_CURVE('',#593,#514,#595,.T.);
#486=EDGE_CURVE('',#552,#596,#597,.T.);
#487=EDGE_CURVE('',#596,#598,#599,.F.);
#488=EDGE_CURVE('',#598,#592,#600,.T.);
#489=EDGE_CURVE('',#601,#602,#603,.F.);
#490=EDGE_CURVE('',#602,#596,#604,.F.);
#491=EDGE_CURVE('',#593,#601,#605,.F.);
#492=EDGE_CURVE('',#606,#592,#607,.T.);
#493=EDGE_CURVE('',#606,#601,#608,.T.);
#494=EDGE_CURVE('',#609,#602,#610,.T.);
#495=EDGE_CURVE('',#598,#609,#611,.T.);
#496=EDGE_CURVE('',#609,#606,#612,.T.);
#497=EDGE_CURVE('',#524,#564,#613,.T.);
#498=EDGE_CURVE('',#542,#563,#614,.T.);
#499=EDGE_CURVE('',#522,#566,#615,.T.);
#500=EDGE_CURVE('',#544,#568,#616,.T.);
#501=EDGE_CURVE('',#530,#573,#617,.T.);
#502=EDGE_CURVE('',#536,#572,#618,.T.);
#503=EDGE_CURVE('',#528,#575,#619,.T.);
#504=EDGE_CURVE('',#538,#577,#620,.T.);
#505=EDGE_CURVE('',#509,#583,#621,.T.);
#506=EDGE_CURVE('',#534,#582,#622,.T.);
#507=EDGE_CURVE('',#510,#585,#623,.T.);
#508=EDGE_CURVE('',#533,#587,#624,.T.);
#509=VERTEX_POINT('',#625);
#510=VERTEX_POINT('',#626);
#511=LINE('',#627,#628);
#512=VERTEX_POINT('',#630);
#513=LINE('',#631,#632);
#514=VERTEX_POINT('',#634);
#515=LINE('',#635,#636);
#516=VERTEX_POINT('',#638);
#517=LINE('',#639,#640);
#518=VERTEX_POINT('',#642);
#519=LINE('',#643,#644);
#520=VERTEX_POINT('',#646);
#521=LINE('',#647,#648);
#522=VERTEX_POINT('',#650);
#523=LINE('',#651,#652);
#524=VERTEX_POINT('',#654);
#525=LINE('',#655,#656);
#526=VERTEX_POINT('',#658);
#527=LINE('',#659,#660);
#528=VERTEX_POINT('',#662);
#529=LINE('',#663,#664);
#530=VERTEX_POINT('',#666);
#531=LINE('',#667,#668);
#532=LINE('',#670,#671);
#533=VERTEX_POINT('',#673);
#534=VERTEX_POINT('',#674);
#535=LINE('',#675,#676);
#536=VERTEX_POINT('',#678);
#537=LINE('',#679,#680);
#538=VERTEX_POINT('',#682);
#539=LINE('',#683,#684);
#540=VERTEX_POINT('',#686);
#541=LINE('',#687,#688);
#542=VERTEX_POINT('',#690);
#543=LINE('',#691,#692);
#544=VERTEX_POINT('',#694);
#545=LINE('',#695,#696);
#546=VERTEX_POINT('',#698);
#547=LINE('',#699,#700);
#548=VERTEX_POINT('',#702);
#549=LINE('',#703,#704);
#550=VERTEX_POINT('',#706);
#551=LINE('',#707,#708);
#552=VERTEX_POINT('',#710);
#553=LINE('',#711,#712);
#554=VERTEX_POINT('',#714);
#555=LINE('',#715,#716);
#556=LINE('',#718,#719);
#557=LINE('',#721,#722);
#558=LINE('',#724,#725);
#559=LINE('',#727,#728);
#560=LINE('',#730,#731);
#561=LINE('',#733,#734);
#562=LINE('',#736,#737);
#563=VERTEX_POINT('',#739);
#564=VERTEX_POINT('',#740);
#565=LINE('',#741,#742);
#566=VERTEX_POINT('',#744);
#567=LINE('',#745,#746);
#568=VERTEX_POINT('',#748);
#569=LINE('',#749,#750);
#570=LINE('',#752,#753);
#571=LINE('',#755,#756);
#572=VERTEX_POINT('',#758);
#573=VERTEX_POINT('',#759);
#574=LINE('',#760,#761);
#575=VERTEX_POINT('',#763);
#576=LINE('',#764,#765);
#577=VERTEX_POINT('',#767);
#578=LINE('',#768,#769);
#579=LINE('',#771,#772);
#580=LINE('',#774,#775);
#581=LINE('',#777,#778);
#582=VERTEX_POINT('',#780);
#583=VERTEX_POINT('',#781);
#584=LINE('',#782,#783);
#585=VERTEX_POINT('',#785);
#586=LINE('',#786,#787);
#587=VERTEX_POINT('',#789);
#588=LINE('',#790,#791);
#589=LINE('',#793,#794);
#590=LINE('',#796,#797);
#591=LINE('',#799,#800);
#592=VERTEX_POINT('',#802);
#593=VERTEX_POINT('',#803);
#594=LINE('',#804,#805);
#595=LINE('',#807,#808);
#596=VERTEX_POINT('',#810);
#597=LINE('',#811,#812);
#598=VERTEX_POINT('',#814);
#599=LINE('',#815,#816);
#600=LINE('',#818,#819);
#601=VERTEX_POINT('',#821);
#602=VERTEX_POINT('',#822);
#603=LINE('',#823,#824);
#604=LINE('',#826,#827);
#605=LINE('',#829,#830);
#606=VERTEX_POINT('',#832);
#607=LINE('',#833,#834);
#608=LINE('',#836,#837);
#609=VERTEX_POINT('',#839);
#610=LINE('',#840,#841);
#611=LINE('',#843,#844);
#612=LINE('',#846,#847);
#613=(BOUNDED_CURVE()B_SPLINE_CURVE(3,
(#849,#850,#851,#852),
.UNSPECIFIED.,.F.,.F.)B_SPLINE_CURVE_WITH_KNOTS((4,4),
(0.,1.),
.UNSPECIFIED.)CURVE()GEOMETRIC_REPRESENTATION_ITEM()RATIONAL_B_SPLINE_CURVE((1.,
0.804737854124365,0.804737854124365,1.))REPRESENTATION_ITEM(''));
#614=(BOUNDED_CURVE()B_SPLINE_CURVE(3,
(#853,#854,#855,#856),
.UNSPECIFIED.,.F.,.F.)B_SPLINE_CURVE_WITH_KNOTS((4,4),
(0.,1.),
.UNSPECIFIED.)CURVE()GEOMETRIC_REPRESENTATION_ITEM()RATIONAL_B_SPLINE_CURVE((1.,
0.804737854124365,0.804737854124365,1.))REPRESENTATION_ITEM(''));
#615=(BOUNDED_CURVE()B_SPLINE_CURVE(3,
(#857,#858,#859,#860),
.UNSPECIFIED.,.F.,.F.)B_SPLINE_CURVE_WITH_KNOTS((4,4),
(0.,1.),
.UNSPECIFIED.)CURVE()GEOMETRIC_REPRESENTATION_ITEM()RATIONAL_B_SPLINE_CURVE((1.,
0.804737854124365,0.804737854124365,1.))REPRESENTATION_ITEM(''));
#616=(BOUNDED_CURVE()B_SPLINE_CURVE(3,
(#861,#862,#863,#864),
.UNSPECIFIED.,.F.,.F.)B_SPLINE_CURVE_WITH_KNOTS((4,4),
(0.,1.),
.UNSPECIFIED.)CURVE()GEOMETRIC_REPRESENTATION_ITEM()RATIONAL_B_SPLINE_CURVE((1.,
0.804737854124365,0.804737854124365,1.))REPRESENTATION_ITEM(''));
#617=(BOUNDED_CURVE()B_SPLINE_CURVE(3,
(#865,#866,#867,#868),
.UNSPECIFIED.,.F.,.F.)B_SPLINE_CURVE_WITH_KNOTS((4,4),
(0.,1.),
.UNSPECIFIED.)CURVE()GEOMETRIC_REPRESENTATION_ITEM()RATIONAL_B_SPLINE_CURVE((1.,
0.804737854124365,0.804737854124365,1.))REPRESENTATION_ITEM(''));
#618=(BOUNDED_CURVE()B_SPLINE_CURVE(3,
(#869,#870,#871,#872),
.UNSPECIFIED.,.F.,.F.)B_SPLINE_CURVE_WITH_KNOTS((4,4),
(0.,1.),
.UNSPECIFIED.)CURVE()GEOMETRIC_REPRESENTATION_ITEM()RATIONAL_B_SPLINE_CURVE((1.,
0.804737854124365,0.804737854124365,1.))REPRESENTATION_ITEM(''));
#619=(BOUNDED_CURVE()B_SPLINE_CURVE(3,
(#873,#874,#875,#876),
.UNSPECIFIED.,.F.,.F.)B_SPLINE_CURVE_WITH_KNOTS((4,4),
(0.,1.),
.UNSPECIFIED.)CURVE()GEOMETRIC_REPRESENTATION_ITEM()RATIONAL_B_SPLINE_CURVE((1.,
0.804737854124365,0.804737854124365,1.))REPRESENTATION_ITEM(''));
#620=(BOUNDED_CURVE()B_SPLINE_CURVE(3,
(#877,#878,#879,#880),
.UNSPECIFIED.,.F.,.F.)B_SPLINE_CURVE_WITH_KNOTS((4,4),
(0.,1.),
.UNSPECIFIED.)CURVE()GEOMETRIC_REPRESENTATION_ITEM()RATIONAL_B_SPLINE_CURVE((1.,
0.804737854124365,0.804737854124365,1.))REPRESENTATION_ITEM(''));
#621=(BOUNDED_CURVE()B_SPLINE_CURVE(3,
(#881,#882,#883,#884),
.UNSPECIFIED.,.F.,.F.)B_SPLINE_CURVE_WITH_KNOTS((4,4),
(0.,1.),
.UNSPECIFIED.)CURVE()GEOMETRIC_REPRESENTATION_ITEM()RATIONAL_B_SPLINE_CURVE((1.,
0.804737854124365,0.804737854124365,1.))REPRESENTATION_ITEM(''));
#622=(BOUNDED_CURVE()B_SPLINE_CURVE(3,
(#885,#886,#887,#888),
.UNSPECIFIED.,.F.,.F.)B_SPLINE_CURVE_WITH_KNOTS((4,4),
(0.,1.),
.UNSPECIFIED.)CURVE()GEOMETRIC_REPRESENTATION_ITEM()RATIONAL_B_SPLINE_CURVE((1.,
0.804737854124365,0.804737854124365,1.))REPRESENTATION_ITEM(''));
#623=(BOUNDED_CURVE()B_SPLINE_CURVE(3,
(#889,#890,#891,#892),
.UNSPECIFIED.,.F.,.F.)B_SPLINE_CURVE_WITH_KNOTS((4,4),
(0.,1.),
.UNSPECIFIED.)CURVE()GEOMETRIC_REPRESENTATION_ITEM()RATIONAL_B_SPLINE_CURVE((1.,
0.804737854124365,0.804737854124365,1.))REPRESENTATION_ITEM(''));
#624=(BOUNDED_CURVE()B_SPLINE_CURVE(3,
(#893,#894,#895,#896),
.UNSPECIFIED.,.F.,.F.)B_SPLINE_CURVE_WITH_KNOTS((4,4),
(0.,1.),
.UNSPECIFIED.)CURVE()GEOMETRIC_REPRESENTATION_ITEM()RATIONAL_B_SPLINE_CURVE((1.,
0.804737854124365,0.804737854124365,1.))REPRESENTATION_ITEM(''));
#625=CARTESIAN_POINT('',(-2.625,24.,24.75));
#626=CARTESIAN_POINT('',(-2.625,23.,24.75));
#627=CARTESIAN_POINT('',(-2.625,24.,24.75));
#628=VECTOR('',#629,1.);
#629=DIRECTION('',(0.,-1.,0.));
#630=CARTESIAN_POINT('',(-2.625,29.,24.75));
#631=CARTESIAN_POINT('',(-2.625,24.,24.75));
#632=VECTOR('',#633,1.);
#633=DIRECTION('',(0.,1.,0.));
#634=CARTESIAN_POINT('',(-5.625,29.,24.75));
#635=CARTESIAN_POINT('',(-5.625,29.,24.75));
#636=VECTOR('',#637,1.);
#637=DIRECTION('',(1.,0.,0.));
#638=CARTESIAN_POINT('',(-5.625,-1.51550041394485E-15,24.75));
#639=CARTESIAN_POINT('',(-5.625,-1.51550041394485E-15,24.75));
#640=VECTOR('',#641,1.);
#641=DIRECTION('',(0.,1.,0.));
#642=CARTESIAN_POINT('',(5.625,-1.51550041394485E-15,24.75));
#643=CARTESIAN_POINT('',(-5.625,-1.51550041394485E-15,24.75));
#644=VECTOR('',#645,1.);
#645=DIRECTION('',(1.,0.,0.));
#646=CARTESIAN_POINT('',(5.625,0.999999999999998,24.75));
#647=CARTESIAN_POINT('',(5.625,-1.51550041394485E-15,24.75));
#648=VECTOR('',#649,1.);
#649=DIRECTION('',(0.,1.,0.));
#650=CARTESIAN_POINT('',(4.125,0.999999999999998,24.75));
#651=CARTESIAN_POINT('',(4.125,0.999999999999998,24.75));
#652=VECTOR('',#653,1.);
#653=DIRECTION('',(1.,0.,0.));
#654=CARTESIAN_POINT('',(3.125,0.999999999999998,24.75));
#655=CARTESIAN_POINT('',(3.125,0.999999999999997,24.75));
#656=VECTOR('',#657,1.);
#657=DIRECTION('',(1.,0.,0.));
#658=CARTESIAN_POINT('',(-2.625,0.999999999999998,24.75));
#659=CARTESIAN_POINT('',(-2.625,0.999999999999998,24.75));
#660=VECTOR('',#661,1.);
#661=DIRECTION('',(1.,0.,0.));
#662=CARTESIAN_POINT('',(-2.625,6.00000000000001,24.75));
#663=CARTESIAN_POINT('',(-2.625,0.999999999999998,24.75));
#664=VECTOR('',#665,1.);
#665=DIRECTION('',(0.,1.,0.));
#666=CARTESIAN_POINT('',(-2.625,7.00000000000001,24.75));
#667=CARTESIAN_POINT('',(-2.625,7.00000000000001,24.75));
#668=VECTOR('',#669,1.);
#669=DIRECTION('',(0.,-1.,0.));
#670=CARTESIAN_POINT('',(-2.625,7.00000000000001,24.75));
#671=VECTOR('',#672,1.);
#672=DIRECTION('',(0.,1.,0.));
#673=CARTESIAN_POINT('',(-2.625,23.,-24.75));
#674=CARTESIAN_POINT('',(-2.625,24.,-24.75));
#675=CARTESIAN_POINT('',(-2.625,23.,-24.75));
#676=VECTOR('',#677,1.);
#677=DIRECTION('',(8.88178419700125E-16,1.,0.));
#678=CARTESIAN_POINT('',(-2.625,7.,-24.75));
#679=CARTESIAN_POINT('',(-2.625,7.,-24.75));
#680=VECTOR('',#681,1.);
#681=DIRECTION('',(0.,1.,0.));
#682=CARTESIAN_POINT('',(-2.625,6.,-24.75));
#683=CARTESIAN_POINT('',(-2.625,6.,-24.75));
#684=VECTOR('',#685,1.);
#685=DIRECTION('',(0.,1.,0.));
#686=CARTESIAN_POINT('',(-2.625,1.,-24.75));
#687=CARTESIAN_POINT('',(-2.625,1.,-24.75));
#688=VECTOR('',#689,1.);
#689=DIRECTION('',(0.,1.,0.));
#690=CARTESIAN_POINT('',(3.125,1.,-24.75));
#691=CARTESIAN_POINT('',(3.125,1.,-24.75));
#692=VECTOR('',#693,1.);
#693=DIRECTION('',(-1.,0.,0.));
#694=CARTESIAN_POINT('',(4.125,1.,-24.75));
#695=CARTESIAN_POINT('',(4.125,1.,-24.75));
#696=VECTOR('',#697,1.);
#697=DIRECTION('',(-1.,2.22044604925031E-16,0.));
#698=CARTESIAN_POINT('',(5.625,1.,-24.75));
#699=CARTESIAN_POINT('',(5.625,1.,-24.75));
#700=VECTOR('',#701,1.);
#701=DIRECTION('',(-1.,0.,0.));
#702=CARTESIAN_POINT('',(5.625,1.51550041394485E-15,-24.75));
#703=CARTESIAN_POINT('',(5.625,1.51550041394485E-15,-24.75));
#704=VECTOR('',#705,1.);
#705=DIRECTION('',(0.,1.,0.));
#706=CARTESIAN_POINT('',(-5.625,1.51550041394485E-15,-24.75));
#707=CARTESIAN_POINT('',(5.625,1.51550041394485E-15,-24.75));
#708=VECTOR('',#709,1.);
#709=DIRECTION('',(-1.,0.,0.));
#710=CARTESIAN_POINT('',(-5.625,29.,-24.75));
#711=CARTESIAN_POINT('',(-5.625,1.51550041394485E-15,-24.75));
#712=VECTOR('',#713,1.);
#713=DIRECTION('',(0.,1.,0.));
#714=CARTESIAN_POINT('',(-2.625,29.,-24.75));
#715=CARTESIAN_POINT('',(-2.625,29.,-24.75));
#716=VECTOR('',#717,1.);
#717=DIRECTION('',(-1.,0.,0.));
#718=CARTESIAN_POINT('',(-2.625,24.,-24.75));
#719=VECTOR('',#720,1.);
#720=DIRECTION('',(0.,1.,0.));
#721=CARTESIAN_POINT('',(4.125,0.999999999999999,24.75));
#722=VECTOR('',#723,1.);
#723=DIRECTION('',(8.97149918889015E-17,6.28004943222311E-17,-1.));
#724=CARTESIAN_POINT('',(5.625,0.999999999999998,24.75));
#725=VECTOR('',#726,1.);
#726=DIRECTION('',(7.17719935111212E-17,6.28004943222311E-17,-1.));
#727=CARTESIAN_POINT('',(3.125,1.,-24.75));
#728=VECTOR('',#729,1.);
#729=DIRECTION('',(-4.48574959444508E-17,-6.28004943222311E-17,1.));
#730=CARTESIAN_POINT('',(-2.625,0.999999999999998,24.75));
#731=VECTOR('',#732,1.);
#732=DIRECTION('',(4.48574959444508E-17,6.28004943222311E-17,-1.));
#733=CARTESIAN_POINT('',(5.625,-1.51550041394485E-15,24.75));
#734=VECTOR('',#735,1.);
#735=DIRECTION('',(7.17719935111212E-17,6.12323399573677E-17,-1.));
#736=CARTESIAN_POINT('',(-5.625,1.51550041394485E-15,-24.75));
#737=VECTOR('',#738,1.);
#738=DIRECTION('',(-7.17719935111212E-17,-6.12323399573677E-17,1.));
#739=CARTESIAN_POINT('',(3.425,1.3,-24.45));
#740=CARTESIAN_POINT('',(3.425,1.3,24.45));
#741=CARTESIAN_POINT('',(3.425,1.3,-24.45));
#742=VECTOR('',#743,1.);
#743=DIRECTION('',(-4.54078946676956E-17,-6.35710525347738E-17,1.));
#744=CARTESIAN_POINT('',(3.825,1.3,24.45));
#745=CARTESIAN_POINT('',(3.425,1.3,24.45));
#746=VECTOR('',#747,1.);
#747=DIRECTION('',(1.,0.,-8.88178419700128E-15));
#748=CARTESIAN_POINT('',(3.825,1.3,-24.45));
#749=CARTESIAN_POINT('',(3.825,1.3,24.45));
#750=VECTOR('',#751,1.);
#751=DIRECTION('',(8.1734210401852E-17,6.35710525347738E-17,-1.));
#752=CARTESIAN_POINT('',(3.825,1.3,-24.45));
#753=VECTOR('',#754,1.);
#754=DIRECTION('',(-1.,0.,0.));
#755=CARTESIAN_POINT('',(-2.625,6.00000000000001,24.75));
#756=VECTOR('',#757,1.);
#757=DIRECTION('',(5.38289951333409E-17,-1.43543987022242E-16,-1.));
#758=CARTESIAN_POINT('',(-2.325,6.7,-24.45));
#759=CARTESIAN_POINT('',(-2.325,6.7,24.45));
#760=CARTESIAN_POINT('',(-2.325,6.7,-24.45));
#761=VECTOR('',#762,1.);
#762=DIRECTION('',(-4.54078946676956E-17,1.08978947202469E-16,1.));
#763=CARTESIAN_POINT('',(-2.325,6.30000000000001,24.45));
#764=CARTESIAN_POINT('',(-2.325,6.7,24.45));
#765=VECTOR('',#766,1.);
#766=DIRECTION('',(0.,-1.,8.88178419700128E-15));
#767=CARTESIAN_POINT('',(-2.325,6.3,-24.45));
#768=CARTESIAN_POINT('',(-2.325,6.30000000000001,24.45));
#769=VECTOR('',#770,1.);
#770=DIRECTION('',(4.54078946676956E-17,-1.27142105069548E-16,-1.));
#771=CARTESIAN_POINT('',(-2.325,6.3,-24.45));
#772=VECTOR('',#773,1.);
#773=DIRECTION('',(0.,1.,8.88178419700124E-15));
#774=CARTESIAN_POINT('',(-2.625,23.,24.75));
#775=VECTOR('',#776,1.);
#776=DIRECTION('',(5.38289951333409E-17,-2.15315980533364E-16,-1.));
#777=CARTESIAN_POINT('',(-2.625,7.,-24.75));
#778=VECTOR('',#779,1.);
#779=DIRECTION('',(-5.38289951333409E-17,7.17719935111212E-17,1.));
#780=CARTESIAN_POINT('',(-2.325,23.7,-24.45));
#781=CARTESIAN_POINT('',(-2.325,23.7,24.45));
#782=CARTESIAN_POINT('',(-2.325,23.7,-24.45));
#783=VECTOR('',#784,1.);
#784=DIRECTION('',(-4.54078946676956E-17,1.45305262936626E-16,1.));
#785=CARTESIAN_POINT('',(-2.325,23.3,24.45));
#786=CARTESIAN_POINT('',(-2.325,23.7,24.45));
#787=VECTOR('',#788,1.);
#788=DIRECTION('',(0.,-1.,-8.88178419700113E-15));
#789=CARTESIAN_POINT('',(-2.325,23.3,-24.45));
#790=CARTESIAN_POINT('',(-2.325,23.3,24.45));
#791=VECTOR('',#792,1.);
#792=DIRECTION('',(4.54078946676955E-17,-1.45305262936626E-16,-1.));
#793=CARTESIAN_POINT('',(-2.325,23.3,-24.45));
#794=VECTOR('',#795,1.);
#795=DIRECTION('',(0.,1.,8.88178419700128E-15));
#796=CARTESIAN_POINT('',(-2.625,24.,-24.75));
#797=VECTOR('',#798,1.);
#798=DIRECTION('',(-5.38289951333409E-17,1.43543987022242E-16,1.));
#799=CARTESIAN_POINT('',(-2.625,29.,24.75));
#800=VECTOR('',#801,1.);
#801=DIRECTION('',(5.38289951333409E-17,0.,-1.));
#802=CARTESIAN_POINT('',(-4.625,29.,20.));
#803=CARTESIAN_POINT('',(-5.625,29.,20.));
#804=CARTESIAN_POINT('',(-5.625,29.,20.));
#805=VECTOR('',#806,1.);
#806=DIRECTION('',(1.,0.,0.));
#807=CARTESIAN_POINT('',(-5.625,29.,20.));
#808=VECTOR('',#809,1.);
#809=DIRECTION('',(0.,0.,1.));
#810=CARTESIAN_POINT('',(-5.625,29.,-20.));
#811=CARTESIAN_POINT('',(-5.625,29.,-24.75));
#812=VECTOR('',#813,1.);
#813=DIRECTION('',(0.,0.,1.));
#814=CARTESIAN_POINT('',(-4.625,29.,-20.));
#815=CARTESIAN_POINT('',(-4.625,29.,-20.));
#816=VECTOR('',#817,1.);
#817=DIRECTION('',(-1.,0.,0.));
#818=CARTESIAN_POINT('',(-4.625,29.,-20.));
#819=VECTOR('',#820,1.);
#820=DIRECTION('',(-8.88178419700125E-17,0.,1.));
#821=CARTESIAN_POINT('',(-5.625,9.,20.));
#822=CARTESIAN_POINT('',(-5.625,9.,-20.));
#823=CARTESIAN_POINT('',(-5.625,9.,-20.));
#824=VECTOR('',#825,1.);
#825=DIRECTION('',(-8.88178419700125E-17,8.88178419700125E-17,1.));
#826=CARTESIAN_POINT('',(-5.625,29.,-20.));
#827=VECTOR('',#828,1.);
#828=DIRECTION('',(0.,-1.,0.));
#829=CARTESIAN_POINT('',(-5.625,9.,20.));
#830=VECTOR('',#831,1.);
#831=DIRECTION('',(0.,1.,0.));
#832=CARTESIAN_POINT('',(-4.625,9.,20.));
#833=CARTESIAN_POINT('',(-4.625,9.,20.));
#834=VECTOR('',#835,1.);
#835=DIRECTION('',(0.,1.,0.));
#836=CARTESIAN_POINT('',(-4.625,9.,20.));
#837=VECTOR('',#838,1.);
#838=DIRECTION('',(-1.,0.,0.));
#839=CARTESIAN_POINT('',(-4.625,9.,-20.));
#840=CARTESIAN_POINT('',(-4.625,9.,-20.));
#841=VECTOR('',#842,1.);
#842=DIRECTION('',(-1.,0.,0.));
#843=CARTESIAN_POINT('',(-4.625,29.,-20.));
#844=VECTOR('',#845,1.);
#845=DIRECTION('',(0.,-1.,0.));
#846=CARTESIAN_POINT('',(-4.625,9.,-20.));
#847=VECTOR('',#848,1.);
#848=DIRECTION('',(-8.88178419700125E-17,8.88178419700125E-17,1.));
#849=CARTESIAN_POINT('',(3.125,0.999999999999998,24.75));
#850=CARTESIAN_POINT('',(3.125,1.17573593128807,24.75));
#851=CARTESIAN_POINT('',(3.24926406871193,1.3,24.6257359312881));
#852=CARTESIAN_POINT('',(3.425,1.3,24.45));
#853=CARTESIAN_POINT('',(3.125,1.00000000000001,-24.75));
#854=CARTESIAN_POINT('',(3.125,1.17573593128808,-24.75));
#855=CARTESIAN_POINT('',(3.24926406871193,1.3,-24.6257359312881));
#856=CARTESIAN_POINT('',(3.425,1.3,-24.45));
#857=CARTESIAN_POINT('',(4.125,0.999999999999995,24.75));
#858=CARTESIAN_POINT('',(4.125,1.17573593128807,24.75));
#859=CARTESIAN_POINT('',(4.00073593128807,1.3,24.6257359312881));
#860=CARTESIAN_POINT('',(3.825,1.3,24.45));
#861=CARTESIAN_POINT('',(4.125,1.,-24.75));
#862=CARTESIAN_POINT('',(4.125,1.17573593128807,-24.75));
#863=CARTESIAN_POINT('',(4.00073593128807,1.3,-24.625735931288));
#864=CARTESIAN_POINT('',(3.825,1.3,-24.45));
#865=CARTESIAN_POINT('',(-2.625,7.,24.75));
#866=CARTESIAN_POINT('',(-2.44926406871193,7.,24.75));
#867=CARTESIAN_POINT('',(-2.325,6.87573593128808,24.6257359312881));
#868=CARTESIAN_POINT('',(-2.325,6.7,24.45));
#869=CARTESIAN_POINT('',(-2.625,7.,-24.75));
#870=CARTESIAN_POINT('',(-2.44926406871193,7.,-24.75));
#871=CARTESIAN_POINT('',(-2.325,6.87573593128808,-24.6257359312881));
#872=CARTESIAN_POINT('',(-2.325,6.7,-24.45));
#873=CARTESIAN_POINT('',(-2.625,6.00000000000001,24.75));
#874=CARTESIAN_POINT('',(-2.44926406871193,6.00000000000001,24.75));
#875=CARTESIAN_POINT('',(-2.325,6.12426406871194,24.6257359312881));
#876=CARTESIAN_POINT('',(-2.325,6.30000000000001,24.45));
#877=CARTESIAN_POINT('',(-2.625,6.,-24.75));
#878=CARTESIAN_POINT('',(-2.44926406871193,6.,-24.75));
#879=CARTESIAN_POINT('',(-2.325,6.12426406871193,-24.6257359312881));
#880=CARTESIAN_POINT('',(-2.325,6.3,-24.45));
#881=CARTESIAN_POINT('',(-2.625,24.,24.75));
#882=CARTESIAN_POINT('',(-2.44926406871193,24.,24.75));
#883=CARTESIAN_POINT('',(-2.325,23.8757359312881,24.6257359312881));
#884=CARTESIAN_POINT('',(-2.325,23.7,24.45));
#885=CARTESIAN_POINT('',(-2.625,24.,-24.75));
#886=CARTESIAN_POINT('',(-2.44926406871193,24.,-24.75));
#887=CARTESIAN_POINT('',(-2.325,23.8757359312881,-24.6257359312881));
#888=CARTESIAN_POINT('',(-2.325,23.7,-24.45));
#889=CARTESIAN_POINT('',(-2.625,23.,24.75));
#890=CARTESIAN_POINT('',(-2.44926406871193,23.,24.75));
#891=CARTESIAN_POINT('',(-2.325,23.1242640687119,24.6257359312881));
#892=CARTESIAN_POINT('',(-2.325,23.3,24.45));
#893=CARTESIAN_POINT('',(-2.625,23.,-24.75));
#894=CARTESIAN_POINT('',(-2.44926406871193,23.,-24.75));
#895=CARTESIAN_POINT('',(-2.325,23.1242640687119,-24.6257359312881));
#896=CARTESIAN_POINT('',(-2.325,23.3,-24.45));
ENDSEC;
END-ISO-10303-21;
